<svg width="39" height="38" viewBox="0 0 39 38" fill="none" xmlns="http://www.w3.org/2000/svg">
<path d="M19.5 27C21.6217 27 23.6566 26.1571 25.1569 24.6569C26.6571 23.1566 27.5 21.1217 27.5 19C27.5 16.8783 26.6571 14.8434 25.1569 13.3431C23.6566 11.8429 21.6217 11 19.5 11C17.3783 11 15.3434 11.8429 13.8431 13.3431C12.3429 14.8434 11.5 16.8783 11.5 19C11.5 21.1217 12.3429 23.1566 13.8431 24.6569C15.3434 26.1571 17.3783 27 19.5 27Z" stroke="#343434" stroke-width="2" stroke-linecap="round" stroke-linejoin="round"/>
<path d="M1.5 27V11C1.5 8.34784 2.55357 5.8043 4.42893 3.92893C6.3043 2.05357 8.84784 1 11.5 1H27.5C30.1522 1 32.6957 2.05357 34.5711 3.92893C36.4464 5.8043 37.5 8.34784 37.5 11V27C37.5 29.6522 36.4464 32.1957 34.5711 34.0711C32.6957 35.9464 30.1522 37 27.5 37H11.5C8.84784 37 6.3043 35.9464 4.42893 34.0711C2.55357 32.1957 1.5 29.6522 1.5 27Z" stroke="#343434" stroke-width="2"/>
<path d="M30.5 8.02005L30.52 7.99805" stroke="#343434" stroke-width="2" stroke-linecap="round" stroke-linejoin="round"/>
</svg>
