<svg width="333" height="332" viewBox="0 0 333 332" fill="none" xmlns="http://www.w3.org/2000/svg">
<path d="M30.2384 212.672C30.2384 212.672 47.9871 259.491 98.0527 276.994C148.118 294.497 203.297 277.273 248.362 264.504C293.428 251.735 318.647 214.512 310.745 174.731C302.844 134.951 265.374 135.867 232.313 99.208C199.253 62.5486 196.013 47.768 148.284 35.0324C100.556 22.2969 45.7096 60.2578 29.6208 117.123C13.5321 173.988 30.2384 212.672 30.2384 212.672Z" fill="#1E4646"/>
<path opacity="0.7" d="M30.2384 212.672C30.2384 212.672 47.9871 259.491 98.0527 276.994C148.118 294.497 203.297 277.273 248.362 264.504C293.428 251.735 318.647 214.512 310.745 174.731C302.844 134.951 265.374 135.867 232.313 99.208C199.253 62.5486 196.013 47.768 148.284 35.0324C100.556 22.2969 45.7096 60.2578 29.6208 117.123C13.5321 173.988 30.2384 212.672 30.2384 212.672Z" fill="white"/>
<path d="M135.183 55.5307C133.514 57.3392 132.34 59.5489 131.777 61.945C130.545 60.2809 128.746 59.1252 126.721 58.6959C124.695 58.2666 122.582 58.5932 120.781 59.6143C120.448 55.6389 118.695 51.9164 115.842 49.128C112.989 46.3396 109.227 44.6718 105.245 44.43C101.263 44.1881 97.3276 45.3883 94.1582 47.8109C90.9887 50.2335 88.7977 53.7165 87.9861 57.6223C86.0371 55.7032 83.433 54.5943 80.6988 54.5192C77.9645 54.444 75.3035 55.4081 73.252 57.2173" stroke="#263238" stroke-miterlimit="10"/>
<path d="M180.462 38.0075C179.334 37.8337 178.196 37.7472 177.055 37.7486C172.05 37.7469 167.195 39.4589 163.298 42.5998C159.401 45.7407 156.696 50.1212 155.635 55.0126C153.385 52.7939 150.46 51.3873 147.322 51.0146C144.184 50.6419 141.011 51.3243 138.304 52.9542" stroke="#263238" stroke-miterlimit="10"/>
<path d="M192.772 44.402C191.225 42.8132 189.445 41.4698 187.493 40.418" stroke="#263238" stroke-miterlimit="10"/>
<path d="M184.884 65.736H225.388C224.875 64.8768 224.186 64.136 223.366 63.562C222.547 62.9881 221.615 62.5941 220.632 62.406C219.649 62.2178 218.638 62.2398 217.664 62.4704C216.691 62.701 215.777 63.135 214.983 63.744C214.447 62.1919 213.576 60.7767 212.432 59.5986C211.288 58.4206 209.898 57.5084 208.363 56.9268C206.827 56.3452 205.182 56.1084 203.545 56.2331C201.907 56.3578 200.317 56.841 198.888 57.6485C198.523 53.6782 197.076 49.8841 194.704 46.6792" stroke="#263238" stroke-miterlimit="10"/>
<path d="M71.5589 59.0962C70.2683 60.9146 69.5725 63.088 69.5669 65.3179C69.5669 65.4507 69.5669 65.5835 69.5669 65.7163H176.869" stroke="#263238" stroke-miterlimit="10"/>
<path d="M215.222 72.9338C213.939 71.8402 212.394 71.0982 210.739 70.7803C209.084 70.4624 207.374 70.5795 205.778 71.1201C204.181 71.6608 202.752 72.6065 201.631 73.8648C200.509 75.1231 199.733 76.651 199.379 78.299C198.579 77.5045 197.581 76.9384 196.488 76.6591C195.396 76.3797 194.248 76.3974 193.165 76.7102C192.082 77.023 191.102 77.6196 190.326 78.4383C189.551 79.2569 189.008 80.2679 188.755 81.3666C188.203 80.6306 187.403 80.1199 186.502 79.9294C185.602 79.7388 184.664 79.8815 183.861 80.3308C183.719 78.5556 182.942 76.8913 181.671 75.644C180.4 74.3967 178.721 73.6503 176.943 73.542C175.166 73.4337 173.409 73.9709 171.996 75.0548C170.583 76.1386 169.609 77.6962 169.253 79.441C168.576 78.7766 167.719 78.3268 166.787 78.148C165.856 77.9692 164.893 78.0694 164.018 78.4361C163.144 78.8028 162.397 79.4196 161.872 80.2091C161.347 80.9986 161.066 81.9256 161.066 82.8739C161.066 82.9337 161.066 82.9868 161.066 83.0466H230.407C230.176 82.6651 229.867 82.3367 229.5 82.0828C229.133 81.8289 228.716 81.6553 228.278 81.5732C227.839 81.4911 227.388 81.5024 226.954 81.6064C226.52 81.7104 226.113 81.9047 225.759 82.1767C225.521 81.4864 225.134 80.857 224.625 80.3332C224.116 79.8093 223.498 79.4037 222.815 79.1452C222.132 78.8867 221.401 78.7816 220.672 78.8373C219.944 78.893 219.237 79.1082 218.602 79.4676C218.539 78.7403 218.392 78.0228 218.163 77.3295" stroke="#263238" stroke-miterlimit="10"/>
<path d="M33.1069 154.599C33.1069 154.599 124.175 70.0851 134.606 69.4743C144.925 68.87 219.014 145.416 219.014 145.416C219.014 145.416 270.022 101.087 275.487 101.087C280.952 101.087 288.262 110.768 288.262 110.768" stroke="#263238" stroke-linecap="round" stroke-linejoin="round"/>
<path d="M196.544 131.419L191.956 127.037" stroke="#263238" stroke-linecap="round" stroke-linejoin="round"/>
<path d="M144.413 87.96L160.11 102.269" stroke="#263238" stroke-linecap="round" stroke-linejoin="round"/>
<path d="M139.46 83.4448L142.382 86.1008" stroke="#263238" stroke-linecap="round" stroke-linejoin="round"/>
<path d="M186.929 122.229L155.861 92.5483" stroke="#263238" stroke-linecap="round" stroke-linejoin="round"/>
<path d="M297.99 268.256C297.385 263.455 288.986 270.659 288.986 270.659C290.122 267.79 290.731 264.74 290.785 261.655C290.785 256.855 284.809 262.851 284.809 262.851C284.809 262.851 289.012 255.049 288.415 246.649C287.817 238.249 278.807 247.851 278.807 247.851C278.807 247.851 282.412 235.235 283.01 231.643C283.607 228.05 266.204 235.846 266.204 235.846C266.204 235.846 267.406 230.441 268.003 225.043C268.316 222.28 265.347 223.429 262.346 225.215C261.682 222.811 259.909 222.645 257.937 223.396C258.063 222.798 258.203 222.147 258.356 221.45C259.02 218.217 254.411 221.862 250.58 225.308C250.117 221.109 248.217 217.199 245.202 214.239C242.3 211.338 239.173 214.571 236.57 219.113L232.26 220.441C232.207 219.604 232.121 218.741 231.995 217.851C231.218 212.42 226.683 218.276 223.569 223.097L220.249 224.12C219.717 220.72 218.416 215.76 215.215 211.849C209.817 205.249 197.208 223.854 197.208 223.854C197.208 223.854 189.406 211.238 186.405 217.878C183.403 224.518 187.606 238.289 187.606 238.289C187.606 238.289 185.807 233.482 183.41 232.313C181.013 231.145 174.406 236.51 174.406 236.51C174.406 236.51 178.005 228.11 174.406 225.109C171.146 222.393 166.916 231.941 166.133 233.801C166.684 232.393 168.789 226.297 167.202 217.905C165.402 208.303 158.198 220.906 158.198 220.906C158.198 220.906 159.4 208.901 152.799 207.101C146.199 205.302 155.801 207.101 149.194 219.106C142.587 231.111 144.997 210.707 135.389 211.902C125.781 213.097 128.192 249.119 128.192 249.119L90.3237 227.459C90.3237 227.459 88.5243 223.854 82.4288 222.765C76.3333 221.676 80.1247 231.072 80.1247 231.072C80.1247 231.072 71.7184 223.27 68.1196 223.27C67.1833 223.27 64.3082 227.433 60.5632 233.595C60.291 232.964 60.0121 232.32 59.72 231.669C57.4424 226.669 55.5168 237.851 54.7134 243.568L54.0494 244.717C53.5647 241.895 52.1504 237.048 48.3124 237.048C43.6644 237.048 46.1279 253.063 46.9048 257.512V257.565C46.3072 255.035 44.5874 248.933 41.7388 248.449C38.14 247.851 41.1346 261.655 41.1346 261.655C41.1346 261.655 38.7376 259.856 36.9381 259.856C35.6101 259.856 37.4494 268.229 38.5649 272.937C34.7801 279.975 32.2104 284.856 32.2104 284.856L56.1144 271.861H181.737L175.661 280.267H295.566C295.566 280.267 298.587 273.07 297.99 268.256Z" fill="black"/>
<path d="M152.906 280.128H157.268L159.924 183.848L165.515 167.009L159.625 178.105L160.495 167.268L169.924 148.079L160.841 160.031L160.11 131.299L158.875 148.982L154.42 146.326L158.324 152.235L157.262 173.151L153.736 167.58L156.77 177.494L152.906 280.128Z" fill="#263238"/>
<path d="M169.552 286.509C167.998 280.347 165.455 272.698 161.91 269.843C155.615 264.77 145.376 272.745 139.865 269.119C134.354 265.494 146.159 229.99 127.249 227.818C108.338 225.647 101.26 261.875 92.5946 265.494C83.9294 269.113 80.782 256.078 68.9694 255.354C58.6442 254.69 38.6844 280.108 33.8306 286.509H169.552Z" fill="#1E4646"/>
<path opacity="0.46" d="M169.552 286.509C167.998 280.347 165.455 272.698 161.91 269.843C155.615 264.77 145.376 272.745 139.865 269.119C134.354 265.494 146.159 229.99 127.249 227.818C108.338 225.647 101.26 261.875 92.5946 265.494C83.9294 269.113 80.782 256.078 68.9694 255.354C58.6442 254.69 38.6844 280.108 33.8306 286.509H169.552Z" fill="black"/>
<path d="M127.574 280.128H131.937L134.593 183.848L140.19 166.976L134.301 178.071L135.17 167.235L144.599 148.045L135.542 160.024L134.759 131.299L133.55 148.982L129.095 146.326L132.999 152.235L131.937 173.151L128.411 167.58L131.445 177.494L127.574 280.128Z" fill="#C7CACB"/>
<path d="M68.8696 280.128H73.2321L75.8881 183.848L81.479 167.009L75.5827 178.105L76.4591 167.268L85.9012 148.072L76.8177 160.024L76.0408 131.299L74.8058 148.982L70.3504 146.326L74.2547 152.235L73.1923 173.151L69.6598 167.58L72.7009 177.494L68.8696 280.128Z" fill="#A8ADAF"/>
<path d="M194.027 280.128H198.39L201.046 206.125L206.663 193.224L200.767 201.749L201.637 193.423L211.066 178.616L201.982 187.845L201.199 165.774L199.95 179.366L195.501 177.334L199.406 181.869L198.337 197.945L194.811 193.662L197.845 201.278L194.027 280.128Z" fill="#C7CACB"/>
<path d="M143.072 280.128H147.434L150.09 206.125L155.701 193.224L149.811 201.749L150.681 193.423L160.11 178.616L151.027 187.845L150.243 165.774L149.008 179.366L144.553 177.334L148.463 181.869L147.394 197.945L143.869 193.662L146.903 201.278L143.072 280.128Z" fill="#C7CACB"/>
<path d="M176.438 280.128H180.794L183.45 206.125L189.067 193.224L183.171 201.749L184.047 193.423L193.47 178.616L184.386 187.845L183.603 165.774L182.374 179.366L177.919 177.334L181.823 181.869L180.761 197.945L177.228 193.662L180.269 201.278L176.438 280.128Z" fill="#C7CACB"/>
<path d="M273.037 280.128H277.399L280.055 183.848L285.646 167.009L279.756 178.104L280.626 167.268L290.055 148.078L280.971 160.03L280.188 131.306L278.966 148.981L274.511 146.325L278.415 152.235L277.353 173.151L273.827 167.58L276.861 177.494L273.037 280.128Z" fill="#263238"/>
<path d="M246.643 280.128H250.998L253.654 183.848L259.252 167.009L253.356 178.105L254.232 167.268L263.694 148.072L254.611 160.024L253.827 131.299L252.599 148.982L248.143 146.326L252.048 152.235L250.985 173.151L247.453 167.58L250.494 177.494L246.643 280.128Z" fill="#8A9094"/>
<path d="M201.391 280.128H205.747L208.403 183.848L213.994 167.009L208.097 178.105L208.974 167.268L218.423 148.072L209.339 160.024L208.582 131.299L207.354 148.982L202.898 146.326L206.803 152.235L205.74 173.151L202.208 167.58L205.249 177.494L201.391 280.128Z" fill="#263238"/>
<path d="M267.101 286.509C265.773 280.347 263.555 272.698 260.494 269.843C255.042 264.77 246.178 272.745 241.41 269.119C236.643 265.494 246.862 229.99 230.508 227.818C214.153 225.647 208.018 261.875 200.521 265.494C193.025 269.113 190.296 256.078 180.077 255.354C171.139 254.69 153.869 280.108 149.666 286.509H267.101Z" fill="#1E4646"/>
<path opacity="0.25" d="M267.101 286.509C265.773 280.347 263.555 272.698 260.494 269.843C255.042 264.77 246.178 272.745 241.41 269.119C236.643 265.494 246.862 229.99 230.508 227.818C214.153 225.647 208.018 261.875 200.521 265.494C193.025 269.113 190.296 256.078 180.077 255.354C171.139 254.69 153.869 280.108 149.666 286.509H267.101Z" fill="black"/>
<path d="M192.301 134.42C192.301 134.42 182.866 134.42 180.117 149.752C177.368 165.083 184.439 169.008 175.787 176.883C167.135 184.758 165.96 190.256 170.283 193.795C174.605 197.334 176.969 201.265 171.465 207.161C165.96 213.057 165.17 221.709 184.831 227.214C204.492 232.718 219.432 219.352 220.222 210.308C221.012 201.265 214.319 195.362 213.927 187.892C213.536 180.422 227.3 173.344 225.727 163.125C224.153 152.906 209.997 156.83 206.066 148.968C202.135 141.106 201.736 134.42 192.301 134.42Z" fill="#1E4646"/>
<path opacity="0.46" d="M192.301 134.42C192.301 134.42 182.866 134.42 180.117 149.752C177.368 165.083 184.439 169.008 175.787 176.883C167.135 184.758 165.96 190.256 170.283 193.795C174.605 197.334 176.969 201.265 171.465 207.161C165.96 213.057 165.17 221.709 184.831 227.214C204.492 232.718 219.432 219.352 220.222 210.308C221.012 201.265 214.319 195.362 213.927 187.892C213.536 180.422 227.3 173.344 225.727 163.125C224.153 152.906 209.997 156.83 206.066 148.968C202.135 141.106 201.736 134.42 192.301 134.42Z" fill="black"/>
<path d="M185.342 283.441H188.788L193.662 187.507L198.084 174.227L193.436 182.998L194.1 174.433L201.55 159.254L194.372 168.729L193.748 146.02L192.779 159.964L189.253 157.879L192.34 162.527L191.497 179.061L188.708 174.658L191.112 182.494L185.342 283.441Z" fill="#92989B"/>
<path d="M133.258 286.509C134.267 280.825 135.914 273.76 138.231 271.131C142.335 266.45 148.995 273.787 152.587 270.467C156.179 267.147 148.483 234.359 160.787 232.353C173.091 230.348 177.706 263.78 183.363 267.127C189.021 270.473 191.052 258.429 198.741 257.765C205.468 257.18 218.456 280.613 221.616 286.516L133.258 286.509Z" fill="#1E4646"/>
<path opacity="0.46" d="M133.258 286.509C134.267 280.825 135.914 273.76 138.231 271.131C142.335 266.45 148.995 273.787 152.587 270.467C156.179 267.147 148.483 234.359 160.787 232.353C173.091 230.348 177.706 263.78 183.363 267.127C189.021 270.473 191.052 258.429 198.741 257.765C205.468 257.18 218.456 280.613 221.616 286.516L133.258 286.509Z" fill="black"/>
<path d="M180.136 286.509C179.226 282.592 177.732 277.718 175.661 275.885C171.969 272.658 165.973 277.731 162.746 275.427C159.519 273.123 166.431 250.514 155.362 249.133C144.293 247.752 140.137 270.812 135.064 273.117C129.991 275.421 128.145 267.141 121.226 266.662C115.177 266.257 103.484 282.426 100.642 286.496L180.136 286.509Z" fill="#1E4646"/>
<path d="M53.5379 230.501C53.5379 230.501 44.4809 231.457 31.6259 219.067C18.7709 206.676 44.0228 162.819 54.0292 153.284C64.0357 143.749 84.5732 204.764 76.9107 216.205C69.2481 227.645 61.1739 230.029 53.5379 230.501Z" fill="#1E4646"/>
<path opacity="0.46" d="M53.5379 230.501C53.5379 230.501 44.4809 231.457 31.6259 219.067C18.7709 206.676 44.0228 162.819 54.0292 153.284C64.0357 143.749 84.5732 204.764 76.9107 216.205C69.2481 227.645 61.1739 230.029 53.5379 230.501Z" fill="black"/>
<path d="M49.7201 280.553L51.1543 216.683L44.9526 210.01L51.6258 213.821V202.38L43.0469 192.374L51.1543 198.569L50.1982 190.468L52.5819 194.279L54.0095 171.398L54.9657 206.192L70.6958 197.613L54.9657 210.959V217.154V282.459" fill="#263238"/>
<path d="M273.867 177.175C273.867 177.175 264.81 178.124 251.955 165.734C239.1 153.344 264.358 109.487 274.318 99.9515C284.278 90.4165 304.862 151.431 297.2 162.872C289.537 174.313 281.489 176.697 273.867 177.175Z" fill="#1E4646"/>
<path d="M266.563 277.824L271.483 163.35L265.288 156.677L271.961 160.488V149.048L263.375 139.041L271.483 145.236L270.527 137.136L272.911 140.947L274.345 118.065L275.294 152.866L291.024 144.28L275.294 157.627V163.828L271.808 279.73" fill="#A8ADAF"/>
<path d="M73.8696 284.856C73.7599 284.325 73.5439 283.822 73.2346 283.377C72.9254 282.932 72.5293 282.554 72.0702 282.266C70.2907 281.297 70.2907 282.266 68.1858 281.602C66.7914 281.171 67.0703 278.03 66.9574 276.954C66.6055 273.667 64.7861 270.825 61.4329 269.976C59.7649 269.537 58.0126 269.53 56.3411 269.955C54.6695 270.38 53.1336 271.223 51.8779 272.406C47.8342 276.29 48.3189 279.71 45.7293 279.849C43.1397 279.989 41.6855 276.775 37.1571 278.714C34.3749 279.909 32.934 282.804 32.2368 284.862L73.8696 284.856Z" fill="#1E4646"/>
<path opacity="0.5" d="M73.8696 284.856C73.7599 284.325 73.5439 283.822 73.2346 283.377C72.9254 282.932 72.5293 282.554 72.0702 282.266C70.2907 281.297 70.2907 282.266 68.1858 281.602C66.7914 281.171 67.0703 278.03 66.9574 276.954C66.6055 273.667 64.7861 270.825 61.4329 269.976C59.7649 269.537 58.0126 269.53 56.3411 269.955C54.6695 270.38 53.1336 271.223 51.8779 272.406C47.8342 276.29 48.3189 279.71 45.7293 279.849C43.1397 279.989 41.6855 276.775 37.1571 278.714C34.3749 279.909 32.934 282.804 32.2368 284.862L73.8696 284.856Z" fill="white"/>
<path d="M36.4199 284.623C36.4199 284.623 37.137 281.669 39.554 281.403C41.971 281.137 43.6708 285.075 47.2564 281.762C50.842 278.448 52.9867 270.029 58.5444 270.301C64.1021 270.573 64.0091 277.286 63.3783 280.062C62.7475 282.837 66.4261 282.718 68.0263 282.386C69.6266 282.054 71.519 283.82 71.519 284.896" stroke="#263238" stroke-width="0.903884" stroke-linecap="round" stroke-linejoin="round"/>
<path d="M41.4332 284.803L39.4678 283.017" stroke="#263238" stroke-width="0.903884" stroke-linecap="round" stroke-linejoin="round"/>
<path d="M53.4316 284.896L58.7171 274.152" stroke="#263238" stroke-width="0.903884" stroke-linecap="round" stroke-linejoin="round"/>
<path d="M56.0278 274.956L56.6586 278.448L60.8684 276.118" stroke="#263238" stroke-width="0.903884" stroke-linecap="round" stroke-linejoin="round"/>
<path d="M52.6284 278.535L54.7798 282.479L58.9829 281.131" stroke="#263238" stroke-width="0.903884" stroke-linecap="round" stroke-linejoin="round"/>
<path d="M162.826 283.754C162.704 283.167 162.464 282.611 162.122 282.119C161.78 281.628 161.342 281.21 160.834 280.892C158.842 279.816 158.842 280.892 156.538 280.175C154.997 279.703 155.303 276.231 155.177 275.042C154.792 271.403 152.78 268.263 149.068 267.32C147.217 266.824 145.271 266.808 143.412 267.273C141.554 267.738 139.844 268.668 138.444 269.976C133.968 274.272 134.506 278.03 131.644 278.209C128.783 278.389 127.169 274.81 122.156 276.954C119.082 278.282 117.508 281.476 116.718 283.754H162.826Z" fill="#1E4646"/>
<path opacity="0.5" d="M162.826 283.754C162.704 283.167 162.464 282.611 162.122 282.119C161.78 281.628 161.342 281.21 160.834 280.892C158.842 279.816 158.842 280.892 156.538 280.175C154.997 279.703 155.303 276.231 155.177 275.042C154.792 271.403 152.78 268.263 149.068 267.32C147.217 266.824 145.271 266.808 143.412 267.273C141.554 267.738 139.844 268.668 138.444 269.976C133.968 274.272 134.506 278.03 131.644 278.209C128.783 278.389 127.169 274.81 122.156 276.954C119.082 278.282 117.508 281.476 116.718 283.754H162.826Z" fill="white"/>
<path d="M126.943 283.687L124.765 281.708" stroke="#263238" stroke-linecap="round" stroke-linejoin="round"/>
<path d="M140.217 283.787L146.06 271.901" stroke="#263238" stroke-linecap="round" stroke-linejoin="round"/>
<path d="M143.092 272.791L143.782 276.656L148.437 274.079" stroke="#263238" stroke-linecap="round" stroke-linejoin="round"/>
<path d="M139.327 276.755L141.704 281.117L146.358 279.63" stroke="#263238" stroke-linecap="round" stroke-linejoin="round"/>
<path d="M88.8559 89.4141C88.8559 89.4141 75.2639 89.4141 71.2998 111.499C67.3357 133.583 77.5281 139.247 65.0715 150.568C52.6148 161.89 50.915 169.824 57.1499 174.917C63.3849 180.01 66.7713 185.674 58.8431 194.173C50.915 202.673 49.7862 215.129 78.0991 223.057C106.412 230.986 127.899 211.73 129.061 198.708C130.223 185.687 120.562 177.188 119.998 166.431C119.433 155.675 139.254 145.482 136.983 130.761C134.712 116.04 114.334 121.698 108.676 110.377C103.019 99.0553 102.448 89.4141 88.8559 89.4141Z" fill="#1E4646"/>
<path opacity="0.18" d="M88.8559 89.4141C88.8559 89.4141 75.2639 89.4141 71.2998 111.499C67.3357 133.583 77.5281 139.247 65.0715 150.568C52.6148 161.89 50.915 169.824 57.1499 174.917C63.3849 180.01 66.7713 185.674 58.8431 194.173C50.915 202.673 49.7862 215.129 78.0991 223.057C106.412 230.986 127.899 211.73 129.061 198.708C130.223 185.687 120.562 177.188 119.998 166.431C119.433 155.675 139.254 145.482 136.983 130.761C134.712 116.04 114.334 121.698 108.676 110.377C103.019 99.0553 102.448 89.4141 88.8559 89.4141Z" fill="black"/>
<path d="M78.7964 304.019H83.7498L90.7683 165.867L97.1427 146.698L90.4297 159.314L91.4257 146.976L102.156 125.124L91.8108 138.776L90.921 106.067L89.52 126.207L84.447 123.192L88.8958 129.918L87.6807 153.729L83.6967 147.388L87.1561 158.676L78.7964 304.019Z" fill="#263238"/>
<path d="M217.639 102.422C217.639 102.422 204.06 102.893 200.866 125.104C197.673 147.315 208.051 152.614 195.999 164.366C183.948 176.119 182.52 184.101 188.921 188.974C195.322 193.848 198.914 199.392 191.285 208.157C183.656 216.922 182.965 229.405 211.53 236.344C240.095 243.283 260.938 223.296 261.616 210.242C262.293 197.188 252.379 189.034 251.437 178.304C250.494 167.574 269.949 156.704 267.173 142.096C264.398 127.488 244.226 133.829 238.17 122.707C232.114 111.585 231.218 101.95 217.639 102.422Z" fill="#1E4646"/>
<g opacity="0.5">
<path d="M217.639 102.422C217.639 102.422 204.06 102.893 200.866 125.104C197.673 147.315 208.051 152.614 195.999 164.366C183.948 176.119 182.52 184.101 188.921 188.974C195.322 193.848 198.914 199.392 191.285 208.157C183.656 216.922 182.965 229.405 211.53 236.344C240.095 243.283 260.938 223.296 261.616 210.242C262.293 197.188 252.379 189.034 251.437 178.304C250.494 167.574 269.949 156.704 267.173 142.096C264.398 127.488 244.226 133.829 238.17 122.707C232.114 111.585 231.218 101.95 217.639 102.422Z" fill="white"/>
</g>
<path d="M213.655 290.925L218.615 290.752L222.214 178.762L227.911 159.36L221.643 172.215L222.207 159.851L232.167 137.64L222.307 151.637L220.275 118.975L219.571 139.147L214.398 136.319L219.08 142.886L218.695 166.73L214.458 160.528L218.303 171.683L213.655 290.925Z" fill="#263238"/>
<path d="M301.276 286.509C300.094 281.396 298.149 275.042 295.44 272.671C290.632 268.462 282.824 275.082 278.601 272.074C274.378 269.066 283.408 239.584 268.973 237.778C254.537 235.972 249.119 266.058 242.499 269.066C235.879 272.074 233.475 261.244 224.451 260.64C216.563 260.115 201.318 281.224 197.606 286.536L301.276 286.509Z" fill="#1E4646"/>
<path d="M138.284 287.824C138.736 284.318 138.982 277.864 135.449 274.345C130.436 269.332 122.919 277.472 121.04 277.472C119.161 277.472 118.53 272.466 112.893 268.077C107.256 263.688 100.363 269.332 96.6051 268.077C92.8469 266.822 99.7392 247.406 89.0886 246.782C78.438 246.158 74.6798 273.09 67.1766 273.09C59.6734 273.09 58.4052 268.077 50.8887 272.466C44.999 275.899 41.8052 284.325 40.6963 287.824H138.284Z" fill="#1E4646"/>
<path opacity="0.25" d="M138.284 287.824C138.736 284.318 138.982 277.864 135.449 274.345C130.436 269.332 122.919 277.472 121.04 277.472C119.161 277.472 118.53 272.466 112.893 268.077C107.256 263.688 100.363 269.332 96.6051 268.077C92.8469 266.822 99.7392 247.406 89.0886 246.782C78.438 246.158 74.6798 273.09 67.1766 273.09C59.6734 273.09 58.4052 268.077 50.8887 272.466C44.999 275.899 41.8052 284.325 40.6963 287.824H138.284Z" fill="black"/>
<path d="M60.9153 286.98L54.189 276.058" stroke="#263238" stroke-linecap="round" stroke-linejoin="round"/>
<path d="M85.0049 286.137L88.3647 254.484" stroke="#263238" stroke-linecap="round" stroke-linejoin="round"/>
<path d="M104.334 286.702L107.694 274.378" stroke="#263238" stroke-linecap="round" stroke-linejoin="round"/>
<path d="M128.138 287.259L131.505 278.574" stroke="#263238" stroke-linecap="round" stroke-linejoin="round"/>
<path d="M61.4727 276.337L58.1128 282.22L50.271 279.139" stroke="#263238" stroke-linecap="round" stroke-linejoin="round"/>
<path d="M83.3252 257.008L87.2428 264.013L92.5681 257.566" stroke="#263238" stroke-linecap="round" stroke-linejoin="round"/>
<path d="M81.0806 268.216L86.127 274.378L91.1667 270.453" stroke="#263238" stroke-linecap="round" stroke-linejoin="round"/>
<path d="M106.293 279.696L113.013 275.779" stroke="#263238" stroke-linecap="round" stroke-linejoin="round"/>
<path d="M105.735 281.941L102.369 273.256" stroke="#263238" stroke-linecap="round" stroke-linejoin="round"/>
<path d="M129.825 282.778L128.138 277.173" stroke="#263238" stroke-linecap="round" stroke-linejoin="round"/>
<path d="M129.261 283.9L134.022 281.941" stroke="#263238" stroke-linecap="round" stroke-linejoin="round"/>
<path d="M162.719 131.22C160.567 127.037 157.791 123.206 154.486 119.859C152.125 117.469 149.255 115.644 146.089 114.52C142.924 113.397 139.545 113.004 136.206 113.371C122.74 114.899 119.055 132.063 115.243 142.501C106.133 167.434 94.832 204.412 128.895 215.302C143.576 219.996 163.742 215.302 169.645 199.565C174.751 185.953 174.671 170.967 171.577 156.903C169.744 148.676 167.029 139.307 162.719 131.22Z" fill="#1E4646"/>
<path d="M134.878 303.833H139.845L142.846 194.18L149.214 175.01L142.501 187.626L143.51 175.296L154.24 153.444L143.908 167.102L143.019 134.394L141.611 154.526L136.538 151.518L140.987 158.244L139.772 182.055L135.788 175.714L139.24 187.002L134.878 303.833Z" fill="#263238"/>
<path d="M141.724 235.248L141.817 232.008C141.026 232.008 139.904 232.28 139.904 233.475C139.904 234.465 140.854 234.983 141.724 235.248Z" fill="#808080"/>
<path d="M140.721 198.111C140.721 199.167 141.79 199.678 142.713 199.93L142.806 196.61C142.016 196.644 140.721 196.829 140.721 198.111Z" fill="#808080"/>
<path d="M140.11 213.037C140.11 214.166 141.339 214.677 142.288 214.903L142.381 211.583C141.644 211.537 140.11 211.636 140.11 213.037Z" fill="#808080"/>
<path d="M141.949 177.879C142.208 176.83 140.967 176.79 140.037 176.896L139.871 180.216C140.562 179.804 141.671 178.981 141.949 177.879Z" fill="#808080"/>
<path d="M137.859 284.783C137.859 286.018 139.327 286.516 140.296 286.709L140.389 283.342C139.858 283.282 137.859 283.189 137.859 284.783Z" fill="#808080"/>
<path d="M140.582 166.252L140.416 169.506C141.314 169.01 142.004 168.209 142.362 167.248C142.607 166.252 141.518 166.166 140.582 166.252Z" fill="#808080"/>
<path d="M141.518 156.823C141.518 157.932 142.713 158.444 143.656 158.676L143.563 155.356C142.8 155.376 141.518 155.555 141.518 156.823Z" fill="#808080"/>
<path d="M140.19 263.097C140.688 261.105 138.105 261.158 136.439 261.39L136.213 267.426C137.408 266.742 139.659 265.208 140.19 263.097Z" fill="#808080"/>
<path d="M140.721 269.451C140.721 269.451 138.065 269.046 138.065 270.885C138.065 272.213 139.725 272.678 140.682 272.877L140.768 269.73L140.721 269.451Z" fill="#808080"/>
<path d="M138.676 244.159C138.676 245.746 140.004 246.689 141.392 247.234L141.551 241.463C140.19 241.636 138.676 242.254 138.676 244.159Z" fill="#808080"/>
<path d="M137.295 238.409L137.175 241.643C138.06 241.15 138.739 240.356 139.088 239.405C139.34 238.376 138.198 238.323 137.295 238.409Z" fill="#808080"/>
<path d="M138.556 204.658L138.45 207.433C139.042 206.993 139.479 206.377 139.699 205.674C139.891 204.903 139.267 204.684 138.556 204.658Z" fill="#808080"/>
<path d="M139.088 256.782C139.406 255.514 137.507 255.72 136.644 255.879L136.511 259.398C136.91 259.199 138.722 258.236 139.088 256.782Z" fill="#808080"/>
<path d="M268.302 81.1207C266.152 76.9365 263.376 73.1053 260.069 69.7596C257.707 67.3688 254.836 65.5433 251.669 64.4198C248.502 63.2963 245.122 62.9041 241.782 63.2724C228.323 64.7929 224.631 81.964 220.82 92.3954C211.69 117.335 200.388 154.313 234.478 165.203C249.166 169.897 269.331 165.203 275.228 149.466C280.334 135.848 280.254 120.868 277.167 106.804C275.327 98.5772 272.612 89.2082 268.302 81.1207Z" fill="#1E4646"/>
<path opacity="0.18" d="M268.302 81.1207C266.152 76.9365 263.376 73.1053 260.069 69.7596C257.707 67.3688 254.836 65.5433 251.669 64.4198C248.502 63.2963 245.122 62.9041 241.782 63.2724C228.323 64.7929 224.631 81.964 220.82 92.3954C211.69 117.335 200.388 154.313 234.478 165.203C249.166 169.897 269.331 165.203 275.228 149.466C280.334 135.848 280.254 120.868 277.167 106.804C275.327 98.5772 272.612 89.2082 268.302 81.1207Z" fill="black"/>
<path d="M238.548 284.856H243.515L248.422 144.088L254.79 124.918L248.083 137.534L249.086 125.21L259.823 103.358L249.478 117.003L248.601 84.3276L247.194 104.46L242.127 101.452L246.569 108.179L245.361 131.99L241.344 125.648L244.797 136.936L238.548 284.856Z" fill="#263238"/>
<path d="M245.428 156.657C245.68 155.668 244.923 155.329 244.02 155.29L243.867 158.922C244.604 158.342 245.148 157.552 245.428 156.657Z" fill="#5C5C5C"/>
<path d="M241.689 213.243L241.523 217.606C242.459 217.008 243.761 215.952 244.106 214.585C244.451 213.217 242.917 213.144 241.689 213.243Z" fill="#5C5C5C"/>
<path d="M246.171 115.987L245.952 120.343C246.888 119.739 248.17 118.696 248.509 117.335C248.847 115.974 247.393 115.881 246.171 115.987Z" fill="#5C5C5C"/>
<path d="M244.929 169.127C244.997 168.911 244.997 168.679 244.929 168.463C245.877 167.554 246.565 166.408 246.921 165.143C247.426 163.151 245.593 162.666 243.721 162.693L243.355 171.391C244.095 170.812 244.644 170.023 244.929 169.127Z" fill="#5C5C5C"/>
<path d="M249.179 105.423L249.066 101.439C248.606 101.487 248.181 101.705 247.874 102.05C247.567 102.395 247.4 102.843 247.406 103.305C247.406 104.361 248.236 105.018 249.179 105.423Z" fill="#5C5C5C"/>
<path d="M244.259 135.137C244.649 134.752 244.97 134.303 245.208 133.809L245.155 134.792C246.091 134.221 247.592 133.112 247.957 131.631C248.322 130.151 246.689 130.164 245.441 130.303L245.361 131.93L245.308 131.844V132.302C244.936 131.864 244.086 131.804 243.316 131.857L244.259 135.137Z" fill="#5C5C5C"/>
<path d="M246.53 125.25C246.53 126.578 247.752 127.242 248.907 127.614L249.02 126.206L249.106 123.278C248.044 123.311 246.53 123.636 246.53 125.25Z" fill="#5C5C5C"/>
<path d="M240.633 241.53C241.171 241.264 243.615 239.963 244.106 238.004C244.531 236.291 241.975 236.57 240.786 236.782L240.633 241.53Z" fill="#5C5C5C"/>
<path d="M245.208 206.597C245.217 206.941 245.312 207.278 245.485 207.576C245.658 207.874 245.903 208.124 246.198 208.303L246.317 204.903C245.977 205.032 245.686 205.265 245.487 205.57C245.288 205.874 245.19 206.233 245.208 206.597Z" fill="#5C5C5C"/>
<path d="M247.413 173.715C246.636 173.642 244.053 173.556 244.053 175.668C244.053 176.776 244.929 177.44 245.905 177.839C245.615 178.173 245.463 178.605 245.48 179.047C245.48 180.083 246.251 180.734 247.154 181.139L247.413 173.715Z" fill="#5C5C5C"/>
<path d="M246.311 158.935C246.34 159.388 246.503 159.823 246.778 160.184C247.053 160.545 247.429 160.818 247.858 160.967L247.997 157.062C247.532 157.106 247.101 157.322 246.788 157.669C246.476 158.016 246.305 158.468 246.311 158.935Z" fill="#5C5C5C"/>
<path d="M248.11 137.548L248.223 136.1C246.55 136.425 244.903 137.328 244.903 139.646C244.903 141.791 246.662 143.052 248.561 143.796L248.767 136.359L248.11 137.548Z" fill="#5C5C5C"/>
<path d="M243.555 220.992C243.579 221.684 243.784 222.359 244.148 222.948C244.513 223.537 245.025 224.021 245.633 224.352L245.866 217.712C245.169 217.922 244.563 218.359 244.144 218.953C243.726 219.548 243.518 220.266 243.555 220.992Z" fill="#5C5C5C"/>
<path d="M244.796 248.336L244.929 244.591C243.887 243.927 241.961 244.046 240.533 244.246L240.228 252.32C242.036 251.359 243.599 249.996 244.796 248.336Z" fill="#5C5C5C"/>
<path d="M243.894 273.933C243.477 274.015 243.104 274.242 242.84 274.574C242.576 274.906 242.438 275.322 242.453 275.746C242.473 276.157 242.608 276.554 242.843 276.892C243.077 277.23 243.402 277.496 243.781 277.658L243.894 273.933Z" fill="#5C5C5C"/>
<path d="M242.725 257.014C242.725 258.057 243.509 258.707 244.418 259.112L244.558 255.128C243.648 255.274 242.725 255.753 242.725 257.014Z" fill="#5C5C5C"/>
<path d="M89.4668 150.29C89.4668 150.29 78.8096 153.244 73.1258 165.933C67.442 178.622 76.6118 188.596 72.1829 201.232C67.754 213.868 55.1978 220.229 66.4194 230.102C77.641 239.976 91.8838 224.432 99.4136 225.76C106.943 227.088 107.534 240.746 128.012 234.87C148.49 228.993 141.956 211.451 134.108 203.496C126.259 195.541 132.355 182.421 127.023 164.818C122.926 151.312 104.155 144.665 89.4668 150.29Z" fill="#1E4646"/>
<path opacity="0.5" d="M89.4668 150.29C89.4668 150.29 78.8096 153.244 73.1258 165.933C67.442 178.622 76.6118 188.596 72.1829 201.232C67.754 213.868 55.1978 220.229 66.4194 230.102C77.641 239.976 91.8838 224.432 99.4136 225.76C106.943 227.088 107.534 240.746 128.012 234.87C148.49 228.993 141.956 211.451 134.108 203.496C126.259 195.541 132.355 182.421 127.023 164.818C122.926 151.312 104.155 144.665 89.4668 150.29Z" fill="white"/>
<path d="M97.8003 312.1L101.28 211.57L77.3159 194.784L101.545 208.243L101.738 193.715L96.3926 185.242L102.442 190.78L104.088 171.63L105.357 200.607L122.368 191.152L105.576 205.574L105.118 223.436L118.989 218.263L104.885 227.592L102.767 311.88L97.8003 312.1Z" fill="#263238"/>
<path d="M103.006 221.65C103.668 222.007 104.432 222.124 105.171 221.982L105.25 218.947C104.334 219.432 101.678 220.986 103.006 221.65Z" fill="#808080"/>
<path d="M99.1415 273.329L99.0552 275.825V276.363C99.9093 275.871 100.705 275.283 101.426 274.61C102.156 273.86 100.562 273.501 99.1415 273.329Z" fill="#808080"/>
<path d="M100.078 246.178L99.9849 248.98C100.722 248.534 101.41 248.011 102.037 247.419C102.734 246.722 101.406 246.344 100.078 246.178Z" fill="#808080"/>
<path d="M99.6128 259.796C100.488 259.298 101.301 258.699 102.036 258.01C102.8 257.247 101.147 256.888 99.719 256.722L99.6726 258.004L99.6128 259.796Z" fill="#808080"/>
<path d="M101.638 201.192V202.52C102.297 202.111 102.911 201.635 103.471 201.099C104.135 200.435 102.946 200.07 101.671 199.877L101.638 201.192Z" fill="#808080"/>
<path d="M101.107 216.597C102.48 215.809 103.757 214.864 104.912 213.781C106.12 212.579 103.537 212.008 101.273 211.743L101.107 216.597Z" fill="#808080"/>
<path d="M102.827 253.11C103.263 253.336 103.743 253.467 104.234 253.495L104.301 250.839C103.205 251.529 101.784 252.592 102.827 253.11Z" fill="#808080"/>
<path d="M102.282 242.984C102.976 243.338 103.716 243.595 104.48 243.748L104.613 238.436C102.342 239.969 100.204 241.948 102.282 242.984Z" fill="#808080"/>
<path d="M101.857 264.544C102.501 264.882 103.215 265.066 103.942 265.082L104.035 261.363C102.521 262.28 100.39 263.807 101.857 264.544Z" fill="#808080"/>
<path d="M103.736 273.236L103.809 270.261C102.8 270.819 100.489 272.253 101.718 272.871C102.335 273.203 103.042 273.33 103.736 273.236Z" fill="#808080"/>
<path d="M100.536 233.064L100.437 235.999C101.242 235.529 101.991 234.967 102.668 234.326C103.398 233.569 101.917 233.203 100.536 233.064Z" fill="#808080"/>
<path d="M162.228 304.019C162.108 303.432 161.869 302.875 161.527 302.383C161.184 301.891 160.745 301.474 160.236 301.157C158.244 300.082 158.244 301.157 155.94 300.44C154.4 299.969 154.705 296.456 154.579 295.301C154.194 291.669 152.182 288.528 148.47 287.585C146.62 287.085 144.672 287.067 142.813 287.532C140.953 287.997 139.244 288.929 137.846 290.241C133.371 294.537 133.909 298.295 131.047 298.468C128.185 298.641 126.571 295.068 121.558 297.22C118.484 298.548 116.91 301.742 116.12 304.019H162.228Z" fill="#1E4646"/>
<path opacity="0.5" d="M162.228 304.019C162.108 303.432 161.869 302.875 161.527 302.383C161.184 301.891 160.745 301.474 160.236 301.157C158.244 300.082 158.244 301.157 155.94 300.44C154.4 299.969 154.705 296.456 154.579 295.301C154.194 291.669 152.182 288.528 148.47 287.585C146.62 287.085 144.672 287.067 142.813 287.532C140.953 287.997 139.244 288.929 137.846 290.241C133.371 294.537 133.909 298.295 131.047 298.468C128.185 298.641 126.571 295.068 121.558 297.22C118.484 298.548 116.91 301.742 116.12 304.019H162.228Z" fill="white"/>
<path d="M126.345 303.952L124.167 301.974" stroke="#263238" stroke-linecap="round" stroke-linejoin="round"/>
<path d="M139.619 304.052L145.469 292.167" stroke="#263238" stroke-linecap="round" stroke-linejoin="round"/>
<path d="M142.494 293.056L143.185 296.921L147.846 294.344" stroke="#263238" stroke-linecap="round" stroke-linejoin="round"/>
<path d="M138.729 297.021L141.106 301.376L145.761 299.889" stroke="#263238" stroke-linecap="round" stroke-linejoin="round"/>
<path d="M124.918 312.485C124.42 310.532 123.245 307.631 120.502 306.137C116.133 303.753 116.133 306.137 110.974 304.55C107.554 303.494 108.232 295.792 107.953 293.156C107.096 285.088 102.641 278.116 94.3939 276.038C86.0541 273.926 77.1299 275.905 70.8751 281.921C60.9549 291.449 62.1435 299.782 55.789 300.181C49.4345 300.579 45.902 292.638 34.7667 297.399C27.974 300.327 24.4216 307.432 22.7085 312.485H124.918Z" fill="#1E4646"/>
<path d="M45.3442 312.339L40.5103 307.95" stroke="#263238" stroke-linecap="round" stroke-linejoin="round"/>
<path d="M74.7861 312.565L87.7541 286.19" stroke="#263238" stroke-linecap="round" stroke-linejoin="round"/>
<path d="M108.63 311.901L112.8 309.265" stroke="#263238" stroke-linecap="round" stroke-linejoin="round"/>
<path d="M81.1606 288.169L82.7011 296.741L93.0263 291.024" stroke="#263238" stroke-linecap="round" stroke-linejoin="round"/>
<path d="M72.8071 296.96L78.0859 306.628L88.4111 303.335" stroke="#263238" stroke-linecap="round" stroke-linejoin="round"/>
<path d="M45.1252 306.848L44.2421 311.682L39.4082 310.805" stroke="#263238" stroke-linecap="round" stroke-linejoin="round"/>
<path d="M109.945 310.805L109.288 308.388" stroke="#263238" stroke-linecap="round" stroke-linejoin="round"/>
<path d="M81.127 288.574C81.5194 288.574 81.8375 288.256 81.8375 287.864C81.8375 287.471 81.5194 287.153 81.127 287.153C80.7346 287.153 80.4165 287.471 80.4165 287.864C80.4165 288.256 80.7346 288.574 81.127 288.574Z" fill="#263238"/>
<path d="M88.458 286.184C88.4673 286.325 88.4339 286.466 88.3623 286.589C88.2907 286.711 88.184 286.81 88.0561 286.871C87.9281 286.932 87.7848 286.954 87.6445 286.933C87.5041 286.912 87.3733 286.85 87.2687 286.754C87.1642 286.658 87.0908 286.533 87.0579 286.395C87.025 286.257 87.0342 286.112 87.0843 285.979C87.1344 285.847 87.223 285.732 87.3389 285.65C87.4547 285.568 87.5924 285.523 87.7343 285.52C87.9176 285.514 88.0959 285.581 88.2311 285.705C88.3663 285.829 88.4477 286.001 88.458 286.184Z" fill="#263238"/>
<path d="M93.6636 291.429C94.056 291.429 94.3741 291.111 94.3741 290.719C94.3741 290.326 94.056 290.008 93.6636 290.008C93.2712 290.008 92.9531 290.326 92.9531 290.719C92.9531 291.111 93.2712 291.429 93.6636 291.429Z" fill="#263238"/>
<path d="M89.5069 303.209C89.5082 303.35 89.4675 303.488 89.3899 303.606C89.3123 303.724 89.2015 303.816 89.0714 303.871C88.9413 303.925 88.7979 303.94 88.6594 303.913C88.521 303.885 88.3938 303.818 88.294 303.718C88.1943 303.618 88.1265 303.491 88.0993 303.352C88.0721 303.214 88.0867 303.071 88.1413 302.94C88.1959 302.81 88.288 302.699 88.4058 302.622C88.5237 302.544 88.662 302.504 88.803 302.505C88.9892 302.507 89.1672 302.581 89.2988 302.713C89.4304 302.845 89.5051 303.023 89.5069 303.209Z" fill="#263238"/>
<path d="M72.7408 297.545C73.1331 297.545 73.4512 297.227 73.4512 296.835C73.4512 296.442 73.1331 296.124 72.7408 296.124C72.3484 296.124 72.0303 296.442 72.0303 296.835C72.0303 297.227 72.3484 297.545 72.7408 297.545Z" fill="#263238"/>
<path d="M109.288 309.099C109.68 309.099 109.998 308.781 109.998 308.388C109.998 307.996 109.68 307.678 109.288 307.678C108.895 307.678 108.577 307.996 108.577 308.388C108.577 308.781 108.895 309.099 109.288 309.099Z" fill="#263238"/>
<path d="M113.477 309.112C113.478 309.252 113.438 309.39 113.361 309.508C113.283 309.626 113.173 309.718 113.043 309.773C112.913 309.827 112.77 309.842 112.632 309.816C112.494 309.789 112.367 309.722 112.267 309.623C112.167 309.524 112.098 309.397 112.07 309.259C112.042 309.121 112.056 308.978 112.11 308.848C112.163 308.718 112.254 308.606 112.371 308.528C112.488 308.45 112.626 308.408 112.767 308.408C112.954 308.408 113.134 308.482 113.267 308.613C113.4 308.745 113.475 308.924 113.477 309.112Z" fill="#263238"/>
<path d="M45.125 307.558C45.5174 307.558 45.8355 307.24 45.8355 306.848C45.8355 306.455 45.5174 306.137 45.125 306.137C44.7326 306.137 44.4146 306.455 44.4146 306.848C44.4146 307.24 44.7326 307.558 45.125 307.558Z" fill="#263238"/>
<path d="M40.9883 307.578C40.9883 307.718 40.9467 307.856 40.8686 307.972C40.7905 308.089 40.6796 308.18 40.5498 308.234C40.4199 308.288 40.2771 308.302 40.1393 308.274C40.0014 308.247 39.8748 308.179 39.7755 308.08C39.6761 307.981 39.6084 307.854 39.581 307.716C39.5536 307.578 39.5677 307.436 39.6215 307.306C39.6752 307.176 39.7663 307.065 39.8831 306.987C40 306.909 40.1373 306.867 40.2779 306.867C40.4663 306.867 40.647 306.942 40.7802 307.075C40.9135 307.209 40.9883 307.389 40.9883 307.578Z" fill="#263238"/>
<path d="M39.0962 311.476C39.4886 311.476 39.8067 311.158 39.8067 310.765C39.8067 310.373 39.4886 310.055 39.0962 310.055C38.7038 310.055 38.3857 310.373 38.3857 310.765C38.3857 311.158 38.7038 311.476 39.0962 311.476Z" fill="#263238"/>
<path d="M186.371 284.404C186.371 284.404 155.163 286.217 158.324 288.023C161.485 289.829 186.823 292.093 182.753 296.655C178.682 301.217 128.464 313.388 128.464 313.388" stroke="#263238" stroke-linecap="round" stroke-linejoin="round"/>
<path d="M203.562 284.404C203.562 284.404 191.796 286.217 193.602 287.572C195.408 288.926 277.266 290.739 272.313 314.264" stroke="#263238" stroke-linecap="round" stroke-linejoin="round"/>
<path d="M258.727 230.972C258.727 230.972 247.964 232.108 232.679 217.387C217.393 202.666 247.399 150.568 259.292 139.247C271.184 127.926 295.566 200.395 286.469 213.987C277.372 227.579 267.784 230.408 258.727 230.972Z" fill="#1E4646"/>
<path d="M254.192 290.427L255.892 214.551L248.535 206.63L256.463 211.158V197.566L246.271 185.674L255.892 193.038L254.763 183.41L257.592 187.938L259.292 160.761L260.42 202.095L279.112 191.902L260.42 207.759V215.122V292.691" fill="#263238"/>
<path d="M258.342 257.632C258.82 256.437 255.773 256.304 254.962 256.257L254.883 259.883C255.945 259.458 257.944 258.608 258.342 257.632Z" fill="#808080"/>
<path d="M260.42 226.975C258.873 227.36 255.706 228.303 256.629 229.206C257.359 229.93 259.126 230.222 260.42 230.335V226.975Z" fill="#808080"/>
<path d="M258.568 237.194C259.053 235.985 255.421 235.985 255.421 235.985V236.045L255.348 239.232C256.204 238.927 258.19 238.137 258.568 237.194Z" fill="#808080"/>
<path d="M258.329 221.464C258.687 220.561 256.768 220.328 255.766 220.269L255.699 223.276C256.662 222.885 258.023 222.221 258.329 221.464Z" fill="#808080"/>
<path d="M254.763 274.139L254.524 275.819L254.478 277.904C255.308 277.625 257.884 276.669 258.342 275.513C258.893 274.139 254.763 274.139 254.763 274.139Z" fill="#808080"/>
<path d="M256.138 248.515C256.961 249.339 258.946 249.664 260.421 249.803V245.985C258.648 246.43 255.095 247.473 256.138 248.515Z" fill="#808080"/>
<path d="M256.39 213.476C257.16 214.246 259.112 214.525 260.42 214.625V211.185C258.993 211.524 255.414 212.48 256.39 213.476Z" fill="#808080"/>
<path d="M260.142 191.896C258.555 192.361 256.609 193.104 257.359 193.888C257.924 194.452 259.112 194.751 260.228 194.917L260.142 191.896Z" fill="#808080"/>
<path d="M260.421 263.894C258.648 264.338 255.109 265.381 256.138 266.423C256.961 267.247 258.947 267.579 260.421 267.712V263.894Z" fill="#808080"/>
<path d="M256.463 200.654V203.755C257.426 203.383 258.966 202.672 259.292 201.856C259.71 200.866 257.326 200.687 256.463 200.654Z" fill="#808080"/>
<path d="M295.566 291.257C296.057 286.775 292.412 281.961 287.797 281.728C283.654 281.529 279.099 284.311 275.646 282.014C272.824 280.135 272.764 276.124 272.446 272.718C272.127 269.312 271.197 265.939 268.993 263.422C266.788 260.905 263.083 259.438 259.923 260.593C253.555 262.937 253.163 273.382 246.643 275.308C242.141 276.636 237.446 272.897 232.825 273.727C227.167 274.737 224.611 280.998 220.269 284.059C219.817 284.378 217.931 285.746 215.767 287.326C213.954 288.654 211.949 290.121 210.455 291.257H295.566Z" fill="#1E4646"/>
<path opacity="0.5" d="M295.566 291.257C296.057 286.775 292.412 281.961 287.797 281.728C283.654 281.529 279.099 284.311 275.646 282.014C272.824 280.135 272.764 276.124 272.446 272.718C272.127 269.312 271.197 265.939 268.993 263.422C266.788 260.905 263.083 259.438 259.923 260.593C253.555 262.937 253.163 273.382 246.643 275.308C242.141 276.636 237.446 272.897 232.825 273.727C227.167 274.737 224.611 280.998 220.269 284.059C219.817 284.378 217.931 285.746 215.767 287.326C213.954 288.654 211.949 290.121 210.455 291.257H295.566Z" fill="white"/>
<path d="M242.758 290.885L239.186 280.447" stroke="#263238" stroke-linecap="round" stroke-linejoin="round"/>
<path d="M255.394 291.164L262.811 271.111" stroke="#263238" stroke-linecap="round" stroke-linejoin="round"/>
<path d="M282.312 291.164L286.708 287.041" stroke="#263238" stroke-linecap="round" stroke-linejoin="round"/>
<path d="M241.775 288.415L244.133 282.1" stroke="#263238" stroke-linecap="round" stroke-linejoin="round"/>
<path d="M241.317 286.875L233.144 284.843" stroke="#263238" stroke-linecap="round" stroke-linejoin="round"/>
<path d="M260.613 277.153L258.415 273.581" stroke="#263238" stroke-linecap="round" stroke-linejoin="round"/>
<path d="M258.415 282.645L266.376 278.256" stroke="#263238" stroke-linecap="round" stroke-linejoin="round"/>
<path d="M256.038 289.617L263.355 287.041" stroke="#263238" stroke-linecap="round" stroke-linejoin="round"/>
<path d="M257.041 286.768L252.373 278.528" stroke="#263238" stroke-linecap="round" stroke-linejoin="round"/>
<path d="M263.515 271.111C263.515 271.252 263.473 271.389 263.394 271.506C263.316 271.623 263.205 271.714 263.075 271.768C262.944 271.821 262.801 271.835 262.663 271.807C262.525 271.779 262.399 271.711 262.299 271.611C262.2 271.511 262.133 271.384 262.107 271.245C262.08 271.107 262.095 270.964 262.15 270.834C262.205 270.705 262.297 270.594 262.414 270.517C262.532 270.44 262.67 270.399 262.811 270.4C262.904 270.4 262.996 270.419 263.082 270.455C263.168 270.49 263.245 270.543 263.311 270.609C263.376 270.675 263.428 270.753 263.463 270.84C263.498 270.926 263.516 271.018 263.515 271.111Z" fill="#263238"/>
<path d="M259.046 273.522C259.046 273.662 259.004 273.799 258.926 273.916C258.848 274.033 258.737 274.124 258.607 274.178C258.478 274.232 258.335 274.246 258.197 274.218C258.059 274.191 257.932 274.123 257.833 274.024C257.734 273.925 257.666 273.798 257.639 273.66C257.611 273.522 257.625 273.379 257.679 273.25C257.733 273.12 257.824 273.009 257.941 272.931C258.058 272.853 258.195 272.811 258.335 272.811C258.429 272.81 258.522 272.828 258.608 272.863C258.695 272.899 258.774 272.951 258.84 273.017C258.906 273.083 258.958 273.162 258.994 273.249C259.029 273.335 259.047 273.428 259.046 273.522Z" fill="#263238"/>
<path d="M266.377 278.966C266.769 278.966 267.087 278.648 267.087 278.255C267.087 277.863 266.769 277.545 266.377 277.545C265.984 277.545 265.666 277.863 265.666 278.255C265.666 278.648 265.984 278.966 266.377 278.966Z" fill="#263238"/>
<path d="M252.373 279.238C252.765 279.238 253.083 278.92 253.083 278.528C253.083 278.135 252.765 277.817 252.373 277.817C251.98 277.817 251.662 278.135 251.662 278.528C251.662 278.92 251.98 279.238 252.373 279.238Z" fill="#263238"/>
<path d="M263.727 287.645C264.119 287.645 264.438 287.327 264.438 286.934C264.438 286.542 264.119 286.224 263.727 286.224C263.335 286.224 263.017 286.542 263.017 286.934C263.017 287.327 263.335 287.645 263.727 287.645Z" fill="#263238"/>
<path d="M286.429 287.923C286.822 287.923 287.14 287.605 287.14 287.213C287.14 286.821 286.822 286.502 286.429 286.502C286.037 286.502 285.719 286.821 285.719 287.213C285.719 287.605 286.037 287.923 286.429 287.923Z" fill="#263238"/>
<path d="M239.896 280.447C239.897 280.588 239.857 280.726 239.78 280.844C239.702 280.961 239.592 281.053 239.462 281.108C239.332 281.163 239.189 281.178 239.051 281.151C238.913 281.125 238.786 281.057 238.686 280.958C238.586 280.859 238.517 280.733 238.489 280.595C238.461 280.457 238.475 280.314 238.529 280.183C238.582 280.053 238.673 279.942 238.79 279.863C238.907 279.785 239.045 279.743 239.186 279.743C239.373 279.743 239.553 279.817 239.686 279.949C239.819 280.081 239.894 280.26 239.896 280.447Z" fill="#263238"/>
<path d="M244.006 282.831C244.399 282.831 244.717 282.513 244.717 282.12C244.717 281.728 244.399 281.41 244.006 281.41C243.614 281.41 243.296 281.728 243.296 282.12C243.296 282.513 243.614 282.831 244.006 282.831Z" fill="#263238"/>
<path d="M233.144 285.553C233.536 285.553 233.854 285.235 233.854 284.842C233.854 284.45 233.536 284.132 233.144 284.132C232.751 284.132 232.433 284.45 232.433 284.842C232.433 285.235 232.751 285.553 233.144 285.553Z" fill="#263238"/>
<path d="M315.99 301.15C315.845 300.434 315.555 299.755 315.138 299.154C314.722 298.554 314.187 298.045 313.567 297.658C311.163 296.33 311.163 297.658 308.328 296.788C306.449 296.21 306.821 291.974 306.668 290.52C306.196 286.091 303.74 282.26 299.211 281.111C296.957 280.503 294.585 280.481 292.32 281.047C290.056 281.613 287.973 282.748 286.27 284.345C280.812 289.584 281.469 294.165 277.976 294.384C274.484 294.603 272.518 290.241 266.41 292.857C262.658 294.464 260.719 298.368 259.77 301.15H315.99Z" fill="#1E4646"/>
<path d="M272.233 301.071L269.577 298.654" stroke="#263238" stroke-linecap="round" stroke-linejoin="round"/>
<path d="M288.421 301.19L295.553 286.695" stroke="#263238" stroke-linecap="round" stroke-linejoin="round"/>
<path d="M291.927 287.784L292.771 292.492L298.448 289.351" stroke="#263238" stroke-linecap="round" stroke-linejoin="round"/>
<path d="M287.339 292.618L290.234 297.93L295.911 296.117" stroke="#263238" stroke-linecap="round" stroke-linejoin="round"/>
</svg>
