<svg width="333" height="332" viewBox="0 0 333 332" fill="none" xmlns="http://www.w3.org/2000/svg">
<path d="M306.573 97.9C306.573 97.9 288.134 54.8728 249.914 37.8014C211.694 20.7299 189.111 34.3818 161.794 51.4598C134.478 68.5379 71.6498 56.2406 45.6941 70.583C19.7383 84.9254 7.4543 119.752 21.1128 158.696C34.7713 197.639 70.282 226.988 62.0882 246.111C53.8945 265.235 131.058 335.559 195.26 309.603C259.462 283.647 242.404 254.969 271.746 241.995C301.088 229.02 321.599 194.187 320.218 151.85C318.837 109.513 306.573 97.9 306.573 97.9Z" fill="#1E4646"/>
<path opacity="0.8" d="M306.573 97.9C306.573 97.9 288.134 54.8728 249.914 37.8014C211.694 20.7299 189.111 34.3818 161.794 51.4598C134.478 68.5379 71.6498 56.2406 45.6941 70.583C19.7383 84.9254 7.4543 119.752 21.1128 158.696C34.7713 197.639 70.282 226.988 62.0882 246.111C53.8945 265.235 131.058 335.559 195.26 309.603C259.462 283.647 242.404 254.969 271.746 241.995C301.088 229.02 321.599 194.187 320.218 151.85C318.837 109.513 306.573 97.9 306.573 97.9Z" fill="white"/>
<path d="M62.0017 39.5542C62.7573 39.8738 63.4021 40.4088 63.8555 41.0925C64.309 41.7762 64.551 42.5783 64.5515 43.3988V54.6137C64.5497 55.7185 64.1096 56.7774 63.3278 57.558C62.546 58.3386 61.4863 58.777 60.3815 58.777C59.2774 58.777 58.2184 58.3384 57.4377 57.5576C56.6569 56.7768 56.2183 55.7179 56.2183 54.6137V43.3988C56.219 42.5793 56.4604 41.7781 56.9125 41.0946C57.3646 40.4111 58.0075 39.8755 58.7614 39.5542" stroke="#808080" stroke-linecap="round" stroke-linejoin="round"/>
<path d="M60.3684 58.777C59.2642 58.777 58.2052 58.3384 57.4245 57.5576C56.6437 56.7768 56.2051 55.7179 56.2051 54.6137V49.0029H64.5383V54.6137C64.5365 55.7185 64.0964 56.7774 63.3146 57.558C62.5328 58.3386 61.4731 58.777 60.3684 58.777Z" stroke="#808080" stroke-linecap="round" stroke-linejoin="round"/>
<path d="M51.4114 37.9607L45.2826 42.8743C44.8547 43.2158 44.3637 43.4696 43.8376 43.621C43.3115 43.7725 42.7607 43.8187 42.2167 43.7571C41.6727 43.6954 41.1462 43.527 40.6674 43.2616C40.1885 42.9962 39.7667 42.639 39.4261 42.2103C38.7378 41.3444 38.4211 40.2407 38.5456 39.1414C38.6701 38.0422 39.2256 37.0373 40.0901 36.3472L48.8218 29.3553C49.6866 28.6673 50.7893 28.3508 51.8874 28.4753C52.9855 28.5998 53.9893 29.1551 54.6782 30.0193C55.3622 30.8805 55.6783 31.977 55.5577 33.0702C55.4371 34.1633 54.8895 35.1645 54.0341 35.8558L53.3303 36.4202" stroke="#808080" stroke-linecap="round" stroke-linejoin="round"/>
<path d="M39.4261 42.2367C38.7378 41.3707 38.4211 40.267 38.5456 39.1678C38.6701 38.0686 39.2256 37.0637 40.0901 36.3736L44.4659 32.8677L49.6783 39.3682L45.3025 42.8742C44.8757 43.2202 44.3846 43.4784 43.8576 43.6337C43.3305 43.789 42.7779 43.8385 42.2316 43.7793C41.6853 43.72 41.1562 43.5532 40.6747 43.2884C40.1932 43.0237 39.7688 42.6662 39.4261 42.2367Z" stroke="#808080" stroke-linecap="round" stroke-linejoin="round"/>
<path d="M271.109 222.798C269.637 223.211 268.331 224.073 267.372 225.263C266.412 226.453 265.848 227.912 265.757 229.438H256.654C256.551 228.632 256.162 227.889 255.558 227.345C254.954 226.8 254.175 226.49 253.363 226.471C252.55 226.452 251.757 226.724 251.128 227.239C250.499 227.754 250.075 228.478 249.934 229.278C249.792 230.079 249.942 230.904 250.357 231.603C250.771 232.302 251.423 232.83 252.193 233.09C252.963 233.351 253.801 233.326 254.555 233.022C255.309 232.717 255.929 232.153 256.302 231.43H265.903C266.184 232.737 266.815 233.942 267.73 234.916C268.644 235.891 269.808 236.597 271.094 236.959C272.38 237.321 273.741 237.325 275.03 236.971C276.318 236.617 277.486 235.918 278.406 234.95L283.114 238.608" stroke="#808080" stroke-linecap="round" stroke-linejoin="round"/>
<path d="M285.67 240.594L291.414 245.062C291.262 245.447 291.183 245.857 291.181 246.271C291.177 247.037 291.431 247.782 291.901 248.386C292.372 248.991 293.032 249.419 293.776 249.603C294.519 249.787 295.303 249.715 296.001 249.399C296.699 249.083 297.27 248.542 297.623 247.862C297.976 247.182 298.09 246.404 297.947 245.651C297.804 244.899 297.412 244.216 296.834 243.714C296.256 243.211 295.525 242.918 294.76 242.881C293.995 242.843 293.24 243.065 292.616 243.509L279.561 233.356C280.194 232.172 280.489 230.837 280.413 229.497C280.337 228.157 279.893 226.864 279.13 225.76L287.098 215.541C287.773 215.8 288.513 215.837 289.21 215.645C289.907 215.454 290.525 215.044 290.973 214.476C291.42 213.908 291.674 213.212 291.698 212.489C291.721 211.767 291.512 211.055 291.102 210.46C290.692 209.864 290.102 209.416 289.419 209.179C288.735 208.943 287.994 208.932 287.304 209.147C286.614 209.363 286.011 209.793 285.583 210.376C285.155 210.959 284.925 211.664 284.927 212.387C284.925 213.085 285.143 213.766 285.551 214.332L277.775 224.292C276.454 223.179 274.782 222.57 273.054 222.573" stroke="#808080" stroke-linecap="round" stroke-linejoin="round"/>
<path d="M171.409 41.5331V72.7411C171.409 73.3924 171.281 74.0374 171.032 74.6392C170.783 75.241 170.417 75.7878 169.957 76.2484C169.496 76.7089 168.949 77.0743 168.347 77.3236C167.746 77.5728 167.101 77.7011 166.449 77.7011C165.798 77.7011 165.153 77.5728 164.551 77.3236C163.949 77.0743 163.403 76.7089 162.942 76.2484C162.481 75.7878 162.116 75.241 161.867 74.6392C161.618 74.0374 161.489 73.3924 161.489 72.7411V32.6753H171.409V39.6938" stroke="#808080" stroke-linecap="round" stroke-linejoin="round"/>
<path d="M166.449 77.688C165.134 77.688 163.872 77.1654 162.942 76.2352C162.012 75.305 161.489 74.0434 161.489 72.7279V47.3564H171.409V72.7279C171.41 73.3795 171.283 74.0249 171.034 74.6271C170.785 75.2292 170.419 75.7764 169.959 76.2371C169.498 76.6979 168.951 77.0632 168.349 77.3122C167.746 77.5611 167.101 77.6888 166.449 77.688Z" stroke="#808080" stroke-linecap="round" stroke-linejoin="round"/>
<path d="M171.409 32.6751H172.83V29.063H160.075V32.6751H161.489" stroke="#808080" stroke-linecap="round" stroke-linejoin="round"/>
<path d="M146.456 61.2073V32.6553H156.376V72.7078C156.376 74.0233 155.854 75.2849 154.923 76.2151C153.993 77.1453 152.732 77.6678 151.416 77.6678C150.101 77.6678 148.839 77.1453 147.909 76.2151C146.979 75.2849 146.456 74.0233 146.456 72.7078V63.8367" stroke="#808080" stroke-linecap="round" stroke-linejoin="round"/>
<path d="M146.456 61.2075V47.3564H156.376V72.7279C156.376 74.0434 155.854 75.305 154.923 76.2352C153.993 77.1654 152.732 77.688 151.416 77.688C150.765 77.6888 150.119 77.5611 149.517 77.3122C148.915 77.0632 148.368 76.6979 147.907 76.2371C147.446 75.7764 147.081 75.2292 146.832 74.6271C146.583 74.0249 146.455 73.3795 146.456 72.7279V64.6204" stroke="#808080" stroke-linecap="round" stroke-linejoin="round"/>
<path d="M156.376 32.6751H157.791V29.063H145.035V32.6751H146.456" stroke="#808080" stroke-linecap="round" stroke-linejoin="round"/>
<path d="M64.2861 222.752C62.3742 223.429 60.6619 224.573 59.3051 226.081C57.9483 227.588 56.9899 229.411 56.5173 231.384C55.8168 228.51 54.0903 225.992 51.6626 224.303C49.2349 222.614 46.2736 221.87 43.3359 222.212C40.3982 222.554 37.6868 223.958 35.7119 226.159C33.7371 228.361 32.6351 231.208 32.6133 234.166C32.6133 237.147 33.9081 239.797 35.7606 242.22H48.8082L52.7059 232.898C52.7715 232.746 52.8816 232.618 53.0214 232.53C53.1613 232.443 53.3245 232.399 53.4894 232.406C53.6538 232.413 53.8119 232.471 53.9417 232.573C54.0714 232.674 54.1663 232.813 54.2132 232.971L58.9342 248.541L62.5331 237.048C62.5826 236.887 62.682 236.746 62.8169 236.646C62.9519 236.546 63.1153 236.491 63.2834 236.49C63.4509 236.492 63.6139 236.545 63.7512 236.64C63.8885 236.736 63.9939 236.871 64.0537 237.028L66.0457 242.778H76.8224C78.8874 240.348 80.4346 237.625 80.4346 234.146C80.4346 230.929 79.1564 227.843 76.8814 225.568C74.6063 223.293 71.5207 222.015 68.3033 222.015" stroke="#808080" stroke-linecap="round" stroke-linejoin="round"/>
<path d="M50.342 256.735C52.4203 258.814 54.5053 260.892 56.6367 262.904C61.5039 258.097 66.4042 253.316 71.2447 248.469C72.5727 247.141 74.0335 245.813 75.3815 244.405H65.4879C65.3213 244.406 65.1587 244.354 65.0229 244.258C64.8872 244.161 64.785 244.025 64.7309 243.867L63.3365 239.883L59.6845 251.516C59.6346 251.68 59.5335 251.823 59.396 251.925C59.2584 252.026 59.0919 252.081 58.9209 252.081C58.7493 252.08 58.5826 252.024 58.4452 251.921C58.3078 251.818 58.2069 251.674 58.1573 251.51L53.3367 235.574L50.0897 243.356C50.0288 243.502 49.9266 243.627 49.7956 243.715C49.6647 243.804 49.5107 243.852 49.3527 243.854H37.062C39.718 246.809 42.9982 249.418 45.4616 251.855C46.5439 252.924 47.6263 254.006 48.7019 255.089" stroke="#808080" stroke-linecap="round" stroke-linejoin="round"/>
<path d="M305.922 62.1038L305.112 60.6894L309.123 58.4053L309.926 59.8196" stroke="#808080" stroke-linecap="round" stroke-linejoin="round"/>
<path d="M310.013 69.2617L307.542 64.939V64.9258L311.54 62.6416H311.546L316.261 70.9018L312.25 73.1859L311.121 71.2138" stroke="#808080" stroke-linecap="round" stroke-linejoin="round"/>
<path d="M312.514 76.1841L318.695 72.6553L317.349 70.2968L311.167 73.8256L312.514 76.1841Z" stroke="#808080" stroke-linecap="round" stroke-linejoin="round"/>
<path d="M309.103 51.5329L301.978 39.0298" stroke="#808080" stroke-linecap="round" stroke-linejoin="round"/>
<path d="M312.874 58.1399L310.318 53.6646" stroke="#808080" stroke-linecap="round" stroke-linejoin="round"/>
<path d="M295.338 50.4173L292.064 44.687" stroke="#808080" stroke-linecap="round" stroke-linejoin="round"/>
<path d="M302.967 63.7905L296.5 52.4561" stroke="#808080" stroke-linecap="round" stroke-linejoin="round"/>
<path d="M304.588 66.6192L307.543 64.9393V64.926L311.54 62.6418H311.547L314.488 60.9619" stroke="#808080" stroke-linecap="round" stroke-linejoin="round"/>
<path d="M293.366 43.9434L300.099 55.736L301.753 54.7931L305.763 52.5023L307.403 51.5594L300.677 39.7734" stroke="#808080" stroke-linecap="round" stroke-linejoin="round"/>
<path d="M309.926 59.8197L309.123 58.4054L305.763 52.5024" stroke="#808080" stroke-linecap="round" stroke-linejoin="round"/>
<path d="M301.752 54.793L305.112 60.6893L305.922 62.1036" stroke="#808080" stroke-linecap="round" stroke-linejoin="round"/>
<path d="M307.543 64.9258L304.588 66.619L303.877 67.0174L302.271 64.1887L302.968 63.7903L305.923 62.1038L309.926 59.8196L312.875 58.1397L313.585 57.728L315.199 60.5567L314.488 60.9617L311.547 62.6416H311.54" stroke="#808080" stroke-linecap="round" stroke-linejoin="round"/>
<path d="M294.966 35.5303L290.85 37.8808L292.463 40.7161" stroke="#808080" stroke-linecap="round" stroke-linejoin="round"/>
<path d="M298.359 37.3499L296.739 34.5146" stroke="#808080" stroke-linecap="round" stroke-linejoin="round"/>
<path d="M293.366 43.9434L300.677 39.7735L301.978 39.0298L302.688 38.6314L301.068 35.8027L298.359 37.3499L292.463 40.7163L289.747 42.2635L291.361 45.0921L292.064 44.6937L293.366 43.9434Z" stroke="#808080" stroke-linecap="round" stroke-linejoin="round"/>
<path d="M293.406 35.7961L285.597 22.1177" stroke="#808080" stroke-linecap="round" stroke-linejoin="round"/>
<path d="M250.532 188.124C283.588 188.124 310.385 161.327 310.385 128.271C310.385 95.2155 283.588 68.4185 250.532 68.4185C217.476 68.4185 190.679 95.2155 190.679 128.271C190.679 161.327 217.476 188.124 250.532 188.124Z" fill="#1E4646"/>
<path d="M217.836 192.56L218.042 144.699C218.042 144.699 209.589 145.868 208.175 146.074C206.761 146.279 206.11 144.639 202.059 140.596C198.009 136.552 198.627 125.43 203.885 121.791C209.144 118.152 220.665 104.799 221.475 103.989C222.285 103.179 227.949 103.989 230.173 104.394C232.398 104.799 236.441 107.05 237.477 107.23C238.513 107.409 245.976 108.644 245.976 108.644L273.479 113.697C275.704 114.102 285.611 119.965 288.041 120.337C290.471 120.709 293.3 124.586 293.705 126.406C294.11 128.225 297.948 160.582 299.568 162.806C301.188 165.031 306.646 193.131 306.646 193.131" fill="white"/>
<path d="M217.836 192.56L218.042 144.699C218.042 144.699 209.589 145.868 208.175 146.074C206.761 146.279 206.11 144.639 202.059 140.596C198.009 136.552 198.627 125.43 203.885 121.791C209.144 118.152 220.665 104.799 221.475 103.989C222.285 103.179 227.949 103.989 230.173 104.394C232.398 104.799 236.441 107.05 237.477 107.23C238.513 107.409 245.976 108.644 245.976 108.644L273.479 113.697C275.704 114.102 285.611 119.965 288.041 120.337C290.471 120.709 293.3 124.586 293.705 126.406C294.11 128.225 297.948 160.582 299.568 162.806C301.188 165.031 306.646 193.131 306.646 193.131" stroke="#263238" stroke-linecap="round" stroke-linejoin="round"/>
<path d="M264.124 124.473H266.627L273.904 127.428L265.717 120.144L264.124 124.473Z" fill="#263238" stroke="#263238" stroke-linecap="round" stroke-linejoin="round"/>
<path d="M248.42 125.158L258.207 123.79L254.794 118.783L248.42 125.158Z" fill="#263238" stroke="#263238" stroke-linecap="round" stroke-linejoin="round"/>
<path d="M223.799 113.418C223.799 113.418 224.895 128.219 223.248 134.527C221.601 140.835 220.233 142.495 220.233 142.495" stroke="#263238" stroke-linecap="round" stroke-linejoin="round"/>
<path d="M222.69 147.866C222.445 148.716 222.186 149.566 221.907 150.423L222.69 147.866Z" fill="white"/>
<path d="M222.69 147.866C222.445 148.716 222.186 149.566 221.907 150.423" stroke="#263238" stroke-linecap="round" stroke-linejoin="round"/>
<path d="M226.269 123.564C226.108 130.918 225.13 138.232 223.354 145.37L226.269 123.564Z" fill="white"/>
<path d="M226.269 123.564C226.108 130.918 225.13 138.232 223.354 145.37" stroke="#263238" stroke-linecap="round" stroke-linejoin="round"/>
<path d="M290.544 189.837C290.544 189.837 286.6 172.315 286.998 170.495C287.397 168.676 288.619 135.914 288.619 135.914" stroke="#263238" stroke-linecap="round" stroke-linejoin="round"/>
<path d="M239.954 117.721C240.317 118.726 240.707 119.801 241.123 120.948" stroke="#263238" stroke-linecap="round" stroke-linejoin="round"/>
<path d="M236.242 108C236.242 108 237.338 110.656 239.257 115.875" stroke="#263238" stroke-linecap="round" stroke-linejoin="round"/>
<path d="M244.476 136.97C244.688 138.092 244.841 139.225 244.934 140.363" stroke="#263238" stroke-linecap="round" stroke-linejoin="round"/>
<path d="M237.451 117.528C240.197 122.92 242.371 128.583 243.938 134.427" stroke="#263238" stroke-linecap="round" stroke-linejoin="round"/>
<path d="M261.395 129.002C261.395 129.002 263.745 150.874 263.745 153.909C263.745 156.943 265.491 190.84 265.491 190.84" stroke="#263238" stroke-linecap="round" stroke-linejoin="round"/>
<path d="M285.79 159.871L272.039 158.55V137.076L285.79 138.391V159.871Z" fill="white" stroke="#263238" stroke-linecap="round" stroke-linejoin="round"/>
<path d="M280.325 139.048L276.893 138.843V132.169L280.325 132.375V139.048Z" fill="#1E4646" stroke="#263238" stroke-linecap="round" stroke-linejoin="round"/>
<path d="M250.439 103.498C250.439 103.498 248.898 103.325 248.56 103.843C248.221 104.361 244.277 108.803 244.277 108.803C244.663 111.064 244.834 113.356 244.788 115.649C244.788 120.098 246.847 126.937 246.847 126.937L255.226 121.472L260.704 119.932C261.778 119.745 262.877 119.745 263.951 119.932C263.951 119.932 275.936 130.031 276.62 129.686C277.304 129.341 274.569 118.046 272.683 113.086C270.797 108.126 265.492 105.384 265.492 105.384C265.492 105.384 253.347 103.159 250.439 103.498Z" fill="white" stroke="#263238" stroke-linecap="round" stroke-linejoin="round"/>
<path d="M248.214 82.6147C245.148 83.1292 242.229 84.2977 239.655 86.041C235.89 88.7767 239.144 98.3648 243.765 100.762C248.387 103.159 251.634 102.468 253.52 98.1922C255.405 93.916 254.549 85.1844 253.347 83.8166C252.145 82.4487 248.214 82.6147 248.214 82.6147Z" fill="#263238"/>
<path d="M252.324 86.5527L250.611 105.211C251.919 109.536 253.521 113.767 255.405 117.874C257.085 121.743 259.084 125.465 261.381 129.002C261.381 129.002 265.485 121.472 266.514 118.903C267.358 116.499 268.048 114.044 268.579 111.552L271.162 100.417C271.162 100.417 266.514 99.2218 260.89 94.939C257.659 92.5557 254.776 89.733 252.324 86.5527Z" fill="white" stroke="#263238" stroke-linecap="round" stroke-linejoin="round"/>
<path d="M271.162 100.417C271.162 100.417 266.514 99.2215 260.89 94.9387C259.426 93.8294 258.025 92.639 256.693 91.373V99.0157C256.693 99.0157 261.003 106.565 265.325 108.723C266.483 109.284 267.731 109.634 269.011 109.759L271.162 100.417Z" fill="#263238"/>
<path d="M282.961 83.6641C282.961 83.6641 284.329 82.2963 284.502 85.2046C284.674 88.1129 282.789 90.5166 281.587 91.5392C280.385 92.5617 279.88 92.907 279.88 92.907L282.961 83.6641Z" fill="white" stroke="#263238" stroke-linecap="round" stroke-linejoin="round"/>
<path d="M271.162 56.7589C266.678 56.1192 262.122 57.2583 258.466 59.9329C252.384 64.4281 251.826 75.2779 251.826 75.2779C251.826 75.2779 249.715 73.4253 248.387 75.8025C247.059 78.1796 247.059 84.2685 248.128 84.7997C249.197 85.3309 250.505 85.8554 250.505 85.8554C250.505 85.8554 252.092 93.7902 253.679 96.174C255.266 98.5577 261.089 104.64 264.529 104.64C267.968 104.64 273.785 102.787 276.428 99.328C278.787 96.0903 280.66 92.5244 281.985 88.7438C283.041 85.8355 284.894 71.8185 284.894 71.8185C284.894 71.8185 285.684 65.4706 280.664 60.9753C275.644 56.4801 271.162 56.7589 271.162 56.7589Z" fill="white" stroke="#263238" stroke-linecap="round" stroke-linejoin="round"/>
<path d="M253.692 96.1738C255.279 98.5509 261.102 104.64 264.542 104.64C267.981 104.64 273.798 102.787 276.441 99.3278C278.8 96.0901 280.673 92.5242 281.998 88.7437C282.364 87.5371 282.653 86.3084 282.862 85.0651C282.198 84.4011 277.49 79.9257 271.494 78.6575C264.987 77.2897 253.174 76.2671 253.174 76.2671L251.846 75.2578L250.638 86.3599C251.016 88.1925 252.351 94.1619 253.692 96.1738Z" fill="#1E4646" stroke="#263238" stroke-linecap="round" stroke-linejoin="round"/>
<path d="M273.885 79.5338C273.885 79.5338 274.914 74.4011 275.425 73.0332C275.937 71.6654 279.363 70.4635 281.932 74.2284" stroke="#263238" stroke-linecap="round" stroke-linejoin="round"/>
<path d="M268.068 69.607C268.068 69.607 264.648 65.3308 259.17 69.0957" stroke="#263238" stroke-linecap="round" stroke-linejoin="round"/>
<path d="M262.902 73.3458C262.716 74.0098 262.192 74.4812 261.74 74.355C261.289 74.2289 261.076 73.5782 261.255 72.8942C261.435 72.2103 261.966 71.7522 262.417 71.8783C262.869 72.0045 263.088 72.6618 262.902 73.3458Z" fill="#263238"/>
<path d="M277.962 76.9844C277.776 77.6484 277.251 78.1198 276.8 77.9937C276.348 77.8675 276.136 77.2168 276.315 76.5329C276.494 75.8489 277.025 75.3974 277.477 75.5236C277.928 75.6497 278.154 76.3005 277.962 76.9844Z" fill="#263238"/>
<path d="M251.84 75.2779C252.114 75.365 252.41 75.3602 252.682 75.2644C252.954 75.1686 253.187 74.9869 253.347 74.7467C253.865 73.8901 252.836 70.8092 256.601 67.0443C260.365 63.2794 264.648 62.7615 266.7 61.0683C268.752 59.3751 269.097 58.5053 267.729 56.7921C266.361 55.079 264.303 52.1441 256.773 56.4535C249.243 60.7629 246.501 63.4653 247.703 67.2302C248.35 69.3636 249.332 71.3807 250.611 73.2062L251.84 75.2779Z" fill="#263238"/>
<path d="M266.016 55.4045C266.016 55.4045 267.557 58.9967 270.292 60.3646C273.028 61.7324 276.627 62.2503 280.916 64.82C285.206 67.3897 284.343 75.0855 284.343 75.0855C284.343 75.0855 290.159 77.9938 292.556 73.7176C294.953 69.4415 297.204 62.2503 287.762 56.945C278.32 51.6396 271.321 45.3051 266.016 55.4045Z" fill="#263238"/>
<path d="M239.29 45.5107V69.8862C239.289 70.556 239.021 71.1978 238.547 71.6708C238.073 72.1438 237.43 72.4094 236.76 72.4094C236.092 72.4076 235.451 72.1412 234.978 71.6684C234.505 71.1956 234.239 70.5548 234.237 69.8862V45.5107H239.29Z" fill="white" stroke="#263238" stroke-linecap="round" stroke-linejoin="round"/>
<path d="M239.29 58.4321V69.8662C239.289 70.536 239.021 71.1778 238.547 71.6508C238.073 72.1238 237.43 72.3894 236.76 72.3894C236.092 72.3877 235.451 72.1213 234.978 71.6484C234.505 71.1756 234.239 70.5349 234.237 69.8662V58.4321H239.29Z" fill="#1E4646" stroke="#263238" stroke-linecap="round" stroke-linejoin="round"/>
<path d="M240.08 44.2954H233.407V46.3206H240.08V44.2954Z" fill="white" stroke="#263238" stroke-linecap="round" stroke-linejoin="round"/>
<path d="M223.7 94.0489C223.7 94.0489 223.7 93.4446 220.871 91.3929C218.042 89.3411 207.319 89.1685 205.094 91.7979C202.87 94.4274 210.758 101.705 212.983 102.721C215.207 103.737 219.251 101.911 220.466 100.496C221.681 99.082 223.7 94.0489 223.7 94.0489Z" fill="white" stroke="#263238" stroke-linecap="round" stroke-linejoin="round"/>
<path d="M209.138 78.6772L207.146 93.843C207.146 93.843 210.991 99.1019 214.45 99.3077C217.909 99.5136 220.924 96.2733 220.924 96.2733L221.734 81.1075C221.734 81.1075 213.793 80.9016 209.138 78.6772Z" fill="white" stroke="#263238" stroke-linecap="round" stroke-linejoin="round"/>
<path d="M211.362 68.5647C211.362 68.5647 211.768 58.6579 212.173 54.6207C212.578 50.5836 213.793 47.7417 214.397 47.7417C215.001 47.7417 222.491 42.4961 222.491 42.4961C222.491 42.4961 234.622 43.3062 235.837 43.3062C237.053 43.3062 239.476 44.1163 239.277 45.2982L239.071 46.5067C239.176 47.1665 239.176 47.8388 239.071 48.4987C238.905 48.9069 238.624 49.2578 238.261 49.5079C238.367 49.8302 238.341 50.1811 238.189 50.4844C238.037 50.7878 237.772 51.019 237.451 51.1281C236.243 51.7323 231.183 54.3618 231.183 54.3618C229.946 56.9231 228.866 59.5574 227.949 62.2501C227.139 65.0854 223.905 68.1132 223.905 68.1132C223.905 68.1132 224.105 70.9485 224.105 72.7612C223.974 74.3482 223.635 75.9111 223.095 77.4092C223.197 78.4869 223.197 79.5718 223.095 80.6495C222.896 81.2538 222.285 82.0639 221.681 82.0639C221.077 82.0639 216.621 82.8739 214.377 82.4689C212.133 82.0639 208.919 79.4344 208.919 79.4344L209.928 75.3907V72.1503C209.948 70.995 211.362 68.5647 211.362 68.5647Z" fill="#1E4646" stroke="#263238" stroke-linecap="round" stroke-linejoin="round"/>
<path d="M218.241 68.1598C218.241 68.1598 222.491 66.5463 222.889 63.9169C223.288 61.2874 225.313 54.6209 225.313 54.6209L231.176 54.415" stroke="#263238" stroke-linecap="round" stroke-linejoin="round"/>
<path d="M220.466 51.7923C220.466 51.7923 225.725 49.9729 227.139 49.9729C228.553 49.9729 238.261 49.5679 238.261 49.5679" stroke="#263238" stroke-linecap="round" stroke-linejoin="round"/>
<path d="M220.267 47.144C222.714 46.532 225.221 46.1935 227.743 46.1348C231.389 46.1348 239.071 46.5332 239.071 46.5332" stroke="#263238" stroke-linecap="round" stroke-linejoin="round"/>
<path d="M211.163 76.4531C211.163 76.4531 213.819 79.2818 219.456 78.6775" stroke="#263238" stroke-linecap="round" stroke-linejoin="round"/>
<path d="M222.69 75.6431C222.69 75.6431 221.681 76.2539 217.026 76.2539" stroke="#263238" stroke-linecap="round" stroke-linejoin="round"/>
<path d="M207.119 93.8431L205.094 91.8511C205.094 91.8511 193.972 133.915 193.773 136.95C193.574 139.984 198.222 145.037 200.851 146.246C203.48 147.454 212.172 146.445 215.008 145.031C217.843 143.617 219.656 137.953 221.276 132.694C222.896 127.435 221.07 118.132 221.475 115.304C221.88 112.475 223.699 94.0555 223.699 94.0555L220.871 96.28C220.871 96.28 212.982 96.0675 207.119 93.8431Z" fill="white" stroke="#263238" stroke-linecap="round" stroke-linejoin="round"/>
<path d="M208.381 192.846H314.09" stroke="#263238" stroke-linecap="round" stroke-linejoin="round"/>
<path d="M95.0961 186.996C128.152 186.996 154.949 160.199 154.949 127.143C154.949 94.0871 128.152 67.29 95.0961 67.29C62.0402 67.29 35.2432 94.0871 35.2432 127.143C35.2432 160.199 62.0402 186.996 95.0961 186.996Z" fill="#1E4646"/>
<path d="M53.7419 190.077L55.0699 159.739C55.0699 159.739 49.9704 175.462 47.3144 179.446C44.6584 183.43 42.6664 184.984 38.9015 184.32C35.1366 183.656 28.0518 172.136 28.0518 166.392C28.0518 160.648 34.0278 146.02 35.3558 142.7C36.6838 139.38 43.7753 111.253 44.6518 109.7C45.5282 108.146 74.3259 99.4674 74.3259 99.4674L76.3179 95.2576C76.3179 95.2576 105.773 91.9376 107.765 92.1634C109.757 92.3891 109.538 95.7025 109.538 95.7025C109.538 95.7025 113.13 98.81 113.575 99.474C114.02 100.138 130.354 108.152 135.447 109.925C140.54 111.698 140.985 113.464 141.204 114.354C141.423 115.244 154.716 145.137 159.59 150.21C164.464 155.283 152.06 165.044 147.851 166.81C143.641 168.576 137.891 167.693 135.899 164.599C133.907 161.505 129.066 157.521 129.066 157.521L129.883 190.568" fill="white"/>
<path d="M53.7419 190.077L55.0699 159.739C55.0699 159.739 49.9704 175.462 47.3144 179.446C44.6584 183.43 42.6664 184.984 38.9015 184.32C35.1366 183.656 28.0518 172.136 28.0518 166.392C28.0518 160.648 34.0278 146.02 35.3558 142.7C36.6838 139.38 43.7753 111.253 44.6518 109.7C45.5282 108.146 74.3259 99.4674 74.3259 99.4674L76.3179 95.2576C76.3179 95.2576 105.773 91.9376 107.765 92.1634C109.757 92.3891 109.538 95.7025 109.538 95.7025C109.538 95.7025 113.13 98.81 113.575 99.474C114.02 100.138 130.354 108.152 135.447 109.925C140.54 111.698 140.985 113.464 141.204 114.354C141.423 115.244 154.716 145.137 159.59 150.21C164.464 155.283 152.06 165.044 147.851 166.81C143.641 168.576 137.891 167.693 135.899 164.599C133.907 161.505 129.066 157.521 129.066 157.521L129.883 190.568" stroke="#263238" stroke-linecap="round" stroke-linejoin="round"/>
<path d="M55.0764 159.739L54.7378 137.601" stroke="#263238" stroke-linecap="round" stroke-linejoin="round"/>
<path d="M53.1841 148.75L53.6954 152.408" stroke="#263238" stroke-linecap="round" stroke-linejoin="round"/>
<path d="M51.0991 133.962L52.6994 145.297" stroke="#263238" stroke-linecap="round" stroke-linejoin="round"/>
<path d="M126.649 143.63C126.479 144.635 126.39 145.652 126.384 146.671" stroke="#263238" stroke-linecap="round" stroke-linejoin="round"/>
<path d="M132.585 127.627C130.356 131.801 128.575 136.199 127.273 140.748" stroke="#263238" stroke-linecap="round" stroke-linejoin="round"/>
<path d="M125.939 134.712C125.939 134.712 124.166 140.688 124.391 145.562" stroke="#263238" stroke-linecap="round" stroke-linejoin="round"/>
<path d="M101.072 106.984C100.527 107.515 99.9562 108.04 99.3652 108.538" stroke="#263238" stroke-linecap="round" stroke-linejoin="round"/>
<path d="M109.106 96.7979C107.309 99.7621 105.23 102.546 102.898 105.111" stroke="#263238" stroke-linecap="round" stroke-linejoin="round"/>
<path d="M89.6646 185.097L89.6182 190.296" stroke="#263238" stroke-linecap="round" stroke-linejoin="round"/>
<path d="M90.1823 124.878L89.6909 181.909" stroke="#263238" stroke-linecap="round" stroke-linejoin="round"/>
<path d="M89.3989 105.875L90.282 110.085L90.209 121.691" stroke="#263238" stroke-linecap="round" stroke-linejoin="round"/>
<path d="M44.6653 164.831L40.0173 156.863L39.7915 165.947C39.7915 165.947 43.1181 166.823 44.6653 164.831Z" fill="white" stroke="#263238" stroke-linecap="round" stroke-linejoin="round"/>
<path d="M53.523 127.315L50.1898 130.562L26.5049 105.33L29.8382 102.083L53.523 127.315Z" fill="#263238" stroke="#263238" stroke-linecap="round" stroke-linejoin="round"/>
<path d="M29.4841 100.44L24.8809 104.926L26.2016 106.281L30.8049 101.795L29.4841 100.44Z" fill="white" stroke="#263238" stroke-linecap="round" stroke-linejoin="round"/>
<path d="M53.1077 127.718L50.6206 130.142L52.6318 132.206L55.1189 129.782L53.1077 127.718Z" fill="white" stroke="#263238" stroke-linecap="round" stroke-linejoin="round"/>
<path d="M52.0423 126.711C51.9331 126.821 51.8032 126.908 51.6602 126.968C51.5172 127.027 51.3639 127.058 51.209 127.058C51.0541 127.058 50.9008 127.027 50.7577 126.968C50.6147 126.908 50.4849 126.821 50.3757 126.711L32.3348 107.283C32.225 107.173 32.1378 107.044 32.0784 106.901C32.0189 106.758 31.9883 106.604 31.9883 106.449C31.9883 106.294 32.0189 106.141 32.0784 105.998C32.1378 105.855 32.225 105.725 32.3348 105.616C32.444 105.506 32.5739 105.419 32.7169 105.36C32.8599 105.3 33.0132 105.27 33.1681 105.27C33.323 105.27 33.4763 105.3 33.6194 105.36C33.7624 105.419 33.8922 105.506 34.0014 105.616L52.0423 125.038C52.1523 125.148 52.2396 125.278 52.2992 125.422C52.3587 125.565 52.3894 125.719 52.3894 125.875C52.3894 126.03 52.3587 126.184 52.2992 126.328C52.2396 126.471 52.1523 126.602 52.0423 126.711Z" fill="white" stroke="#263238" stroke-linecap="round" stroke-linejoin="round"/>
<path d="M53.4126 131.433L54.3212 130.548L67.093 143.663C67.1459 143.718 67.1876 143.782 67.2157 143.853C67.2438 143.923 67.2578 143.998 67.2568 144.074C67.2558 144.15 67.2398 144.225 67.2099 144.295C67.1799 144.364 67.1365 144.427 67.0822 144.48L67.006 144.555C66.895 144.663 66.7456 144.722 66.5906 144.72C66.4357 144.718 66.2879 144.655 66.1798 144.544L53.4126 131.433Z" fill="white" stroke="#263238" stroke-linecap="round" stroke-linejoin="round"/>
<path d="M31.3786 136.04L28.2777 126.519L30.0506 116.107C30.0506 116.107 34.9244 110.576 35.5884 110.35C36.2524 110.124 42.2284 110.131 42.2284 110.131C42.2284 110.131 43.3372 109.686 43.3372 110.795C43.3577 111.087 43.3081 111.38 43.1926 111.649C43.0772 111.918 42.8991 112.156 42.6732 112.342C42.6732 112.342 45.1101 112.568 45.7741 112.568C46.4381 112.568 47.1021 113.013 47.1021 114.115C47.1021 115.217 45.3292 115.669 44.6652 115.888C44.0012 116.107 41.5644 116.997 41.5644 116.997L37.7995 121.207H42.0092C42.8343 121.27 43.6508 121.417 44.4461 121.645C44.8844 122.309 45.1101 124.746 45.1101 124.746C45.8493 125.942 46.2317 127.324 46.2124 128.73C46.2124 131.16 46.8764 132.495 46.2124 132.714C45.5484 132.933 44.0012 134.042 44.0012 132.933C43.9915 132.191 43.9182 131.451 43.7821 130.722L41.3452 131.16L40.4555 132.933C40.4555 132.933 42.4475 137.362 42.4475 139.135C42.4475 140.908 41.5644 146.884 41.5644 146.884L40.6812 163.716C38.6783 163.589 36.7209 163.063 34.9244 162.169C31.6044 160.615 28.0586 154.865 28.0586 154.865L32.0426 141.133L31.3786 136.04Z" fill="#1E4646" stroke="#263238" stroke-linecap="round" stroke-linejoin="round"/>
<path d="M34.6986 151.983C32.8328 151.678 31.113 150.244 29.8116 148.816L28.0586 154.865C28.0586 154.865 31.5977 160.622 34.9177 162.169C36.7168 163.063 38.6762 163.589 40.6812 163.716L41.3452 150.967C39.5657 151.651 36.9894 152.368 34.6986 151.983Z" fill="#D1D1D1" stroke="#263238" stroke-linecap="round" stroke-linejoin="round"/>
<path d="M37.5801 128.736C37.5801 128.736 38.0183 127.627 38.6823 127.408C39.3463 127.189 45.3223 125.642 45.3223 125.642" stroke="#263238" stroke-linecap="round" stroke-linejoin="round"/>
<path d="M34.9243 124.746L35.5883 122.535L37.7994 121.2" stroke="#263238" stroke-linecap="round" stroke-linejoin="round"/>
<path d="M32.2617 120.762C32.2617 120.762 35.1435 115.669 36.0266 114.786C36.9097 113.903 42.0026 112.794 42.6666 112.349" stroke="#263238" stroke-linecap="round" stroke-linejoin="round"/>
<path d="M40.6811 163.723L44.6651 164.831C44.6651 164.831 45.774 180.555 45.774 182.547C45.774 184.539 41.126 186.976 36.0265 187.421C30.927 187.866 22.959 183.875 22.959 180.336C22.959 176.797 28.2378 152.667 28.2378 152.667C28.2378 152.667 32.0425 162.614 40.6811 163.723Z" fill="white" stroke="#263238" stroke-linecap="round" stroke-linejoin="round"/>
<path d="M101.138 153.756C99.2426 153.712 97.3689 153.339 95.6007 152.654C93.5369 151.814 91.3819 151.219 89.1798 150.881C87.8518 150.655 85.4149 151.764 83.642 150.655C81.8691 149.546 80.322 148.663 83.1971 147.554C86.0723 146.445 90.7269 147.78 92.4931 147.999C94.2594 148.218 97.586 147.554 97.586 147.554L101.138 153.756Z" fill="#1E4646" stroke="#263238" stroke-linecap="round" stroke-linejoin="round"/>
<path d="M71.9025 155.974C81.0741 155.974 88.5092 153.248 88.5092 149.885C88.5092 146.522 81.0741 143.796 71.9025 143.796C62.7309 143.796 55.2959 146.522 55.2959 149.885C55.2959 153.248 62.7309 155.974 71.9025 155.974Z" fill="#263238" stroke="#263238" stroke-linecap="round" stroke-linejoin="round"/>
<path d="M71.9024 155.091C80.4652 155.091 87.4067 152.76 87.4067 149.885C87.4067 147.01 80.4652 144.679 71.9024 144.679C63.3395 144.679 56.3979 147.01 56.3979 149.885C56.3979 152.76 63.3395 155.091 71.9024 155.091Z" fill="white" stroke="#263238" stroke-linecap="round" stroke-linejoin="round"/>
<path d="M121.291 169.705C121.291 169.705 120.72 159.679 120.72 158.118C120.72 156.558 127.991 159.161 127.991 159.161C127.991 159.161 124.199 168.815 121.291 169.705Z" fill="white" stroke="#263238" stroke-linecap="round" stroke-linejoin="round"/>
<path d="M125.082 149.553C125.082 149.553 117.114 147.335 114.897 146.452C112.679 145.569 101.829 140.695 99.8371 139.36C97.8451 138.026 92.0816 137.594 92.0816 137.594C92.0816 137.594 86.9887 135.376 86.3247 135.376C85.6607 135.376 76.1389 139.141 74.1469 140.024C72.1549 140.908 72.374 142.906 73.2572 143.57C74.1403 144.234 82.7856 140.25 82.7856 140.25L80.3487 146.89C80.3487 146.89 77.2478 149.327 78.3567 150.874C79.4656 152.421 82.7922 149.765 83.8944 149.101C84.9967 148.437 91.4242 145.336 91.4242 145.336C91.4242 145.336 85.6673 151.757 84.5584 153.53C83.4496 155.303 86.1122 155.303 86.9953 154.858C87.8784 154.413 94.0802 149.765 94.0802 149.765C94.0802 149.765 103.164 155.967 105.601 155.967C108.037 155.967 112.021 154.413 112.021 154.413L125.746 162.176C125.746 162.176 127.957 158.411 128.183 155.748C128.409 153.085 128.402 149.772 128.402 149.772L125.082 149.553Z" fill="#1E4646" stroke="#263238" stroke-linecap="round" stroke-linejoin="round"/>
<path d="M80.3218 146.89L85.4147 142.461L89.6178 140.469" stroke="#263238" stroke-linecap="round" stroke-linejoin="round"/>
<path d="M82.7588 140.25L83.861 137.813" stroke="#263238" stroke-linecap="round" stroke-linejoin="round"/>
<path d="M87.4067 141.798L88.2899 139.142" stroke="#263238" stroke-linecap="round" stroke-linejoin="round"/>
<path d="M94.0469 149.772L100.03 148.218" stroke="#263238" stroke-linecap="round" stroke-linejoin="round"/>
<path d="M91.3906 145.343L94.4915 143.57" stroke="#263238" stroke-linecap="round" stroke-linejoin="round"/>
<path d="M122.712 148.889C123.505 151.167 123.637 153.624 123.09 155.974C122.761 157.317 122.247 158.609 121.563 159.811L125.746 162.175C125.746 162.175 127.957 158.41 128.183 155.748C128.409 153.085 128.402 149.772 128.402 149.772L125.082 149.553L122.712 148.889Z" fill="#D1D1D1" stroke="#263238" stroke-linecap="round" stroke-linejoin="round"/>
<path d="M150.314 141.578C150.314 141.578 144.338 143.125 141.895 144.46C139.451 145.795 129.717 147.116 128.834 147.554C127.951 147.992 122.725 148.882 122.725 148.882C122.725 148.882 125.288 154.194 123.96 158.404C122.632 162.614 121.304 169.692 121.304 169.692C121.304 169.692 132.592 172.793 142.34 170.356C152.087 167.919 158.508 160.834 160.268 159.944C162.027 159.055 162.924 155.296 162.924 153.523C162.924 151.751 157.167 145.33 155.839 144.891" fill="white"/>
<path d="M150.314 141.578C150.314 141.578 144.338 143.125 141.895 144.46C139.451 145.795 129.717 147.116 128.834 147.554C127.951 147.992 122.725 148.882 122.725 148.882C122.725 148.882 125.288 154.194 123.96 158.404C122.632 162.614 121.304 169.692 121.304 169.692C121.304 169.692 132.592 172.793 142.34 170.356C152.087 167.919 158.508 160.834 160.268 159.944C162.027 159.055 162.924 155.296 162.924 153.523C162.924 151.751 157.167 145.33 155.839 144.891" stroke="#263238" stroke-linecap="round" stroke-linejoin="round"/>
<path d="M86.743 48.2995C86.743 48.2995 80.3221 50.2915 76.5572 53.8373C72.7924 57.383 72.7924 71.1013 72.7924 72.8808C72.7924 74.6603 72.1284 85.2843 72.5666 88.3852C73.0048 91.4861 81.8626 104.547 87.8386 104.773C93.8146 104.998 103.111 97.907 104.664 95.6892C106.537 93.0361 108.168 90.2205 109.538 87.2763C110.421 85.0586 111.53 77.0906 111.756 74.6603C111.876 72.5948 111.876 70.5241 111.756 68.4586C111.756 68.4586 113.084 62.0377 110.647 57.8346C108.21 53.6314 101.351 48.5386 95.8066 47.6488C90.2622 46.759 86.743 48.2995 86.743 48.2995Z" fill="white" stroke="#263238" stroke-linecap="round" stroke-linejoin="round"/>
<path d="M72.7919 69.5606C72.7919 69.5606 77.4399 65.5766 87.8515 65.3509C94.0947 65.2418 100.187 67.2734 105.115 71.1077C105.115 71.1077 106.669 69.9989 106.224 75.9815C105.779 81.9641 105.115 83.2855 100.248 85.0584C95.3812 86.8313 84.5248 88.1593 79.8768 86.8313C75.2288 85.5033 72.772 80.417 72.5728 78.8633C72.3736 77.3095 72.7919 69.5606 72.7919 69.5606Z" fill="#D1D1D1" stroke="#263238" stroke-linecap="round" stroke-linejoin="round"/>
<path d="M72.792 67.5688C78.6969 69.9177 85.0367 70.9728 91.384 70.6631C102.234 70.2248 110.892 67.0576 112.001 66.8384C113.11 66.6193 112.227 68.5715 112.227 68.5715L105.999 71.772C105.999 71.772 105.999 77.748 104.671 79.74C103.343 81.732 100.468 83.06 97.3667 83.06C94.2658 83.06 91.3907 81.2937 89.6112 79.74C88.8741 79.076 87.1809 79.2951 86.5103 80.1848C85.8396 81.0746 84.9632 82.396 82.0814 82.1768C79.1996 81.9577 75.8863 81.2871 74.5516 79.5208C73.217 77.7546 72.7854 72.8808 72.7854 72.8808C72.7854 72.8808 72.5663 68.452 72.792 67.5688Z" fill="white" stroke="#263238" stroke-linecap="round" stroke-linejoin="round"/>
<path d="M81.3776 101.314C82.0509 103.165 83.2256 104.792 84.7706 106.015C87.3801 108.1 88.9472 108.883 91.8157 108.1C94.6841 107.316 103.821 102.622 100.687 103.14C98.8319 103.454 97.0015 103.898 95.2087 104.468C95.2087 104.468 100.952 101.333 104.604 97.9404C105.64 97.0141 106.37 95.7945 106.696 94.4435C107.022 93.0926 106.93 91.6744 106.43 90.3774C106.43 90.3774 81.1186 98.1861 79.2661 97.137C77.4135 96.0878 81.3776 101.314 81.3776 101.314Z" fill="#263238"/>
<path d="M111.802 74.6535C111.868 73.8965 111.895 73.0068 111.895 72.1436C111.311 72.854 108.741 75.9682 107.373 77.5286C105.819 79.3015 102.274 82.1766 88.3229 81.5126C74.3723 80.8486 72.5994 78.8566 72.5994 78.8566C72.4599 82.4621 72.3603 86.6254 72.5994 88.3784C73.0443 91.4792 81.8954 104.54 87.8714 104.766C93.8474 104.992 103.143 97.9001 104.697 95.6824C106.57 93.0292 108.201 90.2137 109.571 87.2695L107.798 89.9255L108.462 79.0757L111.802 74.6535Z" fill="#1E4646" stroke="#263238" stroke-linecap="round" stroke-linejoin="round"/>
<path d="M86.079 75.092C86.079 75.092 83.423 71.772 77.8853 72.6618" stroke="#263238" stroke-linecap="round" stroke-linejoin="round"/>
<path d="M92.9448 75.0918C92.9448 75.0918 96.4839 73.0998 102.467 73.9896" stroke="#263238" stroke-linecap="round" stroke-linejoin="round"/>
<path d="M78.5488 76.8647C78.5488 76.8647 80.5408 80.1847 84.5248 78.1927" stroke="#263238" stroke-linecap="round" stroke-linejoin="round"/>
<path d="M93.8276 78.4185C93.8276 78.4185 96.0454 81.9576 101.357 78.4185" stroke="#263238" stroke-linecap="round" stroke-linejoin="round"/>
<path d="M29.5923 190.469H156.343" stroke="#263238" stroke-linecap="round" stroke-linejoin="round"/>
<path d="M179.477 301.104C212.533 301.104 239.33 274.307 239.33 241.251C239.33 208.195 212.533 181.398 179.477 181.398C146.421 181.398 119.624 208.195 119.624 241.251C119.624 274.307 146.421 301.104 179.477 301.104Z" fill="#1E4646"/>
<path d="M147.565 182.646C147.565 182.646 139.597 177.334 130.613 177.56C121.63 177.786 118.256 187.009 117.778 189.672C117.3 192.334 118.024 193.788 112.699 193.788C107.373 193.788 96.2249 192.819 91.869 198.636C87.5132 204.452 87.0218 210.986 90.8996 215.103C94.7774 219.22 96.2116 220.913 96.2116 220.913C96.2116 220.913 92.0948 224.791 94.0337 230.116C95.9726 235.441 102.998 237.865 107.599 237.865C112.201 237.865 119.219 231.324 121.158 227.453C123.097 223.582 128.668 224.797 133.024 218.735C137.38 212.673 135.208 205.169 134.478 201.053C133.748 196.936 134.724 188.437 140.534 186.285C146.344 184.134 147.313 184.101 147.313 184.101L147.565 182.646Z" fill="#263238" stroke="#263238" stroke-linecap="round" stroke-linejoin="round"/>
<path d="M79.9966 300.593L97.4332 269.351C98.0083 264 99.1433 258.723 100.82 253.608C103.728 244.405 107.121 229.631 111.238 224.545C115.355 219.458 129.166 214.857 129.166 214.857C129.166 214.857 142.486 220.674 146.118 223.336C149.75 225.999 155.805 230.6 157.738 234.717C159.67 238.834 161.376 248.761 164.524 252.393C167.671 256.025 174.696 263.296 174.451 270.075C174.205 276.855 172.996 279.517 172.996 281.217C172.996 282.917 169.61 280.859 163.315 281.582C157.021 282.306 152.539 284.378 152.027 285.101C151.516 285.825 139.332 305.44 139.332 305.44" fill="white"/>
<path d="M79.9966 300.593L97.4332 269.351C98.0083 264 99.1433 258.723 100.82 253.608C103.728 244.405 107.121 229.631 111.238 224.545C115.355 219.458 129.166 214.857 129.166 214.857C129.166 214.857 142.486 220.674 146.118 223.336C149.75 225.999 155.805 230.6 157.738 234.717C159.67 238.834 161.376 248.761 164.524 252.393C167.671 256.025 174.696 263.296 174.451 270.075C174.205 276.855 172.996 279.517 172.996 281.217C172.996 282.917 169.61 280.859 163.315 281.582C157.021 282.306 152.539 284.378 152.027 285.101C151.516 285.825 139.332 305.44 139.332 305.44" stroke="#263238" stroke-linecap="round" stroke-linejoin="round"/>
<path d="M158.216 245.613C158.216 245.613 160.64 259.179 161.124 262.565C161.609 265.952 154.83 279.763 153.156 281.217" stroke="#263238" stroke-linecap="round" stroke-linejoin="round"/>
<path d="M152.652 245.613C152.652 245.613 152.167 256.994 152.891 262.565C153.614 268.136 155.069 275.181 153.86 277.339" stroke="#263238" stroke-linecap="round" stroke-linejoin="round"/>
<path d="M160.4 266.197C160.4 266.197 164.517 262.811 169.842 264.265" stroke="#263238" stroke-linecap="round" stroke-linejoin="round"/>
<path d="M162.578 263.296C162.578 263.296 165.725 261.357 168.634 261.357" stroke="#263238" stroke-linecap="round" stroke-linejoin="round"/>
<path d="M153.129 226.723L155.314 231.085L157.97 243.436L154.092 236.656L152.16 244.89L149.736 229.877C149.736 229.877 150.712 224.79 153.129 226.723Z" fill="white" stroke="#263238" stroke-linecap="round" stroke-linejoin="round"/>
<path d="M143.449 204.445C143.449 204.445 140.54 207.101 138.362 208.077C136.184 209.054 133.515 210.016 133.515 210.016L146.835 236.656L152.147 244.89C152.147 244.89 151.901 237.864 151.901 235.441C151.87 233.736 151.708 232.035 151.417 230.355L157.711 222.606C157.711 222.606 159.65 204.678 157.957 201.783C156.264 198.888 146.596 201.298 143.449 204.445Z" fill="white" stroke="#263238" stroke-linecap="round" stroke-linejoin="round"/>
<path d="M158.329 215.86L153.681 211.703C153.681 211.703 152.632 212.699 151.888 219.153C151.641 222.07 152.268 224.993 153.687 227.553L157.671 222.606C157.671 222.606 158.056 219.605 158.329 215.86Z" fill="#263238" stroke="#263238" stroke-linecap="round" stroke-linejoin="round"/>
<path d="M187.757 196.737C187.757 196.737 186.037 205.076 184.57 207.772C183.103 210.468 181.031 211.949 180.858 213.144C180.36 217.281 180.374 219.027 179.145 220.747C177.917 222.467 171.051 226.637 166.881 227.613C162.711 228.589 160.241 229.332 159.026 228.104C157.811 226.876 153.389 220.501 153.389 217.805C153.389 215.109 152.652 214.372 153.389 212.653C154.126 210.933 154.126 206.517 154.126 206.517C154.126 206.517 154.126 204.313 157.067 200.634C160.009 196.956 165.653 195.986 169.823 195.986C173.993 195.986 174.471 193.038 178.899 191.816C183.328 190.595 186.529 194.28 187.757 196.737Z" fill="white" stroke="#263238" stroke-linecap="round" stroke-linejoin="round"/>
<path d="M178.109 211.457C177.598 212.314 176.848 212.818 176.443 212.579C176.038 212.34 176.124 211.437 176.642 210.587C177.16 209.737 177.904 209.226 178.309 209.465C178.714 209.704 178.627 210.594 178.109 211.457Z" fill="#263238"/>
<path d="M176.947 206.736C176.947 206.736 180.048 205.455 181.655 208.343" stroke="#263238" stroke-linecap="round" stroke-linejoin="round"/>
<path d="M179.172 220.773C179.79 219.704 180.202 218.528 180.387 217.307C178.481 216.265 174.285 213.808 172.054 211.205C169.112 207.772 163.229 199.432 163.229 199.432L162.266 200.661L167.173 208.755C167.173 208.755 161.529 213.403 157.605 213.403C154.551 213.403 153.873 212.221 153.727 211.69C153.657 212.022 153.559 212.349 153.435 212.666C152.698 214.385 153.435 215.116 153.435 217.818C153.435 220.521 157.851 226.895 159.072 228.117C160.294 229.339 162.758 228.608 166.927 227.626C171.097 226.643 177.943 222.493 179.172 220.773Z" fill="#1E4646" stroke="#263238" stroke-linecap="round" stroke-linejoin="round"/>
<path d="M161.264 202.619C163.411 201.354 165.887 200.757 168.375 200.906C172.545 201.152 177.452 202.865 178.68 200.661C179.909 198.456 180.155 194.28 183.833 195.262C187.512 196.245 188.003 198.449 188.003 198.449C188.003 198.449 195.606 198.204 196.343 194.034C197.08 189.864 192.91 183.244 190.207 182.746C187.505 182.248 185.055 181.763 185.055 181.763C185.055 181.763 175.759 172.195 164.697 172.467C153.634 172.739 148.761 177.115 146.058 186.451C143.356 195.787 144.584 199.206 142.373 202.387C140.162 205.568 138.94 208.768 144.365 208.277C149.79 207.785 153.442 204.352 156.138 203.124C157.743 202.393 159.546 202.215 161.264 202.619Z" fill="#263238" stroke="#263238" stroke-linecap="round" stroke-linejoin="round"/>
<path d="M162 204.339C162 204.339 164.942 200.66 162.246 196.736C159.55 192.812 151.695 200.415 152.95 204.585C154.205 208.755 157.366 208.263 157.366 208.263" fill="white"/>
<path d="M162 204.339C162 204.339 164.942 200.66 162.246 196.736C159.55 192.812 151.695 200.415 152.95 204.585C154.205 208.755 157.366 208.263 157.366 208.263" stroke="#263238" stroke-linecap="round" stroke-linejoin="round"/>
<path d="M135.454 206.869L150.228 236.895L145.142 245.129L127.22 214.133L135.454 206.869Z" fill="white" stroke="#263238" stroke-linecap="round" stroke-linejoin="round"/>
<path d="M153.382 282.399C153.382 282.399 153.043 276.602 160.433 276.025C167.824 275.447 173.554 278.627 173.866 283.528C174.178 288.428 159.086 285.267 157.406 285.267C155.726 285.267 153.382 282.399 153.382 282.399Z" fill="white" stroke="#263238" stroke-linecap="round" stroke-linejoin="round"/>
<path d="M235.957 297.97H137.632V303.494H235.718" fill="white"/>
<path d="M235.957 297.97H137.632V303.494H235.718" stroke="#263238" stroke-linecap="round" stroke-linejoin="round"/>
<path d="M201.084 239.08L175.414 249.73V289.451H185.101V252.154L203.023 242.227L201.084 239.08Z" fill="white" stroke="#263238" stroke-linecap="round" stroke-linejoin="round"/>
<path d="M214.463 276.888C214.29 276.807 214.143 276.679 214.04 276.518C213.937 276.356 213.882 276.169 213.882 275.978C213.882 275.787 213.937 275.599 214.04 275.438C214.143 275.277 214.29 275.149 214.463 275.068C214.463 274.804 214.358 274.551 214.171 274.364C213.985 274.177 213.731 274.072 213.467 274.072H204.928C204.947 275.1 204.593 276.1 203.932 276.888C203.932 277.079 203.988 277.267 204.091 277.428C204.195 277.589 204.342 277.717 204.516 277.797C204.342 277.875 204.194 278.001 204.09 278.162C203.986 278.322 203.931 278.509 203.932 278.7C204.106 278.781 204.253 278.909 204.356 279.07C204.458 279.232 204.513 279.419 204.513 279.61C204.513 279.801 204.458 279.989 204.356 280.15C204.253 280.311 204.106 280.439 203.932 280.52C203.932 280.711 203.988 280.899 204.091 281.06C204.195 281.221 204.342 281.349 204.516 281.429C204.342 281.507 204.194 281.633 204.09 281.794C203.986 281.954 203.931 282.141 203.932 282.332C203.931 282.464 203.956 282.594 204.006 282.716C204.056 282.837 204.129 282.948 204.222 283.041C204.314 283.134 204.424 283.208 204.545 283.259C204.667 283.309 204.797 283.335 204.928 283.335H213.467C213.599 283.335 213.729 283.309 213.85 283.259C213.971 283.208 214.081 283.134 214.174 283.041C214.266 282.948 214.34 282.837 214.389 282.716C214.439 282.594 214.464 282.464 214.463 282.332C214.464 282.141 214.409 281.954 214.306 281.794C214.202 281.633 214.054 281.507 213.879 281.429C213.705 280.966 213.667 280.463 213.771 279.979C213.874 279.495 214.115 279.051 214.463 278.7C214.464 278.509 214.409 278.322 214.306 278.162C214.202 278.001 214.054 277.875 213.879 277.797C214.053 277.717 214.201 277.589 214.304 277.428C214.408 277.267 214.463 277.079 214.463 276.888Z" fill="#263238" stroke="#263238" stroke-linecap="round" stroke-linejoin="round"/>
<path d="M222.278 283.156H175.234V292.784H222.278V283.156Z" fill="white" stroke="#263238" stroke-linecap="round" stroke-linejoin="round"/>
<path d="M222.278 287.691H175.234V292.777H222.278V287.691Z" fill="#263238" stroke="#263238" stroke-linecap="round" stroke-linejoin="round"/>
<path d="M183.953 292.598H178.322V297.864H183.953V292.598Z" fill="#263238" stroke="#263238" stroke-linecap="round" stroke-linejoin="round"/>
<path d="M201.024 292.598H195.393V297.864H201.024V292.598Z" fill="#263238" stroke="#263238" stroke-linecap="round" stroke-linejoin="round"/>
<path d="M218.095 292.598H212.464V297.864H218.095V292.598Z" fill="#263238" stroke="#263238" stroke-linecap="round" stroke-linejoin="round"/>
<path d="M223.188 264.624H181.409V266.801H223.188V264.624Z" fill="white" stroke="#263238" stroke-linecap="round" stroke-linejoin="round"/>
<path d="M220.824 266.623H185.042V269.889H220.824V266.623Z" fill="#263238" stroke="#263238" stroke-linecap="round" stroke-linejoin="round"/>
<path d="M183.456 210.882L179.531 215.166L204.17 237.743L208.096 233.46L183.456 210.882Z" fill="#263238" stroke="#263238" stroke-linecap="round" stroke-linejoin="round"/>
<path d="M207.89 245.447H203.288V257.313H207.89V245.447Z" fill="#263238" stroke="#263238" stroke-linecap="round" stroke-linejoin="round"/>
<path d="M207.392 257.479H203.819V259.464H207.392V257.479Z" fill="#263238" stroke="#263238" stroke-linecap="round" stroke-linejoin="round"/>
<path d="M212.129 241.828L207.917 243.681L212.693 254.542L216.906 252.69L212.129 241.828Z" fill="#263238" stroke="#263238" stroke-linecap="round" stroke-linejoin="round"/>
<path d="M216.507 253.043L213.237 254.481L214.037 256.298L217.307 254.86L216.507 253.043Z" fill="#263238" stroke="#263238" stroke-linecap="round" stroke-linejoin="round"/>
<path d="M204.477 229.631L199.629 234.478V248.283L215.134 244.405V235.202L204.477 229.631Z" fill="white" stroke="#263238" stroke-linecap="round" stroke-linejoin="round"/>
<path d="M215.134 240.806L199.629 244.81V248.283L215.134 244.405V240.806Z" fill="#263238" stroke="#263238" stroke-linecap="round" stroke-linejoin="round"/>
<path d="M173.475 279.763C173.475 279.763 180.739 274.916 182.193 273.223C183.647 271.529 188.972 264.75 190.427 264.504C191.881 264.259 196.967 264.265 197.936 264.265C198.906 264.265 202.053 267.167 202.777 267.652C203.501 268.136 203.746 270.308 203.023 270.56C202.299 270.812 198.421 268.867 198.421 268.867L191.881 270.075C191.881 270.075 201.808 272.499 202.505 272.983C203.202 273.468 202.989 275.885 202.989 275.885L200.114 277.339C200.114 277.339 203.023 277.1 203.023 278.793C203.023 280.487 203.023 282.187 201.808 282.187H200.599C200.599 282.187 203.255 284.843 202.538 285.573C201.68 286.362 200.556 286.796 199.391 286.788C198.175 286.788 195.274 288.236 191.881 289.444C188.488 290.653 183.408 292.83 180.739 293.315C178.07 293.8 174.205 294.285 174.205 294.285C174.205 294.285 173.959 287.99 173.475 286.051C172.99 284.112 172.021 280.48 172.021 280.48L173.475 279.763Z" fill="white" stroke="#263238" stroke-linecap="round" stroke-linejoin="round"/>
<path d="M200.114 277.339L194.975 278.269" stroke="#263238" stroke-linecap="round" stroke-linejoin="round"/>
<path d="M200.599 282.187L195.526 283.222" stroke="#263238" stroke-linecap="round" stroke-linejoin="round"/>
<path d="M114.139 229.876C110.992 234.717 107.36 245.859 107.36 251.43C107.36 257.001 102.758 278.309 102.274 286.057C101.789 293.806 102.035 298.673 106.875 299.623C111.716 300.573 126.974 301.801 133.76 301.071C140.547 300.34 148.322 300.347 158.946 300.347C169.57 300.347 174.689 299.623 174.689 299.623C175.371 296.181 175.854 292.702 176.137 289.205C176.383 284.849 174.689 278.309 173.959 278.309C173.229 278.309 161.609 280.247 151.682 281.456C141.755 282.664 136.908 280.971 135.215 280.247C134.456 279.864 133.635 279.617 132.791 279.517V276.37L129.883 276.131L132.539 259.179C132.539 259.179 134.723 257.725 135.447 256.031C136.171 254.338 137.14 245.613 136.655 240.288C136.171 234.963 131.085 231.809 131.085 231.809" fill="white"/>
<path d="M114.139 229.876C110.992 234.717 107.36 245.859 107.36 251.43C107.36 257.001 102.758 278.309 102.274 286.057C101.789 293.806 102.035 298.673 106.875 299.623C111.716 300.573 126.974 301.801 133.76 301.071C140.547 300.34 148.322 300.347 158.946 300.347C169.57 300.347 174.689 299.623 174.689 299.623C175.371 296.181 175.854 292.702 176.137 289.205C176.383 284.849 174.689 278.309 173.959 278.309C173.229 278.309 161.609 280.247 151.682 281.456C141.755 282.664 136.908 280.971 135.215 280.247C134.456 279.864 133.635 279.617 132.791 279.517V276.37L129.883 276.131L132.539 259.179C132.539 259.179 134.723 257.725 135.447 256.031C136.171 254.338 137.14 245.613 136.655 240.288C136.171 234.963 131.085 231.809 131.085 231.809" stroke="#263238" stroke-linecap="round" stroke-linejoin="round"/>
<path d="M129.398 278.07C129.398 278.07 127.459 281.456 120.195 284.365" stroke="#263238" stroke-linecap="round" stroke-linejoin="round"/>
<path d="M130.128 280.732C130.128 280.732 119.226 288.966 116.809 292.113" stroke="#263238" stroke-linecap="round" stroke-linejoin="round"/>
<path d="M107.818 283.88C107.818 283.88 117.021 283.634 123.562 279.517" stroke="#263238" stroke-linecap="round" stroke-linejoin="round"/>
<path d="M131.337 258.209C131.337 258.209 129.159 254.816 123.588 251.669" stroke="#263238" stroke-linecap="round" stroke-linejoin="round"/>
</svg>
