<svg width="564" height="564" viewBox="0 0 564 564" fill="none" xmlns="http://www.w3.org/2000/svg">
<path d="M489.552 215.019C486.602 207.476 482.882 200.256 478.452 193.475C458.848 163.56 422.503 143.764 391.416 128.592C296.664 82.344 217.704 133.104 173.712 184.992C129.72 236.88 77.8318 263.952 72.1918 320.352C66.5518 376.752 99.2638 438.792 189.504 448.944C279.744 459.096 350.808 390.288 411.72 398.184C504.802 410.242 513.24 275.108 489.552 215.019Z" fill="#1E4646"/>
<path opacity="0.7" d="M489.552 215.019C486.602 207.476 482.882 200.256 478.452 193.475C458.848 163.56 422.503 143.764 391.416 128.592C296.664 82.344 217.704 133.104 173.712 184.992C129.72 236.88 77.8318 263.952 72.1918 320.352C66.5518 376.752 99.2638 438.792 189.504 448.944C279.744 459.096 350.808 390.288 411.72 398.184C504.802 410.242 513.24 275.108 489.552 215.019Z" fill="white"/>
<path d="M272.818 231.86C262.035 224.472 245.904 223.197 245.904 223.197C269.592 219.486 292.31 226.92 292.31 226.92C292.31 226.92 277.195 215.775 266.366 215.775C255.537 215.775 238.313 214.534 238.313 214.534C244.776 207.112 268.464 198.449 268.464 198.449C268.464 198.449 251.195 198.449 243.648 199.69C236.102 200.931 233.936 209.582 233.936 209.582C233.936 209.582 231.782 204.63 215.595 200.919C199.408 197.208 195.144 209.582 195.144 209.582H210.248C215.651 209.582 223.198 217.016 223.198 217.016C223.198 217.016 205.939 217.016 199.51 220.727C193.937 223.919 186.786 237.173 184.846 240.817C189.285 217.996 195.593 195.578 203.706 173.791L204.134 173.464C214.749 165.816 219.306 161.304 219.306 161.304L237.568 191.76L236.046 165.816C236.046 165.816 251.251 170.384 255.819 174.941C260.388 179.499 274.104 194.76 274.104 194.76C274.104 194.76 268.013 171.952 260.41 164.304C252.808 156.657 239.136 147.61 239.136 147.61C239.136 147.61 255.876 147.61 261.956 150.656C268.036 153.701 286.242 165.816 286.242 165.816C286.242 165.816 274.104 144.564 264.945 140.007C255.786 135.45 231.477 135.439 231.477 135.439C231.477 135.439 242.125 126.313 249.728 126.313H271.025C271.025 126.313 264.945 111.108 242.125 115.665C219.306 120.222 216.272 126.336 216.272 126.336C216.272 126.336 213.226 115.688 202.578 114.176C191.929 112.665 167.61 112.653 167.61 112.653C167.61 112.653 201.066 123.302 210.192 132.427C210.192 132.427 185.861 133.95 170.644 133.95C155.427 133.95 134.142 147.633 134.142 147.633C134.142 147.633 166.087 138.507 199.566 143.121C199.566 143.121 176.758 144.632 161.541 153.769C146.324 162.906 131.085 184.225 131.085 184.225C131.085 184.225 144.779 170.542 163.03 165.974C181.281 161.405 207.146 155.326 207.146 155.326C207.146 155.326 181.281 176.509 178.224 187.158C175.167 197.806 166.053 216.057 166.053 216.057C166.053 216.057 187.857 188.195 200.119 176.803C189.967 204.777 177.164 249.841 175.585 301.887C171.073 283.433 157.92 245.238 123.505 226.096C130.025 227.879 139.421 230.473 147.001 232.639C159.951 236.35 169.663 247.494 169.663 247.494C169.663 247.494 158.868 230.168 148.073 222.735C137.278 215.301 121.091 214.072 121.091 214.072C144.779 210.361 167.497 217.783 167.497 217.783C167.497 217.783 152.393 206.65 141.553 206.65C130.713 206.65 113.5 205.409 113.5 205.409C119.974 197.987 143.719 189.323 143.719 189.323C143.719 189.323 126.449 189.323 118.903 190.553C111.356 191.783 109.191 200.457 109.191 200.457C109.191 200.457 107.036 195.505 90.8381 191.794C74.64 188.083 70.3423 200.457 70.3423 200.457H85.5026C90.8945 200.457 98.4521 207.89 98.4521 207.89C98.4521 207.89 81.1824 207.89 74.7641 211.601C68.3458 215.313 59.6602 232.639 59.6602 232.639C59.6602 232.639 72.6096 222.735 76.9298 220.231C81.2501 217.727 93.1166 217.749 93.1166 217.749C93.1166 217.749 83.4046 225.183 78.0014 231.364C72.5983 237.545 68.2894 256.18 68.2894 256.18C68.2894 256.18 78.0014 243.772 81.2388 240.095C84.4762 236.417 95.2711 232.661 95.2711 232.661L94.1431 253.71L107.104 228.894C110.449 232.457 114.053 235.767 117.888 238.798C125.445 244.979 144.869 273.45 144.869 273.45C144.869 273.45 138.395 258.594 136.24 249.931C134.458 242.802 121.723 229.807 117.278 225.442C161.27 246.084 172.911 298.04 175.032 310.042H156.792L160.808 345.382H192.888L196.893 310.042H178.055C179.183 302.845 183.221 281.357 193.847 261.843C193.294 263.896 192.978 265.227 192.978 265.227C192.978 265.227 202.691 252.819 205.939 249.141C209.188 245.464 219.96 241.764 219.96 241.764L218.832 262.824L231.782 238.008C235.129 241.573 238.737 244.883 242.577 247.912C250.123 254.105 269.547 282.564 269.547 282.564C269.547 282.564 263.072 267.708 260.918 259.045C258.763 250.382 240.411 233.101 240.411 233.101C240.411 233.101 258.763 238.053 271.713 241.764C284.662 245.475 294.408 256.62 294.408 256.62C294.408 256.62 283.613 239.294 272.818 231.86ZM177.987 298.582C178.793 279.412 181.033 260.329 184.688 241.493C186.729 239.937 197.682 231.635 201.608 229.39C205.928 226.92 217.794 226.92 217.794 226.92C217.794 226.92 208.082 234.342 202.679 240.535C200.356 243.208 198.224 248.194 196.554 252.943C186.323 268.374 180.785 286.512 177.987 298.582Z" fill="#1E4646"/>
<path opacity="0.5" d="M272.818 231.86C262.035 224.472 245.904 223.197 245.904 223.197C269.592 219.486 292.31 226.92 292.31 226.92C292.31 226.92 277.195 215.775 266.366 215.775C255.537 215.775 238.313 214.534 238.313 214.534C244.776 207.112 268.464 198.449 268.464 198.449C268.464 198.449 251.195 198.449 243.648 199.69C236.102 200.931 233.936 209.582 233.936 209.582C233.936 209.582 231.782 204.63 215.595 200.919C199.408 197.208 195.144 209.582 195.144 209.582H210.248C215.651 209.582 223.198 217.016 223.198 217.016C223.198 217.016 205.939 217.016 199.51 220.727C193.937 223.919 186.786 237.173 184.846 240.817C189.285 217.996 195.593 195.578 203.706 173.791L204.134 173.464C214.749 165.816 219.306 161.304 219.306 161.304L237.568 191.76L236.046 165.816C236.046 165.816 251.251 170.384 255.819 174.941C260.388 179.499 274.104 194.76 274.104 194.76C274.104 194.76 268.013 171.952 260.41 164.304C252.808 156.657 239.136 147.61 239.136 147.61C239.136 147.61 255.876 147.61 261.956 150.656C268.036 153.701 286.242 165.816 286.242 165.816C286.242 165.816 274.104 144.564 264.945 140.007C255.786 135.45 231.477 135.439 231.477 135.439C231.477 135.439 242.125 126.313 249.728 126.313H271.025C271.025 126.313 264.945 111.108 242.125 115.665C219.306 120.222 216.272 126.336 216.272 126.336C216.272 126.336 213.226 115.688 202.578 114.176C191.929 112.665 167.61 112.653 167.61 112.653C167.61 112.653 201.066 123.302 210.192 132.427C210.192 132.427 185.861 133.95 170.644 133.95C155.427 133.95 134.142 147.633 134.142 147.633C134.142 147.633 166.087 138.507 199.566 143.121C199.566 143.121 176.758 144.632 161.541 153.769C146.324 162.906 131.085 184.225 131.085 184.225C131.085 184.225 144.779 170.542 163.03 165.974C181.281 161.405 207.146 155.326 207.146 155.326C207.146 155.326 181.281 176.509 178.224 187.158C175.167 197.806 166.053 216.057 166.053 216.057C166.053 216.057 187.857 188.195 200.119 176.803C189.967 204.777 177.164 249.841 175.585 301.887C171.073 283.433 157.92 245.238 123.505 226.096C130.025 227.879 139.421 230.473 147.001 232.639C159.951 236.35 169.663 247.494 169.663 247.494C169.663 247.494 158.868 230.168 148.073 222.735C137.278 215.301 121.091 214.072 121.091 214.072C144.779 210.361 167.497 217.783 167.497 217.783C167.497 217.783 152.393 206.65 141.553 206.65C130.713 206.65 113.5 205.409 113.5 205.409C119.974 197.987 143.719 189.323 143.719 189.323C143.719 189.323 126.449 189.323 118.903 190.553C111.356 191.783 109.191 200.457 109.191 200.457C109.191 200.457 107.036 195.505 90.8381 191.794C74.64 188.083 70.3423 200.457 70.3423 200.457H85.5026C90.8945 200.457 98.4521 207.89 98.4521 207.89C98.4521 207.89 81.1824 207.89 74.7641 211.601C68.3458 215.313 59.6602 232.639 59.6602 232.639C59.6602 232.639 72.6096 222.735 76.9298 220.231C81.2501 217.727 93.1166 217.749 93.1166 217.749C93.1166 217.749 83.4046 225.183 78.0014 231.364C72.5983 237.545 68.2894 256.18 68.2894 256.18C68.2894 256.18 78.0014 243.772 81.2388 240.095C84.4762 236.417 95.2711 232.661 95.2711 232.661L94.1431 253.71L107.104 228.894C110.449 232.457 114.053 235.767 117.888 238.798C125.445 244.979 144.869 273.45 144.869 273.45C144.869 273.45 138.395 258.594 136.24 249.931C134.458 242.802 121.723 229.807 117.278 225.442C161.27 246.084 172.911 298.04 175.032 310.042H156.792L160.808 345.382H192.888L196.893 310.042H178.055C179.183 302.845 183.221 281.357 193.847 261.843C193.294 263.896 192.978 265.227 192.978 265.227C192.978 265.227 202.691 252.819 205.939 249.141C209.188 245.464 219.96 241.764 219.96 241.764L218.832 262.824L231.782 238.008C235.129 241.573 238.737 244.883 242.577 247.912C250.123 254.105 269.547 282.564 269.547 282.564C269.547 282.564 263.072 267.708 260.918 259.045C258.763 250.382 240.411 233.101 240.411 233.101C240.411 233.101 258.763 238.053 271.713 241.764C284.662 245.475 294.408 256.62 294.408 256.62C294.408 256.62 283.613 239.294 272.818 231.86ZM177.987 298.582C178.793 279.412 181.033 260.329 184.688 241.493C186.729 239.937 197.682 231.635 201.608 229.39C205.928 226.92 217.794 226.92 217.794 226.92C217.794 226.92 208.082 234.342 202.679 240.535C200.356 243.208 198.224 248.194 196.554 252.943C186.323 268.374 180.785 286.512 177.987 298.582Z" fill="white"/>
<path d="M336.223 244.855C344.333 231.319 347.266 214.591 342.991 199.419C338.558 183.537 325.89 169.888 309.997 165.489C291.949 160.503 272.683 167.373 256.563 176.882C240.444 186.391 225.904 198.675 208.68 206.074C203.728 208.195 197.953 209.876 193.113 207.552C177.524 200.062 201.325 186.583 206.649 183.334C219.959 175.166 233.954 168.172 248.476 162.432C269.31 154.198 291.813 148.535 314.013 151.457C336.212 154.378 358.004 167.17 367.153 187.632C374.473 204.1 372.883 223.039 370.119 240.851C369.239 246.558 368.089 252.582 364.186 256.834C358.377 263.162 348.495 263.444 340.024 261.922C336.888 261.369 333.38 260.297 332.038 257.41C330.414 253.879 332.929 249.965 335.038 246.705C335.444 246.118 335.839 245.502 336.223 244.855Z" fill="#1E4646"/>
<mask id="mask0_879_381" style="mask-type:luminance" maskUnits="userSpaceOnUse" x="187" y="150" width="186" height="113">
<path d="M336.223 244.855C344.333 231.319 347.266 214.591 342.991 199.419C338.558 183.537 325.89 169.888 309.997 165.489C291.949 160.503 272.683 167.373 256.563 176.882C240.444 186.391 225.904 198.675 208.68 206.074C203.728 208.195 197.953 209.876 193.113 207.552C177.524 200.062 201.325 186.583 206.649 183.334C219.959 175.166 233.954 168.172 248.476 162.432C269.31 154.198 291.813 148.535 314.013 151.457C336.212 154.378 358.004 167.17 367.153 187.632C374.473 204.1 372.883 223.039 370.119 240.851C369.239 246.558 368.089 252.582 364.186 256.834C358.377 263.162 348.495 263.444 340.024 261.922C336.888 261.369 333.38 260.297 332.038 257.41C330.414 253.879 332.929 249.965 335.038 246.705C335.444 246.118 335.839 245.502 336.223 244.855Z" fill="white"/>
</mask>
<g mask="url(#mask0_879_381)">
<path d="M217.58 177.006C213.903 179.036 210.259 181.134 206.672 183.334C201.359 186.583 177.558 200.062 193.136 207.552C197.975 209.876 203.751 208.195 208.702 206.074C216.092 202.77 223.186 198.841 229.909 194.332C227.732 184.27 222.78 179.352 217.58 177.006Z" fill="white"/>
</g>
<path d="M336.223 244.855C344.333 231.319 347.266 214.591 342.991 199.419C338.558 183.537 325.89 169.888 309.997 165.489C291.949 160.503 272.683 167.373 256.563 176.882C240.444 186.391 225.904 198.675 208.68 206.074C203.728 208.195 197.953 209.876 193.113 207.552C177.524 200.062 201.325 186.583 206.649 183.334C219.959 175.166 233.954 168.172 248.476 162.432C269.31 154.198 291.813 148.535 314.013 151.457C336.212 154.378 358.004 167.17 367.153 187.632C374.473 204.1 372.883 223.039 370.119 240.851C369.239 246.558 368.089 252.582 364.186 256.834C358.377 263.162 348.495 263.444 340.024 261.922C336.888 261.369 333.38 260.297 332.038 257.41C330.414 253.879 332.929 249.965 335.038 246.705C335.444 246.118 335.839 245.502 336.223 244.855Z" stroke="#343434" stroke-width="1.5" stroke-miterlimit="10"/>
<path d="M336.223 244.855C344.333 231.319 347.266 214.591 342.991 199.419C338.558 183.537 325.89 169.888 309.997 165.489C291.949 160.503 272.683 167.373 256.563 176.882C240.444 186.391 225.904 198.675 208.68 206.074C203.728 208.195 197.953 209.876 193.113 207.552C177.524 200.062 201.325 186.583 206.649 183.334C219.959 175.166 233.954 168.172 248.476 162.432C269.31 154.198 291.813 148.535 314.013 151.457C336.212 154.378 358.004 167.17 367.153 187.632C374.473 204.1 372.883 223.039 370.119 240.851C369.239 246.558 368.089 252.582 364.186 256.834C358.377 263.162 348.495 263.444 340.024 261.922C336.888 261.369 333.38 260.297 332.038 257.41C330.414 253.879 332.929 249.965 335.038 246.705C335.444 246.118 335.839 245.502 336.223 244.855Z" fill="#1E4646"/>
<mask id="mask1_879_381" style="mask-type:luminance" maskUnits="userSpaceOnUse" x="187" y="150" width="186" height="113">
<path d="M336.223 244.855C344.333 231.319 347.266 214.591 342.991 199.419C338.558 183.537 325.89 169.888 309.997 165.489C291.949 160.503 272.683 167.373 256.563 176.882C240.444 186.391 225.904 198.675 208.68 206.074C203.728 208.195 197.953 209.876 193.113 207.552C177.524 200.062 201.325 186.583 206.649 183.334C219.959 175.166 233.954 168.172 248.476 162.432C269.31 154.198 291.813 148.535 314.013 151.457C336.212 154.378 358.004 167.17 367.153 187.632C374.473 204.1 372.883 223.039 370.119 240.851C369.239 246.558 368.089 252.582 364.186 256.834C358.377 263.162 348.495 263.444 340.024 261.922C336.888 261.369 333.38 260.297 332.038 257.41C330.414 253.879 332.929 249.965 335.038 246.705C335.444 246.118 335.839 245.502 336.223 244.855Z" fill="white"/>
</mask>
<g mask="url(#mask1_879_381)">
<path d="M331.496 166.109C328.045 172.809 331.496 174.49 331.496 174.49C331.496 174.49 331.158 171.704 333.29 166.752C334.352 163.973 336.462 161.721 339.167 160.48C339.167 160.48 334.948 159.398 331.496 166.109Z" fill="#343434"/>
<path d="M312.873 158.247C310.482 164.169 313.313 165.85 313.313 165.85C313.16 163.492 313.518 161.13 314.362 158.924C315.795 154.536 318.682 153.521 318.682 153.521C318.682 153.521 315.276 152.28 312.873 158.247Z" fill="#343434"/>
<path d="M291.295 155.822C288.903 161.744 291.735 163.425 291.735 163.425C291.573 161.068 291.927 158.704 292.772 156.499C294.216 152.111 297.093 151.096 297.093 151.096C297.093 151.096 293.686 149.9 291.295 155.822Z" fill="#343434"/>
<path d="M355.038 174.062C355.038 174.062 351.936 170.226 344.22 173.52C336.505 176.814 338.501 180.638 338.501 180.638C338.501 180.638 340.114 178.055 345.438 175.336C348.36 173.707 351.792 173.251 355.038 174.062Z" fill="#343434"/>
<path d="M351.428 187.914C354.23 186.086 357.619 185.389 360.915 185.962C360.915 185.962 357.531 182.353 350.075 186.199C342.619 190.045 344.886 193.7 344.886 193.7C344.886 193.7 346.296 191.004 351.428 187.914Z" fill="#343434"/>
<path d="M355.32 200.784C345.168 203.266 346.521 208.454 346.521 208.454C346.521 208.454 349.161 205.567 356.267 203.299C363.374 201.032 368.066 203.762 368.066 203.762C368.066 203.762 365.472 198.336 355.32 200.784Z" fill="#343434"/>
<path d="M355.162 224.201C344.942 226.254 346.048 231.499 346.048 231.499C346.048 231.499 348.811 228.724 356.008 226.75C363.205 224.776 367.773 227.698 367.773 227.698C367.773 227.698 365.382 222.137 355.162 224.201Z" fill="#343434"/>
<path d="M217.58 177.006C213.903 179.036 210.259 181.134 206.672 183.334C201.359 186.582 177.558 200.062 193.136 207.552C197.975 209.876 203.751 208.195 208.702 206.074C216.092 202.77 223.186 198.841 229.909 194.332C227.732 184.27 222.78 179.352 217.58 177.006Z" fill="white"/>
</g>
<path d="M336.223 244.855C344.333 231.319 347.266 214.591 342.991 199.419C338.558 183.537 325.89 169.888 309.997 165.489C291.949 160.503 272.683 167.373 256.563 176.882C240.444 186.391 225.904 198.675 208.68 206.074C203.728 208.195 197.953 209.876 193.113 207.552C177.524 200.062 201.325 186.583 206.649 183.334C219.959 175.166 233.954 168.172 248.476 162.432C269.31 154.198 291.813 148.535 314.013 151.457C336.212 154.378 358.004 167.17 367.153 187.632C374.473 204.1 372.883 223.039 370.119 240.851C369.239 246.558 368.089 252.582 364.186 256.834C358.377 263.162 348.495 263.444 340.024 261.922C336.888 261.369 333.38 260.297 332.038 257.41C330.414 253.879 332.929 249.965 335.038 246.705C335.444 246.118 335.839 245.502 336.223 244.855Z" stroke="#343434" stroke-width="1.5" stroke-miterlimit="10"/>
<path d="M318.096 383.035C318.096 383.035 365.641 387.243 355.41 391.461C345.179 395.68 337.362 393.864 296.427 399.278C255.492 404.693 196.52 404.704 169.437 404.704C142.353 404.704 135.134 409.521 150.78 409.521C166.425 409.521 198.325 409.521 260.32 411.923C322.314 414.326 395.68 428.775 433.039 413.728C470.398 398.68 434.246 385.438 434.246 385.438C434.246 385.438 448.696 382.437 436.66 377.621C424.624 372.804 378.275 367.988 356.572 364.976C334.869 361.964 322.878 368.585 337.915 368.585C352.951 368.585 423.981 375.816 414.957 381.828C405.933 387.84 361.998 381.23 347.548 378.219C333.098 375.207 314.452 378.219 318.096 383.035Z" fill="#343434"/>
<path d="M369.612 358.478C369.612 358.478 373.436 377.248 379.335 387.333C385.235 397.417 397.067 396.717 398.804 388.72C400.542 380.722 392.555 370.672 390.469 363.002C388.382 355.331 388.731 341.795 388.731 341.795C388.731 341.795 368.912 340.058 369.612 358.478Z" fill="#1E4646"/>
<mask id="mask2_879_381" style="mask-type:luminance" maskUnits="userSpaceOnUse" x="369" y="341" width="31" height="54">
<path d="M369.612 358.478C369.612 358.478 373.436 377.248 379.335 387.333C385.235 397.417 397.067 396.717 398.804 388.72C400.542 380.722 392.555 370.672 390.469 363.002C388.382 355.331 388.731 341.795 388.731 341.795C388.731 341.795 368.912 340.058 369.612 358.478Z" fill="white"/>
</mask>
<g mask="url(#mask2_879_381)">
<path d="M376.019 380.35C376.955 382.754 378.064 385.088 379.335 387.333C385.246 397.417 397.068 396.718 398.805 388.72C400.102 382.798 396.041 375.725 393.007 369.352C389.483 369.625 386.083 370.773 383.116 372.694C380.15 374.615 377.71 377.247 376.019 380.35Z" fill="white"/>
</g>
<path d="M369.612 358.478C369.612 358.478 373.436 377.248 379.335 387.333C385.235 397.417 397.067 396.717 398.804 388.72C400.542 380.722 392.555 370.672 390.469 363.002C388.382 355.331 388.731 341.795 388.731 341.795C388.731 341.795 368.912 340.058 369.612 358.478Z" stroke="#343434" stroke-width="1.5" stroke-miterlimit="10"/>
<path d="M386.295 381.772C386.295 381.772 391.157 388.032 389.769 394.293" stroke="#343434" stroke-width="1.5" stroke-miterlimit="10" stroke-linecap="round"/>
<path d="M392.206 379.335C394.326 380.543 395.945 382.467 396.772 384.763C397.6 387.058 397.58 389.574 396.718 391.856" stroke="#343434" stroke-width="1.5" stroke-miterlimit="10" stroke-linecap="round"/>
<path d="M358.478 368.213C358.478 368.213 348.405 378.647 337.622 381.749C326.838 384.851 316.066 384.185 317.464 379.313C318.863 374.44 323.713 372.714 329.974 372.714C336.234 372.714 349.15 359.843 349.15 359.843C349.15 359.843 363.002 351.18 358.478 368.213Z" fill="#1E4646" stroke="#343434" stroke-width="1.5" stroke-miterlimit="10"/>
<path d="M236.801 317.115C236.801 317.115 221.855 324.063 219.069 331.711C217.259 336.924 215.867 342.272 214.907 347.706C214.907 347.706 196.125 356.392 181.879 361.242C167.632 366.093 153.024 367.841 144.655 373.752C136.285 379.662 135.958 386.272 140.831 391.134C145.704 395.996 155.427 394.27 158.563 392.522C161.699 390.773 168.986 383.836 178.72 382.099C188.455 380.362 217.659 386.272 234.692 382.787C251.724 379.301 266.276 373.763 270.156 373.763C274.036 373.763 289.332 375.85 299.36 369.251C309.388 362.652 302.834 332.027 295.186 317.103C287.538 302.18 247.235 311.892 236.801 317.115Z" fill="#1E4646"/>
<mask id="mask3_879_381" style="mask-type:luminance" maskUnits="userSpaceOnUse" x="137" y="309" width="168" height="86">
<path d="M236.801 317.115C236.801 317.115 221.855 324.063 219.069 331.711C217.259 336.924 215.867 342.272 214.907 347.706C214.907 347.706 196.125 356.392 181.879 361.242C167.632 366.093 153.024 367.841 144.655 373.752C136.285 379.662 135.958 386.272 140.831 391.134C145.704 395.996 155.427 394.27 158.563 392.522C161.699 390.773 168.986 383.836 178.72 382.099C188.455 380.362 217.659 386.272 234.692 382.787C251.724 379.301 266.276 373.763 270.156 373.763C274.036 373.763 289.332 375.85 299.36 369.251C309.388 362.652 302.834 332.027 295.186 317.103C287.538 302.18 247.235 311.892 236.801 317.115Z" fill="white"/>
</mask>
<g mask="url(#mask3_879_381)">
<path d="M272.254 344.638C266.219 334.644 261.267 315.874 251.668 312.197C246.56 313.332 241.579 314.98 236.801 317.115C236.801 317.115 235.244 317.837 233.034 319.078C229.48 323.15 229.65 327.571 233.203 330.358C239.068 334.87 259.891 358.997 254.037 357.035C253.07 356.684 252.152 356.21 251.307 355.625C245.013 351.508 235.301 340.882 228.003 337.52C219.543 333.606 235.808 355.083 235.808 361.592C235.808 368.1 229.3 362.246 223.4 355.083C217.501 347.921 216.238 354.44 219.497 361.592C222.757 368.743 218.189 372.003 204.529 372.003C190.869 372.003 174.592 372.658 174.592 372.658C174.094 369.627 172.662 366.827 170.497 364.649C160.244 367.379 150.757 369.477 144.632 373.808C136.285 379.719 135.935 386.329 140.808 391.191C145.681 396.052 155.405 394.326 158.54 392.578C161.676 390.83 168.963 383.892 178.698 382.155C188.432 380.418 217.636 386.329 234.669 382.843C251.702 379.358 266.253 373.819 270.133 373.819C273.698 373.819 287.211 375.624 297.205 370.537C293.201 367.232 278.526 355.027 272.254 344.638Z" fill="white"/>
</g>
<path d="M236.801 317.115C236.801 317.115 221.855 324.063 219.069 331.711C217.259 336.924 215.867 342.272 214.907 347.706C214.907 347.706 196.125 356.392 181.879 361.242C167.632 366.093 153.024 367.841 144.655 373.752C136.285 379.662 135.958 386.272 140.831 391.134C145.704 395.996 155.427 394.27 158.563 392.522C161.699 390.773 168.986 383.836 178.72 382.099C188.455 380.362 217.659 386.272 234.692 382.787C251.724 379.301 266.276 373.763 270.156 373.763C274.036 373.763 289.332 375.85 299.36 369.251C309.388 362.652 302.834 332.027 295.186 317.103C287.538 302.18 247.235 311.892 236.801 317.115Z" stroke="#343434" stroke-width="1.5" stroke-miterlimit="10"/>
<path d="M144.677 385.596C146.216 385.596 147.463 384.348 147.463 382.809C147.463 381.271 146.216 380.023 144.677 380.023C143.139 380.023 141.891 381.271 141.891 382.809C141.891 384.348 143.139 385.596 144.677 385.596Z" fill="#343434"/>
<path d="M156.149 386.633C159.027 386.633 161.36 384.3 161.36 381.422C161.36 378.544 159.027 376.21 156.149 376.21C153.271 376.21 150.938 378.544 150.938 381.422C150.938 384.3 153.271 386.633 156.149 386.633Z" fill="#343434"/>
<path d="M149.201 391.856C150.739 391.856 151.987 390.609 151.987 389.07C151.987 387.531 150.739 386.284 149.201 386.284C147.662 386.284 146.415 387.531 146.415 389.07C146.415 390.609 147.662 391.856 149.201 391.856Z" fill="#343434"/>
<path d="M156.149 391.856C157.688 391.856 158.935 390.609 158.935 389.07C158.935 387.531 157.688 386.284 156.149 386.284C154.61 386.284 153.363 387.531 153.363 389.07C153.363 390.609 154.61 391.856 156.149 391.856Z" fill="#343434"/>
<path d="M260.444 348.044C276.439 365.427 288.26 373.086 304.594 375.116C320.927 377.147 342.145 375.116 358.478 368.168C374.812 361.219 378.647 356.696 378.647 356.696C382.499 354.745 386.214 352.537 389.769 350.086C397.767 344.875 412.329 329.579 416.187 309.76C419.481 292.693 416.773 273.777 408.009 258.684C397.857 241.133 379.177 232.142 359.189 231.793C347.04 231.59 335.783 235.955 325.8 242.667C306.681 255.526 302.112 266.659 302.112 266.659H282.35C282.35 266.659 272.615 262.835 254.883 280.906" fill="#1E4646"/>
<mask id="mask4_879_381" style="mask-type:luminance" maskUnits="userSpaceOnUse" x="254" y="231" width="164" height="145">
<path d="M260.444 348.044C276.439 365.427 288.26 373.086 304.594 375.116C320.927 377.147 342.145 375.116 358.478 368.168C374.812 361.219 378.647 356.696 378.647 356.696C382.499 354.745 386.214 352.537 389.769 350.086C397.767 344.875 412.329 329.579 416.187 309.76C419.481 292.693 416.773 273.777 408.009 258.684C397.857 241.133 379.177 232.142 359.189 231.793C347.04 231.59 335.783 235.955 325.8 242.667C306.681 255.526 302.112 266.659 302.112 266.659H282.35C282.35 266.659 272.615 262.835 254.883 280.906" fill="white"/>
</mask>
<g mask="url(#mask4_879_381)">
<path d="M403.068 314.712C401.771 302.304 395.262 316.02 393.311 320.566C389.464 329.59 391.36 299.134 385.494 291.938C379.628 284.741 386.802 309.512 384.851 317.972C382.9 326.432 384.197 312.106 379.64 303.646C375.082 295.186 381.591 314.712 371.834 325.778C362.077 336.843 344.491 326.432 344.491 326.432C352.658 349.545 330.82 367.288 316.821 375.94C330.651 376.008 345.991 373.537 358.478 368.224C374.823 361.276 378.647 356.753 378.647 356.753C382.499 354.802 386.214 352.593 389.769 350.142C391.959 348.661 394.019 346.997 395.928 345.168C401.365 334.283 403.982 323.375 403.068 314.712Z" fill="white"/>
</g>
<path d="M260.444 348.044C276.439 365.427 288.26 373.086 304.594 375.116C320.927 377.147 342.145 375.116 358.478 368.168C374.812 361.219 378.647 356.696 378.647 356.696C382.499 354.745 386.214 352.537 389.769 350.086C397.767 344.875 412.329 329.579 416.187 309.76C419.481 292.693 416.773 273.777 408.009 258.684C397.857 241.133 379.177 232.142 359.189 231.793C347.04 231.59 335.783 235.955 325.8 242.667C306.681 255.526 302.112 266.659 302.112 266.659H282.35C282.35 266.659 272.615 262.835 254.883 280.906" stroke="#343434" stroke-width="1.5" stroke-miterlimit="10"/>
<path d="M242.362 324.413C242.362 324.413 254.183 342.461 273.946 346.973C293.709 351.485 298.627 324.029 296.89 309.749C295.152 295.468 288.892 295.841 286.467 298.977C284.042 302.112 272.559 311.486 261.087 313.923C249.615 316.359 240.625 318.153 242.362 324.413Z" fill="white"/>
<path d="M226.953 247.258C223.164 246.626 219.321 246.369 215.482 246.491C210.891 246.874 201.709 251.082 197.501 251.837C193.294 252.593 195.245 254.093 200.569 260.252C205.894 266.411 218.539 270.201 218.539 270.201L226.953 247.258Z" fill="#1E4646" stroke="#343434" stroke-width="1.5" stroke-miterlimit="10"/>
<path d="M293.111 291.994C293.111 291.994 286.614 308.44 276.676 313.798C270.77 317.007 264.214 318.839 257.5 319.156C257.5 319.156 250.619 325.654 237.997 326.421C225.375 327.188 217.693 315.705 217.693 311.881V301.559C217.693 301.559 209.662 291.611 210.045 286.264C210.429 280.917 210.812 256.812 224.585 247.258C238.358 237.703 251.736 238.843 262.441 241.133C273.145 243.422 285.001 256.428 288.825 264.076C292.648 271.724 292.66 281.289 292.66 281.289" fill="#1E4646"/>
<mask id="mask5_879_381" style="mask-type:luminance" maskUnits="userSpaceOnUse" x="210" y="239" width="84" height="88">
<path d="M293.111 291.994C293.111 291.994 286.614 308.44 276.676 313.798C270.77 317.007 264.214 318.839 257.5 319.156C257.5 319.156 250.619 325.654 237.997 326.421C225.375 327.188 217.693 315.705 217.693 311.881V301.559C217.693 301.559 209.662 291.611 210.045 286.264C210.429 280.917 210.812 256.812 224.585 247.258C238.358 237.703 251.736 238.843 262.441 241.133C273.145 243.422 285.001 256.428 288.825 264.076C292.648 271.724 292.66 281.289 292.66 281.289" fill="white"/>
</mask>
<g mask="url(#mask5_879_381)">
<path d="M239.069 308.846L233.203 299.078C233.203 299.078 231.906 287.369 225.398 280.861C218.889 274.352 223.345 301.176 223.345 301.176C221.4 301.603 219.534 302.334 217.817 303.342V311.869C217.817 315.693 225.465 327.176 238.121 326.409C242.764 326.151 247.313 325.002 251.522 323.025C249.401 313.031 239.069 308.846 239.069 308.846Z" fill="white"/>
<path d="M237.241 304.56C237.241 304.56 241.088 296.867 251.183 302.631" stroke="#343434" stroke-width="2" stroke-miterlimit="10" stroke-linecap="round"/>
<path d="M216.091 294.464C216.091 294.464 219.938 292.05 220.897 298.785" stroke="#343434" stroke-width="2" stroke-miterlimit="10" stroke-linecap="round"/>
<path d="M226.661 319.946C226.661 319.946 229.063 324.266 232.921 325.71" stroke="#343434" stroke-miterlimit="10" stroke-linecap="round"/>
<path d="M241.663 279.563C241.663 279.563 244.269 288.666 257.286 290.618C270.303 292.569 274.702 287.38 270.551 282.823C266.4 278.266 244.269 279.563 241.663 279.563Z" fill="#343434"/>
<path d="M270.551 282.823C270.551 282.823 259.847 285.88 251.432 285.88C243.017 285.88 239.193 278.616 237.275 276.36C235.358 274.104 244.923 265.655 256.451 267.945C267.979 270.235 270.551 282.823 270.551 282.823Z" fill="#1E4646" stroke="#343434" stroke-width="1.5" stroke-miterlimit="10"/>
<path d="M230.112 319.754C231.06 318.931 231.24 317.566 229.424 316.968C227.022 316.178 223.13 315.208 223.942 317.622C224.282 318.521 224.908 319.282 225.723 319.79C226.538 320.297 227.498 320.523 228.454 320.431C229.066 320.391 229.648 320.154 230.112 319.754Z" fill="#343434"/>
<path d="M282 303.635C282 303.635 279.395 305.586 271.578 305.586C263.761 305.586 257.917 304.943 257.917 304.943C257.917 304.943 267.675 308.192 272.886 308.846C278.097 309.501 282 303.635 282 303.635Z" fill="#343434"/>
<path d="M274.206 312.749C274.206 312.749 269.694 316.652 264.448 314.701C259.203 312.749 252.729 309.5 252.729 309.5C252.729 309.5 269.006 314.058 274.206 312.749Z" fill="#343434"/>
<path d="M243.648 254.172C243.648 254.172 232.594 258.684 231.24 271.092C229.887 283.5 231.24 290.607 231.24 290.607C231.24 290.607 233.857 265.892 243.648 254.172Z" fill="#343434"/>
<path d="M226.051 256.135C226.051 256.135 219.486 258.887 218.539 270.201C217.591 281.515 217.591 289.377 217.591 289.377C217.591 289.377 220.84 265.238 226.051 256.135Z" fill="#343434"/>
</g>
<path d="M293.111 291.994C293.111 291.994 286.614 308.44 276.676 313.798C270.77 317.007 264.214 318.839 257.5 319.156C257.5 319.156 250.619 325.654 237.997 326.421C225.375 327.188 217.693 315.705 217.693 311.881V301.559C217.693 301.559 209.662 291.611 210.045 286.264C210.429 280.917 210.812 256.812 224.585 247.258C238.358 237.703 251.736 238.843 262.441 241.133C273.145 243.422 285.001 256.428 288.825 264.076C292.648 271.724 292.66 281.289 292.66 281.289" stroke="#343434" stroke-width="1.5" stroke-miterlimit="10"/>
<path d="M217.772 311.881C217.772 311.881 200.649 307.03 190.564 306.681" stroke="#343434" stroke-width="0.5" stroke-miterlimit="10" stroke-linecap="round"/>
<path d="M218.031 314.712C218.031 314.712 194.343 312.625 183.266 314.712" stroke="#343434" stroke-width="0.5" stroke-miterlimit="10" stroke-linecap="round"/>
<path d="M219.768 317.115C219.768 317.115 191.568 318.502 183.266 321.277" stroke="#343434" stroke-width="0.5" stroke-miterlimit="10" stroke-linecap="round"/>
<path d="M242.362 323.014C242.362 323.014 244.449 339.009 245.498 350.086" stroke="#343434" stroke-width="0.5" stroke-miterlimit="10" stroke-linecap="round"/>
<path d="M244.099 319.89C244.099 319.89 255.582 337.622 255.582 346.307" stroke="#343434" stroke-width="0.5" stroke-miterlimit="10" stroke-linecap="round"/>
<path d="M248.273 318.852C248.273 318.852 261.809 330.324 264.618 340.746" stroke="#343434" stroke-width="0.5" stroke-miterlimit="10" stroke-linecap="round"/>
<path d="M378.647 356.741C378.647 356.741 397.767 341.096 394.98 306.331" stroke="#343434" stroke-width="1.5" stroke-miterlimit="10" stroke-linecap="round"/>
<path d="M317.115 316.066C317.115 316.066 328.936 316.415 343.882 324.413C358.828 332.41 373.774 336.234 373.774 344.92C373.774 353.605 342.833 371.687 327.887 382.809C312.941 393.931 301.119 404.715 290.663 407.501C280.206 410.288 266.682 410.626 264.945 403.677C263.207 396.729 272.243 394.981 277.454 394.292C282.665 393.604 291.362 391.506 291.362 391.506L309.072 374.496C309.072 374.496 288.903 373.109 279.518 356.764" fill="#1E4646"/>
<mask id="mask6_879_381" style="mask-type:luminance" maskUnits="userSpaceOnUse" x="264" y="316" width="110" height="94">
<path d="M317.115 316.066C317.115 316.066 328.936 316.415 343.882 324.413C358.828 332.41 373.774 336.234 373.774 344.92C373.774 353.605 342.833 371.687 327.887 382.809C312.941 393.931 301.119 404.715 290.663 407.501C280.206 410.288 266.682 410.626 264.945 403.677C263.207 396.729 272.243 394.981 277.454 394.292C282.665 393.604 291.362 391.506 291.362 391.506L309.072 374.496C309.072 374.496 288.903 373.109 279.518 356.764" fill="white"/>
</mask>
<g mask="url(#mask6_879_381)">
<path d="M289.828 366.769C289.828 366.769 301.537 365.472 308.045 355.049C314.554 344.626 316.505 331.621 316.505 331.621C316.505 331.621 316.505 346.589 311.993 356.358C307.481 366.126 289.828 366.769 289.828 366.769Z" fill="#343434"/>
<path d="M326.274 325.766C326.274 325.766 332.782 338.784 326.928 349.195C323.39 355.451 318.215 360.625 311.959 364.163C311.959 364.163 328.879 348.552 326.274 325.766Z" fill="#343434"/>
<path d="M306.748 383.689L316.505 390.198C316.505 390.198 315.84 381.738 306.748 383.689Z" fill="#343434"/>
<path d="M315.84 373.932L325.597 380.441C325.597 380.441 324.977 371.969 315.84 373.932Z" fill="#343434"/>
<path d="M333.437 362.866L343.194 369.375C343.194 369.375 342.539 360.96 333.437 362.866Z" fill="#343434"/>
<path d="M343.848 353.064L353.605 359.572C353.605 359.572 352.962 351.146 343.848 353.064Z" fill="#343434"/>
<path d="M296.393 399.312C295.728 396.187 291.712 393.83 288.091 392.296C285.091 392.961 280.646 393.898 277.477 394.326C272.265 395.014 263.23 396.751 264.967 403.711C266.704 410.671 280.263 410.31 290.685 407.535C293.317 406.779 295.849 405.715 298.232 404.366C297.395 402.771 296.776 401.072 296.393 399.312Z" fill="white"/>
<path d="M337.982 353.064C342.494 346.555 336.685 355.67 323.014 364.13C309.342 372.59 289.828 366.735 289.828 366.735L289.208 367.141C295.131 371.174 301.95 373.699 309.072 374.496L301.176 382.133C315.704 376.752 333.718 359.2 337.982 353.064Z" fill="white"/>
</g>
<path d="M317.115 316.066C317.115 316.066 328.936 316.415 343.882 324.413C358.828 332.41 373.774 336.234 373.774 344.92C373.774 353.605 342.833 371.687 327.887 382.809C312.941 393.931 301.119 404.715 290.663 407.501C280.206 410.288 266.682 410.626 264.945 403.677C263.207 396.729 272.243 394.981 277.454 394.292C282.665 393.604 291.362 391.506 291.362 391.506L309.072 374.496C309.072 374.496 288.903 373.109 279.518 356.764" stroke="#343434" stroke-width="1.5" stroke-miterlimit="10"/>
<path d="M309.072 374.496C309.072 374.496 337.576 368.935 341.051 344.942" stroke="#343434" stroke-width="1.5" stroke-miterlimit="10" stroke-linecap="round"/>
<path d="M264.967 403.677C264.967 403.677 267.742 398.455 271.916 397.767" stroke="#343434" stroke-width="1.5" stroke-miterlimit="10" stroke-linecap="round"/>
<path d="M269.479 407.501C269.479 407.501 271.566 399.854 277.826 399.854" stroke="#343434" stroke-width="1.5" stroke-miterlimit="10" stroke-linecap="round"/>
<path d="M311.328 269.141C311.328 269.141 330.854 271.104 345.168 285.418C359.482 299.732 362.088 326.421 362.088 319.258C362.088 312.095 358.185 292.581 349.68 282.158C341.175 271.735 317.16 265.892 311.328 269.141Z" fill="#343434"/>
<path d="M296.089 276.676C296.089 276.676 311.802 278.244 323.319 289.761C334.836 301.277 336.934 322.755 336.934 316.968C336.934 311.181 333.787 295.536 326.985 287.121C320.183 278.706 300.804 274.104 296.089 276.676Z" fill="#343434"/>
<path d="M323.668 258.086C323.668 258.086 343.194 260.038 357.508 274.352C371.823 288.667 374.428 315.355 374.428 308.192C374.428 301.029 370.526 281.515 362.02 271.104C353.515 260.692 329.523 254.827 323.668 258.086Z" fill="#343434"/>
<path d="M339.945 239.204C339.945 239.204 359.46 241.155 373.785 255.481C388.111 269.806 390.705 296.483 390.705 289.321C390.705 282.158 386.802 262.632 378.297 252.221C369.792 241.809 345.8 235.955 339.945 239.204Z" fill="#343434"/>
<path d="M152.189 422.921C159.665 422.921 165.725 420.093 165.725 416.604C165.725 413.116 159.665 410.288 152.189 410.288C144.714 410.288 138.653 413.116 138.653 416.604C138.653 420.093 144.714 422.921 152.189 422.921Z" fill="#343434"/>
<path d="M147.463 420.699C157.636 420.699 165.883 412.452 165.883 402.279C165.883 392.105 157.636 383.858 147.463 383.858C137.29 383.858 129.043 392.105 129.043 402.279C129.043 412.452 137.29 420.699 147.463 420.699Z" fill="#1E4646" stroke="#343434" stroke-width="1.5" stroke-miterlimit="10"/>
<path d="M146.73 393.92C146.693 394.89 146.371 395.828 145.804 396.617C145.238 397.406 144.452 398.01 143.544 398.356C142.637 398.702 141.648 398.773 140.7 398.561C139.752 398.348 138.888 397.862 138.215 397.163C137.541 396.463 137.088 395.581 136.912 394.626C136.736 393.671 136.845 392.685 137.225 391.792C137.604 390.898 138.238 390.136 139.048 389.599C139.858 389.063 140.807 388.777 141.778 388.776C142.441 388.788 143.096 388.931 143.704 389.196C144.312 389.461 144.862 389.843 145.322 390.321C145.781 390.799 146.143 391.362 146.384 391.98C146.626 392.598 146.744 393.257 146.73 393.92Z" fill="white"/>
</svg>
