<svg width="500" height="500" viewBox="0 0 500 500" fill="none" xmlns="http://www.w3.org/2000/svg">
<path d="M446.33 145.29C446.33 145.29 365.93 29.54 265.55 17.29C176.94 6.40996 94.69 48.79 83.24 140.35C79.16 173 71.9 209.07 59 238.83C44.53 272.21 19.84 300 38.75 364.17C57.66 428.34 137.52 486.29 195.57 486.17C253.62 486.05 308.15 433.28 353.14 385.29C398.13 337.3 541.4 292.17 446.33 145.29Z" fill="#1E4646"/>
<path opacity="0.7" d="M446.33 145.29C446.33 145.29 365.93 29.54 265.55 17.29C176.94 6.40996 94.69 48.79 83.24 140.35C79.16 173 71.9 209.07 59 238.83C44.53 272.21 19.84 300 38.75 364.17C57.66 428.34 137.52 486.29 195.57 486.17C253.62 486.05 308.15 433.28 353.14 385.29C398.13 337.3 541.4 292.17 446.33 145.29Z" fill="white"/>
<path d="M483.25 436.23H27.0498" stroke="#1E4646" stroke-linecap="round" stroke-linejoin="round"/>
<path d="M109.51 262.87C109.523 262.838 109.523 262.802 109.51 262.77C109.504 262.755 109.494 262.74 109.482 262.728C109.47 262.716 109.456 262.707 109.44 262.7C109.408 262.687 109.373 262.687 109.341 262.7C109.309 262.713 109.283 262.738 109.27 262.77C105.391 272.071 102.323 281.69 100.1 291.52C97.8401 301.343 96.1374 311.285 95.0002 321.3L94.2802 328.84C94.1702 330.09 94.0401 331.35 93.9501 332.6L93.7402 336.38C93.6302 338.9 93.4802 341.38 93.4102 343.95L93.4802 351.52L93.5602 355.3C93.6202 356.56 93.7102 357.82 93.7902 359.07C93.9802 361.59 94.1402 364.07 94.3702 366.62C94.8502 371.62 95.6002 376.62 96.3702 381.62C96.375 381.651 96.3908 381.679 96.4146 381.699C96.4385 381.719 96.4689 381.73 96.5002 381.73C96.5181 381.73 96.5359 381.726 96.5523 381.719C96.5688 381.712 96.5836 381.702 96.5958 381.688C96.608 381.675 96.6174 381.66 96.6233 381.643C96.6292 381.626 96.6315 381.608 96.6301 381.59C96.6301 379.06 96.5102 376.59 96.4602 374.04C96.4102 371.49 96.1701 369.04 96.2001 366.53C96.2301 364.02 96.2002 361.53 96.1202 359.02L96.0502 355.26L96.1202 351.51V344.01L96.3202 336.52L96.4002 332.77C96.4002 331.52 96.5402 330.27 96.6102 329.02L97.0702 321.53C97.928 311.552 99.3435 301.63 101.31 291.81C103.206 281.945 105.95 272.263 109.51 262.87Z" fill="#ABABAB"/>
<path d="M110.59 302.09C110.597 302.056 110.592 302.02 110.576 301.989C110.559 301.958 110.532 301.933 110.5 301.92C110.465 301.911 110.429 301.915 110.397 301.931C110.365 301.948 110.341 301.976 110.33 302.01C106.053 314.522 103.205 327.478 101.84 340.63C101.18 347.19 100.44 353.76 100.35 360.36C100.188 366.965 100.422 373.573 101.05 380.15C101.058 380.18 101.076 380.206 101.1 380.224C101.124 380.243 101.154 380.253 101.185 380.253C101.215 380.253 101.245 380.243 101.27 380.224C101.294 380.206 101.312 380.18 101.32 380.15C102.08 373.58 102.55 367.03 103 360.48C103.45 353.93 103.53 347.36 104 340.81C104.41 334.271 105.192 327.761 106.34 321.31C107.397 314.829 108.816 308.412 110.59 302.09Z" fill="#ABABAB"/>
<path d="M132.33 315.89C132.322 315.875 132.31 315.861 132.297 315.851C132.283 315.84 132.267 315.832 132.25 315.827C132.234 315.822 132.216 315.821 132.199 315.823C132.182 315.826 132.165 315.831 132.15 315.84C126.711 319.336 121.813 323.607 117.61 328.52C115.494 330.989 113.591 333.631 111.92 336.42L110.75 338.63L109.84 340.92C109.53 341.678 109.263 342.452 109.04 343.24C108.81 344.02 108.55 344.8 108.33 345.59C106.666 351.862 105.661 358.29 105.33 364.77C105.004 371.215 105.245 377.677 106.05 384.08C106.055 384.11 106.07 384.137 106.091 384.159C106.113 384.18 106.14 384.195 106.17 384.2C106.188 384.202 106.206 384.199 106.223 384.193C106.24 384.187 106.255 384.178 106.268 384.166C106.281 384.154 106.292 384.139 106.299 384.122C106.306 384.106 106.31 384.088 106.31 384.07L108 365C108.66 358.68 109.06 352.32 110.42 346.15C110.59 345.38 110.82 344.63 111.01 343.87C111.191 343.105 111.414 342.35 111.68 341.61L112.46 339.4L113.46 337.32C114.967 334.54 116.71 331.893 118.67 329.41C122.55 324.34 127.148 319.863 132.32 316.12C132.345 316.114 132.367 316.1 132.384 316.08C132.4 316.06 132.41 316.035 132.411 316.009C132.412 315.983 132.405 315.957 132.39 315.936C132.376 315.915 132.354 315.899 132.33 315.89Z" fill="#ABABAB"/>
<path d="M121.81 340.45C118.81 342.37 116.81 345.37 115.19 348.4C113.599 351.5 112.358 354.766 111.49 358.14C111.23 358.97 111.02 359.81 110.84 360.66L110.24 363.2C109.927 364.91 109.713 366.636 109.6 368.37C109.6 370.1 109.53 371.83 109.65 373.56C109.777 375.295 110.004 377.021 110.33 378.73C110.335 378.755 110.347 378.777 110.365 378.795C110.383 378.813 110.405 378.825 110.43 378.83C110.447 378.834 110.465 378.835 110.482 378.833C110.5 378.83 110.516 378.824 110.531 378.814C110.546 378.805 110.559 378.793 110.569 378.778C110.579 378.764 110.586 378.747 110.59 378.73C110.991 377.052 111.299 375.353 111.51 373.64C111.78 371.96 112.04 370.29 112.24 368.64C112.44 366.99 112.71 365.32 112.84 363.64C112.97 361.96 113.19 360.29 113.55 358.64C114.142 355.329 115.094 352.094 116.39 348.99C117.558 345.827 119.46 342.986 121.94 340.7C121.959 340.676 121.969 340.646 121.969 340.615C121.969 340.584 121.959 340.554 121.94 340.53C121.929 340.505 121.911 340.483 121.888 340.469C121.865 340.455 121.837 340.448 121.81 340.45Z" fill="#ABABAB"/>
<path d="M91.3098 359.61C90.5998 351.12 89.1998 342.71 87.8698 334.31C86.5398 325.91 85.0798 317.54 83.5498 309.18C82.0198 300.82 80.2898 292.49 78.4898 284.18C78.4875 284.163 78.4817 284.147 78.4726 284.132C78.4636 284.118 78.4516 284.105 78.4374 284.096C78.4232 284.086 78.4072 284.08 78.3903 284.077C78.3735 284.075 78.3563 284.075 78.3398 284.08C78.3226 284.082 78.3061 284.088 78.2913 284.097C78.2764 284.106 78.2634 284.118 78.2532 284.132C78.2429 284.146 78.2356 284.161 78.2316 284.178C78.2275 284.195 78.2269 284.213 78.2298 284.23C79.6798 292.6 80.9998 300.99 82.2298 309.39C83.4598 317.79 84.6998 326.19 85.7698 334.6C86.8398 343.01 87.6098 351.47 88.6698 359.87L91.7698 385.14C91.7723 385.173 91.7871 385.203 91.8112 385.225C91.8353 385.248 91.867 385.26 91.8998 385.26C91.9352 385.26 91.9694 385.246 91.9954 385.222C92.0214 385.198 92.0372 385.165 92.0398 385.13C92.1298 383 92.1398 380.87 92.1898 378.74C92.2398 376.61 92.0998 374.48 92.0598 372.35C91.9998 368.1 91.6298 363.85 91.3098 359.61Z" fill="#ABABAB"/>
<path d="M86.22 359.48C85.77 356.12 85.15 352.78 84.51 349.48L83.32 344.48C82.93 342.83 82.56 341.17 82.07 339.54C80.3775 332.959 78.2119 326.509 75.59 320.24L74.59 317.9L73.46 315.62C72.74 314.08 71.87 312.62 71.04 311.13C69.3686 308.153 67.2996 305.418 64.89 303C64.8658 302.977 64.8336 302.964 64.8 302.964C64.7665 302.964 64.7342 302.977 64.71 303C64.6861 303.026 64.6729 303.06 64.6729 303.095C64.6729 303.13 64.6861 303.164 64.71 303.19C66.944 305.696 68.8309 308.491 70.32 311.5C71.06 313.01 71.84 314.5 72.47 316.05L73.47 318.36L74.36 320.72C76.7063 327.022 78.5912 333.485 80 340.06C80.78 343.32 81.29 346.65 81.92 349.94L82.72 354.94C83 356.59 83.36 358.23 83.59 359.94C84.12 363.26 84.73 366.57 85.31 369.89C85.89 373.21 86.43 376.54 87.14 379.89C87.1448 379.921 87.1606 379.949 87.1845 379.969C87.2084 379.99 87.2387 380 87.27 380C87.3045 380 87.3376 379.986 87.3619 379.962C87.3863 379.938 87.4 379.905 87.4 379.87C87.4 376.48 87.34 373.08 87.16 369.69C86.98 366.3 86.57 362.86 86.22 359.48Z" fill="#ABABAB"/>
<path d="M79.1999 359.92C77.6199 355.46 75.8099 351.1 73.8199 346.83C71.8181 342.564 69.5607 338.423 67.0599 334.43C67.034 334.41 67.0024 334.4 66.9699 334.4C66.9375 334.4 66.9059 334.41 66.8799 334.43C66.8567 334.454 66.8438 334.486 66.8438 334.52C66.8438 334.553 66.8567 334.586 66.8799 334.61C69.0505 338.754 70.9772 343.021 72.6499 347.39C74.3699 351.74 75.9199 356.14 77.2199 360.62C78.5199 365.1 79.4999 369.62 80.6899 374.13C81.8799 378.64 82.9499 383.13 84.3299 387.7C84.3396 387.727 84.357 387.751 84.3801 387.769C84.4031 387.787 84.4309 387.798 84.4599 387.8C84.4947 387.798 84.5278 387.784 84.5533 387.76C84.5789 387.736 84.5953 387.704 84.5999 387.67C84.6515 382.93 84.2091 378.198 83.2799 373.55C82.2853 368.905 80.9209 364.347 79.1999 359.92Z" fill="#ABABAB"/>
<path d="M78.9099 374.75C78.0431 371.975 76.7836 369.338 75.1699 366.92C73.6665 364.434 71.8369 362.16 69.7299 360.16C68.6547 359.191 67.4969 358.318 66.2699 357.55C65.0616 356.76 63.7396 356.16 62.3499 355.77C62.3182 355.764 62.2855 355.769 62.2567 355.783C62.2279 355.798 62.2045 355.821 62.1899 355.85C62.1818 355.865 62.1772 355.883 62.1764 355.9C62.1756 355.918 62.1786 355.935 62.1853 355.951C62.192 355.967 62.2021 355.982 62.215 355.994C62.2279 356.006 62.2432 356.015 62.2599 356.02C64.766 357.223 66.9856 358.948 68.7699 361.08C70.5925 363.17 72.1231 365.498 73.3199 368C74.6099 370.44 75.3199 373.14 76.3899 375.65C76.8899 376.94 77.3899 378.23 77.9499 379.52C78.4335 380.863 79.0047 382.172 79.6599 383.44C79.6721 383.461 79.6896 383.479 79.7107 383.491C79.7317 383.503 79.7556 383.51 79.7799 383.51C79.8147 383.508 79.8478 383.494 79.8733 383.47C79.8989 383.446 79.9153 383.414 79.9199 383.38C79.9617 381.931 79.9083 380.481 79.7599 379.04C79.5499 377.57 79.2499 376.16 78.9099 374.75Z" fill="#ABABAB"/>
<path d="M79.4301 296.34C79.4301 296.34 65.5201 293.13 62.3101 278.15C59.1001 263.17 69.4401 269.59 60.1701 246.05C50.9001 222.51 53.0001 217.16 56.2501 210.39C59.5001 203.62 61.2501 205.75 64.1001 214.67C66.9501 223.59 77.2901 237.49 81.2101 263.53C85.1301 289.57 79.4301 296.34 79.4301 296.34Z" fill="#1E4646"/>
<path d="M106.89 271C106.89 271 97.6197 267.79 97.2597 250.31C96.8997 232.83 104.04 236.4 105.11 214.65C106.18 192.9 107.61 177.56 111.53 177.2C115.45 176.84 125.8 187.9 129.36 212.15C132.92 236.4 124.73 252.45 117.59 259.59C110.45 266.73 106.89 271 106.89 271Z" fill="#1E4646"/>
<path d="M74.44 317.38C74.44 317.38 72.3 304.54 68 298.48C63.7 292.42 54.47 287.07 48.4 275.3C42.33 263.53 35.56 257.82 35.92 274.59C36.28 291.36 43.77 299.91 53.04 305.59C62.31 311.27 74.44 317.38 74.44 317.38Z" fill="#1E4646"/>
<path d="M70.5199 339.5C70.5199 339.5 61.9999 323.09 49.4699 311C36.9399 298.91 26.9999 292.77 30.5699 298.84C34.1399 304.91 38.4199 304.54 44.4799 315.24C50.5399 325.94 48.7599 333.79 57.3199 339.85C65.8799 345.91 70.5199 339.5 70.5199 339.5Z" fill="#1E4646"/>
<path d="M69.44 360.54C69.09 359.47 68.73 351.62 56.61 345.2C44.49 338.78 33.07 341.28 34.49 344.49C35.91 347.7 43.41 353.05 50.9 356.26C58.39 359.47 69.44 360.54 69.44 360.54Z" fill="#1E4646"/>
<path d="M106.18 318.1C106.18 318.1 100.83 311.32 103.68 297.1C106.53 282.88 112.96 286.4 120.09 278.91C127.22 271.42 125.8 270.35 132.93 262.5C140.06 254.65 146.48 250.37 149.33 253.58C152.18 256.79 147.91 266.78 143.63 272.49C139.35 278.2 132.57 281.05 129.36 288.18C126.15 295.31 127.58 306.72 119.36 312.07C111.14 317.42 106.18 318.1 106.18 318.1Z" fill="#1E4646"/>
<path d="M124 322C124 322 136.84 307.38 146.12 296.68C155.4 285.98 158.95 277.78 159.31 284.91C159.67 292.04 162.53 297.77 155 307C147.47 316.23 124 322 124 322Z" fill="#1E4646"/>
<path d="M117.24 345.56C117.24 345.56 116.88 339.85 137.24 326.66C157.6 313.47 166.1 311 164 316.31C161.9 321.62 152.9 327 143.27 336.64C133.64 346.28 117.24 345.56 117.24 345.56Z" fill="#1E4646"/>
<path d="M80.2801 294.82C80.2801 294.82 75.5101 269.24 70.5201 251.05C65.5301 232.86 62.3101 221.8 62.3101 221.8" stroke="#ABABAB" stroke-linecap="round" stroke-linejoin="round"/>
<path d="M106.07 271.29C106.07 271.29 114.74 243.56 117.59 226.79C120.44 210.02 117.24 197.55 115.81 190.06" stroke="#ABABAB" stroke-linecap="round" stroke-linejoin="round"/>
<path d="M73.3097 316.85C69.4703 310.244 65.0744 303.978 60.1697 298.12C52.3297 288.85 46.2597 283.86 42.6997 274.94" stroke="#ABABAB" stroke-linecap="round" stroke-linejoin="round"/>
<path d="M106.18 318.1C106.18 318.1 109.03 300.98 115.81 292.1C122.59 283.22 136.14 269.28 141.49 260.36" stroke="#ABABAB" stroke-linecap="round" stroke-linejoin="round"/>
<path d="M68.6098 360.15C68.6098 360.15 56.6098 352.34 48.0498 348.06" stroke="#ABABAB" stroke-linecap="round" stroke-linejoin="round"/>
<path d="M103.51 435.79H87.8102C86.4508 435.792 85.1212 435.391 83.9892 434.639C82.8573 433.886 81.9738 432.814 81.4502 431.56C76.3202 419.27 62.6202 383.79 70.8702 373.73C78.7302 364.15 112.59 364.15 120.45 373.73C128.7 383.79 115 419.27 109.87 431.56C109.347 432.814 108.463 433.886 107.331 434.639C106.199 435.391 104.87 435.792 103.51 435.79Z" fill="#ABABAB"/>
<g opacity="0.3">
<path d="M156.71 22.71H53.4102V153.79H156.71V22.71Z" stroke="#343434" stroke-miterlimit="10"/>
<path d="M149.97 31.2598H60.1504V145.24H149.97V31.2598Z" stroke="#343434" stroke-miterlimit="10"/>
<path d="M124.24 63.9102H85.8804V112.59H124.24V63.9102Z" stroke="#343434" stroke-miterlimit="10"/>
</g>
<g opacity="0.3">
<path d="M392.57 167.46V164.31C392.571 161.116 392.869 157.929 393.46 154.79L395.66 143H375.44L377.65 154.79C378.237 157.929 378.532 161.116 378.53 164.31V167.46C378.485 172.415 377.458 177.312 375.508 181.868C373.559 186.424 370.724 190.547 367.17 194C365.13 195.98 363.504 198.346 362.388 200.961C361.272 203.576 360.688 206.387 360.67 209.23C360.67 221.71 371.81 231.83 385.55 231.83C399.29 231.83 410.43 221.71 410.43 209.23C410.412 206.387 409.828 203.576 408.712 200.961C407.596 198.346 405.97 195.98 403.93 194C400.377 190.546 397.544 186.422 395.594 181.867C393.645 177.311 392.617 172.415 392.57 167.46Z" stroke="#343434" stroke-miterlimit="10"/>
<path d="M344.84 136.36L344 126.2H317.86L317.06 136.36C317.06 136.36 298.33 152.67 298.33 160.52C298.33 168.37 321.28 231.79 321.28 231.79H340.61C340.61 231.79 363.61 168.37 363.61 160.52C363.61 152.67 344.84 136.36 344.84 136.36Z" stroke="#343434" stroke-miterlimit="10"/>
<path d="M300.46 160.54H320.78" stroke="#343434" stroke-miterlimit="10"/>
<path d="M324.28 160.32H327.56" stroke="#343434" stroke-miterlimit="10"/>
<path d="M355.3 167.31H324.93" stroke="#343434" stroke-miterlimit="10"/>
<path d="M324.5 191.56H338.26" stroke="#343434" stroke-miterlimit="10"/>
<path d="M340.66 191.34H345.47" stroke="#343434" stroke-miterlimit="10"/>
<path d="M327.34 182.82H305.71" stroke="#343434" stroke-miterlimit="10"/>
<path d="M326.46 209.7H343.51" stroke="#343434" stroke-miterlimit="10"/>
<path d="M341.76 136.5H329.3" stroke="#343434" stroke-miterlimit="10"/>
</g>
<g opacity="0.3">
<path d="M262.74 239.16L455.82 239.16V231.88L262.74 231.88V239.16Z" stroke="#343434" stroke-linecap="round" stroke-linejoin="round"/>
<path d="M271.7 435.98H446.87V239.38L271.7 239.38V435.98Z" stroke="#343434" stroke-linecap="round" stroke-linejoin="round"/>
<path d="M278 291.18H440.77V248.52L278 248.52V291.18Z" stroke="#343434" stroke-linecap="round" stroke-linejoin="round"/>
<path d="M351.53 273.78H367.81V265.92H351.53V273.78Z" fill="#1E4646" stroke="#343434" stroke-linecap="round" stroke-linejoin="round"/>
<path d="M278 345.06H440.77V302.4H278V345.06Z" stroke="#343434" stroke-linecap="round" stroke-linejoin="round"/>
<path d="M351.53 327.66H367.81V319.8H351.53V327.66Z" fill="#1E4646" stroke="#343434" stroke-linecap="round" stroke-linejoin="round"/>
<path d="M278 399.19H440.77V356.53H278V399.19Z" stroke="#343434" stroke-linecap="round" stroke-linejoin="round"/>
<path d="M351.53 381.8H367.81V373.94H351.53V381.8Z" fill="#1E4646" stroke="#343434" stroke-linecap="round" stroke-linejoin="round"/>
</g>
<path d="M331.23 475.15C334.637 474.915 338.056 474.935 341.46 475.21C343.15 475.34 344.85 475.52 346.54 475.79C348.242 476.031 349.916 476.436 351.54 477C349.84 476.79 348.15 476.7 346.46 476.57L341.39 476.2C338 475.93 334.61 475.66 331.23 475.15Z" fill="#1E4646"/>
<path d="M360.29 471.92C361.226 471.55 362.209 471.311 363.21 471.21C364.207 471.106 365.213 471.106 366.21 471.21C367.233 471.305 368.241 471.527 369.21 471.87C370.168 472.204 371.062 472.701 371.85 473.34C370.85 473.07 369.95 472.8 369 472.62C368.058 472.434 367.107 472.297 366.15 472.21C364.22 472 362.3 472 360.29 471.92Z" fill="#1E4646"/>
<path d="M64.5801 471.94C67.9866 471.7 71.4066 471.72 74.8101 472C76.5101 472.13 78.2001 472.31 79.8901 472.58C81.5915 472.818 83.2659 473.22 84.8901 473.78C83.1901 473.58 81.5001 473.49 79.8101 473.36L74.7301 473C71.3501 472.72 68.0001 472.45 64.5801 471.94Z" fill="#1E4646"/>
<path d="M93.6401 468.71C94.5751 468.337 95.5582 468.098 96.5601 468C97.5575 467.896 98.5628 467.896 99.5601 468C100.584 468.091 101.593 468.312 102.56 468.66C103.518 468.99 104.411 469.484 105.2 470.12C104.2 469.86 103.3 469.58 102.35 469.41C101.4 469.24 100.46 469.07 99.5001 468.99C97.5701 468.77 95.6501 468.74 93.6401 468.71Z" fill="#1E4646"/>
<path d="M351.53 328.92C352.733 328.211 354.038 327.695 355.4 327.39C356.76 327.06 358.151 326.879 359.55 326.85C360.946 326.815 362.341 326.936 363.71 327.21C365.09 327.461 366.433 327.881 367.71 328.46C366.34 328.28 364.99 328.08 363.64 327.98C362.31 327.863 360.975 327.82 359.64 327.85C358.302 327.871 356.967 327.972 355.64 328.15C354.256 328.321 352.883 328.578 351.53 328.92Z" fill="#1E4646"/>
<path d="M271.72 270.79C272.926 270.09 274.231 269.577 275.59 269.27C276.95 268.937 278.341 268.753 279.74 268.72C281.136 268.694 282.53 268.814 283.9 269.08C285.278 269.336 286.621 269.756 287.9 270.33C286.52 270.15 285.18 269.96 283.83 269.85C282.5 269.738 281.165 269.695 279.83 269.72C278.492 269.744 277.156 269.848 275.83 270.03C274.446 270.202 273.074 270.456 271.72 270.79Z" fill="#1E4646"/>
<path d="M401.81 323.38C401.011 324.243 400.115 325.012 399.14 325.67C398.189 326.34 397.186 326.932 396.14 327.44C394.031 328.494 391.746 329.151 389.4 329.38C390.46 328.88 391.53 328.46 392.58 327.98C393.63 327.5 394.67 327.05 395.7 326.54C397.73 325.56 399.74 324.48 401.81 323.38Z" fill="#1E4646"/>
<path d="M369.52 332.61C371.482 332.355 373.468 332.355 375.43 332.61C376.415 332.723 377.391 332.907 378.35 333.16C379.338 333.374 380.263 333.816 381.05 334.45C380.121 334.177 379.166 334.003 378.2 333.93L375.31 333.6C373.361 333.392 371.427 333.061 369.52 332.61Z" fill="#1E4646"/>
<path d="M352 322.92C351.335 323.89 350.575 324.791 349.73 325.61C348.899 326.441 347.999 327.2 347.04 327.88C346.078 328.579 345.038 329.163 343.94 329.62C342.851 330.111 341.664 330.344 340.47 330.3C341.562 329.959 342.612 329.496 343.6 328.92C344.587 328.356 345.541 327.739 346.46 327.07C348.32 325.76 350.09 324.31 352 322.92Z" fill="#1E4646"/>
<path d="M277.72 248.19C277.055 249.16 276.294 250.061 275.45 250.88C274.619 251.711 273.719 252.47 272.76 253.15C271.798 253.849 270.758 254.433 269.66 254.89C268.571 255.382 267.384 255.615 266.19 255.57C267.282 255.229 268.332 254.766 269.32 254.19C270.304 253.623 271.259 253.005 272.18 252.34C274.05 251 275.82 249.58 277.72 248.19Z" fill="#1E4646"/>
<path d="M314.08 391.82C314.08 391.82 298.08 396.68 291.24 396.68C284.4 396.68 280.55 397.68 276.66 397.16C272.77 396.64 171 388.54 162.13 392.61C153.26 396.68 215.44 428.26 240.7 437.49C265.96 446.72 311.16 417.09 316.99 409.31C322.82 401.53 320.88 389.39 314.08 391.82Z" fill="#1E4646" stroke="#1E4646" stroke-linecap="round" stroke-linejoin="round"/>
<path d="M192.21 460.18C191.99 464 184.81 465.58 180.09 465.8C175.37 466.02 167.29 472.8 149.55 473.66C138.81 474.2 131.69 472.76 127.05 470.75C124.68 469.806 122.551 468.344 120.82 466.47C117.68 462.88 119.24 459.74 123.29 454.8C125.47 452.14 130.06 450.8 133.82 450.09C135.756 449.735 137.714 449.508 139.68 449.41L146.41 446.49C146.41 446.49 184.81 446.72 189.29 448.49C193.77 450.26 192.44 456.37 192.21 460.18Z" fill="white" stroke="#1E4646" stroke-linecap="round" stroke-linejoin="round"/>
<path d="M133.82 450.09C132.34 456.32 129.82 465.81 127.05 470.75C124.68 469.807 122.551 468.344 120.82 466.47C117.68 462.88 119.24 459.74 123.29 454.8C125.47 452.14 130.06 450.78 133.82 450.09Z" fill="white" stroke="#1E4646" stroke-linecap="round" stroke-linejoin="round"/>
<path d="M165.5 275.19C162.575 277.02 160.479 279.919 159.66 283.27C158.31 288.88 143.05 346.58 142.15 350.4C141.25 354.22 138.78 363.65 140.15 370.4C141.52 377.15 156.76 388.14 159.46 388.81C162.16 389.48 192.46 399.14 197.4 400.94C202.34 402.74 233.09 404.3 239.16 403.63C245.23 402.96 258.7 412.25 286.88 399.13C291.88 396.82 288.64 348.82 289.31 345.68C289.98 342.54 316.61 351.77 319.31 351.09C322.01 350.41 332.55 347.28 330.76 342.34C328.97 337.4 302.47 285.09 297.53 277.23C292.59 269.37 283.16 264.43 278.22 263.09C273.28 261.75 254.87 258.37 253.08 258.15C251.29 257.93 213.79 258.15 202.56 259.94C191.33 261.73 172.25 269.6 170.46 270.72C168.675 272.057 167.014 273.553 165.5 275.19Z" fill="#1E4646" stroke="#1E4646" stroke-linecap="round" stroke-linejoin="round"/>
<path d="M206.52 389.65C216.52 394.03 230.58 399.34 241.38 400.24" stroke="#1E4646" stroke-linecap="round" stroke-linejoin="round"/>
<path d="M193.79 383.63C193.79 383.63 197.56 385.63 203.28 388.2" stroke="#1E4646" stroke-linecap="round" stroke-linejoin="round"/>
<path d="M271.4 373C269.71 374.35 267.95 375.62 266.15 376.82" stroke="#1E4646" stroke-linecap="round" stroke-linejoin="round"/>
<path d="M220.4 394.24C220.4 394.24 242.56 390.6 261.61 379.64" stroke="#1E4646" stroke-linecap="round" stroke-linejoin="round"/>
<path d="M233.5 289.63L226.46 312.43L217.87 304.86" stroke="#1E4646" stroke-linecap="round" stroke-linejoin="round"/>
<path d="M237.06 278.09L235.1 284.43" stroke="#1E4646" stroke-linecap="round" stroke-linejoin="round"/>
<path d="M204.48 274.09C204.48 274.09 224.09 304.41 225.58 302.03C227.07 299.65 234.79 264.88 234.79 264.88L204.48 274.09Z" fill="white" stroke="#1E4646" stroke-linecap="round" stroke-linejoin="round"/>
<path d="M203.21 166.75C203.21 166.75 186.28 168.75 170.21 189.43C166.21 194.58 159.21 235.9 157.21 255.21C155.21 274.52 172.46 293.6 190 291.13C207.54 288.66 215.37 272.05 215.37 272.05L228.17 268.68C228.17 268.68 235.35 278.78 248.6 271.37C261.85 263.96 265.43 249.59 259.82 229.61C254.21 209.63 244.55 199.53 239.62 190.77C234.69 182.01 232.88 174.61 221.88 169.22C210.88 163.83 203.21 166.75 203.21 166.75Z" fill="#1E4646" stroke="#1E4646" stroke-linecap="round" stroke-linejoin="round"/>
<path d="M179.77 232.64C179.77 232.64 170.36 249.11 178.59 259.69" stroke="#737373" stroke-linecap="round" stroke-linejoin="round"/>
<path d="M220.54 179.33L218.58 199.32" stroke="#737373" stroke-linecap="round" stroke-linejoin="round"/>
<path d="M250.11 260.3C243.36 264.3 240.92 258.51 240.92 258.51" stroke="#737373" stroke-linecap="round" stroke-linejoin="round"/>
<path d="M229.55 204.42C229.55 204.42 236.61 202.85 245.62 213.04C253.51 221.96 260.18 243.79 255.69 254.36" stroke="#737373" stroke-linecap="round" stroke-linejoin="round"/>
<path d="M204.43 193C200.16 198.715 195.326 203.985 190 208.73C175.1 222.06 155.11 233.03 159.81 255.73C164.51 278.43 185.3 279.25 185.3 279.25" stroke="#737373" stroke-linecap="round" stroke-linejoin="round"/>
<path d="M210.34 183.64C209.429 185.475 208.4 187.249 207.26 188.95" stroke="#737373" stroke-linecap="round" stroke-linejoin="round"/>
<path d="M241.16 204.24C240.979 207.576 240.598 210.899 240.02 214.19C240.044 214.316 240.044 214.445 240.02 214.57C240.02 214.69 239.87 215.07 239.68 215.57C239.506 216.437 239.167 217.262 238.68 218C237.32 220.78 234.91 224.05 231.28 223.07C225.44 221.5 217.13 203.54 217.13 203.54L181.21 230.03C181.21 230.03 187.15 252.82 190.75 258.88C194.35 264.94 207.24 276 213.75 277.57C220.26 279.14 230.64 275.57 235.01 266.71C242.01 252.5 239.36 235.65 239.36 235.65C239.36 235.65 242.46 233.36 243.13 224.15C243.8 214.94 241.16 204.24 241.16 204.24Z" fill="white" stroke="#1E4646" stroke-linecap="round" stroke-linejoin="round"/>
<path d="M217.13 203.57C217.13 203.57 204.83 225.75 194.21 233.57C183.59 241.39 176.35 230.46 176.35 230.46C176.35 230.46 186.71 231.76 193.69 226.32C200.67 220.88 209.74 204.06 210.26 203.32" fill="#1E4646"/>
<path d="M217.13 203.57C217.13 203.57 204.83 225.75 194.21 233.57C183.59 241.39 176.35 230.46 176.35 230.46C176.35 230.46 186.71 231.76 193.69 226.32C200.67 220.88 209.74 204.06 210.26 203.32" stroke="#1E4646" stroke-linecap="round" stroke-linejoin="round"/>
<path d="M206.58 242.86C206.58 242.86 198.23 237.24 193.48 241.11" stroke="#1E4646" stroke-width="2" stroke-linecap="round" stroke-linejoin="round"/>
<path d="M208.6 244.43L211.07 250.27" stroke="#1E4646" stroke-linecap="round" stroke-linejoin="round"/>
<path d="M218.48 241.74C218.48 241.74 223.42 236.57 229.26 236.12" stroke="#1E4646" stroke-width="2" stroke-linecap="round" stroke-linejoin="round"/>
<path d="M195.13 246.23C195.13 246.23 200.07 248.92 204.34 246.68" stroke="#1E4646" stroke-linecap="round" stroke-linejoin="round"/>
<path d="M220.28 245.1C220.28 245.1 226.11 247.1 229.71 243.1" stroke="#1E4646" stroke-linecap="round" stroke-linejoin="round"/>
<path d="M221 260.37C221 260.37 225.72 278.56 226.16 281.48C226.714 286.117 225.425 290.785 222.57 294.48C218.98 298.97 210.22 305.7 210.22 305.7L207.53 314.91L191.81 309.29C191.81 309.29 195.86 292.46 196.08 290.89C196.3 289.32 196.53 282.58 196.75 280.11C197.138 277.935 197.811 275.82 198.75 273.82L213.57 258.11L221 260.37Z" fill="white" stroke="#1E4646" stroke-linecap="round" stroke-linejoin="round"/>
<path d="M222.52 266.88C222.52 266.88 220.05 276.31 219.83 279.23C219.61 282.15 213.54 289.56 213.54 289.56" stroke="#1E4646" stroke-linecap="round" stroke-linejoin="round"/>
<path d="M225 274.52C225 274.52 223 284.62 222.31 285.52C221.62 286.42 219.61 290.68 219.61 290.68" stroke="#1E4646" stroke-linecap="round" stroke-linejoin="round"/>
<path d="M213.77 252.51C213.77 252.51 188.4 271.6 189.52 272.51C190.64 273.42 203.44 288.22 205.46 288.89C207.48 289.56 218.46 274.3 219.16 272.73C219.86 271.16 223 258.8 221.85 257C220.7 255.2 213.77 252.51 213.77 252.51Z" fill="white" stroke="#1E4646" stroke-linecap="round" stroke-linejoin="round"/>
<path d="M141 356.55C140.55 357.22 138.58 370.16 141.05 375.55C143.52 380.94 156.05 392.16 162.15 392.61C168.25 393.06 180.96 394.25 186.4 387.44C187.72 385.79 200.09 360.5 204.58 351.75C207.718 345.869 209.411 339.325 209.52 332.66C209.474 331.687 209.208 330.736 208.743 329.881C208.277 329.025 207.623 328.286 206.83 327.72C206.83 327.72 202.83 328.4 196.27 326.15C189.71 323.9 183.48 316.5 183.48 316.5C183.48 316.5 173.6 318.74 168.48 322.79C163.36 326.84 148.48 360.28 148.48 360.28" fill="#1E4646"/>
<path d="M141 356.55C140.55 357.22 138.58 370.16 141.05 375.55C143.52 380.94 156.05 392.16 162.15 392.61C168.25 393.06 180.96 394.25 186.4 387.44C187.72 385.79 200.09 360.5 204.58 351.75C207.718 345.869 209.411 339.325 209.52 332.66C209.474 331.687 209.208 330.736 208.743 329.881C208.277 329.025 207.623 328.286 206.83 327.72C206.83 327.72 202.83 328.4 196.27 326.15C189.71 323.9 183.48 316.5 183.48 316.5C183.48 316.5 173.6 318.74 168.48 322.79C163.36 326.84 148.48 360.28 148.48 360.28" stroke="#1E4646" stroke-linecap="round" stroke-linejoin="round"/>
<path d="M183.33 369.5C175.75 372.5 165.66 375.82 158.5 376.03" stroke="#1E4646" stroke-linecap="round" stroke-linejoin="round"/>
<path d="M193.94 365C193.94 365 192.09 365.88 189.14 367.14" stroke="#1E4646" stroke-linecap="round" stroke-linejoin="round"/>
<path d="M169.93 369.17C169.93 369.17 153.93 377.94 148.59 372.6" stroke="#1E4646" stroke-linecap="round" stroke-linejoin="round"/>
<path d="M192.44 304.6L210.62 310L207.48 329.53C207.48 329.53 207.48 330.43 198.72 328.41C189.96 326.39 183.72 318.75 183.72 318.75L192.44 304.6Z" fill="#1E4646" stroke="#1E4646" stroke-linecap="round" stroke-linejoin="round"/>
<path d="M333.88 468.49C331.8 469.7 327.75 469.99 323.44 469.72C319.207 469.493 315.024 468.702 311 467.37C304.94 465.12 286.53 460.86 286.53 460.86C286.53 460.86 320.65 445.14 328.96 446.94C330.474 447.26 331.967 447.674 333.43 448.18C338.61 450.02 341.05 452.6 341.75 455.47C342.63 459.06 338.15 466 333.88 468.49Z" fill="white" stroke="#1E4646" stroke-linecap="round" stroke-linejoin="round"/>
<path d="M333.88 468.49C331.8 469.7 327.75 469.99 323.44 469.72C324.79 467.66 326.27 465.29 327.69 462.72C330.159 458.1 332.079 453.207 333.41 448.14C338.59 449.98 341.03 452.56 341.73 455.43C342.63 459.06 338.15 466 333.88 468.49Z" fill="white" stroke="#1E4646" stroke-linecap="round" stroke-linejoin="round"/>
<path d="M260.69 431.67C260.69 431.67 223.2 420.67 203.44 407.67C183.68 394.67 149.56 382.73 140.13 380C130.7 377.27 118.8 378.42 114.13 385.38C109.46 392.34 99.1299 410.75 102.46 417.71C105.79 424.67 127.16 440.16 135.24 443.98C143.32 447.8 155.67 451.62 166.67 452.06C177.67 452.5 221.67 458.57 222.57 458.57C223.47 458.57 242.11 451.84 250.64 444.88C259.17 437.92 260.69 431.67 260.69 431.67Z" fill="#1E4646" stroke="#1E4646" stroke-linecap="round" stroke-linejoin="round"/>
<path d="M286.06 406.3C286.06 406.3 230.38 443.57 216.24 447.84C202.1 452.11 190.87 453.9 187.95 454.12C185.03 454.34 186.6 453.45 184.8 456.12C183 458.79 175.6 469.36 175.15 472.73C174.7 476.1 196.48 475.87 209.73 476.99C222.98 478.11 244.73 472.73 244.73 472.73C244.73 472.73 291.88 463.3 298.84 461.05C305.8 458.8 327.57 450.95 337.68 444.22C347.79 437.49 358.11 410.54 357.88 405.15C357.65 399.76 346.21 390.78 339.88 386.29C333.55 381.8 324.39 382.92 317.21 386.97C310.03 391.02 286.06 406.3 286.06 406.3Z" fill="#1E4646" stroke="#1E4646" stroke-linecap="round" stroke-linejoin="round"/>
<path d="M292.8 406.58C296.57 404.3 298.96 402.83 298.96 402.83" stroke="#737373" stroke-linecap="round" stroke-linejoin="round"/>
<path d="M211.66 443.16C225.98 438.93 248.07 431.97 258.35 426.49C267.45 421.64 279.44 414.59 288.02 409.49" stroke="#737373" stroke-linecap="round" stroke-linejoin="round"/>
<path d="M198.32 447C198.32 447 200.98 446.28 205.23 445.06" stroke="#737373" stroke-linecap="round" stroke-linejoin="round"/>
<path d="M203.44 407.65C203.44 407.65 240.34 426.14 255.17 428.26" stroke="#737373" stroke-linecap="round" stroke-linejoin="round"/>
<path d="M342.76 424C337.32 432.37 328.97 443.52 320.14 449.06C304.96 458.59 266.82 466.71 266.82 466.71" stroke="#737373" stroke-linecap="round" stroke-linejoin="round"/>
<path d="M349.1 413.43C349.1 413.43 348.24 415.06 346.71 417.66" stroke="#737373" stroke-linecap="round" stroke-linejoin="round"/>
<path d="M232.22 420.84C232.22 420.84 247.4 413.07 255.53 409.54" stroke="#737373" stroke-linecap="round" stroke-linejoin="round"/>
<path d="M279.32 326.38L284.71 337.38C284.71 337.38 279.55 342.77 281.57 349.05C283.59 355.33 297.51 372.85 301.33 376.67C305.15 380.49 316.33 384.3 324.45 380.04C327.58 378.413 330.212 375.97 332.069 372.971C333.926 369.972 334.938 366.527 335 363C335.23 357.61 332.76 346.61 330.74 342.35C328.72 338.09 321.98 335.61 317.74 331.8C313.5 327.99 304.26 330.67 304.26 330.67L300 325.48C300 325.48 291 317.17 279.32 326.38Z" fill="#1E4646" stroke="#1E4646" stroke-linecap="round" stroke-linejoin="round"/>
<path d="M284.71 337.38C284.71 337.38 287.81 340.85 294.09 340.16C300.37 339.47 304.24 330.64 304.24 330.64L297.58 323.76L279.32 326.38L284.71 337.38Z" fill="#1E4646" stroke="#1E4646" stroke-linecap="round" stroke-linejoin="round"/>
<path d="M276.87 298C276.87 298 278.27 306.66 277.1 311.34C276.599 313.722 275.732 316.013 274.53 318.13C274.53 318.13 268.67 316.73 266.1 316.26C263.53 315.79 257.67 318.6 257.9 320.26C258.13 321.92 260.48 322.13 265.63 323.07C270.78 324.01 272.63 324.24 274.06 325.41C275.49 326.58 279.21 329.86 283.19 330.09C285.538 330.247 287.885 329.763 289.98 328.69C289.98 328.69 296.3 331.03 299.34 329.86C302.38 328.69 304.96 324.94 305.66 319.56C306.36 314.18 306.37 311.36 302.66 307.15C298.95 302.94 286.74 303.87 285.57 302.93C284.4 301.99 281.57 294.04 281.57 294.04L276.87 298Z" fill="white" stroke="#1E4646" stroke-linecap="round" stroke-linejoin="round"/>
<path d="M281.55 291.69C281.55 291.69 275.93 291.45 274.99 293.33C274.05 295.21 274.76 299.41 277.57 300.12C280.38 300.83 283.66 299.41 283.89 296.84C284.12 294.27 283.89 291.69 281.55 291.69Z" fill="white" stroke="#1E4646" stroke-linecap="round" stroke-linejoin="round"/>
<path d="M294.89 295.9C294.89 295.9 288.57 294.97 287.64 296.84C286.71 298.71 286.7 309.48 288.57 310.42C290.44 311.36 293.72 312.29 294.43 309.01C295.14 305.73 294.89 298.24 294.89 295.9Z" fill="white" stroke="#1E4646" stroke-linecap="round" stroke-linejoin="round"/>
<path d="M295.36 300.82C295.36 300.82 300.28 299.65 300.98 301.29C301.68 302.93 301.21 305.03 300.51 308.78C299.81 312.53 299.81 314.63 297.24 313.93C296.469 313.689 295.768 313.265 295.197 312.693C294.625 312.122 294.201 311.421 293.96 310.65L295.36 300.82Z" fill="white" stroke="#1E4646" stroke-linecap="round" stroke-linejoin="round"/>
<path d="M301.68 305C301.68 305 306.6 307.58 306.13 309.68C305.66 311.78 304.73 318.81 301.21 319.05C297.69 319.29 299.58 311.56 299.58 311.56L301.68 305Z" fill="white" stroke="#1E4646" stroke-linecap="round" stroke-linejoin="round"/>
<path d="M277.34 317.91C277.34 317.91 283.19 316.74 284.83 317.21C286.47 317.68 289.28 321.89 289.28 321.89" stroke="#1E4646" stroke-linecap="round" stroke-linejoin="round"/>
<path d="M378.71 411.26C378.71 411.26 380.16 424.38 384.05 429.26C387.94 434.14 394.25 439.95 395.23 442.38C396.21 444.81 387.45 463.76 385.99 465.71C384.53 467.66 376.28 467.16 378.22 471.05C380.16 474.94 388.42 474.94 392.31 472.51C396.2 470.08 408.31 447.73 411.26 442.38C414.21 437.03 416.12 434.61 416.61 431.21C417.1 427.81 400.09 420.03 395.23 413.71C390.37 407.39 382.11 404 378.71 411.26Z" fill="#8C8C8C" stroke="#1E4646" stroke-linecap="round" stroke-linejoin="round"/>
<path d="M307.3 425.54C307.3 425.54 308.05 440.02 307.3 442.77C306.55 445.52 302.55 452.77 299.06 458C295.57 463.23 294.31 464 289.32 466C284.33 468 283.83 469.74 286.32 471.24C287.597 471.971 289.017 472.416 290.483 472.545C291.948 472.675 293.425 472.485 294.81 471.99C297.31 470.99 304.55 465.5 306.55 462.25C308.55 459 322.28 440.78 323.78 437.03C325.28 433.28 307.3 425.54 307.3 425.54Z" fill="#8C8C8C" stroke="#1E4646" stroke-linecap="round" stroke-linejoin="round"/>
<path d="M280.58 343.39C280.58 343.39 269.84 335.39 268.84 338.39C267.84 341.39 271.84 347.87 271.84 347.87L280.58 343.39Z" fill="#BABABA" stroke="#1E4646" stroke-linecap="round" stroke-linejoin="round"/>
<path d="M442.43 457.08C442.548 457.882 442.614 458.69 442.63 459.5C442.63 465.24 437.63 473.73 433.38 475.73C429.13 477.73 426.38 475.48 427.14 471.98C427.9 468.48 432.14 465.74 432.64 464.74C432.86 464.29 432.53 461.74 431.88 458.68C431.171 454.94 430.085 451.282 428.64 447.76C426.4 443.01 416.64 433.76 413.16 433.76C409.68 433.76 395.68 431.51 391.16 426.76C386.64 422.01 379.92 416.03 375.16 413.76C370.4 411.49 366.92 414.51 359.92 420.5C355.284 424.322 350.055 427.362 344.44 429.5C343.614 431.313 343.11 433.255 342.95 435.24C342.412 440.903 340.8 446.411 338.2 451.47C335.078 457.679 331.578 463.69 327.72 469.47C325.72 472.21 319.48 476.47 315.48 477.47C311.48 478.47 307.99 476.71 307.74 474.47C307.49 472.23 313.24 471.23 314.48 470.47C315.72 469.71 323.22 460.99 322.98 454.74C322.74 448.49 319.48 436.74 319.48 436.74C319.48 436.74 309.48 432.5 305.74 428.5C302 424.5 299.5 412.5 297.74 400.04C295.98 387.58 288.74 381.57 287.01 381.57C285.58 381.57 280.47 383.24 276.47 383.57C275.655 383.646 274.835 383.646 274.02 383.57C270.02 383.07 262.78 376.33 261.54 374.83C260.3 373.33 263.79 370.34 264.54 368.59C264.865 367.69 264.937 366.719 264.75 365.78C264.455 364.245 263.968 362.754 263.3 361.34C262.05 358.6 267.3 349.11 275.04 343.34C282.78 337.57 295.51 342.59 301.04 347.08C306.57 351.57 314.27 362.81 316.27 362.81C316.438 362.807 316.605 362.79 316.77 362.76C318.95 362.42 323.02 360.07 323.02 360.07C323.02 360.07 324.54 358.85 327.02 357.02L327.62 356.57C330.91 354.17 335.62 350.88 340.77 347.78C342.77 346.59 344.77 345.42 346.84 344.35C349.994 342.651 353.29 341.229 356.69 340.1C358.291 339.613 359.948 339.327 361.62 339.25C365.573 339.089 369.531 339.401 373.41 340.18C378.442 341.139 383.406 342.425 388.27 344.03C391.43 345.03 394.27 346.08 396.53 346.94C399.83 348.18 401.88 349.08 401.88 349.08C401.88 349.08 404.58 349.62 407.72 349.97C410.86 350.32 414.72 350.47 416.37 349.59C417.37 349.03 418.5 347.19 419.62 344.59C420.54 342.49 421.47 339.92 422.36 337.18C423.55 333.51 424.68 329.56 425.63 326.09C425.85 325.26 426.08 324.46 426.28 323.7C426.878 321.502 427.332 319.267 427.64 317.01C428.081 313.784 428.245 310.525 428.13 307.27C427.986 302.999 427.532 298.745 426.77 294.54C426.39 292.36 425.91 290.05 425.35 287.62C425.07 286.4 424.78 285.25 424.49 284.18C423.802 281.556 422.895 278.994 421.78 276.52C418.93 270.47 415.9 269.24 413.12 267.14C412.194 266.46 411.309 265.725 410.47 264.94C407.63 262.28 405.64 259.03 407.38 255.16C409.62 250.16 418.38 249.42 424.38 253.91C425.047 254.427 425.669 254.999 426.24 255.62C429.3 258.92 432.51 264.62 435.42 271.4C436.54 274.02 437.62 276.79 438.63 279.64C439.71 282.74 440.71 285.94 441.63 289.12C442.08 290.795 442.414 292.499 442.63 294.22C443.057 297.623 443.251 301.051 443.21 304.48C443.14 319.72 439.8 337.79 437.62 344.3C434.62 353.3 419.57 370.56 417.57 371.81C415.57 373.06 415.4 376.81 415.15 380.25C414.9 383.69 419.39 408.47 423.88 413.71C427.35 417.71 430.21 418.83 432.49 422.19C433.274 423.36 433.909 424.623 434.38 425.95C434.86 427.24 435.46 429.06 436.11 431.2C437.11 434.32 438.11 438.11 439.11 441.93C439.48 443.34 439.83 444.74 440.11 446.12C441.24 450.41 442.07 454.34 442.43 457.08Z" fill="#BABABA"/>
<path d="M442.63 459.5C442.63 465.24 437.63 473.73 433.38 475.73C429.13 477.73 426.38 475.48 427.14 471.98C427.9 468.48 432.14 465.74 432.64 464.74C432.86 464.29 432.53 461.74 431.88 458.68C433.405 459.232 435.057 459.336 436.64 458.98C438.628 458.541 440.568 457.905 442.43 457.08C442.548 457.882 442.614 458.69 442.63 459.5Z" fill="white"/>
<path d="M308.82 356.29C309.78 358.644 309.903 361.256 309.17 363.69C308.003 366.792 306.458 369.737 304.57 372.46C304.57 372.46 308.57 372.04 310.63 369.75C312.69 367.46 314.08 361.67 314.08 361.67L308.82 356.29Z" fill="#1E4646" stroke="#1E4646" stroke-linecap="round" stroke-linejoin="round"/>
<path d="M298.51 344.88C298.51 344.88 299.98 348.88 298.51 352.19C297.04 355.5 294.51 357.83 294.96 359.51C295.208 360.465 295.349 361.444 295.38 362.43C296.853 360.387 298.528 358.498 300.38 356.79C302.68 354.91 303.96 350.79 303.96 350.79C303.96 350.79 299.56 345.51 298.51 344.88Z" fill="#1E4646"/>
<path d="M288.31 355C288.31 355 285.87 357.45 280.16 355C274.45 352.55 269.84 357.17 269.84 357.17C269.84 357.17 275.27 355.54 279.89 357.72C284.51 359.9 286.68 356.06 288.31 355Z" fill="#1E4646" stroke="#1E4646" stroke-linecap="round" stroke-linejoin="round"/>
<path d="M279.89 347.36C279.89 347.36 275.27 348.45 273.1 349.81C271.694 350.723 270.416 351.82 269.3 353.07C269.3 353.07 271.2 344.65 279.89 347.36Z" fill="#1E4646" stroke="#1E4646" stroke-linecap="round" stroke-linejoin="round"/>
<path d="M426.27 255.71L425.85 255.84C419.98 257.39 414.666 260.565 410.52 265C407.68 262.34 405.69 259.09 407.42 255.22C409.67 250.22 418.42 249.48 424.42 253.97C425.084 254.497 425.703 255.079 426.27 255.71Z" fill="#1E4646" stroke="#1E4646" stroke-linecap="round" stroke-linejoin="round"/>
<path d="M434.11 341.38C432.11 342.81 428.7 344.52 425.85 344.52C424.32 344.52 421.73 344.6 419.67 344.68C420.58 342.58 421.51 340.01 422.4 337.27C423.26 337.61 424.29 338.04 425.28 338.53C427.56 339.67 436.11 340 434.11 341.38Z" fill="#1E4646" stroke="#1E4646" stroke-linecap="round" stroke-linejoin="round"/>
<path d="M438.11 322.28C436.57 322.9 430.74 324.67 425.68 326.18C425.9 325.35 426.12 324.55 426.32 323.79C426.921 321.592 427.379 319.358 427.69 317.1C431.61 318.05 440.62 321.28 438.11 322.28Z" fill="#1E4646" stroke="#1E4646" stroke-linecap="round" stroke-linejoin="round"/>
<path d="M443.22 304.57C440.846 304.377 438.458 304.481 436.11 304.88C433.399 305.475 430.746 306.305 428.18 307.36C428.031 303.09 427.577 298.835 426.82 294.63C430.786 293.645 434.893 293.351 438.96 293.76C440.28 293.93 441.51 294.11 442.64 294.31C443.072 297.712 443.266 301.141 443.22 304.57Z" fill="#1E4646" stroke="#1E4646" stroke-linecap="round" stroke-linejoin="round"/>
<path d="M438.65 279.73C433.727 280.451 428.959 281.986 424.54 284.27C423.853 281.644 422.943 279.081 421.82 276.61C425.927 273.92 430.578 272.171 435.44 271.49C436.56 274.11 437.65 276.88 438.65 279.73Z" fill="#1E4646" stroke="#1E4646" stroke-linecap="round" stroke-linejoin="round"/>
<path d="M340 389C338.57 389.86 338.29 380.45 336.58 373.6C335.35 368.7 330.76 362.03 328.25 358.65C327.75 357.97 327.34 357.42 327.05 357.06L327.65 356.61C330.94 354.21 335.65 350.92 340.8 347.82C341.63 349.47 344.32 355.63 344.56 365.05C344.86 376.18 341.43 388.15 340 389Z" fill="#1E4646" stroke="#1E4646" stroke-linecap="round" stroke-linejoin="round"/>
<path d="M327.06 357.07C324.55 358.9 323.06 360.12 323.06 360.12C323.06 360.12 318.99 362.47 316.81 362.81C318.23 364.96 322.74 372.03 323.81 377.02C325.09 382.96 325.3 391.13 326.36 390.39C327.42 389.65 329.97 379.25 329.76 369.59C329.704 365.901 329.21 362.232 328.29 358.66C328.09 357.89 327.89 357.2 327.69 356.66" fill="#1E4646"/>
<path d="M327.06 357.07C324.55 358.9 323.06 360.12 323.06 360.12C323.06 360.12 318.99 362.47 316.81 362.81C318.23 364.96 322.74 372.03 323.81 377.02C325.09 382.96 325.3 391.13 326.36 390.39C327.42 389.65 329.97 379.25 329.76 369.59C329.704 365.901 329.21 362.232 328.29 358.66C328.09 357.89 327.89 357.2 327.69 356.66" stroke="#1E4646" stroke-linecap="round" stroke-linejoin="round"/>
<path d="M358.84 375C357.41 375.85 357.13 366.44 355.42 359.6C354.15 354.55 349.32 347.6 346.88 344.36C350.035 342.662 353.33 341.241 356.73 340.11C358.335 339.623 359.994 339.337 361.67 339.26C362.735 343.1 363.316 347.057 363.4 351.04C363.69 362.2 360.26 374.18 358.84 375Z" fill="#1E4646" stroke="#1E4646" stroke-linecap="round" stroke-linejoin="round"/>
<path d="M388.31 344.08C387.702 346.891 386.846 349.642 385.75 352.3C381.55 362.6 373.61 372.2 371.97 372.41C370.33 372.62 373.83 363.89 374.97 356.93C375.79 352.08 374.36 344.42 373.41 340.23C378.456 341.186 383.433 342.472 388.31 344.08Z" fill="#1E4646" stroke="#1E4646" stroke-linecap="round" stroke-linejoin="round"/>
<path d="M407.76 350C407.66 350.28 407.54 350.56 407.42 350.85C403.22 361.15 395.28 370.75 393.64 370.96C392 371.17 395.5 362.44 396.64 355.48C396.991 352.652 396.954 349.789 396.53 346.97C399.83 348.21 401.89 349.11 401.89 349.11C401.89 349.11 404.62 349.67 407.76 350Z" fill="#1E4646" stroke="#1E4646" stroke-linecap="round" stroke-linejoin="round"/>
<path d="M344.49 429.54C344.49 429.54 338.84 424.71 332.78 424.71C326.72 424.71 324.84 425.71 327.98 427.42C331.12 429.13 342.61 438.08 342.61 438.08L344.49 429.54Z" fill="#1E4646" stroke="#1E4646" stroke-linecap="round" stroke-linejoin="round"/>
<path d="M340.52 446C340.52 446 335.52 445 330.69 444.33C325.86 443.66 322.34 443.28 324.84 444.54C327.902 446.2 330.837 448.085 333.62 450.18L337.38 453.31C338.625 450.964 339.676 448.519 340.52 446Z" fill="#1E4646" stroke="#1E4646" stroke-linecap="round" stroke-linejoin="round"/>
<path d="M324 413C324 413 329 410.08 334.45 412C337.698 413.121 340.843 414.519 343.85 416.18C343.85 416.18 345.94 410.12 334.85 406.98C323.76 403.84 324 413 324 413Z" fill="#1E4646" stroke="#1E4646" stroke-linecap="round" stroke-linejoin="round"/>
<path d="M391.5 424.91C391.5 424.91 400.07 420.91 404.04 415.3C406.235 412.253 408.191 409.04 409.89 405.69C410.695 409.304 410.176 413.086 408.43 416.35C405.51 421.99 397.57 429.09 397.57 429.09C397.57 429.09 393.18 427.21 391.5 424.91Z" fill="#1E4646" stroke="#1E4646" stroke-linecap="round" stroke-linejoin="round"/>
<path d="M420.76 410.5C418.728 414.485 416.422 418.324 413.86 421.99C411.888 424.839 409.574 427.435 406.97 429.72C406.97 429.72 406.55 431.81 412.61 427.21C418.67 422.61 425.97 417.38 425.55 416.27C424.113 413.176 422.494 410.171 420.7 407.27L420.76 410.5Z" fill="#1E4646" stroke="#1E4646" stroke-linecap="round" stroke-linejoin="round"/>
<path d="M436.12 431.29C431.86 435.29 422.64 437.29 422.64 437.29C424.856 435.182 426.949 432.948 428.91 430.6C430.26 428.88 431.61 425.12 432.5 422.32C433.284 423.49 433.919 424.753 434.39 426.08C434.87 427.33 435.47 429.15 436.12 431.29Z" fill="#1E4646" stroke="#1E4646" stroke-linecap="round" stroke-linejoin="round"/>
<path d="M322.75 456.89L330.69 459.19C330.69 459.19 332.16 457.72 327.98 455.42L323.8 453.13L322.75 456.89Z" fill="#1E4646" stroke="#1E4646" stroke-linecap="round" stroke-linejoin="round"/>
<path d="M440.21 446.21C434.87 446.96 428.64 447.76 428.64 447.76L439.16 442C439.53 443.43 439.88 444.83 440.21 446.21Z" fill="#1E4646" stroke="#1E4646" stroke-linecap="round" stroke-linejoin="round"/>
<path d="M278.81 382.68C278.067 383.027 277.306 383.334 276.53 383.6C275.715 383.675 274.895 383.675 274.08 383.6C270.08 383.1 262.84 376.36 261.6 374.86C260.36 373.36 263.85 370.37 264.6 368.62C264.571 367.679 264.641 366.737 264.81 365.81C265.02 364.74 265.45 363.81 266.32 364.21C268.22 365.04 268.5 368.02 273.11 368.56C277.72 369.1 283.11 369.65 284.53 374.27C285.95 378.89 283.42 380.5 278.81 382.68Z" fill="white"/>
<path d="M318.87 465.37C317.663 467.263 316.203 468.983 314.53 470.48C313.29 471.23 307.53 472.23 307.79 474.48C308.05 476.73 311.54 478.48 315.53 477.48C319.52 476.48 325.77 472.23 327.77 469.48C327.9 469.3 328.05 469.09 328.2 468.86C325.255 467.296 322.118 466.123 318.87 465.37Z" fill="white"/>
<path d="M298.77 399C300.51 411.48 303.01 423.47 306.77 427.47C309.46 430.34 315.37 433.33 318.49 434.8C317.951 432.862 317.203 430.987 316.26 429.21C313.76 424.97 310.26 413.98 310.26 409.21C310.26 404.44 303.52 390.98 301.26 387.98C299 384.98 297.02 376.98 297.02 376.98C297.02 376.98 295.52 377.98 293.27 379.23C291.634 380.02 289.846 380.443 288.03 380.47C289.78 380.56 297 386.56 298.77 399Z" fill="white"/>
<path d="M368 411C368 411 377.69 400.17 380.55 400.45C383.41 400.73 388.82 421.27 388.82 421.27C388.82 421.27 380.96 415.27 377.41 412.14C373.86 409.01 368 411 368 411Z" fill="white"/>
<path d="M442.43 457.08C442.548 457.882 442.614 458.69 442.63 459.5C442.63 465.24 437.63 473.73 433.38 475.73C429.13 477.73 426.38 475.48 427.14 471.98C427.9 468.48 432.14 465.74 432.64 464.74C432.86 464.29 432.53 461.74 431.88 458.68C431.171 454.94 430.085 451.282 428.64 447.76C426.4 443.01 416.64 433.76 413.16 433.76C409.68 433.76 395.68 431.51 391.16 426.76C386.64 422.01 379.92 416.03 375.16 413.76C370.4 411.49 366.92 414.51 359.92 420.5C355.284 424.322 350.055 427.362 344.44 429.5C343.614 431.313 343.11 433.255 342.95 435.24C342.412 440.903 340.8 446.411 338.2 451.47C335.078 457.679 331.578 463.69 327.72 469.47C325.72 472.21 319.48 476.47 315.48 477.47C311.48 478.47 307.99 476.71 307.74 474.47C307.49 472.23 313.24 471.23 314.48 470.47C315.72 469.71 323.22 460.99 322.98 454.74C322.74 448.49 319.48 436.74 319.48 436.74C319.48 436.74 309.48 432.5 305.74 428.5C302 424.5 299.5 412.5 297.74 400.04C295.98 387.58 288.74 381.57 287.01 381.57C285.58 381.57 280.47 383.24 276.47 383.57C275.655 383.646 274.835 383.646 274.02 383.57C270.02 383.07 262.78 376.33 261.54 374.83C260.3 373.33 263.79 370.34 264.54 368.59C264.865 367.69 264.937 366.719 264.75 365.78C264.455 364.245 263.968 362.754 263.3 361.34C262.05 358.6 267.3 349.18 275.04 343.34C282.88 337.42 296.24 341.9 301.1 347.47C305.77 352.81 314.23 362.81 316.23 362.81C316.398 362.807 316.565 362.79 316.73 362.76C318.91 362.42 322.98 360.07 322.98 360.07C322.98 360.07 324.5 358.85 326.98 357.02L327.58 356.57C330.87 354.17 335.58 350.88 340.73 347.78C342.73 346.59 344.73 345.42 346.8 344.35C349.954 342.651 353.25 341.229 356.65 340.1C358.251 339.613 359.908 339.327 361.58 339.25C365.533 339.089 369.491 339.401 373.37 340.18C378.402 341.139 383.366 342.425 388.23 344.03C391.39 345.03 394.23 346.08 396.49 346.94C399.79 348.18 401.84 349.08 401.84 349.08C401.84 349.08 404.54 349.62 407.68 349.97C410.82 350.32 414.68 350.47 416.33 349.59C417.33 349.03 418.46 347.19 419.58 344.59C420.5 342.49 421.43 339.92 422.32 337.18C423.51 333.51 424.64 329.56 425.59 326.09C425.81 325.26 426.04 324.46 426.24 323.7C426.838 321.502 427.292 319.267 427.6 317.01C428.041 313.784 428.205 310.525 428.09 307.27C427.946 302.999 427.492 298.745 426.73 294.54C426.35 292.36 425.87 290.05 425.31 287.62C425.03 286.4 424.74 285.25 424.45 284.18C423.762 281.556 422.855 278.994 421.74 276.52C418.89 270.47 415.86 269.24 413.08 267.14C412.154 266.46 411.269 265.725 410.43 264.94C407.59 262.28 405.6 259.03 407.34 255.16C409.58 250.16 418.34 249.42 424.34 253.91C425.007 254.427 425.629 254.999 426.2 255.62C429.26 258.92 432.47 264.62 435.38 271.4C436.5 274.02 437.58 276.79 438.59 279.64C439.67 282.74 440.67 285.94 441.59 289.12C442.04 290.795 442.374 292.499 442.59 294.22C443.017 297.623 443.211 301.051 443.17 304.48C443.1 319.72 439.76 337.79 437.58 344.3C434.58 353.3 419.53 370.56 417.53 371.81C415.53 373.06 415.36 376.81 415.11 380.25C414.86 383.69 419.35 408.47 423.84 413.71C427.31 417.71 430.17 418.83 432.45 422.19C433.234 423.36 433.869 424.623 434.34 425.95C434.82 427.24 435.42 429.06 436.07 431.2C437.07 434.32 438.07 438.11 439.07 441.93C439.44 443.34 439.79 444.74 440.07 446.12C441.24 450.41 442.07 454.34 442.43 457.08Z" stroke="#1E4646" stroke-linecap="round" stroke-linejoin="round"/>
<path d="M296.31 348.63C292.56 341.14 281.58 336.9 281.58 336.9C281.477 339.337 281.73 341.776 282.33 344.14C283.33 348.14 284.33 351.63 284.33 351.63" fill="#BABABA"/>
<path d="M296.31 348.63C292.56 341.14 281.58 336.9 281.58 336.9C281.477 339.337 281.73 341.776 282.33 344.14C283.33 348.14 284.33 351.63 284.33 351.63" stroke="#1E4646" stroke-linecap="round" stroke-linejoin="round"/>
<path d="M281.33 351.38C281.33 351.38 277.58 334.9 281.58 336.9C285.58 338.9 289.32 350.63 288.58 352.63C287.84 354.63 283.58 353.88 281.33 351.38Z" fill="white" stroke="#1E4646" stroke-linecap="round" stroke-linejoin="round"/>
<path d="M273.34 366.36C273.34 366.36 269.84 364.11 269.84 365.36C270.043 366.592 270.467 367.778 271.09 368.86L273.34 366.36Z" fill="#1E4646" stroke="#1E4646" stroke-linecap="round" stroke-linejoin="round"/>
<path d="M261.6 374.85C261.6 374.85 264.1 377.35 264.6 375.6C265.1 373.85 261.6 373.35 261.6 374.85Z" fill="#1E4646" stroke="#1E4646" stroke-linecap="round" stroke-linejoin="round"/>
</svg>
