<svg width="174" height="35" viewBox="0 0 174 35" fill="none" xmlns="http://www.w3.org/2000/svg">
<path d="M7.15092 6.22021H0.5V34.9999H7.15092V6.22021Z" fill="#1E4646"/>
<path d="M25.0618 23.4354H24.9331L18.4753 6.20557H10.1509V34.9999H16.0724V13.9882H16.1796L24.1607 34.9999H30.9833V6.20557H25.0618V23.4354Z" fill="#1E4646"/>
<path d="M33.9834 10.3232H40.9347V34.9999H47.5856V10.3232H54.5369V6.20557H33.9834V10.3232Z" fill="#1E4646"/>
<path d="M57.5366 34.9999H75.6657V30.8822H64.1875V22.0483H73.3057V17.9306H64.1875V10.3232H75.6657V6.20557H57.5366V34.9999Z" fill="#1E4646"/>
<path d="M98.4042 31.5102V26.458C98.4042 24.7642 98.0824 23.4063 97.4173 22.3842C96.7523 21.3767 95.6151 20.705 94.006 20.3692V20.2815C96.9024 19.4931 98.3613 17.5948 98.3613 14.6015V12.8347C98.3613 10.5861 97.5675 8.92151 96.0013 7.84099C94.4351 6.76047 91.925 6.22021 88.5137 6.22021H78.666V34.9999H85.3169V22.6616H87.6126C89.1359 22.6616 90.23 22.9244 90.8522 23.4501C91.4744 23.9757 91.7963 24.8956 91.7963 26.2098V31.4664C91.7963 32.5323 91.8391 33.277 91.925 33.6858C92.0108 34.0946 92.161 34.5327 92.4184 34.9999H99.1766C98.8548 34.5035 98.6617 34.007 98.5759 33.496C98.4471 32.9995 98.4042 32.3425 98.4042 31.5102ZM91.689 15.5214C91.689 16.6165 91.3671 17.405 90.7021 17.8723C90.037 18.3395 89.0501 18.5732 87.7199 18.5732H85.2955V10.3525H88.3206C89.4791 10.3525 90.3373 10.5861 90.8951 11.0533C91.4315 11.5206 91.7104 12.2799 91.7104 13.3166V15.5214H91.689Z" fill="#1E4646"/>
<path d="M170.467 15.3463C171.11 13.1852 171.539 11.7543 171.818 11.0388C171.861 10.8636 172.033 10.2941 172.376 9.33041L164.095 10.0897L162.421 15.3463H160.576L160.126 16.8648H161.971L159.117 25.9762C159.117 25.9762 158.795 27.1735 158.624 27.5678C158.409 28.0642 157.766 29.174 156.714 30.0209C155.92 30.6633 154.891 31.1452 153.861 31.1452C152.338 31.1452 151.565 30.6049 151.565 29.5098C151.565 29.0718 151.63 28.6775 151.78 28.2979L155.813 15.3463H147.746L147.124 17.3613V17.0985C147.124 16.5144 146.759 16.0471 146.008 15.6821C145.258 15.3317 144.12 15.1418 142.597 15.1418C139.572 15.1418 136.976 15.8573 134.788 17.2883C132.599 18.7192 130.969 20.4714 129.853 22.5448C128.802 24.5307 128.244 26.4435 128.201 28.2541C127.064 29.1156 125.755 29.8164 124.275 30.3421C122.408 30.9992 120.37 31.335 118.182 31.335C115.65 31.335 113.891 30.8239 112.926 29.8164C112.325 29.174 111.917 28.2249 111.746 27.4072C111.681 27.0713 111.66 26.6771 111.66 26.3559C111.745 16.7918 119.061 15.7405 126.249 15.0834C130.282 14.7038 134.809 13.9299 134.938 9.75386C134.444 9.75386 131.891 8.81935 132.106 8.11848C132.342 7.4176 129.832 4.24906 121.7 5.19816L121.572 0C111.488 1.51856 108.549 11.214 109.171 19.2303C109.021 19.1281 108.849 19.0405 108.699 18.9383C107.54 18.1936 106.554 17.3321 105.738 16.3976C105.459 16.0763 105.202 15.7405 104.966 15.4047C104.687 15.9303 104.408 16.456 104.172 17.0108C102.842 20.0772 102.177 22.9537 102.177 25.6258C102.177 28.9841 103.164 31.3788 105.138 32.8244C107.111 34.2699 110.222 35 114.427 35C116.294 35 118.268 34.7518 120.37 34.2553C122.451 33.7589 124.425 32.985 126.249 31.9191C127.064 31.4372 127.794 30.9116 128.416 30.3275C128.716 31.5248 129.36 32.4593 130.325 33.131C131.741 34.1239 133.522 34.6204 135.646 34.6204C137.47 34.6204 139.057 34.2991 140.366 33.642C141.696 32.9996 142.898 32.1527 143.97 31.1014C144.163 32.2403 144.721 33.1164 145.687 33.7151C146.631 34.3137 147.896 34.6058 149.463 34.6058C151.522 34.6058 153.56 34.1239 155.599 33.1456C156.5 32.7076 157.358 32.0943 158.13 31.2912C158.302 32.1381 158.731 32.8536 159.396 33.423C160.319 34.2115 161.713 34.6058 163.623 34.6058C164.824 34.6058 165.918 34.3575 166.927 33.8465C167.935 33.3354 168.815 32.3425 169.566 30.8677C169.265 30.9408 168.772 30.9846 168.107 30.9846C166.798 30.9846 166.154 30.5319 166.154 29.612C166.154 29.2762 166.24 28.8381 166.433 28.2833L170.016 16.8502H173.384L173.835 15.3317H170.467V15.3463ZM124.597 6.93575C128.952 6.68753 129.81 8.45432 129.81 8.45432L128.823 8.2791C123.631 9.30121 124.597 6.93575 124.597 6.93575ZM143.927 27.5824C143.584 28.6191 142.962 29.4368 142.061 30.0355C141.138 30.6341 140.216 30.9262 139.293 30.9262C138.499 30.9262 137.856 30.7509 137.298 30.3859C136.762 30.0355 136.483 29.2178 136.483 27.9474C136.483 26.6771 136.826 25.2169 137.491 23.5524C138.156 21.8878 139.1 20.4714 140.28 19.2887C141.482 18.106 142.812 17.5219 144.314 17.5219C145.107 17.5219 145.665 17.6825 146.051 18.0038C146.416 18.325 146.609 18.6462 146.609 18.9821L143.927 27.5824Z" fill="#1E4646"/>
<path d="M128.995 4.80392L129.896 0C127.386 0.306633 123.631 2.43846 123.202 4.71631C123.202 4.71631 126.892 4.07384 128.995 4.80392Z" fill="#1E4646"/>
</svg>
