<svg width="25" height="24" viewBox="0 0 25 24" fill="none" xmlns="http://www.w3.org/2000/svg">
<path d="M21.7533 12.79C21.596 14.4922 20.9572 16.1144 19.9116 17.4668C18.866 18.8192 17.4568 19.8458 15.849 20.4265C14.2412 21.0073 12.5013 21.1181 10.8328 20.7461C9.16434 20.3741 7.63631 19.5345 6.42754 18.3258C5.21878 17.117 4.37926 15.589 4.00723 13.9205C3.63519 12.252 3.74604 10.5121 4.32678 8.9043C4.90752 7.29651 5.93415 5.88737 7.28653 4.84175C8.63891 3.79614 10.2611 3.15731 11.9633 3C10.9667 4.34827 10.4872 6.00945 10.6119 7.68141C10.7365 9.35338 11.4572 10.9251 12.6427 12.1106C13.8283 13.2961 15.3999 14.0168 17.0719 14.1415C18.7439 14.2662 20.4051 13.7866 21.7533 12.79Z" stroke="#343434" stroke-linecap="round" stroke-linejoin="round"/>
</svg>
