<svg width="500" height="500" viewBox="0 0 500 500" fill="none" xmlns="http://www.w3.org/2000/svg">
<path d="M417 366.55C417.158 358.067 420.428 349.938 426.19 343.71C429 355.17 417 366.55 417 366.55Z" fill="#EBEBEB"/>
<path d="M430.36 360.09C438.201 356.848 446.962 356.605 454.97 359.41C445.57 366.52 430.36 360.09 430.36 360.09Z" fill="#EBEBEB"/>
<path d="M431.88 352.66C430.604 346.09 431.793 339.28 435.22 333.53C439.25 341.93 431.88 352.66 431.88 352.66Z" fill="#EBEBEB"/>
<path d="M380.27 325.87C399.78 331.07 410.27 348.03 410.27 348.03C393.57 348 380.27 325.87 380.27 325.87Z" fill="#EBEBEB"/>
<path d="M411.43 333.87C410.41 312.84 431 289 431 289C427.89 315.11 411.46 333.83 411.46 333.83" fill="#EBEBEB"/>
<path d="M411.33 274C411.731 284.533 409.171 294.968 403.94 304.12C401 290.57 411.33 274 411.33 274Z" fill="#EBEBEB"/>
<path d="M403.4 316.7C388.03 315.05 379.66 299.76 379.66 299.76C398.26 305 403.4 316.7 403.4 316.7Z" fill="#EBEBEB"/>
<path d="M370.24 381C377.453 376.537 386.055 374.882 394.41 376.35C386.29 384.88 370.24 381 370.24 381Z" fill="#EBEBEB"/>
<path d="M410.08 387.89C408.12 392.869 404.461 396.993 399.75 399.53C400.41 392.44 410.08 387.89 410.08 387.89Z" fill="#EBEBEB"/>
<path d="M408.1 385.63C399.36 391.01 389.71 388.91 389.71 388.91C395.63 382.74 408.1 385.63 408.1 385.63Z" fill="#EBEBEB"/>
<path d="M416 413.94C415.988 413.837 415.988 413.733 416 413.63C416 413.38 416 413.08 416 412.71V409.18C416 407.66 416 405.78 416 403.61C416 401.44 416 398.97 415.84 396.23C415.71 390.77 415.32 384.23 414.76 377.06C414.2 369.89 413.26 361.95 412.06 353.7C409.63 337.18 406.31 322.42 403.64 311.82C402.29 306.52 401.16 302.24 400.33 299.29C399.95 297.86 399.64 296.72 399.41 295.89C399.33 295.53 399.25 295.24 399.19 295C399.162 294.899 399.145 294.795 399.14 294.69C399.193 294.781 399.233 294.879 399.26 294.98C399.34 295.21 399.43 295.5 399.55 295.85L400.55 299.22C401.46 302.14 402.67 306.4 404.07 311.7C407.71 325.499 410.591 339.486 412.7 353.6C413.91 361.87 414.76 369.79 415.35 377.01C415.94 384.23 416.22 390.74 416.29 396.22C416.37 398.96 416.34 401.44 416.34 403.61C416.34 405.78 416.34 407.66 416.26 409.19C416.18 410.72 416.16 411.85 416.13 412.71C416.13 413.08 416.13 413.38 416.08 413.63C416.03 413.88 416 413.94 416 413.94Z" fill="#E0E0E0"/>
<path d="M387.74 369.43C387.85 369.27 394.07 373.34 401.62 378.52C409.17 383.7 415.22 388.03 415.11 388.19C415 388.35 408.79 384.27 401.23 379.09C393.67 373.91 387.64 369.58 387.74 369.43Z" fill="#E0E0E0"/>
<path d="M415.11 371.67C415.395 371.277 415.731 370.924 416.11 370.62L418.88 367.96C421.37 365.62 424.57 362.61 428.12 359.29L437.36 350.63L440.16 348C440.483 347.655 440.845 347.35 441.24 347.09C441.24 347.09 440.96 347.51 440.35 348.19C439.74 348.87 438.83 349.81 437.7 350.97C435.42 353.29 432.21 356.41 428.59 359.79C424.97 363.17 421.64 366.18 419.2 368.32C417.99 369.39 416.99 370.24 416.29 370.82C415.935 371.154 415.539 371.44 415.11 371.67Z" fill="#E0E0E0"/>
<path d="M368 359.46C368 359.46 383.88 359.16 390.61 371.67C386.151 371.537 381.784 370.364 377.858 368.244C373.933 366.124 370.557 363.116 368 359.46Z" fill="#EBEBEB"/>
<path d="M389.71 353.08C389.71 353.08 402.64 362.31 400.58 376.36C397.079 373.595 394.273 370.05 392.386 366.008C390.499 361.966 389.582 357.539 389.71 353.08Z" fill="#EBEBEB"/>
<path d="M457.85 330.34C457.85 330.34 452.75 348.13 436.52 351.34C438.193 346.42 440.993 341.959 444.697 338.313C448.4 334.667 452.904 331.936 457.85 330.34Z" fill="#EBEBEB"/>
<path d="M382.65 264.22C382.65 264.22 402.92 277.44 400.65 298.95C395.15 294.965 390.658 289.75 387.532 283.719C384.407 277.689 382.735 271.012 382.65 264.22Z" fill="#EBEBEB"/>
<path d="M450.12 381.84C449.714 382.234 449.272 382.589 448.8 382.9C447.92 383.53 446.68 384.47 445.16 385.68C437.262 391.932 430.482 399.479 425.11 408C424.11 409.63 423.27 411 422.73 411.91C422.488 412.42 422.183 412.898 421.82 413.33C421.991 412.794 422.219 412.278 422.5 411.79C422.96 410.79 423.71 409.42 424.69 407.74C429.876 399.001 436.733 391.369 444.87 385.28C446.43 384.12 447.72 383.23 448.65 382.66C449.109 382.335 449.602 382.06 450.12 381.84Z" fill="#E0E0E0"/>
<path d="M432.48 395.05C431.01 386.693 432.665 378.086 437.13 370.87C439.31 386 432.48 395.05 432.48 395.05Z" fill="#EBEBEB"/>
<path d="M446.12 387.61C451.48 384.555 457.777 383.579 463.81 384.87C454 390.06 446.12 387.61 446.12 387.61Z" fill="#EBEBEB"/>
<path d="M386.41 415.59L394.01 465.57H438.2L448.45 416.32L386.41 415.59Z" fill="#EBEBEB"/>
<path d="M442.28 447.63C442.28 447.77 430.95 447.89 416.99 447.89C403.03 447.89 391.7 447.77 391.7 447.63C391.7 447.49 403.02 447.37 416.99 447.37C430.96 447.37 442.28 447.48 442.28 447.63Z" fill="#FAFAFA"/>
<path d="M442.45 445.17C442.45 445.31 431.05 445.43 416.99 445.43C402.93 445.43 391.53 445.31 391.53 445.17C391.53 445.03 402.93 444.91 416.99 444.91C431.05 444.91 442.45 445 442.45 445.17Z" fill="#FAFAFA"/>
<path d="M442.36 442.39C442.36 442.54 430.96 442.65 416.9 442.65C402.84 442.65 391.44 442.54 391.44 442.39C391.44 442.24 402.84 442.13 416.9 442.13C430.96 442.13 442.36 442.25 442.36 442.39Z" fill="#FAFAFA"/>
<path d="M399.09 462.72C398.011 458.564 397.276 454.327 396.89 450.05C397.511 452.107 397.962 454.21 398.24 456.34C398.693 458.441 398.977 460.574 399.09 462.72Z" fill="#FAFAFA"/>
<path d="M402.09 462.19C401.785 460.156 401.605 458.106 401.55 456.05C401.32 454.005 401.224 451.948 401.26 449.89C401.737 451.9 402.005 453.955 402.06 456.02C402.289 458.07 402.299 460.138 402.09 462.19Z" fill="#FAFAFA"/>
<path d="M407.57 462.19C406.532 458.041 406.035 453.776 406.09 449.5C406.486 451.593 406.769 453.706 406.94 455.83C407.272 457.936 407.483 460.06 407.57 462.19Z" fill="#FAFAFA"/>
<path d="M411.42 462.45C410.995 460.347 410.791 458.205 410.81 456.06C410.654 453.916 410.717 451.761 411 449.63C411.236 451.758 411.343 453.899 411.32 456.04C411.477 458.173 411.51 460.313 411.42 462.45Z" fill="#FAFAFA"/>
<path d="M418.23 462.19C417.893 460.185 417.736 458.154 417.76 456.12C417.609 454.092 417.626 452.055 417.81 450.03C418.145 452.036 418.302 454.067 418.28 456.1C418.431 458.128 418.414 460.165 418.23 462.19Z" fill="#FAFAFA"/>
<path d="M423.2 462.46C422.959 460.372 422.888 458.269 422.99 456.17C422.924 454.075 423.028 451.978 423.3 449.9C423.542 451.984 423.612 454.084 423.51 456.18C423.576 458.278 423.472 460.378 423.2 462.46Z" fill="#FAFAFA"/>
<path d="M427.86 461.79C427.942 457.404 428.367 453.03 429.13 448.71C429.047 453.096 428.622 457.47 427.86 461.79Z" fill="#FAFAFA"/>
<path d="M433.87 461.13C434.066 457.358 434.873 453.643 436.26 450.13C435.987 451.984 435.606 453.82 435.12 455.63C434.811 457.486 434.393 459.322 433.87 461.13Z" fill="#FAFAFA"/>
<path d="M381.34 405.7V415.05C381.34 416.026 381.728 416.962 382.418 417.652C383.108 418.342 384.044 418.73 385.02 418.73H449.02C449.997 418.73 450.934 418.343 451.626 417.653C452.317 416.963 452.707 416.027 452.71 415.05V405.7H381.34Z" fill="#EBEBEB"/>
<path d="M386.88 418.73L387.42 421.71L446.46 425.92L447.95 418.73H386.88Z" fill="#E0E0E0"/>
<path d="M107.27 57.3601H26.2598V174.78H107.27V57.3601Z" fill="#E0E0E0"/>
<path d="M103.21 57.3601H22.1997V174.78H103.21V57.3601Z" fill="#F5F5F5"/>
<path d="M93.1398 70.0701H32.2598V162.05H93.1398V70.0701Z" fill="white"/>
<path d="M93.14 162.06C93.14 162.06 93.14 161.9 93.14 161.61C93.14 161.32 93.14 160.87 93.14 160.3C93.14 159.15 93.14 157.45 93.14 155.3C93.14 150.89 93.14 144.46 93.08 136.35C93.08 120.13 93.02 97.1602 92.98 70.1102L93.18 70.3102H32.31L32.53 70.0902C32.53 104.79 32.53 136.79 32.53 162.09L32.35 161.91L76.67 162L88.91 162.05L92 162C92.73 162 93.11 162 93.11 162H92.07H88.89H76.69L32.26 162.09H32.09V161.92C32.09 136.63 32.09 104.63 32.04 69.9202V69.7002H32.27H93.14H93.35V69.9002C93.35 97.0002 93.27 120.02 93.25 136.27C93.25 144.37 93.25 150.78 93.19 155.17C93.19 157.35 93.19 159.03 93.19 160.17C93.19 160.73 93.19 161.17 93.19 161.45C93.19 161.73 93.14 162.06 93.14 162.06Z" fill="#E0E0E0"/>
<path d="M103.44 57.3601C103.015 58.0931 102.534 58.7919 102 59.4501C101.06 60.7101 99.7201 62.4501 98.2001 64.2701C96.6801 66.0901 95.2001 67.7601 94.2001 68.9301C93.6595 69.5894 93.0604 70.1986 92.4102 70.7501C92.8743 70.0443 93.3925 69.3756 93.9602 68.7501L97.8502 64.0001L101.75 59.2701C102.254 58.5836 102.82 57.9443 103.44 57.3601Z" fill="#E0E0E0"/>
<path d="M93.4497 161.76C96.4842 166.556 100.046 170.997 104.07 175L93.4497 161.76Z" fill="white"/>
<path d="M104.07 175C103.399 174.503 102.779 173.94 102.22 173.32C99.4013 170.44 96.8787 167.284 94.6897 163.9C94.2092 163.214 93.794 162.484 93.4497 161.72C93.9976 162.35 94.499 163.018 94.9497 163.72C95.8397 164.97 97.0897 166.72 98.5597 168.52C100.03 170.32 101.42 171.95 102.45 173.1C103.037 173.691 103.579 174.326 104.07 175Z" fill="#E0E0E0"/>
<path d="M22.1899 174.68L32.7999 161.59L22.1899 174.68Z" fill="white"/>
<path d="M32.7999 161.59C31.2044 163.902 29.4922 166.132 27.6699 168.27C25.9537 170.499 24.1247 172.638 22.1899 174.68C23.7776 172.362 25.4902 170.132 27.3199 168C29.0292 165.766 30.8585 163.626 32.7999 161.59Z" fill="#E0E0E0"/>
<path d="M22.1997 57.3601C24.0294 59.3127 25.7488 61.3659 27.3497 63.5101C29.0665 65.5637 30.669 67.7103 32.1497 69.9401C30.3234 67.9845 28.6042 65.9315 26.9997 63.7901C25.2867 61.7335 23.6845 59.5871 22.1997 57.3601Z" fill="#E0E0E0"/>
<path d="M74.17 88.75H53.79V146.63H74.17V88.75Z" fill="#E0E0E0"/>
<path d="M464.36 62.24H383.35V179.66H464.36V62.24Z" fill="#E0E0E0"/>
<path d="M460.3 62.24H379.29V179.66H460.3V62.24Z" fill="#F5F5F5"/>
<path d="M450.24 74.9602H389.36V166.94H450.24V74.9602Z" fill="white"/>
<path d="M450.24 166.94C450.24 166.94 450.24 166.79 450.24 166.49C450.24 166.19 450.24 165.76 450.24 165.19C450.24 164.03 450.24 162.34 450.24 160.14C450.24 155.74 450.24 149.31 450.18 141.2C450.18 124.98 450.13 102.01 450.09 74.96L450.29 75.16H389.42L389.64 74.94C389.64 109.64 389.64 141.63 389.59 166.94L389.42 166.77L433.73 166.86H445.97H449.19H450.3C450.3 166.86 449.94 166.86 449.22 166.86L446 167L433.8 167.05L389.38 167.14H389.2V166.96C389.2 141.67 389.2 109.68 389.2 74.96V74.74H389.43H450.3H450.5V75C450.5 102.1 450.42 125.12 450.4 141.37C450.4 149.46 450.4 155.87 450.4 160.27C450.4 162.45 450.4 164.13 450.4 165.27C450.4 165.82 450.4 166.27 450.4 166.55C450.4 166.83 450.24 166.94 450.24 166.94Z" fill="#E0E0E0"/>
<path d="M460.53 62.24C460.117 62.9839 459.635 63.687 459.09 64.34C458.14 65.6 456.81 67.34 455.28 69.16C453.75 70.98 452.34 72.65 451.28 73.82C450.741 74.4774 450.145 75.0864 449.5 75.64C449.955 74.9307 450.471 74.2616 451.04 73.64C452.13 72.33 453.47 70.7 454.94 68.91C456.41 67.12 457.76 65.5 458.84 64.18C459.345 63.485 459.911 62.8358 460.53 62.24Z" fill="#E0E0E0"/>
<path d="M450.55 166.65C453.575 171.465 457.138 175.92 461.17 179.93L450.55 166.65Z" fill="white"/>
<path d="M461.17 179.93C460.493 179.433 459.869 178.867 459.31 178.24C457.9 176.807 456.564 175.302 455.31 173.73C454.05 172.155 452.872 170.516 451.78 168.82C451.294 168.143 450.882 167.415 450.55 166.65C451.095 167.279 451.593 167.948 452.04 168.65C452.93 169.9 454.19 171.65 455.65 173.45C457.11 175.25 458.52 176.88 459.54 178.03C460.129 178.623 460.673 179.258 461.17 179.93Z" fill="#E0E0E0"/>
<path d="M379.28 179.57L389.89 166.48L379.28 179.57Z" fill="white"/>
<path d="M389.89 166.48C388.299 168.796 386.587 171.026 384.76 173.16C383.047 175.392 381.218 177.531 379.28 179.57C380.878 177.254 382.594 175.021 384.42 172.88C386.132 170.655 387.958 168.518 389.89 166.48Z" fill="#E0E0E0"/>
<path d="M379.29 62.24C381.122 64.1945 382.841 66.2511 384.44 68.4C386.157 70.456 387.762 72.6024 389.25 74.83C387.419 72.8752 385.699 70.8186 384.1 68.67C382.38 66.6161 380.775 64.4696 379.29 62.24Z" fill="#E0E0E0"/>
<path d="M431.27 93.6401H410.89V151.52H431.27V93.6401Z" fill="#E0E0E0"/>
<path d="M467.1 466.42C467.1 466.57 370.34 466.68 251.01 466.68C131.68 466.68 34.8999 466.57 34.8999 466.42C34.8999 466.27 131.64 466.16 251.01 466.16C370.38 466.16 467.1 466.28 467.1 466.42Z" fill="#263238"/>
<path d="M359.15 25.1001H140.84V466.42H359.15V25.1001Z" fill="#F5F5F5"/>
<path d="M359.16 466.42C359.16 464.15 359.05 282.6 358.91 25.1001L359.16 25.3401H140.88L141.14 25.0801C141.14 195.54 141.14 350.87 141.08 466.4L140.88 466.21L359.2 466.4L140.88 466.6H140.69V466.4C140.69 350.87 140.69 195.54 140.62 25.0801V24.8201H359.4V25.0701C359.26 282.6 359.16 464.16 359.16 466.42Z" fill="#263238"/>
<path d="M343.68 40.53H156.33V451.05H343.68V40.53Z" fill="#455A64"/>
<g opacity="0.1">
<path d="M319.57 125.4C315.17 114.92 304.93 106.58 293.57 106.35C285.77 106.19 276.52 109.2 271.09 103.59C266.09 98.42 268.59 89.59 273.09 83.98C275.91 80.49 279.38 77.53 281.82 73.77C284.26 70.01 285.51 65.01 283.41 61.05C281 56.43 275.15 55 270 54.25C256.71 52.35 240.89 52.14 228 57.02C203.36 64.25 184.49 91.71 181.92 117.27C180.92 127.11 180.86 134.01 188.22 140.63C196.33 147.93 208.48 147.81 219.39 147.26L245 146C248.73 145.81 252.67 145.67 256 147.43C262.76 151.04 263.35 161.02 259.68 167.76C256.01 174.5 249.46 179 244 184.38C238.54 189.76 233.64 196.98 235 204.53C236.07 210.53 241.13 215.43 246.95 217.39C252.77 219.35 259.2 218.76 265.07 216.95C280.26 212.29 291.95 200.23 301.84 187.8C308.91 178.91 315.53 169.43 319.36 158.73C323.19 148.03 324 135.89 319.57 125.4Z" fill="white"/>
</g>
<path d="M208.3 100.6C204.859 100.603 201.484 99.6576 198.545 97.8676C195.607 96.0777 193.218 93.5124 191.642 90.4536C190.066 87.3948 189.364 83.9609 189.612 80.529C189.861 77.0971 191.05 73.8001 193.05 71C190.835 72.5791 188.991 74.6219 187.646 76.9862C186.301 79.3506 185.487 81.9796 185.262 84.6904C185.036 87.4012 185.404 90.1286 186.34 92.6827C187.276 95.2368 188.757 97.5563 190.68 99.4798C192.604 101.403 194.923 102.884 197.477 103.82C200.031 104.756 202.759 105.124 205.47 104.898C208.18 104.673 210.809 103.859 213.174 102.514C215.538 101.169 217.581 99.3249 219.16 97.11C215.995 99.3821 212.196 100.603 208.3 100.6Z" fill="white"/>
<path d="M215 106.07C214.738 106.314 214.446 106.522 214.13 106.69C213.306 107.2 212.44 107.639 211.54 108C208.544 109.202 205.303 109.665 202.09 109.35C198.872 109.022 195.783 107.913 193.09 106.12C192.277 105.587 191.511 104.985 190.8 104.32C190.526 104.097 190.286 103.834 190.09 103.54C190.15 103.46 191.22 104.54 193.29 105.81C195.967 107.478 198.99 108.511 202.127 108.83C205.264 109.149 208.433 108.745 211.39 107.65C213.65 106.82 214.92 106 215 106.07Z" fill="white"/>
<path d="M208.23 111.33C205.379 112.065 202.361 111.789 199.69 110.55C199.74 110.4 201.59 110.95 203.94 111.16C206.29 111.37 208.21 111.17 208.23 111.33Z" fill="white"/>
<path d="M262.62 450.73L196.96 451.01V243.19H262.62V450.73Z" fill="#263238"/>
<path d="M262.62 451L229.79 451.13V243.19H262.62V451Z" fill="#263238"/>
<path d="M227.65 222.76H204.46V243.19H227.65V222.76Z" fill="#263238"/>
<path d="M227.65 222.76H222.12V243.19H227.65V222.76Z" fill="#263238"/>
<path d="M191.48 243.19V242H264.55V243.19" fill="#263238"/>
<path d="M215.48 252.1H209.92V263.82H215.48V252.1Z" fill="#455A64"/>
<path d="M229.79 268.42C229.79 268.55 222.44 268.65 213.37 268.65C204.3 268.65 196.96 268.55 196.96 268.42C196.96 268.29 204.31 268.2 213.37 268.2C222.43 268.2 229.79 268.3 229.79 268.42Z" fill="#455A64"/>
<path d="M248.6 252.1H243.04V263.82H248.6V252.1Z" fill="#455A64"/>
<path d="M262.91 268.42C262.91 268.55 255.56 268.65 246.49 268.65C237.42 268.65 230.08 268.55 230.08 268.42C230.08 268.29 237.42 268.2 246.49 268.2C255.56 268.2 262.91 268.3 262.91 268.42Z" fill="#455A64"/>
<path d="M248.6 275.37H243.04V287.09H248.6V275.37Z" fill="#455A64"/>
<path d="M262.91 291.69C262.91 291.82 255.56 291.92 246.49 291.92C237.42 291.92 230.08 291.82 230.08 291.69C230.08 291.56 237.42 291.47 246.49 291.47C255.56 291.47 262.91 291.57 262.91 291.69Z" fill="#455A64"/>
<path d="M248.6 299.34H243.04V311.06H248.6V299.34Z" fill="#F5F5F5"/>
<path d="M262.91 315.66C262.91 315.79 255.56 315.89 246.49 315.89C237.42 315.89 230.08 315.79 230.08 315.66C230.08 315.53 237.42 315.44 246.49 315.44C255.56 315.44 262.91 315.54 262.91 315.66Z" fill="#455A64"/>
<path d="M248.6 323.32H243.04V335.04H248.6V323.32Z" fill="#455A64"/>
<path d="M262.91 339.64C262.91 339.76 255.56 339.86 246.49 339.86C237.42 339.86 230.08 339.76 230.08 339.64C230.08 339.52 237.42 339.41 246.49 339.41C255.56 339.41 262.91 339.51 262.91 339.64Z" fill="#455A64"/>
<path d="M248.6 346.6H243.04V358.32H248.6V346.6Z" fill="#455A64"/>
<path d="M262.91 362.92C262.91 363.05 255.56 363.15 246.49 363.15C237.42 363.15 230.08 363.05 230.08 362.92C230.08 362.79 237.42 362.7 246.49 362.7C255.56 362.7 262.91 362.8 262.91 362.92Z" fill="#455A64"/>
<path d="M248.6 369.98H243.04V381.7H248.6V369.98Z" fill="#455A64"/>
<path d="M248.6 393.67H243.04V405.39H248.6V393.67Z" fill="#455A64"/>
<path d="M262.91 386.3C262.91 386.43 255.56 386.53 246.49 386.53C237.42 386.53 230.08 386.43 230.08 386.3C230.08 386.17 237.42 386.08 246.49 386.08C255.56 386.08 262.91 386.18 262.91 386.3Z" fill="#455A64"/>
<path d="M248.6 415.86H243.04V427.58H248.6V415.86Z" fill="#455A64"/>
<path d="M248.61 451.07H243.05L243.04 439.54H248.6L248.61 451.07Z" fill="#455A64"/>
<path d="M262.91 432.18C262.91 432.3 255.56 432.4 246.49 432.4C237.42 432.4 230.08 432.3 230.08 432.18C230.08 432.06 237.42 431.95 246.49 431.95C255.56 431.95 262.91 432.05 262.91 432.18Z" fill="#455A64"/>
<path d="M262.91 411.59C262.91 411.71 255.56 411.81 246.49 411.81C237.42 411.81 230.08 411.71 230.08 411.59C230.08 411.47 237.42 411.37 246.49 411.37C255.56 411.37 262.91 411.47 262.91 411.59Z" fill="#455A64"/>
<path d="M215.48 275.73H209.92V287.45H215.48V275.73Z" fill="#F5F5F5"/>
<path d="M229.79 292.05C229.79 292.17 222.44 292.27 213.37 292.27C204.3 292.27 196.96 292.17 196.96 292.05C196.96 291.93 204.31 291.82 213.37 291.82C222.43 291.82 229.79 291.92 229.79 292.05Z" fill="#455A64"/>
<path d="M215.48 299.35H209.92V311.07H215.48V299.35Z" fill="#455A64"/>
<path d="M229.79 315.67C229.79 315.8 222.44 315.9 213.37 315.9C204.3 315.9 196.96 315.8 196.96 315.67C196.96 315.54 204.31 315.45 213.37 315.45C222.43 315.45 229.79 315.55 229.79 315.67Z" fill="#455A64"/>
<path d="M215.48 322.98H209.92V334.7H215.48V322.98Z" fill="#455A64"/>
<path d="M229.79 339.3C229.79 339.42 222.44 339.52 213.37 339.52C204.3 339.52 196.96 339.42 196.96 339.3C196.96 339.18 204.31 339.07 213.37 339.07C222.43 339.07 229.79 339.17 229.79 339.3Z" fill="#455A64"/>
<path d="M215.48 346.6H209.92V358.32H215.48V346.6Z" fill="#455A64"/>
<path d="M229.79 362.92C229.79 363.05 222.44 363.15 213.37 363.15C204.3 363.15 196.96 363.05 196.96 362.92C196.96 362.79 204.31 362.7 213.37 362.7C222.43 362.7 229.79 362.8 229.79 362.92Z" fill="#455A64"/>
<path d="M215.48 370.23H209.92V381.95H215.48V370.23Z" fill="#455A64"/>
<path d="M229.79 386.55C229.79 386.67 222.44 386.77 213.37 386.77C204.3 386.77 196.96 386.67 196.96 386.55C196.96 386.43 204.31 386.32 213.37 386.32C222.43 386.32 229.79 386.42 229.79 386.55Z" fill="#455A64"/>
<path d="M215.48 393.85H209.92V405.57H215.48V393.85Z" fill="#455A64"/>
<path d="M228.33 451.01H156.62L156.31 337.68H228.01L228.33 451.01Z" fill="#263238"/>
<path d="M228.01 337.68H192.16V451.01H228.01V337.68Z" fill="#263238"/>
<path d="M189.81 315.37H164.49V337.68H189.81V315.37Z" fill="#263238"/>
<path d="M230.11 336.38H156.59V337.68H230.11V336.38Z" fill="#263238"/>
<path d="M176.53 347.41H170.46V360.21H176.53V347.41Z" fill="#455A64"/>
<path d="M192.16 365.24C192.16 365.37 184.16 365.48 174.23 365.48C164.3 365.48 156.31 365.37 156.31 365.24C156.31 365.11 164.31 364.99 174.23 364.99C184.15 364.99 192.16 365.1 192.16 365.24Z" fill="#455A64"/>
<path d="M212.7 347.41H206.63V360.21H212.7V347.41Z" fill="#455A64"/>
<path d="M228.33 365.24C228.33 365.37 220.33 365.48 210.4 365.48C200.47 365.48 192.47 365.37 192.47 365.24C192.47 365.11 200.47 364.99 210.4 364.99C220.33 364.99 228.33 365.1 228.33 365.24Z" fill="#455A64"/>
<path d="M212.7 372.82H206.63V385.62H212.7V372.82Z" fill="#455A64"/>
<path d="M228.33 390.65C228.33 390.78 220.33 390.89 210.4 390.89C200.47 390.89 192.47 390.78 192.47 390.65C192.47 390.52 200.47 390.4 210.4 390.4C220.33 390.4 228.33 390.51 228.33 390.65Z" fill="#455A64"/>
<path d="M212.7 399H206.63V411.8H212.7V399Z" fill="#455A64"/>
<path d="M228.33 416.82C228.33 416.96 220.33 417.07 210.4 417.07C200.47 417.07 192.47 416.96 192.47 416.82C192.47 416.68 200.47 416.58 210.4 416.58C220.33 416.58 228.33 416.69 228.33 416.82Z" fill="#455A64"/>
<path d="M212.7 425.18H206.63V437.98H212.7V425.18Z" fill="#F5F5F5"/>
<path d="M228.33 443C228.33 443.13 220.33 443.24 210.4 443.24C200.47 443.24 192.47 443.13 192.47 443C192.47 442.87 200.47 442.76 210.4 442.76C220.33 442.76 228.33 442.86 228.33 443Z" fill="#455A64"/>
<path d="M176.53 373.21H170.46V386.01H176.53V373.21Z" fill="#F5F5F5"/>
<path d="M192.16 391C192.16 391.14 184.16 391.25 174.23 391.25C164.3 391.25 156.31 391.14 156.31 391C156.31 390.86 164.31 390.76 174.23 390.76C184.15 390.76 192.16 390.9 192.16 391Z" fill="#455A64"/>
<path d="M176.53 399.01H170.46V411.81H176.53V399.01Z" fill="#455A64"/>
<path d="M192.16 416.83C192.16 416.97 184.16 417.08 174.23 417.08C164.3 417.08 156.31 416.97 156.31 416.83C156.31 416.69 164.31 416.59 174.23 416.59C184.15 416.59 192.16 416.7 192.16 416.83Z" fill="#455A64"/>
<path d="M176.53 424.81H170.46V437.61H176.53V424.81Z" fill="#455A64"/>
<path d="M192.16 442.63C192.16 442.76 184.16 442.87 174.23 442.87C164.3 442.87 156.31 442.76 156.31 442.63C156.31 442.5 164.31 442.39 174.23 442.39C184.15 442.39 192.16 442.5 192.16 442.63Z" fill="#455A64"/>
<path d="M182.83 336.44C182.567 333.067 182.48 329.682 182.57 326.3C182.48 322.918 182.567 319.533 182.83 316.16C183.088 319.534 183.175 322.918 183.09 326.3C183.175 329.682 183.088 333.067 182.83 336.44Z" fill="#455A64"/>
<path d="M222.34 240.94C222.083 238.071 221.996 235.189 222.08 232.31C221.996 229.431 222.082 226.549 222.34 223.68C222.598 226.549 222.684 229.431 222.6 232.31C222.684 235.189 222.597 238.071 222.34 240.94Z" fill="#455A64"/>
<path d="M232 241.65C232 241.79 225.86 241.91 218.29 241.91C210.72 241.91 204.58 241.79 204.58 241.65C204.58 241.51 210.72 241.39 218.29 241.39C225.86 241.39 232 241.5 232 241.65Z" fill="#455A64"/>
<path d="M262.62 243.77C262.62 243.92 247.94 244.03 229.83 244.03C211.72 244.03 197.04 243.92 197.04 243.77C197.04 243.62 211.72 243.51 229.83 243.51C247.94 243.51 262.62 243.63 262.62 243.77Z" fill="#455A64"/>
<path d="M229.81 449.75C229.66 449.75 229.55 403.75 229.55 346.93C229.55 290.11 229.66 244.1 229.81 244.1C229.96 244.1 230.07 290.1 230.07 346.93C230.07 403.76 230 449.75 229.81 449.75Z" fill="#455A64"/>
<path d="M156.59 336.38C156.713 336.365 156.837 336.365 156.96 336.38H158.04L162.19 336.33L177.47 336.25L228.01 336.17H228.27V336.43C228.27 336.79 228.27 337.18 228.27 337.57C228.27 337.8 228.27 338.04 228.27 338.25V338.51H228L177.14 338.43L161.75 338.35L157.57 338.3H161.75L177.14 338.22L228 338.14L227.74 338.4V336.58L228 336.84L177.46 336.76L162.18 336.68L158.03 336.63H156.95L156.59 336.38Z" fill="#455A64"/>
<path d="M192.16 451C192.02 451 191.96 425.87 192.03 394.87C192.1 363.87 192.28 338.74 192.43 338.74C192.58 338.74 192.63 363.87 192.55 394.88C192.47 425.89 192.3 451 192.16 451Z" fill="#455A64"/>
<path d="M228.33 451C228.18 451 228.06 425.6 228.05 394.28C228.04 362.96 228.15 337.55 228.29 337.55C228.43 337.55 228.56 362.95 228.57 394.28C228.58 425.61 228.47 451 228.33 451Z" fill="#455A64"/>
<path d="M337.77 450.78L256.58 451.01V343.69H337.77V450.78Z" fill="#263238"/>
<path d="M299.71 343.69V450.78L337.77 451.01V343.69H299.71Z" fill="#263238"/>
<path d="M280.91 358.19H273.61V375.93H280.91V358.19Z" fill="#455A64"/>
<path d="M280.91 427.6H273.61V445.34H280.91V427.6Z" fill="#455A64"/>
<path d="M299.71 382.89C299.71 383.08 290.05 383.25 278.15 383.25C266.25 383.25 256.59 383.08 256.59 382.89C256.59 382.7 266.24 382.52 278.15 382.52C290.06 382.52 299.71 382.69 299.71 382.89Z" fill="#455A64"/>
<path d="M280.91 393.16H273.61V410.9H280.91V393.16Z" fill="#F5F5F5"/>
<path d="M299.71 417.86C299.71 418.05 290.05 418.22 278.15 418.22C266.25 418.22 256.59 418.05 256.59 417.86C256.59 417.67 266.24 417.49 278.15 417.49C290.06 417.49 299.71 417.66 299.71 417.86Z" fill="#455A64"/>
<path d="M315.09 358.19H307.79V375.93H315.09V358.19Z" fill="#F5F5F5"/>
<path d="M330.93 358.19H323.63V375.93H330.93V358.19Z" fill="#455A64"/>
<path d="M315.09 391.84H307.79V409.58H315.09V391.84Z" fill="#455A64"/>
<path d="M330.93 391.84H323.63V409.58H330.93V391.84Z" fill="#455A64"/>
<path d="M315.09 425.5H307.79V443.24H315.09V425.5Z" fill="#455A64"/>
<path d="M330.93 425.5H323.63V443.24H330.93V425.5Z" fill="#455A64"/>
<path d="M343.88 340.69H250.48V344.55H343.88V340.69Z" fill="#263238"/>
<path d="M343.88 344.55C343.872 344.47 343.872 344.39 343.88 344.31C343.88 344.13 343.88 343.9 343.88 343.59C343.88 342.94 343.88 341.99 343.88 340.69L343.95 340.76C333.02 340.87 295.32 340.95 250.56 340.95L250.82 340.69V344.53L250.56 344.27L316.65 344.38L336.65 344.46H342.08H343.5H344H343.54H342.15H336.78L316.89 344.54L250.6 344.65H250.34V340.55L250.6 340.29C295.36 340.29 333.06 340.37 343.99 340.48H344V340.55C344 341.87 344 342.83 344 343.49C344 343.79 344 344.02 344 344.19C343.973 344.314 343.933 344.435 343.88 344.55Z" fill="#455A64"/>
<path d="M299.71 451C299.56 451 299.45 427.27 299.45 398C299.45 368.73 299.56 345 299.71 345C299.86 345 299.97 368.72 299.97 398C299.97 427.28 299.85 451 299.71 451Z" fill="#455A64"/>
<path d="M256.59 449.83C256.44 449.83 256.32 426.53 256.32 397.83C256.32 369.13 256.44 345.83 256.59 345.83C256.74 345.83 256.85 369.12 256.85 397.83C256.85 426.54 256.73 449.83 256.59 449.83Z" fill="#455A64"/>
<path d="M232.09 138.66H231.93C231.857 138.693 231.792 138.742 231.741 138.804C231.689 138.866 231.652 138.938 231.633 139.016C231.614 139.095 231.613 139.176 231.629 139.255C231.646 139.333 231.681 139.407 231.73 139.47C231.787 139.531 231.858 139.577 231.937 139.604C232.016 139.63 232.1 139.637 232.182 139.623C232.264 139.609 232.341 139.574 232.407 139.522C232.472 139.471 232.524 139.404 232.556 139.327C232.589 139.251 232.602 139.167 232.595 139.084C232.587 139.001 232.559 138.921 232.512 138.852C232.466 138.783 232.403 138.726 232.33 138.688C232.256 138.649 232.174 138.629 232.09 138.63V138.66Z" fill="white"/>
<path d="M271.42 80.53H271.25C271.172 80.5585 271.103 80.6057 271.048 80.6675C270.993 80.7294 270.954 80.8038 270.935 80.8843C270.916 80.9648 270.917 81.0487 270.939 81.1286C270.96 81.2085 271.001 81.2818 271.058 81.342C271.114 81.4023 271.185 81.4475 271.263 81.4737C271.342 81.5 271.425 81.5063 271.507 81.4922C271.588 81.4782 271.665 81.4441 271.73 81.3931C271.795 81.3421 271.847 81.2758 271.88 81.2C271.901 81.1254 271.905 81.0471 271.892 80.9707C271.88 80.8942 271.85 80.8215 271.806 80.7576C271.762 80.6938 271.705 80.6403 271.638 80.6009C271.572 80.5616 271.497 80.5374 271.42 80.53Z" fill="white"/>
<path d="M325.64 118.58H325.47C325.392 118.609 325.323 118.656 325.268 118.718C325.213 118.779 325.175 118.854 325.156 118.934C325.136 119.015 325.138 119.099 325.159 119.179C325.18 119.259 325.221 119.332 325.278 119.392C325.334 119.452 325.405 119.498 325.484 119.524C325.562 119.55 325.646 119.556 325.727 119.542C325.809 119.528 325.885 119.494 325.95 119.443C326.016 119.392 326.067 119.326 326.1 119.25C326.121 119.175 326.125 119.097 326.112 119.021C326.1 118.944 326.07 118.872 326.027 118.808C325.983 118.744 325.925 118.69 325.859 118.651C325.792 118.612 325.717 118.587 325.64 118.58Z" fill="white"/>
<path d="M302.9 177.7H302.73C302.607 177.721 302.496 177.788 302.419 177.887C302.343 177.987 302.306 178.111 302.317 178.236C302.327 178.36 302.385 178.477 302.477 178.561C302.569 178.646 302.69 178.693 302.815 178.693C302.94 178.693 303.061 178.646 303.153 178.561C303.245 178.477 303.302 178.36 303.313 178.236C303.324 178.111 303.287 177.987 303.211 177.887C303.134 177.788 303.023 177.721 302.9 177.7Z" fill="white"/>
<path d="M325.81 247.18H325.64C325.562 247.209 325.493 247.256 325.438 247.318C325.383 247.38 325.345 247.454 325.325 247.534C325.306 247.615 325.308 247.699 325.329 247.779C325.35 247.859 325.391 247.932 325.448 247.992C325.504 248.052 325.575 248.098 325.654 248.124C325.732 248.15 325.816 248.156 325.897 248.142C325.979 248.128 326.055 248.094 326.12 248.043C326.185 247.992 326.237 247.926 326.27 247.85C326.291 247.776 326.295 247.697 326.282 247.621C326.27 247.544 326.24 247.472 326.196 247.408C326.153 247.344 326.095 247.29 326.029 247.251C325.962 247.212 325.887 247.188 325.81 247.18Z" fill="white"/>
<path d="M174.59 118.23H174.43C174.357 118.263 174.292 118.312 174.241 118.374C174.189 118.436 174.152 118.508 174.133 118.586C174.114 118.664 174.113 118.746 174.129 118.824C174.146 118.903 174.181 118.977 174.23 119.04C174.289 119.095 174.36 119.137 174.437 119.16C174.514 119.183 174.596 119.189 174.675 119.175C174.755 119.161 174.83 119.129 174.895 119.082C174.96 119.034 175.013 118.972 175.05 118.9C175.071 118.825 175.075 118.747 175.063 118.671C175.05 118.594 175.021 118.521 174.977 118.458C174.933 118.394 174.876 118.34 174.809 118.301C174.742 118.262 174.667 118.237 174.59 118.23Z" fill="white"/>
<path d="M323.8 64.48H323.63C323.509 64.5012 323.401 64.567 323.326 64.6642C323.252 64.7614 323.216 64.8831 323.227 65.0052C323.238 65.1273 323.294 65.241 323.384 65.3238C323.474 65.4066 323.593 65.4525 323.715 65.4525C323.838 65.4525 323.956 65.4066 324.046 65.3238C324.137 65.241 324.193 65.1273 324.203 65.0052C324.214 64.8831 324.178 64.7614 324.104 64.6642C324.029 64.567 323.921 64.5012 323.8 64.48Z" fill="white"/>
<path d="M294.84 260.74H294.68C294.559 260.76 294.449 260.825 294.374 260.922C294.298 261.019 294.262 261.141 294.272 261.264C294.282 261.386 294.338 261.5 294.428 261.584C294.519 261.667 294.637 261.713 294.76 261.713C294.883 261.713 295.002 261.667 295.092 261.584C295.182 261.5 295.238 261.386 295.248 261.264C295.258 261.141 295.222 261.019 295.146 260.922C295.071 260.825 294.961 260.76 294.84 260.74Z" fill="white"/>
<path d="M325.52 318.67H325.35C325.227 318.691 325.116 318.758 325.039 318.857C324.963 318.957 324.926 319.081 324.937 319.206C324.948 319.33 325.005 319.447 325.097 319.531C325.189 319.616 325.31 319.663 325.435 319.663C325.56 319.663 325.681 319.616 325.773 319.531C325.865 319.447 325.923 319.33 325.933 319.206C325.944 319.081 325.907 318.957 325.831 318.857C325.754 318.758 325.643 318.691 325.52 318.67Z" fill="white"/>
<path d="M183.19 296.28H183.02C182.942 296.308 182.873 296.356 182.818 296.418C182.763 296.479 182.724 296.554 182.705 296.634C182.686 296.715 182.688 296.799 182.709 296.879C182.73 296.958 182.771 297.032 182.828 297.092C182.884 297.152 182.955 297.198 183.033 297.224C183.112 297.25 183.196 297.256 183.277 297.242C183.358 297.228 183.435 297.194 183.5 297.143C183.565 297.092 183.617 297.026 183.65 296.95C183.671 296.875 183.675 296.797 183.662 296.721C183.65 296.644 183.62 296.572 183.576 296.508C183.533 296.444 183.475 296.39 183.408 296.351C183.342 296.312 183.267 296.287 183.19 296.28Z" fill="white"/>
<path d="M221.66 181.74H221.49C221.416 181.771 221.351 181.819 221.299 181.881C221.248 181.942 221.211 182.014 221.193 182.092C221.174 182.17 221.174 182.251 221.193 182.329C221.211 182.407 221.248 182.479 221.3 182.54C221.356 182.603 221.426 182.652 221.506 182.68C221.585 182.709 221.67 182.717 221.753 182.704C221.836 182.691 221.915 182.657 221.982 182.605C222.048 182.554 222.101 182.486 222.134 182.409C222.168 182.332 222.181 182.247 222.173 182.163C222.165 182.079 222.137 181.999 222.089 181.929C222.042 181.86 221.978 181.803 221.903 181.765C221.828 181.726 221.744 181.708 221.66 181.71V181.74Z" fill="white"/>
<path d="M315.45 154.85H315.28C315.203 154.879 315.133 154.926 315.078 154.988C315.023 155.049 314.985 155.124 314.966 155.204C314.947 155.285 314.948 155.369 314.969 155.449C314.99 155.529 315.031 155.602 315.088 155.662C315.145 155.722 315.215 155.768 315.294 155.794C315.372 155.82 315.456 155.826 315.537 155.812C315.619 155.798 315.695 155.764 315.761 155.713C315.826 155.662 315.877 155.596 315.91 155.52C315.931 155.445 315.935 155.367 315.922 155.291C315.91 155.214 315.88 155.142 315.837 155.078C315.793 155.014 315.735 154.96 315.669 154.921C315.602 154.882 315.527 154.857 315.45 154.85Z" fill="white"/>
<path d="M178.78 201.47H178.62C178.547 201.503 178.482 201.552 178.431 201.614C178.379 201.676 178.342 201.748 178.323 201.826C178.304 201.904 178.303 201.986 178.319 202.064C178.336 202.143 178.371 202.217 178.42 202.28C178.477 202.341 178.548 202.387 178.627 202.414C178.706 202.44 178.79 202.447 178.872 202.433C178.954 202.418 179.031 202.384 179.097 202.332C179.162 202.281 179.214 202.213 179.246 202.137C179.279 202.06 179.292 201.977 179.285 201.894C179.277 201.811 179.249 201.731 179.202 201.662C179.156 201.593 179.093 201.536 179.019 201.497C178.946 201.459 178.864 201.439 178.78 201.44V201.47Z" fill="white"/>
<path d="M249.54 222.07H249.37C249.298 222.104 249.234 222.154 249.183 222.216C249.133 222.278 249.097 222.351 249.079 222.429C249.061 222.507 249.06 222.588 249.078 222.666C249.095 222.744 249.13 222.817 249.18 222.88C249.24 222.933 249.312 222.972 249.389 222.994C249.466 223.015 249.548 223.019 249.627 223.004C249.706 222.99 249.78 222.958 249.845 222.91C249.91 222.863 249.963 222.801 250 222.73C250.021 222.656 250.025 222.578 250.013 222.502C250 222.426 249.97 222.354 249.926 222.291C249.882 222.228 249.825 222.175 249.758 222.137C249.691 222.099 249.617 222.076 249.54 222.07Z" fill="white"/>
<path d="M173.47 252.35L173.91 253.09C174.416 253.908 175.14 254.569 176 255L176.77 255.38L176.03 255.83C175.199 256.334 174.526 257.062 174.09 257.93L173.71 258.71L173.26 257.97C172.764 257.133 172.034 256.459 171.16 256.03L170.38 255.65L171.13 255.2C171.961 254.699 172.63 253.97 173.06 253.1L173.47 252.35Z" fill="white"/>
<path d="M189.68 148.46L190.13 149.21C190.631 150.045 191.364 150.716 192.24 151.14L193.01 151.53L192.27 151.97C191.438 152.477 190.766 153.208 190.33 154.08L189.95 154.85L189.5 154.11C188.999 153.279 188.27 152.61 187.4 152.18L186.62 151.79L187.36 151.34C188.197 150.844 188.872 150.114 189.3 149.24L189.68 148.46Z" fill="white"/>
<path d="M233 67.8101L233.45 68.5601C233.951 69.3907 234.68 70.0605 235.55 70.4901L236.33 70.8801L235.59 71.3201C234.756 71.8243 234.083 72.5564 233.65 73.4301L233.26 74.2001L232.82 73.4601C232.315 72.626 231.583 71.9531 230.71 71.5201L229.94 71.1401L230.68 70.6901C231.514 70.1893 232.187 69.4607 232.62 68.5901L233 67.8101Z" fill="white"/>
<path d="M292.79 207.79L293.23 208.53C293.735 209.364 294.467 210.037 295.34 210.47L296.11 210.85L295.37 211.3C294.537 211.801 293.863 212.529 293.43 213.4L293.05 214.18L292.6 213.43C292.099 212.599 291.37 211.93 290.5 211.5L289.72 211.11L290.46 210.67C291.295 210.166 291.968 209.434 292.4 208.56L292.79 207.79Z" fill="white"/>
<g opacity="0.3">
<path d="M257.65 193.32L257.84 193.64C258.06 194.011 258.383 194.31 258.77 194.5L259.11 194.67L258.78 194.86C258.414 195.083 258.119 195.405 257.93 195.79L257.76 196.13L257.56 195.8C257.339 195.436 257.02 195.142 256.64 194.95L256.3 194.78L256.62 194.59C256.987 194.365 257.285 194.044 257.48 193.66L257.65 193.32Z" fill="white"/>
</g>
<path d="M321.46 190.08L321.66 190.41C321.879 190.776 322.198 191.071 322.58 191.26L322.92 191.43L322.6 191.63C322.232 191.848 321.933 192.167 321.74 192.55L321.58 192.9L321.38 192.57C321.161 192.201 320.837 191.906 320.45 191.72L320.11 191.55L320.44 191.35C320.806 191.131 321.101 190.812 321.29 190.43L321.46 190.08Z" fill="white"/>
<path d="M260.46 158.75L260.65 159.08C260.878 159.442 261.2 159.735 261.58 159.93L261.92 160.1L261.6 160.29C261.231 160.512 260.933 160.835 260.74 161.22L260.57 161.56L260.38 161.23C260.158 160.864 259.835 160.569 259.45 160.38L259.11 160.21L259.44 160.02C259.804 159.795 260.099 159.473 260.29 159.09L260.46 158.75Z" fill="white"/>
<path d="M294.93 92.51L295.13 92.84C295.349 93.2058 295.668 93.5009 296.05 93.69L296.39 93.86L296.07 94.06C295.701 94.2781 295.403 94.5974 295.21 94.98L295.05 95.32L294.85 95C294.633 94.629 294.309 94.3326 293.92 94.15L293.58 93.98L293.91 93.78C294.279 93.5604 294.574 93.2369 294.76 92.85L294.93 92.51Z" fill="white"/>
<path d="M281.74 304L281.94 304.33C282.159 304.696 282.478 304.991 282.86 305.18L283.21 305.35L282.88 305.55C282.511 305.77 282.216 306.093 282.03 306.48L281.86 306.82L281.66 306.49C281.441 306.124 281.122 305.829 280.74 305.64L280.39 305.47L280.72 305.27C281.086 305.051 281.381 304.732 281.57 304.35L281.74 304Z" fill="white"/>
<path d="M193.07 208.51L193.26 208.84C193.488 209.202 193.809 209.495 194.19 209.69L194.53 209.86L194.21 210.06C193.841 210.278 193.543 210.597 193.35 210.98L193.18 211.32L193 211C192.781 210.629 192.457 210.33 192.07 210.14L191.73 209.97L192.06 209.78C192.426 209.557 192.721 209.235 192.91 208.85L193.07 208.51Z" fill="white"/>
<g opacity="0.3">
<path d="M283.1 124.29L283.47 124.9C283.878 125.585 284.475 126.138 285.19 126.49L285.83 126.81L285.22 127.18C284.537 127.59 283.985 128.187 283.63 128.9L283.31 129.54L282.95 128.93C282.539 128.244 281.938 127.692 281.22 127.34L280.58 127.02L281.19 126.66C281.878 126.251 282.431 125.65 282.78 124.93L283.1 124.29Z" fill="white"/>
</g>
<g opacity="0.3">
<path d="M313.32 284.4L313.68 285.01C314.097 285.692 314.696 286.242 315.41 286.6L316.05 286.92L315.44 287.28C314.755 287.692 314.203 288.292 313.85 289.01L313.53 289.65L313.17 289.04C312.762 288.352 312.16 287.8 311.44 287.45L310.8 287.13L311.41 286.77C312.1 286.346 312.652 285.731 313 285L313.32 284.4Z" fill="white"/>
</g>
<g opacity="0.1">
<path d="M304.14 250.61C297.05 252.68 291.6 255.16 286.41 260.4C281.22 265.64 278.23 273.58 280.41 280.62C282.73 287.9 290.41 292.75 298 293C308.62 293.34 318.84 285 320.59 274.48C322.34 263.96 318.16 249.4 304.14 250.61Z" fill="white"/>
</g>
<path d="M359.16 25.1001C359.26 25.2001 355.87 28.7401 351.6 33.0001C347.33 37.2601 343.77 40.6301 343.67 40.5301C343.57 40.4301 346.95 36.8901 351.23 32.6301C355.51 28.3701 359.05 25.0001 359.16 25.1001Z" fill="#263238"/>
<path d="M343.67 451C343.67 448.7 343.57 279.4 343.43 40.49L343.67 40.73H156.36L156.62 40.47C156.62 199.87 156.56 344.68 156.55 450.98L156.36 450.79L343.7 450.98L156.36 451.17H156.17V451C156.17 344.7 156.17 199.89 156.1 40.49V40.22H156.39H343.7H343.95V40.47C343.78 279.44 343.67 448.74 343.67 451Z" fill="#263238"/>
<path d="M156.33 40.5301C156.16 40.7301 152.59 37.3401 148.33 33.0601C146.2 30.9201 144.33 28.9501 142.95 27.5101C142.178 26.7672 141.468 25.961 140.83 25.1001C141.682 25.7488 142.478 26.468 143.21 27.2501C144.63 28.6301 146.57 30.5501 148.7 32.7001L154.11 38.2101L155.74 39.9001L156.33 40.5301Z" fill="#263238"/>
<path d="M156.33 451C156.43 451.11 153.04 454.63 148.77 458.88C144.5 463.13 140.95 466.48 140.84 466.38C140.73 466.28 144.13 462.76 148.4 458.51C152.67 454.26 156.23 450.94 156.33 451Z" fill="#263238"/>
<path d="M359.16 466.42C356.37 464.083 353.7 461.606 351.16 459C346.87 454.79 343.47 451.3 343.57 451.2C343.67 451.1 347.23 454.42 351.57 458.63C355.91 462.84 359.26 466.32 359.16 466.42Z" fill="#263238"/>
<path d="M351.32 270C351.659 269.962 351.994 269.891 352.32 269.79C352.759 269.633 353.156 269.379 353.481 269.047C353.807 268.714 354.053 268.312 354.2 267.87C354.366 267.217 354.417 266.54 354.35 265.87C354.35 265.11 354.35 264.29 354.35 263.41C354.35 261.64 354.35 259.63 354.35 257.41C354.35 252.95 354.35 247.67 354.3 241.81C354.3 238.87 354.3 235.81 354.3 232.59V227.72C354.312 227.336 354.248 226.953 354.111 226.594C353.973 226.236 353.766 225.908 353.5 225.63C353.234 225.349 352.913 225.124 352.557 224.971C352.201 224.818 351.818 224.739 351.43 224.739C351.043 224.739 350.659 224.818 350.303 224.971C349.947 225.124 349.626 225.349 349.36 225.63C348.83 226.194 348.546 226.946 348.57 227.72C348.57 229.37 348.57 230.99 348.57 232.59C348.57 235.79 348.57 238.87 348.57 241.81C348.57 247.67 348.57 252.95 348.51 257.41C348.51 259.62 348.51 261.63 348.51 263.41C348.51 264.29 348.51 265.11 348.51 265.87C348.444 266.54 348.494 267.217 348.66 267.87C348.809 268.312 349.057 268.715 349.384 269.048C349.711 269.38 350.11 269.634 350.55 269.79C350.876 269.89 351.211 269.96 351.55 270C351.213 270.043 350.87 270.005 350.55 269.89C350.079 269.749 349.648 269.499 349.292 269.16C348.936 268.821 348.665 268.403 348.5 267.94C348.31 267.264 348.239 266.56 348.29 265.86C348.29 265.1 348.29 264.28 348.29 263.4C348.29 261.63 348.29 259.62 348.29 257.4C348.29 252.94 348.29 247.66 348.24 241.8C348.24 238.86 348.24 235.8 348.24 232.58V227.71C348.228 227.26 348.304 226.812 348.466 226.391C348.627 225.971 348.87 225.586 349.18 225.26C349.495 224.928 349.874 224.664 350.294 224.483C350.715 224.302 351.168 224.209 351.625 224.209C352.083 224.209 352.535 224.302 352.956 224.483C353.376 224.664 353.755 224.928 354.07 225.26C354.691 225.923 355.028 226.802 355.01 227.71C355.01 229.36 355.01 230.99 355.01 232.58C355.01 235.78 355.01 238.86 355.01 241.8C355.01 247.66 355.01 252.94 354.95 257.4C354.95 259.61 354.95 261.62 354.95 263.4C354.95 264.28 354.95 265.1 354.95 265.86C355.004 266.56 354.936 267.263 354.75 267.94C354.585 268.403 354.314 268.821 353.958 269.16C353.602 269.499 353.171 269.749 352.7 269.89C352.264 270.075 351.78 270.113 351.32 270Z" fill="#263238"/>
<path d="M351.41 182.23H155.14V183.93H351.41V182.23Z" fill="#F5F5F5"/>
<path d="M351.41 367.06H155.14V368.76H351.41V367.06Z" fill="#F5F5F5"/>
<path d="M249.84 32.9301L249.84 463.39H252.26L252.26 32.9301H249.84Z" fill="#F5F5F5"/>
<path d="M87.48 454.21L88.48 473.21L88.34 480.68C88.28 483.51 90.59 483.02 93.42 483.07L127.98 483.74C127.98 483.74 129.68 480.3 127.15 479.17C124.62 478.04 105.5 467 105.5 467L106.24 449.12L87.48 454.21Z" fill="#E0E0E0"/>
<path d="M95.9304 482.91C95.8604 482.91 95.8004 482.25 95.4904 481.24C95.0952 479.923 94.412 478.71 93.4901 477.689C92.5682 476.669 91.4308 475.866 90.1604 475.34C89.1604 474.92 88.5404 474.79 88.5504 474.73C89.1414 474.707 89.7297 474.82 90.2704 475.06C91.6271 475.532 92.8418 476.34 93.8004 477.41C94.7693 478.474 95.4568 479.763 95.8004 481.16C95.9622 481.728 96.0064 482.324 95.9304 482.91Z" fill="#263238"/>
<path d="M117.78 483.53C117.573 483.139 117.47 482.702 117.48 482.26C117.405 481.188 117.645 480.118 118.17 479.18C118.702 478.261 119.42 477.463 120.28 476.84C120.92 476.36 121.37 476.14 121.4 476.19C121.43 476.24 121.05 476.55 120.47 477.07C119.71 477.736 119.062 478.519 118.55 479.39C118.065 480.27 117.801 481.255 117.78 482.26C117.818 482.683 117.818 483.108 117.78 483.53Z" fill="#263238"/>
<path d="M123.06 434.39L111.57 449.54L106.64 455.15C104.77 457.28 106.85 458.39 108.98 460.26L134.98 483.08C134.98 483.08 138.5 481.55 137.3 479.08C136.1 476.61 128.62 455.81 128.62 455.81L140.72 442.64L123.06 434.39Z" fill="#E0E0E0"/>
<path d="M111 461.76C110.94 461.76 111.33 461.17 111.74 460.2C112.273 458.935 112.532 457.572 112.5 456.2C112.456 454.83 112.115 453.485 111.5 452.26C111.03 451.31 110.61 450.79 110.67 450.75C111.131 451.119 111.506 451.583 111.77 452.11C112.499 453.348 112.905 454.75 112.951 456.187C112.996 457.623 112.68 459.048 112.03 460.33C111.792 460.874 111.441 461.362 111 461.76Z" fill="#263238"/>
<path d="M127.27 476.34C127.372 475.91 127.578 475.512 127.87 475.18C128.504 474.314 129.376 473.651 130.38 473.27C131.38 472.917 132.442 472.77 133.5 472.84C133.939 472.819 134.376 472.898 134.78 473.07C134.358 473.145 133.928 473.169 133.5 473.14C132.479 473.16 131.466 473.339 130.5 473.67C129.566 474.035 128.733 474.618 128.07 475.37C127.59 476 127.34 476.38 127.27 476.34Z" fill="#263238"/>
<path d="M92.6801 107.6C87.9101 116.07 85.7601 125.81 85.1301 135.5C84.5001 145.19 85.3001 154.92 86.1301 164.61C86.2801 166.36 86.5401 168.32 87.9301 169.4C89.3201 170.48 91.3401 170.23 93.0901 169.92C95.4001 169.5 97.8501 169.01 99.5101 167.36C101.64 165.23 101.79 161.88 101.79 158.88C101.75 145.7 101.153 132.543 100 119.41" fill="#263238"/>
<path d="M142.54 113.07L136.56 138.16L124.53 131.78L132.78 104.01L142.54 113.07Z" fill="#FFBE9D"/>
<path d="M154.89 84.43C154.89 84.43 151.19 80.43 149.71 80.23C148.23 80.03 139.83 84.43 139.83 84.43L133.16 93.32V110.11L142.55 113.11L146.15 108.88C146.15 108.88 154.63 104.38 154.89 103.3C155.022 100.715 155.022 98.125 154.89 95.54C154.89 95.54 152.2 94.29 151.73 97.54L151.42 100.49L146.15 102L147.85 95.18C147.85 95.18 155 92.86 155 91.46C155 90.06 153 88.67 153 88.67L155 85.1" fill="#FFBE9D"/>
<path d="M73.0003 276.47C73.0003 276.47 63.8203 294.31 71.6203 333.82C76.4903 358.43 81.4303 465.41 81.4303 465.41L119.76 464.78C119.76 464.78 119.76 387.65 119.63 374.06C119.54 365.37 122.99 330.34 122.99 330.34L125.25 286.86L73.0003 276.47Z" fill="#1E4646"/>
<path d="M140 284.05C139.42 285.35 180.53 353.32 180.52 367.69C180.52 381.54 133.95 451.32 133.95 451.32L104.35 431L137.14 373.76L108.2 324.55L99 289.73L140 284.05Z" fill="#1E4646"/>
<path d="M119.71 464.78C119.698 464.647 119.698 464.513 119.71 464.38V463.21C119.71 462.15 119.71 460.64 119.65 458.71C119.65 454.78 119.59 449.14 119.54 442.18C119.54 428.18 119.42 408.92 119.34 387.63C119.34 382.31 119.34 377.11 119.34 372.08C119.34 370.83 119.44 369.59 119.51 368.36C119.58 367.13 119.66 365.91 119.74 364.7C119.89 362.29 120.05 359.93 120.19 357.63C120.79 348.42 121.33 340.13 121.79 333.15C122.25 326.17 122.64 320.58 122.9 316.66C123.05 314.74 123.16 313.23 123.23 312.18C123.23 311.69 123.31 311.3 123.33 311.01C123.337 310.878 123.358 310.748 123.39 310.62V311.02V312.18C123.33 313.24 123.26 314.74 123.16 316.67C122.93 320.6 122.6 326.23 122.16 333.17C121.72 340.11 121.24 348.44 120.68 357.65C120.54 359.95 120.397 362.307 120.25 364.72C120.17 365.92 120.1 367.14 120.02 368.37C119.94 369.6 119.82 370.84 119.86 372.1C119.86 377.1 119.86 382.32 119.86 387.65C119.86 408.93 119.86 428.2 119.86 442.18C119.86 449.18 119.86 454.78 119.86 458.71C119.86 460.64 119.86 462.15 119.86 463.21C119.86 463.703 119.86 464.093 119.86 464.38C119.826 464.519 119.776 464.653 119.71 464.78Z" fill="#263238"/>
<path d="M153.93 371.58C153.039 371.604 152.148 371.574 151.26 371.49C149.125 371.415 146.987 371.526 144.87 371.82C142.754 372.125 140.667 372.607 138.63 373.26C137.802 373.588 136.954 373.862 136.09 374.08C136.842 373.588 137.656 373.198 138.51 372.92C140.539 372.145 142.649 371.602 144.8 371.3C146.947 371 149.12 370.94 151.28 371.12C152.18 371.155 153.071 371.31 153.93 371.58Z" fill="#263238"/>
<path d="M119.5 447.29C118.993 447.356 118.481 447.379 117.97 447.36H113.83C110.32 447.36 105.49 447.44 100.15 447.62C94.8101 447.8 89.9701 448.04 86.4801 448.24L82.3401 448.48C81.8313 448.53 81.3188 448.53 80.8101 448.48C81.3068 448.367 81.8117 448.293 82.3201 448.26C83.3201 448.14 84.7001 448 86.4501 447.86C89.9401 447.56 94.7801 447.25 100.13 447.07C105.48 446.89 110.32 446.9 113.83 446.97C115.58 446.97 117 447.06 117.98 447.11C118.491 447.122 119 447.183 119.5 447.29Z" fill="#263238"/>
<path d="M144.45 434.42C144.112 434.219 143.8 433.978 143.52 433.7L141.06 431.64C138.98 429.91 136.06 427.64 132.65 425.26C129.24 422.88 126.06 421 123.65 419.67L120.86 418.1C120.505 417.935 120.17 417.731 119.86 417.49C120.245 417.583 120.615 417.728 120.96 417.92C121.65 418.23 122.64 418.72 123.84 419.34C130.104 422.632 135.952 426.661 141.26 431.34C142.26 432.24 143.08 432.99 143.61 433.53C143.924 433.793 144.206 434.092 144.45 434.42Z" fill="#263238"/>
<path d="M82.4201 448.33C82.4096 448.204 82.4096 448.077 82.4201 447.95C82.4201 447.67 82.4201 447.29 82.4201 446.81C82.4201 445.81 82.3301 444.32 82.2601 442.45C82.1401 438.64 81.9601 433.16 81.7301 426.45C81.2701 412.91 80.5401 394.21 79.4901 373.56C78.4401 352.91 77.2801 334.22 76.3601 320.7C75.9001 313.97 75.5301 308.5 75.2701 304.7C75.1501 302.83 75.0501 301.37 74.9801 300.34C74.9801 299.86 74.9801 299.49 74.9201 299.21C74.9068 299.08 74.9068 298.95 74.9201 298.82C74.9284 298.947 74.9284 299.074 74.9201 299.2L75.0401 300.33C75.1301 301.33 75.2601 302.82 75.4201 304.68C75.7501 308.46 76.1801 313.92 76.6801 320.68C77.6801 334.19 78.9101 352.88 79.9601 373.53C81.0101 394.18 81.6401 412.85 82.0001 426.4C82.1901 433.18 82.3101 438.66 82.3701 442.45C82.3701 444.32 82.3701 445.78 82.4201 446.81C82.4201 447.29 82.4201 447.66 82.4201 447.95C82.4288 448.077 82.4288 448.204 82.4201 448.33Z" fill="white"/>
<path d="M98.0004 304.48C98.1404 304.48 97.7304 336.39 97.0704 375.74C96.4104 415.09 95.7704 447 95.6304 447C95.4904 447 95.9004 415.1 96.5504 375.74C97.2004 336.38 97.8504 304.48 98.0004 304.48Z" fill="white"/>
<path d="M108.14 446.14C108.127 446.02 108.127 445.9 108.14 445.78C108.14 445.51 108.14 445.16 108.14 444.71C108.14 443.71 108.14 442.36 108.05 440.61C107.98 437.04 107.93 431.88 107.9 425.51C107.84 412.76 107.97 395.14 108.53 375.7C109.09 356.26 109.98 338.65 110.78 325.93C111.17 319.56 111.53 314.42 111.78 310.86C111.92 309.11 112.03 307.74 112.11 306.77C112.11 306.32 112.18 305.97 112.21 305.71C112.195 305.591 112.195 305.47 112.21 305.35C112.223 305.47 112.223 305.59 112.21 305.71C112.21 305.98 112.21 306.33 112.21 306.78C112.21 307.78 112.08 309.12 111.99 310.88C111.78 314.47 111.49 319.61 111.12 325.95C110.43 338.67 109.6 356.27 109.03 375.71C108.46 395.15 108.28 412.76 108.25 425.51C108.25 431.86 108.25 437.01 108.25 440.6V444.71C108.25 445.16 108.25 445.51 108.25 445.78C108.223 445.903 108.186 446.023 108.14 446.14Z" fill="white"/>
<path d="M144.86 371.76C144.774 371.552 144.704 371.338 144.65 371.12C144.51 370.64 144.34 370.02 144.13 369.25C143.66 367.56 143.02 365.25 142.23 362.37C140.59 356.57 138.23 348.6 135.23 339.92C132.23 331.24 129.23 323.48 126.88 317.92C125.74 315.18 124.8 312.92 124.13 311.34C123.82 310.6 123.58 310 123.38 309.54C123.285 309.338 123.211 309.127 123.16 308.91C123.283 309.097 123.39 309.295 123.48 309.5L124.31 311.25C125.03 312.78 126.03 315.01 127.22 317.77C129.61 323.31 132.71 331.05 135.72 339.77C138.73 348.49 141.07 356.47 142.61 362.29C143.38 365.21 143.98 367.57 144.35 369.22C144.53 370 144.67 370.63 144.78 371.11C144.83 371.323 144.856 371.541 144.86 371.76Z" fill="white"/>
<path d="M149 372.21C148.966 372.389 148.912 372.563 148.84 372.73C148.69 373.11 148.51 373.59 148.28 374.17C147.8 375.41 147.04 377.17 146.06 379.38C143.493 385.071 140.618 390.62 137.45 396C134.288 401.379 130.843 406.586 127.13 411.6C125.7 413.52 124.51 415.05 123.65 416.08L122.65 417.27C122.54 417.411 122.416 417.542 122.28 417.66C122.28 417.66 122.36 417.49 122.57 417.2L123.47 415.96C124.28 414.89 125.47 413.33 126.81 411.38C129.59 407.5 133.28 402.02 136.98 395.74C140.68 389.46 143.65 383.56 145.69 379.24C146.69 377.08 147.51 375.32 148.06 374.1L148.7 372.7C148.776 372.523 148.877 372.358 149 372.21Z" fill="white"/>
<path d="M134 425.87C134.057 425.761 134.124 425.657 134.2 425.56L134.84 424.69C135.43 423.91 136.27 422.8 137.33 421.38C139.49 418.49 142.65 414.38 146.28 409.02C150.584 402.837 154.288 396.258 157.34 389.37C160.66 381.59 163.26 372.37 163.15 362.58C163.118 360.166 162.917 357.756 162.55 355.37C162.36 354.2 162.08 353.05 161.86 351.9C161.64 350.75 161.24 349.64 160.95 348.53C159.633 344.286 157.936 340.17 155.88 336.23C151.96 328.69 147.7 322.23 144.36 316.77C141.656 312.463 139.199 308.005 137 303.42C136.2 301.8 135.71 300.49 135.34 299.61L134.93 298.61C134.877 298.502 134.837 298.388 134.81 298.27C134.883 298.367 134.941 298.475 134.98 298.59C135.09 298.84 135.24 299.16 135.43 299.59C135.83 300.45 136.35 301.75 137.19 303.35C139.463 307.895 141.974 312.318 144.71 316.6C148.08 322.08 152.37 328.46 156.34 336.03C158.419 339.99 160.136 344.13 161.47 348.4C161.77 349.52 162.17 350.63 162.39 351.8C162.61 352.97 162.9 354.12 163.09 355.31C163.466 357.723 163.669 360.159 163.7 362.6C163.642 371.912 161.636 381.11 157.81 389.6C154.725 396.505 150.974 403.093 146.61 409.27C142.94 414.57 139.73 418.69 137.53 421.54L135 424.76L134.32 425.6C134.224 425.702 134.117 425.793 134 425.87Z" fill="white"/>
<g opacity="0.3">
<path d="M68.8003 295.1C70.0103 299.56 74.6003 302.55 78.8603 304.32C90.6777 309.182 103.535 310.968 116.23 309.51C122.23 308.81 128.32 307.33 133.38 304C135.59 302.54 137.62 300.74 140.09 299.81C142.56 298.88 145.76 299.12 147.35 301.23C147.691 300.43 147.777 299.544 147.599 298.693C147.42 297.842 146.984 297.066 146.35 296.47C145.77 295.96 143.27 295.19 141.73 294.42C139.96 293.54 137.35 292.42 137.35 292.42C136.401 293.954 135.341 295.418 134.18 296.8C131.319 299.533 127.861 301.564 124.08 302.73C112.65 306.5 100.14 306.03 88.4003 303.14C81.5103 301.43 74.7303 299.02 68.8303 295.14" fill="black"/>
</g>
<g opacity="0.3">
<path d="M122.7 319C126.26 333.27 129.62 348.06 130.79 362.72C127.54 356.72 124.52 352.63 121.27 346.63L122.7 319Z" fill="black"/>
</g>
<path d="M142.13 123.64L139.54 125.28C140.34 132.12 136.54 138.61 132.67 144.28C128.8 149.95 124.43 155.82 123.82 162.69C122.7 175.31 134.43 185.9 135.09 198.55C136.79 198.55 145.99 198.05 147.69 198.05C149.39 172.15 145 150.37 142.13 123.64Z" fill="#263238"/>
<path d="M90.1704 126C90.0637 130.865 90.9888 135.697 92.8848 140.179C94.7808 144.66 97.6046 148.689 101.17 152C102.797 147.26 104.434 142.517 106.08 137.77" fill="#263238"/>
<path d="M127.21 97.65C122.88 95.4826 117.932 94.8853 113.21 95.96C108.517 97.0478 104.034 98.8991 99.9404 101.44C97.5338 102.697 95.3834 104.393 93.6004 106.44C90.5404 110.29 87.5104 116.62 87.2204 121.53C86.9804 125.53 88.5004 135.45 90.2204 139.06C91.7604 142.37 98.9704 144.89 102.53 145.7L135.19 107.7C134.598 105.577 133.587 103.594 132.216 101.868C130.846 100.142 129.144 98.7082 127.21 97.65Z" fill="#263238"/>
<path d="M132.84 102.77L125.01 101.37C129.29 111.57 130.45 134.87 132.9 145.65C135.79 141.47 142.49 128.71 142.13 123.65C141.77 118.59 142.14 101.91 132.84 102.77Z" fill="#263238"/>
<path d="M137.32 119.39C136.81 111.57 131.6 101.98 123.81 102.83L105.81 107.43C103.036 108.134 100.561 109.71 98.7497 111.926C96.9386 114.142 95.8871 116.881 95.75 119.74C95.75 120.04 95.75 119.67 95.75 119.9L99.75 166.59L118.82 191.26L125.18 168C125.18 164.19 125.18 158.44 125.18 158.46C125.18 158.48 135.18 156.78 137.18 143.73C138.23 137.25 137.89 128.08 137.32 119.39Z" fill="#FFBE9D"/>
<path d="M135.25 128.49C135.253 128.925 135.087 129.345 134.787 129.66C134.486 129.976 134.075 130.162 133.64 130.18C133.427 130.198 133.212 130.172 133.009 130.106C132.805 130.039 132.617 129.932 132.456 129.791C132.295 129.65 132.163 129.478 132.069 129.286C131.976 129.093 131.922 128.884 131.91 128.67C131.907 128.235 132.073 127.815 132.374 127.5C132.674 127.185 133.085 126.998 133.52 126.98C133.733 126.964 133.948 126.99 134.15 127.057C134.353 127.125 134.541 127.232 134.702 127.372C134.863 127.513 134.994 127.684 135.088 127.876C135.183 128.068 135.238 128.277 135.25 128.49Z" fill="#263238"/>
<path d="M135.36 124.5C135.15 124.72 133.89 123.78 132.09 123.79C130.29 123.8 128.97 124.7 128.77 124.48C128.57 124.26 128.89 123.99 129.46 123.57C130.238 123.03 131.164 122.744 132.11 122.75C133.046 122.741 133.961 123.032 134.72 123.58C135.27 124 135.46 124.4 135.36 124.5Z" fill="#263238"/>
<path d="M119.39 129.08C119.396 129.516 119.23 129.937 118.93 130.253C118.629 130.569 118.216 130.754 117.78 130.77C117.568 130.788 117.354 130.763 117.151 130.696C116.948 130.63 116.761 130.524 116.599 130.384C116.438 130.245 116.307 130.074 116.212 129.883C116.118 129.691 116.063 129.483 116.05 129.27C116.047 128.835 116.214 128.415 116.514 128.1C116.814 127.784 117.225 127.598 117.66 127.58C117.873 127.564 118.086 127.59 118.288 127.656C118.491 127.723 118.678 127.829 118.838 127.969C118.999 128.108 119.131 128.278 119.226 128.469C119.32 128.66 119.376 128.867 119.39 129.08Z" fill="#263238"/>
<path d="M118.27 124.5C118.07 124.72 116.8 123.78 115 123.79C113.2 123.8 111.88 124.7 111.69 124.48C111.5 124.26 111.8 123.99 112.37 123.57C113.148 123.031 114.074 122.744 115.02 122.75C115.957 122.74 116.872 123.031 117.63 123.58C118.18 124 118.37 124.4 118.27 124.5Z" fill="#263238"/>
<path d="M123.9 138.63C124.847 138.331 125.828 138.153 126.82 138.1C127.28 138.1 127.71 137.96 127.82 137.64C127.857 137.166 127.749 136.691 127.51 136.28C127.08 135.17 126.62 134.01 126.14 132.78C124.25 127.78 122.87 123.72 123.07 123.64C123.27 123.56 124.98 127.54 126.87 132.52C127.33 133.74 127.77 134.91 128.18 136.03C128.475 136.585 128.561 137.228 128.42 137.84C128.355 138.002 128.254 138.147 128.124 138.263C127.994 138.379 127.838 138.464 127.67 138.51C127.416 138.582 127.154 138.619 126.89 138.62C125.898 138.748 124.893 138.751 123.9 138.63Z" fill="#263238"/>
<path d="M107.9 153.82C107.9 153.82 112.14 162.82 125.18 161.52V158.46C119.102 158.54 113.121 156.934 107.9 153.82Z" fill="#EB996E"/>
<path d="M117.71 118C117.53 118.49 115.71 118.26 113.63 118.52C111.55 118.78 109.81 119.36 109.53 118.92C109.4 118.71 109.7 118.25 110.38 117.77C111.285 117.187 112.311 116.821 113.38 116.7C114.461 116.568 115.558 116.695 116.58 117.07C117.39 117.38 117.78 117.76 117.71 118Z" fill="#263238"/>
<path d="M134.77 119C134.46 119.41 133.22 119 131.77 119C130.32 119 129.02 119.28 128.77 118.85C128.65 118.64 128.84 118.23 129.39 117.85C130.129 117.379 130.995 117.146 131.87 117.18C132.746 117.193 133.596 117.48 134.3 118C134.74 118.37 134.91 118.79 134.77 119Z" fill="#263238"/>
<path d="M133.78 107.48C133.32 106.522 132.601 105.712 131.706 105.14C130.81 104.567 129.773 104.256 128.71 104.24C126.584 104.236 124.501 104.844 122.71 105.99C114.94 110.48 110.95 121.32 103.28 125.99C101.39 127.13 98.9402 126.09 97.2802 127.6C95.6202 129.11 94.6402 131.53 95.5202 133.6C94.4283 132.202 93.5457 130.652 92.9002 129C92.5705 128.185 92.4194 127.309 92.4574 126.431C92.4953 125.553 92.7214 124.693 93.1202 123.91C93.7802 122.76 94.9502 121.91 95.2702 120.6C95.5902 119.29 95.1102 118.28 95.1602 117.11C95.2911 115.925 95.6987 114.788 96.3502 113.79C99.3502 108.47 103.49 103.66 108.82 100.67C112.291 98.6513 116.245 97.6143 120.26 97.6701C124.29 97.7701 128.152 99.3056 131.15 102C132.86 103.6 134.67 105.25 133.78 107.42" fill="#263238"/>
<path d="M97.5101 129.19C97.3701 128.81 90.5701 126.36 90.5101 133.59C90.4201 140.59 97.5101 139.23 97.5101 139.03C97.5101 138.83 97.5101 129.19 97.5101 129.19Z" fill="#FFBE9D"/>
<path d="M95.3504 136.34C95.3504 136.34 95.2304 136.43 95.0204 136.52C94.7284 136.637 94.4024 136.637 94.1104 136.52C93.6567 136.231 93.2891 135.824 93.0463 135.344C92.8035 134.864 92.6944 134.327 92.7304 133.79C92.721 133.187 92.8439 132.59 93.0904 132.04C93.1589 131.821 93.2793 131.623 93.4413 131.461C93.6032 131.299 93.8019 131.179 94.0204 131.11C94.1624 131.076 94.3118 131.092 94.4432 131.156C94.5745 131.22 94.6796 131.327 94.7404 131.46C94.8304 131.65 94.7404 131.79 94.8204 131.81C94.9004 131.83 94.9704 131.69 94.9204 131.4C94.883 131.227 94.7877 131.072 94.6504 130.96C94.4544 130.816 94.2126 130.749 93.9704 130.77C93.6816 130.826 93.4118 130.955 93.1862 131.144C92.9606 131.333 92.7866 131.576 92.6804 131.85C92.3793 132.455 92.2284 133.124 92.2404 133.8C92.2404 135.22 92.9804 136.55 94.0004 136.85C94.1882 136.905 94.3858 136.919 94.5793 136.889C94.7728 136.86 94.9575 136.788 95.1204 136.68C95.3404 136.51 95.3804 136.36 95.3504 136.34Z" fill="#EB996E"/>
<path d="M94.5503 137.59C94.293 137.536 94.0257 137.557 93.7798 137.65C93.5339 137.743 93.3197 137.904 93.1623 138.115C93.005 138.325 92.911 138.576 92.8915 138.838C92.872 139.101 92.9278 139.363 93.0522 139.594C93.1767 139.826 93.3647 140.017 93.5941 140.145C93.8235 140.274 94.0848 140.334 94.3472 140.319C94.6097 140.303 94.8623 140.214 95.0754 140.06C95.2885 139.906 95.4533 139.694 95.5503 139.45C95.6654 139.12 95.6569 138.76 95.5263 138.437C95.3956 138.113 95.1519 137.847 94.8403 137.69" fill="white"/>
<path d="M94.8803 137.69C95.1843 137.929 95.4049 138.258 95.5103 138.63C95.5602 138.823 95.5616 139.025 95.5145 139.219C95.4674 139.413 95.3732 139.592 95.2403 139.74C95.0755 139.914 94.8668 140.04 94.6362 140.105C94.4056 140.17 94.1617 140.172 93.9303 140.11C93.7046 140.029 93.5058 139.887 93.3558 139.7C93.2058 139.513 93.1104 139.288 93.0803 139.05C93.0539 138.853 93.0776 138.653 93.1493 138.467C93.2209 138.282 93.3382 138.118 93.4903 137.99C93.7917 137.747 94.1633 137.606 94.5503 137.59C94.5503 137.59 94.4503 137.51 94.2203 137.51C93.905 137.511 93.599 137.616 93.3503 137.81C93.1557 137.956 93.0013 138.149 92.9016 138.372C92.802 138.594 92.7602 138.837 92.7803 139.08C92.8005 139.383 92.9115 139.673 93.0988 139.911C93.2862 140.15 93.5411 140.327 93.8304 140.419C94.1198 140.511 94.4301 140.513 94.7208 140.426C95.0115 140.339 95.2692 140.166 95.4603 139.93C95.6204 139.747 95.7296 139.525 95.777 139.286C95.8244 139.047 95.8083 138.801 95.7303 138.57C95.6383 138.267 95.4484 138.003 95.1903 137.82C95.0003 137.69 94.8903 137.67 94.8803 137.69Z" fill="#263238"/>
<path d="M96.4801 127.56C96.3701 129.48 96.2801 131.51 97.1701 133.21C98.0601 134.91 100.29 136.08 101.96 135.12C103.32 134.35 103.73 132.6 103.96 131.05C104.62 126.58 104.96 122.05 105.63 117.59L96.4801 127.56Z" fill="#263238"/>
<path d="M119.48 142.05C119.139 142.494 118.911 143.014 118.814 143.566C118.718 144.117 118.756 144.684 118.926 145.217C119.096 145.751 119.392 146.235 119.79 146.629C120.188 147.023 120.675 147.315 121.21 147.48C121.635 147.627 122.096 147.627 122.52 147.48C122.864 147.289 123.164 147.03 123.403 146.719C123.642 146.408 123.815 146.051 123.91 145.67C124.16 145.06 124.4 144.46 124.64 143.85C124.746 143.658 124.771 143.431 124.71 143.22C124.61 143 124.35 142.93 124.12 142.87L119.61 141.78" fill="#EB996E"/>
<path d="M122.42 147.28C121.742 147.371 121.052 147.281 120.42 147.02C119.66 146.779 119.018 146.261 118.62 145.57C118.39 145.142 118.296 144.653 118.35 144.17C118.38 143.673 118.498 143.185 118.7 142.73C118.907 142.29 119.196 141.893 119.55 141.56L119.67 141.45L119.82 141.5C122.82 142.55 125.14 143.09 125.11 143.21C123.239 143.089 121.397 142.681 119.65 142L119.91 141.94C119.611 142.225 119.37 142.564 119.2 142.94C119.009 143.304 118.898 143.705 118.874 144.115C118.85 144.525 118.913 144.936 119.06 145.32C119.393 145.922 119.922 146.392 120.56 146.65C121.64 147.12 122.44 147.18 122.42 147.28Z" fill="#263238"/>
<path d="M98.2301 127.91L97.0301 128.43C96.8929 128.496 96.7487 128.546 96.6001 128.58C96.726 128.491 96.8599 128.414 97.0001 128.35L98.1701 127.78C99.1701 127.27 100.67 126.57 102.44 125.59C104.523 124.477 106.475 123.135 108.26 121.59C109.293 120.659 110.216 119.612 111.01 118.47C111.85 117.29 112.63 116 113.54 114.73C115.27 112.362 117.285 110.216 119.54 108.34C120.514 107.517 121.536 106.752 122.6 106.05C123.543 105.449 124.549 104.953 125.6 104.57C127.113 103.989 128.732 103.737 130.35 103.83C130.788 103.85 131.223 103.91 131.65 104.01C131.8 104.038 131.947 104.078 132.09 104.13C132.09 104.13 131.47 104.01 130.34 103.98C128.749 103.954 127.169 104.243 125.69 104.83C124.67 105.226 123.695 105.729 122.78 106.33C121.736 107.033 120.734 107.798 119.78 108.62C117.573 110.49 115.599 112.618 113.9 114.96C113.01 116.21 112.22 117.5 111.36 118.69C110.551 119.856 109.604 120.92 108.54 121.86" fill="#455A64"/>
<path d="M93.71 163.71L85.16 171.53L80.1 218.64L64.73 292.39C69.73 296.77 89.28 306.3 108.86 305.31C133.32 304.07 137.32 292.39 137.32 292.39C142.32 294.33 146.9 296.39 146.9 296.39C146.9 296.39 137.23 213.12 136.4 200.31C135.53 186.98 126.14 171.24 126.14 171.24L125.8 166.16L124.39 170.16L119.58 166.38L96.74 156L93.71 163.71Z" fill="#1E4646"/>
<path d="M93.7101 163.71C93.7101 163.71 83.5201 167.42 76.0801 175C71.7101 179.45 52.4001 239.09 51.7301 243.79C50.6201 251.6 59.0901 266.19 72.7302 263.97C86.3702 261.75 123.34 250.89 123.34 250.89L113.63 217.84L83.5601 230.84L99.2501 194.11C99.2501 194.11 106.05 166.24 93.7101 163.71Z" fill="#1E4646"/>
<path d="M94.9202 204.12C94.9202 204.12 94.9202 204.28 94.7502 204.59C94.5802 204.9 94.4302 205.36 94.1902 205.95L92.0002 211.21C90.0502 215.82 87.2302 222.5 83.6802 230.88L83.4702 230.66L113.47 217.66L113.7 217.56L113.77 217.8L123.51 250.8L123.58 251.05L123.34 251.12C113.89 253.87 103.8 256.72 93.3402 259.46C89.0902 260.57 84.8702 261.63 80.6902 262.58C78.6002 263.07 76.5202 263.52 74.4402 263.9L72.8902 264.18C72.3602 264.27 71.8302 264.29 71.3002 264.34C70.2495 264.445 69.1909 264.445 68.1402 264.34C66.062 264.109 64.0482 263.477 62.2102 262.48C61.3046 261.994 60.4357 261.442 59.6102 260.83C58.8189 260.194 58.0706 259.505 57.3702 258.77C54.6366 255.9 52.7144 252.356 51.8002 248.5C51.3275 246.633 51.2933 244.682 51.7002 242.8C52.1502 240.99 52.7002 239.24 53.2002 237.51C54.2002 234.05 55.3202 230.71 56.3602 227.51C58.4502 221.06 60.4702 215.08 62.3602 209.63C66.1202 198.74 69.3602 189.98 71.7502 184C72.9602 181 73.9702 178.72 74.7502 177.21C75.1302 176.45 75.4702 175.89 75.7502 175.52C76.0302 175.15 76.1602 175 76.1602 175C76.1602 175 76.0402 175.2 75.7902 175.55C75.5402 175.9 75.2602 176.49 74.8902 177.25C74.1602 178.78 73.1802 181.08 72.0002 184.08C69.6402 190.08 66.4802 198.85 62.7702 209.75C60.9202 215.21 58.9202 221.19 56.8502 227.64C55.8502 230.87 54.7602 234.21 53.7202 237.64C53.2102 239.37 52.7202 241.12 52.2402 242.91C51.8536 244.721 51.8913 246.596 52.3502 248.39C53.2688 252.15 55.1664 255.601 57.8502 258.39C58.5316 259.108 59.2635 259.776 60.0402 260.39C60.8385 260.991 61.6846 261.527 62.5702 261.99C64.3474 262.96 66.2976 263.571 68.3102 263.79C69.3308 263.895 70.3596 263.895 71.3802 263.79C71.8902 263.74 72.3802 263.72 72.9202 263.64L74.4702 263.35C76.5402 262.97 78.6102 262.52 80.6902 262.04C84.8635 261.08 89.0769 260.037 93.3302 258.91C103.77 256.18 113.86 253.34 123.33 250.59L123.16 250.91C119.69 239.05 116.42 227.91 113.49 217.85L113.79 217.99L83.5902 231L83.2102 231.17L83.3702 230.79L91.8202 211.18C92.8202 208.91 93.5802 207.18 94.1002 205.95L94.7002 204.61C94.8402 204.27 94.9202 204.12 94.9202 204.12Z" fill="#263238"/>
<path d="M83.52 230.81C82.8509 231.15 82.1593 231.444 81.45 231.69C79.8146 232.396 78.3461 233.439 77.14 234.75C75.9735 236.099 75.1077 237.681 74.6 239.39C74.429 240.119 74.2153 240.837 73.96 241.54C73.9281 240.779 74.0261 240.018 74.25 239.29C74.6712 237.48 75.5296 235.801 76.75 234.4C78.0074 233.032 79.5746 231.986 81.32 231.35C82.0191 231.052 82.7622 230.869 83.52 230.81Z" fill="#263238"/>
<path d="M131.53 210.17C131.41 209.651 131.337 209.122 131.31 208.59C131.21 207.59 131.04 206.09 130.8 204.27C130.34 200.63 129.52 195.63 128.44 190.14C127.36 184.65 126.27 179.68 125.51 176.14C125.16 174.4 124.86 172.97 124.64 171.87C124.518 171.35 124.434 170.822 124.39 170.29C124.583 170.79 124.733 171.305 124.84 171.83C125.1 172.92 125.45 174.34 125.84 176.06C126.69 179.63 127.84 184.58 128.92 190.06C130 195.54 130.77 200.59 131.14 204.25C131.33 206.08 131.44 207.57 131.48 208.6C131.546 209.121 131.562 209.646 131.53 210.17Z" fill="#263238"/>
<path d="M137.32 292.39C137.275 292.173 137.255 291.952 137.26 291.73C137.26 291.24 137.26 290.61 137.17 289.83C137.11 288.11 137.03 285.74 136.93 282.83C136.72 276.92 136.38 268.76 135.88 259.76C135.38 250.76 134.78 242.61 134.3 236.76C134.07 233.86 133.87 231.49 133.73 229.76C133.67 228.98 133.62 228.35 133.59 227.86C133.566 227.637 133.566 227.413 133.59 227.19C133.654 227.405 133.694 227.626 133.71 227.85L133.95 229.74C134.15 231.38 134.41 233.74 134.69 236.74C135.26 242.63 135.91 250.74 136.42 259.79C136.93 268.84 137.2 276.97 137.31 282.88C137.37 285.83 137.4 288.23 137.4 289.88C137.4 290.66 137.4 291.3 137.4 291.79C137.393 291.992 137.366 292.193 137.32 292.39Z" fill="#263238"/>
<path d="M146.9 296.43C146.672 296.372 146.448 296.299 146.23 296.21L144.32 295.5C142.67 294.84 140.23 293.94 137.25 292.5L137.47 292.42C136.491 294.518 135.096 296.396 133.37 297.94C131.291 299.782 128.901 301.238 126.31 302.24C124.89 302.792 123.424 303.22 121.93 303.52L119.61 304.04C118.82 304.19 118.02 304.31 117.21 304.45C113.856 304.997 110.468 305.304 107.07 305.37C101.21 305.464 95.3589 304.863 89.6401 303.58C84.9713 302.535 80.4211 301.017 76.0601 299.05C74.1901 298.23 72.5701 297.34 71.1501 296.58C69.7301 295.82 68.5601 295.02 67.5901 294.42L65.4501 293L64.9001 292.59C64.7801 292.5 64.7201 292.45 64.7301 292.44L64.9301 292.55L65.5101 292.91L67.7001 294.34C68.7001 294.91 69.8701 295.64 71.2901 296.41C72.7101 297.18 74.2901 298.01 76.2101 298.8C80.5614 300.716 85.0941 302.19 89.7401 303.2C95.4271 304.445 101.239 305.029 107.06 304.94C110.434 304.876 113.799 304.575 117.13 304.04C117.94 303.9 118.73 303.79 119.51 303.64L121.81 303.13C123.287 302.846 124.737 302.431 126.14 301.89C128.702 300.925 131.072 299.513 133.14 297.72C134.849 296.232 136.237 294.412 137.22 292.37L137.29 292.22L137.45 292.29C140.38 293.72 142.81 294.67 144.45 295.38L146.33 296.18C146.528 296.244 146.719 296.327 146.9 296.43Z" fill="#263238"/>
<path d="M114 271.59C113.734 271.879 113.439 272.14 113.12 272.37C112.53 272.85 111.65 273.49 110.52 274.24C104.586 278.115 97.8106 280.515 90.7601 281.24C89.7006 281.354 88.6358 281.414 87.5701 281.42C87.1782 281.467 86.7821 281.467 86.3901 281.42C86.3901 281.33 88.0601 281.28 90.7201 280.93C97.666 280.015 104.343 277.655 110.32 274C112.57 272.53 113.9 271.52 114 271.59Z" fill="#263238"/>
<path d="M112.35 253.5C112.109 253.155 111.911 252.783 111.76 252.39C111.41 251.65 110.94 250.58 110.37 249.24C109.25 246.57 107.81 242.83 106.45 238.61C105.09 234.39 104.05 230.52 103.45 227.7C103.12 226.29 102.87 225.14 102.73 224.34C102.622 223.932 102.562 223.512 102.55 223.09C102.717 223.475 102.841 223.878 102.92 224.29C103.16 225.18 103.45 226.29 103.8 227.61C104.55 230.41 105.63 234.25 106.99 238.45C108.35 242.65 109.73 246.45 110.77 249.11L112 252.31C112.152 252.696 112.269 253.094 112.35 253.5Z" fill="#263238"/>
<path d="M123.43 172.21C122.982 171.858 122.561 171.474 122.17 171.06L118.83 167.74L119.14 167.64C118.78 170.64 118.32 174.48 117.81 178.81V179.2L117.48 179L112.85 176.2C107.4 172.89 102.49 169.87 98.94 167.67L94.71 165L93.58 164.26C93.4455 164.182 93.3212 164.088 93.21 163.98C93.21 163.98 93.37 164.03 93.64 164.17L94.81 164.83L99.08 167.32C102.68 169.45 107.62 172.42 113.08 175.72L117.7 178.53L117.32 178.72C117.89 174.4 118.4 170.55 118.79 167.57V167.19L119.05 167.46L122.27 170.89C122.693 171.297 123.081 171.738 123.43 172.21Z" fill="#263238"/>
<path d="M96.8403 165.92C97.1038 164.566 97.5337 163.249 98.1203 162C98.5487 160.686 99.1436 159.433 99.8903 158.27C99.6269 159.624 99.1969 160.941 98.6103 162.19C98.1726 163.5 97.5783 164.752 96.8403 165.92Z" fill="white"/>
<path d="M105.51 159.79C105.64 159.88 104.36 161.68 103.13 164.09C101.9 166.5 101.13 168.57 101.01 168.52C101.27 166.874 101.832 165.29 102.67 163.85C103.352 162.329 104.315 160.952 105.51 159.79Z" fill="white"/>
<path d="M110.77 162.74C110.343 164.397 109.753 166.008 109.01 167.55C108.425 169.155 107.678 170.696 106.78 172.15C107.201 170.492 107.788 168.881 108.53 167.34C109.112 165.732 109.863 164.19 110.77 162.74Z" fill="white"/>
<path d="M116 165.12C115.696 166.967 115.22 168.781 114.58 170.54C114.11 172.354 113.467 174.119 112.66 175.81C112.965 173.963 113.44 172.149 114.08 170.39C114.565 168.581 115.208 166.817 116 165.12Z" fill="white"/>
<path d="M54.4404 253.5C54.4404 253.5 54.4404 253.43 54.3304 253.27C54.2351 253.038 54.1516 252.801 54.0804 252.56C53.7866 251.639 53.6053 250.685 53.5404 249.72C53.4561 248.189 53.5874 246.654 53.9304 245.16C54.3204 243.41 54.9304 241.49 55.5404 239.33C58.0504 230.74 61.8204 218.96 66.7004 206.19C69.1304 199.81 71.5804 193.78 73.9504 188.35C75.967 183.474 78.6601 178.905 81.9504 174.78C84.1887 172.039 86.9187 169.74 90.0004 168C91.1267 167.346 92.329 166.832 93.5804 166.47L93.3504 166.59L92.6604 166.88C91.7807 167.259 90.9257 167.694 90.1004 168.18C87.0708 169.957 84.3876 172.268 82.1804 175C78.9734 179.126 76.3519 183.676 74.3904 188.52C72.0504 194 69.6104 200 67.1804 206.38C62.3204 219.13 58.4904 230.88 55.8904 239.44C55.2604 241.58 54.6304 243.51 54.2104 245.23C53.8503 246.695 53.6921 248.202 53.7404 249.71C53.823 250.997 54.058 252.269 54.4404 253.5Z" fill="white"/>
<path d="M107.07 244C106.973 244.073 106.865 244.131 106.75 244.17L105.75 244.62C104.91 245.02 103.66 245.62 102.04 246.27C98.7904 247.65 94.0404 249.54 88.0404 251.46C85.0404 252.46 81.7104 253.39 78.1204 254.3C76.3204 254.75 74.4504 255.2 72.5204 255.61C71.5321 255.85 70.5303 256.03 69.5204 256.15C68.4615 256.304 67.3812 256.201 66.3704 255.85C65.3119 255.448 64.4561 254.642 63.9904 253.61C63.5605 252.576 63.379 251.456 63.4604 250.34C63.6821 248.105 64.1379 245.9 64.8204 243.76C65.9804 239.38 67.2604 234.86 68.6604 230.26C71.4604 221.05 74.4504 212.37 77.6004 204.65C80.3521 197.791 83.4836 191.091 86.9804 184.58C89.3509 180.199 91.9512 175.947 94.7704 171.84C95.7704 170.41 96.6304 169.32 97.1804 168.57L97.8204 167.73C97.9604 167.54 98.0404 167.45 98.0504 167.46C97.9965 167.566 97.9329 167.666 97.8604 167.76L97.2604 168.63C96.7204 169.42 95.9404 170.53 94.9404 171.96C93.0304 174.96 90.2304 179.18 87.3004 184.76C83.8573 191.28 80.7662 197.979 78.0404 204.83C75.0004 212.53 72.0004 221.2 69.2204 230.4C67.8404 234.99 66.5504 239.51 65.3904 243.89C64.6982 245.988 64.2322 248.153 64.0004 250.35C63.9189 251.39 64.0833 252.435 64.4804 253.4C64.8875 254.319 65.6429 255.038 66.5804 255.4C67.5251 255.721 68.5311 255.82 69.5204 255.69C70.503 255.569 71.478 255.392 72.4404 255.16C74.3704 254.76 76.2404 254.32 78.0304 253.88C81.6604 253 85.0004 252 88.0004 251.1C94.0004 249.23 98.7704 247.39 102 246.1L105.75 244.55L106.75 244.14C106.851 244.081 106.959 244.034 107.07 244Z" fill="white"/>
<path d="M77 233.15C77.0192 232.92 77.0594 232.693 77.12 232.47C77.24 231.97 77.4 231.33 77.59 230.53C77.78 229.73 78.08 228.67 78.42 227.53C78.76 226.39 79.16 225 79.65 223.53C82.2088 215.867 85.1763 208.346 88.54 201C92.44 192.4 96.35 184.79 99.35 179.38C100.84 176.66 102.11 174.5 103 173.02L104 171.32C104.109 171.114 104.244 170.923 104.4 170.75C104.314 170.968 104.211 171.179 104.09 171.38L103.09 173.12C102.26 174.63 101.09 176.82 99.6 179.55C96.76 185 92.91 192.63 89 201.22C85.09 209.81 82 217.76 80 223.61C79.49 225.07 79 226.4 78.7 227.61C78.4 228.82 78 229.79 77.78 230.61L77.23 232.52C77.1735 232.737 77.0965 232.948 77 233.15Z" fill="white"/>
<path d="M103.36 229.54C103.046 229.749 102.711 229.923 102.36 230.06C101.68 230.36 100.7 230.78 99.47 231.27C97.02 232.27 93.6 233.54 89.76 234.79C85.92 236.04 82.41 237.02 79.85 237.67C78.56 237.99 77.52 238.23 76.85 238.38C76.4788 238.488 76.0961 238.552 75.71 238.57C76.0565 238.399 76.4225 238.272 76.8 238.19L79.8 237.31C82.33 236.58 85.8 235.54 89.65 234.31C93.5 233.08 96.91 231.85 99.39 230.95L102.33 229.89C102.657 229.73 103.003 229.612 103.36 229.54Z" fill="white"/>
<path d="M91.8103 226.57C91.4449 224.567 91.2575 222.536 91.2503 220.5C91.0709 218.471 91.0709 216.429 91.2503 214.4C91.6046 216.404 91.7919 218.435 91.8103 220.47C91.9777 222.5 91.9777 224.54 91.8103 226.57Z" fill="white"/>
<path d="M100.16 223.15C100.02 223.15 99.5402 216.34 99.1002 207.92C98.6602 199.5 98.4102 192.66 98.5502 192.66C98.6902 192.66 99.1702 199.47 99.6202 207.89C100.07 216.31 100.31 223.14 100.16 223.15Z" fill="white"/>
<path d="M109.75 215.7C109.628 215.14 109.547 214.572 109.51 214C109.38 212.9 109.23 211.31 109.07 209.34C108.73 205.41 108.37 199.96 108.01 193.94C107.65 187.92 107.34 182.56 107.1 178.54C106.99 176.63 106.89 175.06 106.82 173.87C106.772 173.298 106.772 172.722 106.82 172.15C106.941 172.71 107.021 173.278 107.06 173.85C107.19 174.95 107.34 176.54 107.51 178.51C107.84 182.45 108.21 187.9 108.57 193.91C108.93 199.92 109.24 205.29 109.47 209.32C109.59 211.22 109.68 212.79 109.75 213.98C109.799 214.552 109.799 215.128 109.75 215.7Z" fill="white"/>
<path d="M127.59 292.39C127.577 292.294 127.577 292.196 127.59 292.1V291.23C127.59 290.44 127.51 289.33 127.45 287.92C127.33 285 127.16 280.84 126.96 275.71C126.52 265.41 125.78 251.18 124.65 235.49C123.52 219.8 122.14 205.61 121 195.36C120.43 190.24 119.94 186.09 119.58 183.23C119.41 181.83 119.28 180.73 119.18 179.93C119.18 179.58 119.12 179.3 119.09 179.07C119.081 178.974 119.081 178.876 119.09 178.78C119.123 178.874 119.147 178.971 119.16 179.07C119.16 179.29 119.24 179.57 119.3 179.92C119.41 180.71 119.58 181.81 119.79 183.2C120.21 186.06 120.79 190.2 121.37 195.32C122.61 205.56 124.04 219.75 125.17 235.45C126.3 251.15 126.99 265.39 127.33 275.7C127.52 280.85 127.61 285.03 127.66 287.91C127.66 289.32 127.66 290.44 127.66 291.23V292.1C127.652 292.2 127.629 292.298 127.59 292.39Z" fill="white"/>
<path d="M110.11 273.72C109.898 270.558 109.862 267.386 110 264.22C109.964 261.051 110.104 257.883 110.42 254.73C110.625 257.892 110.659 261.064 110.52 264.23C110.556 267.398 110.419 270.566 110.11 273.72Z" fill="white"/>
<path d="M106.21 296.77C106.178 295.768 106.228 294.764 106.36 293.77C106.51 291.94 106.7 289.41 106.85 286.62C107 283.83 107.09 281.28 107.15 279.45C107.12 278.447 107.177 277.443 107.32 276.45C107.484 277.441 107.547 278.446 107.51 279.45C107.51 281.29 107.51 283.84 107.37 286.65C107.23 289.46 106.97 291.99 106.73 293.81C106.654 294.811 106.48 295.803 106.21 296.77Z" fill="white"/>
<path d="M91.49 280.12C91.4323 279.12 91.4591 278.116 91.57 277.12C91.69 275.28 91.89 272.74 92.14 269.94C92.39 267.14 92.65 264.61 92.86 262.78C92.9211 261.785 93.0717 260.798 93.31 259.83C93.3675 260.831 93.3408 261.834 93.23 262.83C93.11 264.67 92.91 267.21 92.66 270.01C92.41 272.81 92.15 275.34 91.94 277.17C91.8777 278.165 91.7271 279.152 91.49 280.12Z" fill="white"/>
<path d="M87.0001 294.63C86.9071 292.593 86.9908 290.552 87.2501 288.53C87.3415 286.492 87.6024 284.465 88.0301 282.47C88.1163 284.507 88.0294 286.548 87.7701 288.57C87.6856 290.608 87.428 292.635 87.0001 294.63Z" fill="white"/>
<path d="M74.3802 288.42C74.3316 288.088 74.3316 287.752 74.3802 287.42C74.3802 286.78 74.4902 285.86 74.6002 284.73C74.8202 282.46 75.1902 279.33 75.6702 275.89C76.1502 272.45 76.6702 269.33 77.0702 267.09C77.2802 265.97 77.4602 265.09 77.5902 264.44C77.6319 264.095 77.7228 263.759 77.8602 263.44C77.8789 263.775 77.8554 264.111 77.7902 264.44C77.6902 265.18 77.5702 266.07 77.4402 267.11C77.1002 269.5 76.6602 272.55 76.1802 275.92C75.7002 279.29 75.3002 282.34 74.9702 284.73L74.5802 287.4C74.559 287.747 74.4917 288.09 74.3802 288.42Z" fill="white"/>
<path d="M142.72 286.74C142.72 286.74 142.72 286.66 142.67 286.48C142.62 286.3 142.61 286.02 142.56 285.71L142.23 282.71L141.06 271.71C140.06 262.43 138.67 249.71 137.15 235.57C135.63 221.43 134.05 208.72 132.98 199.44C132.45 194.85 131.98 191.12 131.7 188.49C131.56 187.23 131.45 186.24 131.38 185.49C131.38 185.17 131.32 184.91 131.3 184.71C131.287 184.62 131.287 184.529 131.3 184.44L131.36 184.7C131.36 184.91 131.43 185.16 131.48 185.47C131.58 186.19 131.72 187.19 131.9 188.47C132.25 191.09 132.74 194.81 133.35 199.4C134.53 208.63 136.09 221.4 137.66 235.51C139.23 249.62 140.54 262.41 141.43 271.68L142.43 282.68C142.53 283.95 142.61 284.95 142.67 285.68C142.67 286 142.67 286.25 142.72 286.46C142.735 286.553 142.735 286.647 142.72 286.74Z" fill="white"/>
<g opacity="0.3">
<path d="M126.22 249.12C125.11 243.23 123.62 236.72 118.68 233.33L122.01 247.33C122.365 248.36 122.365 249.48 122.01 250.51C121.43 251.78 119.93 252.31 118.59 252.7C102.812 257.405 86.7883 261.24 70.5903 264.19C79.5903 268.57 90.5903 267 100.25 264.31C107.504 262.31 114.674 260.04 121.76 257.5C123.26 256.96 124.86 256.34 125.76 255.03C126.92 253.35 126.59 251.11 126.22 249.12Z" fill="black"/>
</g>
<g opacity="0.3">
<path d="M95.4 204.47C90.7097 212.72 86.661 221.319 83.29 230.19H84.04C89.04 229.03 93.04 224.7 94.74 219.82C96.44 214.94 96.29 209.58 95.4 204.47Z" fill="black"/>
</g>
<path d="M146.24 289.05C145.451 288.283 144.487 287.72 143.43 287.41C142.195 287.06 140.9 286.978 139.63 287.17C137.95 287.467 136.329 288.034 134.83 288.85C130.952 291.115 126.863 292.997 122.62 294.47C117.383 296.189 111.921 297.126 106.41 297.25C100.898 297.391 95.3922 296.769 90.0504 295.4C85.7044 294.25 81.4989 292.624 77.5104 290.55C74.8428 289.12 72.3005 287.467 69.9104 285.61L68.0004 284C67.7737 283.825 67.5598 283.635 67.3604 283.43C67.6078 283.577 67.845 283.741 68.0704 283.92L70.0704 285.42C72.4989 287.197 75.0559 288.791 77.7204 290.19C81.7021 292.205 85.8896 293.784 90.2104 294.9C95.5098 296.236 100.967 296.841 106.43 296.7C111.882 296.577 117.288 295.667 122.48 294C126.706 292.562 130.785 290.724 134.66 288.51C136.202 287.696 137.868 287.142 139.59 286.87C140.9 286.696 142.231 286.812 143.49 287.21C144.286 287.456 145.021 287.864 145.65 288.41C145.876 288.595 146.075 288.81 146.24 289.05Z" fill="#263238"/>
<g opacity="0.3">
<path d="M119 167.78L117.53 178.78L93.5303 164.1C100.451 173.047 109.351 180.269 119.53 185.2L120.94 172.67L124.75 176.03C123.568 172.835 121.588 169.995 119 167.78Z" fill="black"/>
</g>
<path d="M147.8 202.38L139.17 208.28V215.4C141.49 213.85 142.8 212.01 145.17 210.46C146 209.9 146.81 208.2 147.4 207.39C148.59 205.64 148.22 204 147.8 202.38Z" fill="#FFBE9D"/>
<path d="M154 228.17C152.146 228.155 150.315 227.757 148.622 227.002C146.929 226.246 145.41 225.15 144.16 223.78C142.934 222.388 142.069 220.716 141.641 218.911C141.214 217.106 141.238 215.224 141.71 213.43C142.225 211.648 143.239 210.05 144.631 208.824C146.023 207.598 147.737 206.795 149.57 206.51L150.72 210.2C150.72 210.2 145 213 146.09 218C147.18 223 154.29 223.53 154.29 223.53L154 228.17Z" fill="#1E4646"/>
<path d="M149.39 205.36L152.06 231.72H174L176.98 205.38L149.39 205.36Z" fill="#1E4646"/>
<path d="M148.81 219.35C147.52 219.24 146.21 219.01 146.13 218.56L145.98 217.66C145.98 217.66 150.62 217.07 150.92 216.02C151.007 215.328 150.963 214.626 150.79 213.95C150.704 213.48 150.523 213.033 150.259 212.634C149.996 212.236 149.654 211.895 149.255 211.631C148.857 211.368 148.409 211.188 147.939 211.102C147.469 211.016 146.986 211.025 146.52 211.13H146.46C145.471 211.366 144.47 211.547 143.46 211.67L139.72 210.62L139.27 208.23L129.55 214.66L115.82 224L119.41 235.85L126.83 231.7C126.83 231.7 142.99 232.59 144.04 232C145.09 231.41 145.68 228.71 145.68 228.71C145.68 228.71 150.62 226.46 150.02 224.71C150.353 224.325 150.654 223.914 150.92 223.48C151.163 223.083 151.3 222.63 151.317 222.165C151.335 221.7 151.233 221.239 151.021 220.824C150.81 220.41 150.495 220.057 150.108 219.799C149.721 219.541 149.274 219.386 148.81 219.35Z" fill="#FFBE9D"/>
<path d="M167.75 219.58C167.635 218.745 167.608 217.9 167.67 217.06C167.67 215.51 167.78 213.36 167.8 211C167.842 209.901 167.789 208.8 167.64 207.71C167.538 206.85 167.099 206.066 166.42 205.53C165.958 205.174 165.382 205 164.8 205.04C164.39 205.04 164.18 205.21 164.15 205.17C164.12 205.13 164.31 204.96 164.76 204.84C165.082 204.777 165.413 204.779 165.734 204.846C166.056 204.913 166.36 205.044 166.63 205.23C167.025 205.508 167.359 205.863 167.614 206.274C167.868 206.685 168.037 207.142 168.11 207.62C168.294 208.737 168.364 209.869 168.32 211C168.32 213.38 168.15 215.53 168.04 217.08C168.031 217.921 167.934 218.759 167.75 219.58Z" fill="#263238"/>
<path d="M170.63 218.7L165.57 218.67L164.15 221.52V227.63H171.47L171.73 221.52L170.63 218.7Z" fill="#E0E0E0"/>
<path d="M160.7 173.92C160.808 173.936 160.911 173.977 161 174.04C161.274 174.196 161.512 174.408 161.7 174.66C162.022 175.145 162.233 175.695 162.316 176.271C162.399 176.847 162.352 177.434 162.18 177.99C161.85 179.42 160.8 180.83 160.27 182.56C159.974 183.443 159.995 184.401 160.33 185.27C160.807 186.175 161.403 187.012 162.1 187.76C162.876 188.577 163.346 189.637 163.43 190.76C163.387 191.794 163.039 192.793 162.43 193.63C161.35 195.22 160.09 196.35 159.54 197.63C159.308 198.115 159.187 198.647 159.187 199.185C159.187 199.723 159.308 200.255 159.54 200.74C159.741 201.084 159.998 201.391 160.3 201.65C160.3 201.65 160.19 201.65 160 201.52C159.744 201.338 159.526 201.107 159.36 200.84C159.079 200.33 158.921 199.761 158.9 199.179C158.879 198.597 158.996 198.019 159.24 197.49C159.78 196.1 161.06 194.9 162.06 193.39C162.593 192.621 162.892 191.715 162.92 190.78C162.824 189.784 162.394 188.85 161.7 188.13C160.961 187.349 160.341 186.462 159.86 185.5C159.487 184.538 159.47 183.474 159.81 182.5C160.42 180.65 161.47 179.3 161.81 177.96C161.988 177.451 162.055 176.91 162.004 176.373C161.954 175.837 161.789 175.317 161.52 174.85C161.297 174.499 161.02 174.185 160.7 173.92Z" fill="#263238"/>
<path d="M167.25 173.92C167.358 173.936 167.461 173.977 167.55 174.04C167.824 174.196 168.062 174.408 168.25 174.66C168.567 175.147 168.774 175.697 168.857 176.272C168.94 176.847 168.897 177.433 168.73 177.99C168.39 179.42 167.35 180.83 166.82 182.56C166.521 183.442 166.539 184.4 166.87 185.27C167.351 186.175 167.95 187.012 168.65 187.76C169.426 188.577 169.896 189.637 169.98 190.76C169.937 191.794 169.589 192.793 168.98 193.63C167.9 195.22 166.63 196.35 166.09 197.63C165.861 198.116 165.741 198.647 165.741 199.185C165.741 199.723 165.861 200.254 166.09 200.74C166.292 201.086 166.553 201.394 166.86 201.65C166.86 201.65 166.74 201.65 166.56 201.52C166.301 201.341 166.083 201.109 165.92 200.84C165.639 200.33 165.481 199.762 165.459 199.18C165.436 198.599 165.55 198.02 165.79 197.49C166.33 196.1 167.62 194.9 168.61 193.39C169.142 192.62 169.444 191.715 169.48 190.78C169.381 189.783 168.947 188.849 168.25 188.13C167.517 187.344 166.898 186.458 166.41 185.5C166.058 184.531 166.058 183.469 166.41 182.5C167.01 180.65 168.07 179.3 168.41 177.96C168.583 177.45 168.647 176.91 168.597 176.374C168.547 175.838 168.384 175.319 168.12 174.85C167.882 174.495 167.588 174.181 167.25 173.92Z" fill="#263238"/>
<path d="M167.17 225.42C167.717 225.474 168.265 225.336 168.72 225.03C169.169 224.668 169.456 224.143 169.52 223.57C169.588 222.854 169.434 222.135 169.08 221.51L168.92 221.23L169.27 221.32C168.643 221.643 168.059 222.043 167.53 222.51C167.12 222.877 166.827 223.357 166.69 223.89C166.603 224.397 166.666 224.918 166.87 225.39C166.87 225.39 166.7 225.32 166.55 225.06C166.351 224.683 166.277 224.252 166.34 223.83C166.44 223.2 166.738 222.619 167.19 222.17C167.734 221.651 168.351 221.213 169.02 220.87L169.24 220.74L169.37 220.96L169.54 221.27C169.947 221.992 170.105 222.829 169.99 223.65C169.941 223.99 169.82 224.315 169.635 224.605C169.451 224.894 169.207 225.141 168.92 225.33C168.535 225.578 168.074 225.681 167.62 225.62C167.3 225.56 167.16 225.45 167.17 225.42Z" fill="#263238"/>
<path d="M168.84 223C168.94 223.11 168.29 223.84 167.67 224.86C167.05 225.88 166.67 226.78 166.52 226.74C166.497 225.961 166.744 225.197 167.22 224.58C167.89 223.47 168.75 222.86 168.84 223Z" fill="#263238"/>
<path d="M136.29 198.07C136.311 196.433 136.197 194.798 135.95 193.18C135.48 190.18 133.95 186.27 131.95 182.07C129.95 177.87 128.25 174.07 127.02 171.23C126.44 169.91 125.96 168.8 125.58 167.92C125.379 167.526 125.225 167.11 125.12 166.68C125.373 167.043 125.587 167.432 125.76 167.84C126.18 168.69 126.76 169.78 127.35 171.08C128.67 173.82 130.47 177.63 132.42 181.85C134.37 186.07 135.91 190.06 136.29 193.13C136.473 194.327 136.53 195.541 136.46 196.75C136.457 197.195 136.4 197.638 136.29 198.07Z" fill="#263238"/>
<path d="M441.74 432.16C442.028 433.938 442.588 435.662 443.4 437.27C444.55 439.18 444.8 443.14 444.68 445.7C444.56 448.26 444.42 455.27 445.44 457.32C446.46 459.37 449.57 463.32 450.44 466.38C451.31 469.44 451.59 473.66 450.44 476.38C449.29 479.1 448.26 483.02 446.44 483.66C444.62 484.3 439.16 483.66 439.16 483.66C439.16 483.66 439.16 481.75 439.93 481.11C440.7 480.47 443.38 479.19 443.63 477.11C443.88 475.03 444.27 471.62 444.27 471.62C444.27 471.62 437.76 468.94 434.44 465.74C431.12 462.54 426.91 458.03 426.91 458.03C426.213 460.626 425.314 463.164 424.22 465.62C423.795 466.449 423.574 467.368 423.574 468.3C423.574 469.232 423.795 470.15 424.22 470.98C424.61 471.87 419.75 477.2 414.39 481.2C409.03 485.2 404.56 482.73 404.56 482.73C404.56 482.73 403.79 479.41 405.2 478.73C406.566 478.332 407.995 478.203 409.41 478.35C409.41 478.35 416.05 473.49 415.28 469.92C414.51 466.35 412.22 462.26 411.96 459.57C411.7 456.88 411.58 455.62 411.58 455.62C407.464 456.175 403.313 456.429 399.16 456.38C396.53 456.29 393.922 455.863 391.4 455.11C391.4 455.11 389.23 468.39 390.64 470.3C392.05 472.21 396.51 475.79 396.9 478.22C397.29 480.65 396.64 484.15 393.83 483.87C391.02 483.59 391.15 481.87 391.28 479.62C389.528 477.911 387.904 476.076 386.42 474.13C385.53 472.6 380.68 459.19 380.68 459.19C380.68 459.19 373.14 473.75 372.89 476.3C372.794 477.21 372.49 478.086 372.003 478.861C371.516 479.635 370.858 480.288 370.08 480.77C369.57 480.9 368.42 485.16 366.63 485.16C364.572 485.012 362.525 484.742 360.5 484.35C360.5 484.35 360.63 481.54 362.5 480.65C364.37 479.76 367.1 479.37 367.1 475.65C367.1 471.93 369.27 457.38 369.1 456.87C368.93 456.36 365.02 449.08 364.38 446.53C363.74 443.98 362.38 438.1 362.38 438.1C362.38 438.1 359.82 430.1 357.78 428.01C355.74 425.92 352.78 426.01 350.63 425.71C348.48 425.41 348.35 424.56 347.69 423.16C347.03 421.76 345.54 418.69 346.29 418.31C347.04 417.93 351.01 416.26 351.52 415.5C352.03 414.74 352.42 413.07 354.08 412.43C355.74 411.79 359.82 409.11 361.87 409.11C363.92 409.11 367.87 412.69 368.76 413.45C370.496 415.082 372.116 416.833 373.61 418.69C375.02 420.48 376.04 425.33 381.28 425.46C386.52 425.59 431.59 426.61 433.76 425.33C435.93 424.05 438.76 425.46 439.64 415.11C440.52 404.76 441.04 398 439.89 396.34C438.74 394.68 439.89 394.34 437.72 393.92C435.55 393.5 432.87 393.02 432.1 391.49C431.33 389.96 431.85 387.69 433.89 387.69C435.93 387.69 445.38 387.69 446.89 400.17C448.4 412.65 444.34 420.48 443.45 425.33C442.56 430.18 441.29 430.16 441.74 432.16Z" fill="#263238"/>
<path d="M407.9 454.89C408.908 454.915 409.915 454.817 410.9 454.6C411.964 454.322 413.012 453.988 414.04 453.6C415.322 453.096 416.668 452.777 418.04 452.65C419.448 452.598 420.846 452.897 422.11 453.52C423.133 454.01 424.076 454.651 424.91 455.42C425.476 455.922 425.991 456.478 426.45 457.08C426.78 457.5 426.93 457.76 426.9 457.78C426.87 457.8 426.11 456.89 424.67 455.69C423.829 454.993 422.901 454.408 421.91 453.95C420.711 453.386 419.394 453.119 418.07 453.17C416.736 453.293 415.425 453.592 414.17 454.06C413.135 454.441 412.076 454.755 411 455C410.254 455.158 409.489 455.202 408.73 455.13C408.441 455.101 408.16 455.019 407.9 454.89Z" fill="#455A64"/>
<path d="M367.41 414.83C366.776 411.489 365.675 408.254 364.14 405.22C363.96 404.87 363.73 404.49 363.34 404.43C362.76 404.36 362.42 405.05 362.28 405.62C361.903 407.107 361.668 408.628 361.58 410.16" fill="#263238"/>
<path d="M359.31 410.26C358.956 408.921 358.248 407.701 357.26 406.73C356.99 406.47 356.62 406.2 356.26 406.35C355.9 406.5 355.84 406.91 355.8 407.27C355.652 408.935 355.679 410.611 355.88 412.27" fill="#263238"/>
<path d="M347 421.25C347.687 420.92 348.224 420.341 348.5 419.63C348.655 418.907 348.526 418.151 348.14 417.52C348.14 417.52 346.35 418.06 346.22 418.58C346.09 419.1 347 421.25 347 421.25Z" fill="#455A64"/>
<path d="M362.27 409.82C362.209 409.302 362.243 408.776 362.37 408.27C362.46 407.71 362.55 407.16 362.63 406.6C362.65 406.416 362.701 406.237 362.78 406.07C362.81 406.004 362.852 405.944 362.906 405.894C362.959 405.844 363.021 405.806 363.09 405.78C363.173 405.752 363.262 405.747 363.348 405.764C363.434 405.782 363.514 405.822 363.58 405.88C363.722 406.045 363.824 406.24 363.88 406.45L364.06 406.97C364.451 408.168 364.687 409.412 364.76 410.67C364.815 411.065 364.77 411.467 364.63 411.84C364.5 412.11 364.34 412.19 364.32 412.16C364.3 412.13 364.38 412.02 364.44 411.78C364.484 411.423 364.467 411.061 364.39 410.71C364.215 409.495 363.938 408.298 363.56 407.13L363.39 406.62C363.353 406.493 363.3 406.372 363.23 406.26C363.163 406.399 363.12 406.548 363.1 406.7L362.74 408.33C362.662 408.848 362.503 409.351 362.27 409.82Z" fill="#455A64"/>
<path d="M353.75 412.61C354.613 411.932 355.574 411.39 356.6 411C357.557 410.443 358.597 410.041 359.68 409.81C358.82 410.505 357.859 411.065 356.83 411.47C355.87 412.01 354.83 412.395 353.75 412.61Z" fill="#455A64"/>
<path d="M368.75 445.89C369.044 446.85 369.432 447.778 369.91 448.66C371.221 450.695 372.92 452.452 374.91 453.83C376.07 454.6 377.38 455.13 378.37 455.95C379.261 456.654 379.991 457.54 380.51 458.55C380.855 459.221 381.133 459.925 381.34 460.65C381.436 460.907 381.493 461.177 381.51 461.45C381.41 461.45 381.1 460.35 380.19 458.73C379.652 457.798 378.935 456.982 378.08 456.33C377.13 455.58 375.86 455.07 374.62 454.27C372.578 452.845 370.872 450.992 369.62 448.84C369.261 448.175 369.001 447.461 368.85 446.72C368.758 446.454 368.724 446.171 368.75 445.89Z" fill="#455A64"/>
<path d="M366.55 443.27C366.71 443.27 366.72 444.77 367.31 446.48C367.9 448.19 368.78 449.39 368.66 449.48C367.751 448.761 367.105 447.763 366.82 446.64C366.371 445.575 366.276 444.393 366.55 443.27Z" fill="#455A64"/>
<path d="M358 415.71C358.002 415.887 357.952 416.06 357.855 416.207C357.758 416.355 357.62 416.471 357.458 416.539C357.295 416.608 357.116 416.627 356.943 416.594C356.769 416.561 356.61 416.477 356.484 416.353C356.359 416.229 356.273 416.07 356.238 415.897C356.203 415.725 356.22 415.545 356.287 415.382C356.354 415.219 356.468 415.079 356.615 414.981C356.761 414.883 356.934 414.83 357.11 414.83C357.344 414.83 357.569 414.922 357.736 415.087C357.903 415.252 357.998 415.476 358 415.71Z" fill="#455A64"/>
<path d="M359.1 416C358.99 416.12 358.23 415.27 356.99 415.32C356.497 415.38 356.048 415.632 355.74 416.02C355.44 416.31 355.25 416.51 355.19 416.47C355.13 416.43 355.19 416.17 355.45 415.79C355.594 415.558 355.777 415.351 355.99 415.18C356.266 414.936 356.621 414.801 356.99 414.8C357.611 414.775 358.218 414.986 358.69 415.39C359 415.65 359.15 415.9 359.1 416Z" fill="#455A64"/>
</svg>
