<svg width="48" height="48" viewBox="0 0 48 48" fill="none" xmlns="http://www.w3.org/2000/svg">
<path fill-rule="evenodd" clip-rule="evenodd" d="M23.7368 14C29.1055 14 33.4725 18.3676 33.4725 23.7372C33.4725 26.2705 32.5005 28.5811 30.9098 30.3152L34.0398 33.4391C34.3327 33.7321 34.3337 34.206 34.0408 34.499C33.8948 34.647 33.7019 34.72 33.5099 34.72C33.319 34.72 33.127 34.647 32.98 34.501L29.8122 31.3416C28.1458 32.6763 26.0329 33.4754 23.7368 33.4754C18.368 33.4754 14 29.1068 14 23.7372C14 18.3676 18.368 14 23.7368 14ZM23.7368 15.4999C19.1948 15.4999 15.4997 19.1946 15.4997 23.7372C15.4997 28.2798 19.1948 31.9755 23.7368 31.9755C28.2777 31.9755 31.9729 28.2798 31.9729 23.7372C31.9729 19.1946 28.2777 15.4999 23.7368 15.4999Z" fill="#5D5D5D"/>
</svg>
