<svg width="321" height="320" viewBox="0 0 321 320" fill="none" xmlns="http://www.w3.org/2000/svg">
<path opacity="0.7" d="M44.2252 106.937C44.2252 106.937 26.382 153.017 51.4572 199.417C76.5324 245.817 128.18 270.329 169.518 291.289C210.856 312.249 253.78 302.041 274.177 267.712C294.574 233.382 266.6 208.877 266.561 159.923C266.523 110.969 273.889 98.0094 247.361 56.6526C220.833 15.2958 155.803 6.13737 106.625 36.8126C57.4476 67.4878 44.2252 106.937 44.2252 106.937Z" fill="white"/>
<path d="M52.0267 101.068C70.4715 67.1101 116.872 27.4685 180.532 43.9805C244.193 60.4925 287.195 95.4237 280.148 156.198C273.102 216.972 236.065 267.468 156.27 268.947C76.4747 270.425 11.5787 175.532 52.0267 101.068Z" fill="#1E4646"/>
<path opacity="0.7" d="M52.0267 101.068C70.4715 67.1101 116.872 27.4685 180.532 43.9805C244.193 60.4925 287.195 95.4237 280.148 156.198C273.102 216.972 236.065 267.468 156.27 268.947C76.4747 270.425 11.5787 175.532 52.0267 101.068Z" fill="white"/>
<mask id="mask0_1025_2184" style="mask-type:luminance" maskUnits="userSpaceOnUse" x="127" y="86" width="113" height="25">
<path d="M147.681 106.4C147.681 106.4 156.398 96.4031 169.115 96.4031C169.115 96.4031 169.537 88.6463 178.216 86.9695C186.894 85.2927 188.577 93.0431 188.577 93.0431C188.577 93.0431 194.977 89.6383 203.604 93.0431C212.232 96.4479 210.465 106.368 210.465 106.368C210.465 106.368 235.31 105.561 239.572 110.112H127.924C127.924 110.112 130.177 104.544 147.681 106.4Z" fill="white"/>
</mask>
<g mask="url(#mask0_1025_2184)">
<path opacity="0.5" d="M147.681 106.4C147.681 106.4 156.398 96.4031 169.115 96.4031C169.115 96.4031 169.537 88.6463 178.216 86.9695C186.894 85.2927 188.577 93.0431 188.577 93.0431C188.577 93.0431 194.977 89.6383 203.604 93.0431C212.232 96.4479 210.465 106.368 210.465 106.368C210.465 106.368 235.31 105.561 239.572 110.112H127.924C127.924 110.112 130.177 104.544 147.681 106.4Z" stroke="#263238" stroke-linecap="round" stroke-linejoin="round"/>
</g>
<path d="M147.681 106.4C147.681 106.4 156.398 96.4031 169.115 96.4031C169.115 96.4031 169.537 88.6463 178.216 86.9695C186.894 85.2927 188.577 93.0431 188.577 93.0431C188.577 93.0431 194.977 89.6383 203.604 93.0431C212.232 96.4479 210.465 106.368 210.465 106.368C210.465 106.368 235.31 105.561 239.572 110.112H127.924C127.924 110.112 130.177 104.544 147.681 106.4Z" stroke="#263238" stroke-linecap="round" stroke-linejoin="round"/>
<mask id="mask1_1025_2184" style="mask-type:luminance" maskUnits="userSpaceOnUse" x="146" y="31" width="90" height="20">
<path d="M219.713 47.1297C219.713 47.1297 212.756 39.1617 202.619 39.1617C202.619 39.1617 202.28 32.9729 195.361 31.6353C188.443 30.2977 187.092 36.4801 187.092 36.4801C187.092 36.4801 181.972 33.7665 175.112 36.4801C168.251 39.1937 169.633 47.1105 169.633 47.1105C169.633 47.1105 149.793 46.4705 146.42 50.0929H235.47C235.47 50.0929 233.672 45.6513 219.713 47.1297Z" fill="white"/>
</mask>
<g mask="url(#mask1_1025_2184)">
<path opacity="0.5" d="M219.713 47.1297C219.713 47.1297 212.756 39.1617 202.619 39.1617C202.619 39.1617 202.28 32.9729 195.361 31.6353C188.443 30.2977 187.092 36.4801 187.092 36.4801C187.092 36.4801 181.972 33.7665 175.112 36.4801C168.251 39.1937 169.633 47.1105 169.633 47.1105C169.633 47.1105 149.793 46.4705 146.42 50.0929H235.47C235.47 50.0929 233.672 45.6513 219.713 47.1297Z" stroke="#263238" stroke-linecap="round" stroke-linejoin="round"/>
</g>
<path d="M219.713 47.1297C219.713 47.1297 212.756 39.1617 202.619 39.1617C202.619 39.1617 202.28 32.9729 195.361 31.6353C188.443 30.2977 187.092 36.4801 187.092 36.4801C187.092 36.4801 181.972 33.7665 175.112 36.4801C168.251 39.1937 169.633 47.1105 169.633 47.1105C169.633 47.1105 149.793 46.4705 146.42 50.0929H235.47C235.47 50.0929 233.672 45.6513 219.713 47.1297Z" stroke="#263238" stroke-linecap="round" stroke-linejoin="round"/>
<mask id="mask2_1025_2184" style="mask-type:luminance" maskUnits="userSpaceOnUse" x="48" y="65" width="54" height="12">
<path d="M58.286 74.8226C58.286 74.8226 62.414 70.0866 68.4428 70.0866C68.5563 68.9657 69.0423 67.9152 69.8231 67.1031C70.6039 66.291 71.6345 65.764 72.75 65.6066C76.8588 64.813 77.6588 68.4802 77.6588 68.4802C78.7821 67.9941 79.9932 67.7433 81.2172 67.7433C82.4412 67.7433 83.6522 67.9941 84.7756 68.4802C88.8588 70.093 88.0332 74.797 88.0332 74.797C88.0332 74.797 99.7964 74.413 101.819 76.5698H48.9292C48.9292 76.5698 49.9916 73.9394 58.286 74.8226Z" fill="white"/>
</mask>
<g mask="url(#mask2_1025_2184)">
<path opacity="0.5" d="M58.286 74.8226C58.286 74.8226 62.414 70.0866 68.4428 70.0866C68.5563 68.9657 69.0423 67.9152 69.8231 67.1031C70.6039 66.291 71.6345 65.764 72.75 65.6066C76.8588 64.813 77.6588 68.4802 77.6588 68.4802C78.7821 67.9941 79.9932 67.7433 81.2172 67.7433C82.4412 67.7433 83.6522 67.9941 84.7756 68.4802C88.8588 70.093 88.0332 74.797 88.0332 74.797C88.0332 74.797 99.7964 74.413 101.819 76.5698H48.9292C48.9292 76.5698 49.9916 73.9394 58.286 74.8226Z" stroke="#263238" stroke-linecap="round" stroke-linejoin="round"/>
</g>
<path d="M58.286 74.8226C58.286 74.8226 62.414 70.0866 68.4428 70.0866C68.5563 68.9657 69.0423 67.9152 69.8231 67.1031C70.6039 66.291 71.6345 65.764 72.75 65.6066C76.8588 64.813 77.6588 68.4802 77.6588 68.4802C78.7821 67.9941 79.9932 67.7433 81.2172 67.7433C82.4412 67.7433 83.6522 67.9941 84.7756 68.4802C88.8588 70.093 88.0332 74.797 88.0332 74.797C88.0332 74.797 99.7964 74.413 101.819 76.5698H48.9292C48.9292 76.5698 49.9916 73.9394 58.286 74.8226Z" stroke="#263238" stroke-linecap="round" stroke-linejoin="round"/>
<mask id="mask3_1025_2184" style="mask-type:luminance" maskUnits="userSpaceOnUse" x="112" y="174" width="54" height="13">
<path d="M121.531 184.269C121.531 184.269 125.659 179.533 131.687 179.533C131.8 178.412 132.285 177.361 133.066 176.548C133.847 175.736 134.879 175.209 135.995 175.053C140.103 174.272 140.91 177.92 140.91 177.92C142.033 177.434 143.244 177.183 144.468 177.183C145.692 177.183 146.903 177.434 148.027 177.92C152.11 179.527 151.284 184.237 151.284 184.237C151.284 184.237 163.047 183.853 165.07 186.01H112.174C112.174 186.01 113.236 183.386 121.531 184.269Z" fill="white"/>
</mask>
<g mask="url(#mask3_1025_2184)">
<path opacity="0.5" d="M121.531 184.269C121.531 184.269 125.659 179.533 131.687 179.533C131.8 178.412 132.285 177.361 133.066 176.548C133.847 175.736 134.879 175.209 135.995 175.053C140.103 174.272 140.91 177.92 140.91 177.92C142.033 177.434 143.244 177.183 144.468 177.183C145.692 177.183 146.903 177.434 148.027 177.92C152.11 179.527 151.284 184.237 151.284 184.237C151.284 184.237 163.047 183.853 165.07 186.01H112.174C112.174 186.01 113.236 183.386 121.531 184.269Z" stroke="#263238" stroke-linecap="round" stroke-linejoin="round"/>
</g>
<path d="M121.531 184.269C121.531 184.269 125.659 179.533 131.687 179.533C131.8 178.412 132.285 177.361 133.066 176.548C133.847 175.736 134.879 175.209 135.995 175.053C140.103 174.272 140.91 177.92 140.91 177.92C142.033 177.434 143.244 177.183 144.468 177.183C145.692 177.183 146.903 177.434 148.027 177.92C152.11 179.527 151.284 184.237 151.284 184.237C151.284 184.237 163.047 183.853 165.07 186.01H112.174C112.174 186.01 113.236 183.386 121.531 184.269Z" stroke="#263238" stroke-linecap="round" stroke-linejoin="round"/>
<path d="M73.9725 124.237L73.9085 114.253C73.8848 113.908 73.7313 113.585 73.4788 113.35C73.2264 113.114 72.8939 112.983 72.5485 112.983C72.2031 112.983 71.8706 113.114 71.6181 113.35C71.3657 113.585 71.2121 113.908 71.1885 114.253V117.523" stroke="#263238" stroke-linecap="round" stroke-linejoin="round"/>
<path d="M71.1115 126.906L71.0859 130.573" stroke="#263238" stroke-linecap="round" stroke-linejoin="round"/>
<path d="M74.5422 212.922L74.0366 134.336" stroke="#263238" stroke-linecap="round" stroke-linejoin="round"/>
<path d="M71.041 137.479L70.561 212.922" stroke="#263238" stroke-linecap="round" stroke-linejoin="round"/>
<path d="M106.99 131.2L77.9277 124.998L76.3277 127.251L75.1693 127.13L62.8749 97.6897C62.7912 97.4875 62.6328 97.3253 62.4327 97.2368C62.2325 97.1483 62.006 97.1403 61.8001 97.2144C61.5942 97.2885 61.4247 97.4391 61.3269 97.6348C61.2291 97.8306 61.2105 98.0565 61.2749 98.2656L69.7741 126.746L72.5197 127.059L72.9549 128.102L53.4733 153.427C53.354 153.6 53.3026 153.81 53.3291 154.019C53.3555 154.227 53.4579 154.418 53.6166 154.555C53.7753 154.692 53.9791 154.766 54.1889 154.762C54.3987 154.759 54.5996 154.677 54.7533 154.534L75.2717 133.03L74.1837 130.47L74.9069 129.536L106.734 132.89C106.845 132.906 106.958 132.901 107.067 132.874C107.176 132.847 107.279 132.799 107.369 132.733C107.459 132.666 107.536 132.582 107.594 132.486C107.652 132.39 107.69 132.284 107.707 132.173C107.724 132.062 107.718 131.949 107.692 131.84C107.665 131.731 107.617 131.628 107.55 131.538C107.483 131.448 107.4 131.371 107.304 131.313C107.208 131.255 107.101 131.217 106.99 131.2Z" stroke="#263238" stroke-linecap="round" stroke-linejoin="round"/>
<path d="M74.542 128.979C75.0015 128.979 75.374 128.607 75.374 128.147C75.374 127.688 75.0015 127.315 74.542 127.315C74.0825 127.315 73.71 127.688 73.71 128.147C73.71 128.607 74.0825 128.979 74.542 128.979Z" stroke="#263238" stroke-linecap="round" stroke-linejoin="round"/>
<path d="M100.731 158.752L100.68 150.848C100.68 150.563 100.566 150.29 100.365 150.088C100.163 149.886 99.8897 149.773 99.6045 149.773C99.3193 149.773 99.0459 149.886 98.8442 150.088C98.6426 150.29 98.5293 150.563 98.5293 150.848V153.44" stroke="#263238" stroke-linecap="round" stroke-linejoin="round"/>
<path d="M98.4655 160.864L98.4463 163.757" stroke="#263238" stroke-linecap="round" stroke-linejoin="round"/>
<path d="M101.179 228.902L100.782 166.739" stroke="#263238" stroke-linecap="round" stroke-linejoin="round"/>
<path d="M98.4143 169.223L98.0303 228.903" stroke="#263238" stroke-linecap="round" stroke-linejoin="round"/>
<path d="M126.868 164.275L103.873 159.36L102.593 161.146L101.672 161.05L91.95 137.754C91.9201 137.669 91.8729 137.592 91.8113 137.527C91.7498 137.462 91.6753 137.411 91.5926 137.377C91.51 137.342 91.4211 137.326 91.3316 137.328C91.2422 137.33 91.1541 137.351 91.0732 137.389C90.9194 137.454 90.7948 137.574 90.7229 137.725C90.651 137.876 90.6367 138.048 90.6828 138.208L97.4092 160.736L99.5788 160.986L99.9244 161.811L84.5004 181.831C84.3842 181.966 84.3266 182.143 84.3404 182.321C84.3542 182.499 84.4382 182.665 84.574 182.781C84.7098 182.897 84.8862 182.955 85.0645 182.941C85.2427 182.927 85.4082 182.843 85.5244 182.707L101.748 165.696L100.891 163.687L101.46 162.944L126.638 165.594C126.727 165.608 126.817 165.604 126.904 165.581C126.991 165.558 127.072 165.518 127.142 165.462C127.212 165.405 127.269 165.335 127.31 165.256C127.351 165.176 127.375 165.088 127.38 164.999C127.397 164.837 127.355 164.674 127.261 164.541C127.166 164.408 127.027 164.313 126.868 164.275Z" stroke="#263238" stroke-linecap="round" stroke-linejoin="round"/>
<path d="M101.87 161.843C101.87 161.97 101.832 162.093 101.762 162.199C101.692 162.304 101.592 162.386 101.475 162.434C101.358 162.483 101.229 162.496 101.105 162.471C100.981 162.446 100.867 162.385 100.777 162.296C100.688 162.206 100.627 162.092 100.602 161.968C100.577 161.844 100.59 161.715 100.639 161.598C100.687 161.481 100.769 161.381 100.874 161.311C100.98 161.241 101.103 161.203 101.23 161.203C101.4 161.203 101.562 161.271 101.682 161.391C101.802 161.511 101.87 161.673 101.87 161.843Z" stroke="#263238" stroke-linecap="round" stroke-linejoin="round"/>
<path d="M241.127 124.237L241.191 114.253C241.215 113.908 241.369 113.585 241.621 113.35C241.874 113.114 242.206 112.983 242.551 112.983C242.897 112.983 243.229 113.114 243.482 113.35C243.734 113.585 243.888 113.908 243.911 114.253V117.523" stroke="#263238" stroke-linecap="round" stroke-linejoin="round"/>
<path d="M243.988 126.906L244.014 130.573" stroke="#263238" stroke-linecap="round" stroke-linejoin="round"/>
<path d="M240.558 212.922L241.064 134.336" stroke="#263238" stroke-linecap="round" stroke-linejoin="round"/>
<path d="M244.059 137.479L244.539 212.922" stroke="#263238" stroke-linecap="round" stroke-linejoin="round"/>
<path d="M208.11 131.2L237.173 124.998L238.773 127.251L239.931 127.13L252.225 97.6897C252.309 97.4875 252.467 97.3253 252.668 97.2368C252.868 97.1483 253.094 97.1403 253.3 97.2144C253.506 97.2885 253.675 97.4391 253.773 97.6348C253.871 97.8306 253.89 98.0565 253.825 98.2656L245.326 126.746L242.581 127.059L242.145 128.102L261.646 153.414C261.765 153.587 261.817 153.798 261.79 154.006C261.764 154.214 261.661 154.405 261.503 154.542C261.344 154.679 261.14 154.753 260.931 154.75C260.721 154.746 260.52 154.665 260.366 154.522L239.848 133.018L240.936 130.458L240.213 129.523L208.385 132.877C208.17 132.899 207.954 132.838 207.782 132.706C207.609 132.574 207.494 132.382 207.459 132.168C207.424 131.954 207.472 131.735 207.593 131.555C207.714 131.375 207.899 131.248 208.11 131.2Z" stroke="#263238" stroke-linecap="round" stroke-linejoin="round"/>
<path d="M240.558 128.979C241.018 128.979 241.39 128.607 241.39 128.147C241.39 127.688 241.018 127.315 240.558 127.315C240.099 127.315 239.726 127.688 239.726 128.147C239.726 128.607 240.099 128.979 240.558 128.979Z" stroke="#263238" stroke-linecap="round" stroke-linejoin="round"/>
<path d="M214.369 158.752L214.42 150.848C214.42 150.563 214.534 150.29 214.735 150.088C214.937 149.886 215.21 149.773 215.496 149.773C215.781 149.773 216.054 149.886 216.256 150.088C216.457 150.29 216.571 150.563 216.571 150.848V153.44" stroke="#263238" stroke-linecap="round" stroke-linejoin="round"/>
<path d="M216.635 160.864L216.654 163.757" stroke="#263238" stroke-linecap="round" stroke-linejoin="round"/>
<path d="M213.921 228.902L214.318 166.739" stroke="#263238" stroke-linecap="round" stroke-linejoin="round"/>
<path d="M216.686 169.223L217.07 228.903" stroke="#263238" stroke-linecap="round" stroke-linejoin="round"/>
<path d="M188.231 164.275L211.227 159.36L212.507 161.146L213.428 161.05L223.15 137.754C223.18 137.669 223.227 137.592 223.289 137.527C223.35 137.462 223.425 137.411 223.507 137.377C223.59 137.342 223.679 137.326 223.768 137.328C223.858 137.33 223.946 137.351 224.027 137.389C224.18 137.454 224.305 137.574 224.377 137.725C224.449 137.876 224.463 138.048 224.417 138.208L217.691 160.736L215.521 160.986L215.175 161.811L230.599 181.831C230.716 181.966 230.773 182.143 230.759 182.321C230.746 182.499 230.662 182.665 230.526 182.781C230.39 182.897 230.214 182.955 230.035 182.941C229.857 182.927 229.692 182.843 229.575 182.707L213.351 165.696L214.209 163.687L213.639 162.944L188.462 165.594C188.373 165.608 188.283 165.604 188.196 165.581C188.109 165.558 188.028 165.518 187.958 165.462C187.888 165.405 187.831 165.335 187.79 165.256C187.748 165.176 187.725 165.088 187.719 164.999C187.703 164.837 187.745 164.674 187.839 164.541C187.934 164.408 188.073 164.313 188.231 164.275Z" stroke="#263238" stroke-linecap="round" stroke-linejoin="round"/>
<path d="M213.262 161.843C213.262 161.97 213.3 162.093 213.37 162.199C213.44 162.304 213.54 162.386 213.657 162.434C213.774 162.483 213.903 162.496 214.027 162.471C214.151 162.446 214.265 162.385 214.355 162.296C214.444 162.206 214.505 162.092 214.53 161.968C214.555 161.844 214.542 161.715 214.493 161.598C214.445 161.481 214.363 161.381 214.258 161.311C214.153 161.241 214.029 161.203 213.902 161.203C213.732 161.203 213.57 161.271 213.45 161.391C213.33 161.511 213.262 161.673 213.262 161.843Z" stroke="#263238" stroke-linecap="round" stroke-linejoin="round"/>
<path d="M20.4878 203.59C20.4878 203.59 21.7294 206.867 25.6078 211.91C30.619 218.477 40.091 228.032 57.0702 237.197C87.0222 253.389 105.979 280.294 105.979 280.294L123.406 224.749C123.406 224.749 115.656 224.185 104.75 216.429C97.307 211.2 88.4302 202.611 79.5598 188.646C57.6206 154.144 34.6702 146.662 34.6702 146.662" fill="white"/>
<mask id="mask4_1025_2184" style="mask-type:luminance" maskUnits="userSpaceOnUse" x="20" y="146" width="104" height="135">
<path d="M20.4878 203.59C20.4878 203.59 21.7294 206.867 25.6078 211.91C30.619 218.477 40.091 228.032 57.0702 237.197C87.0222 253.389 105.979 280.294 105.979 280.294L123.406 224.749C123.406 224.749 115.656 224.185 104.75 216.429C97.307 211.2 88.4302 202.611 79.5598 188.646C57.6206 154.144 34.6702 146.662 34.6702 146.662" fill="white"/>
</mask>
<g mask="url(#mask4_1025_2184)">
<path opacity="0.4" d="M25.5884 211.91C30.6188 218.477 40.0908 228.032 57.07 237.197C87.022 253.389 105.979 280.294 105.979 280.294L123.406 224.749C123.406 224.749 115.656 224.185 104.75 216.429C95.822 216.185 77.3132 222.246 67.8604 231.379C67.8284 231.392 45.9916 220.32 25.5884 211.91Z" fill="#1E4646"/>
<path d="M83.2139 223.865C83.2139 223.865 93.8699 233.068 99.8539 233.369" stroke="#263238" stroke-linecap="round" stroke-linejoin="round"/>
<path d="M51.9502 234.534C59.547 238.227 70.6894 242.355 74.7406 244.467" stroke="#263238" stroke-linecap="round" stroke-linejoin="round"/>
<path d="M81.083 191.136C83.1437 195.394 85.5744 199.463 88.347 203.296" stroke="#263238" stroke-linecap="round" stroke-linejoin="round"/>
</g>
<path d="M20.4878 203.59C20.4878 203.59 21.7294 206.867 25.6078 211.91C30.619 218.477 40.091 228.032 57.0702 237.197C87.0222 253.389 105.979 280.294 105.979 280.294L123.406 224.749C123.406 224.749 115.656 224.185 104.75 216.429C97.307 211.2 88.4302 202.611 79.5598 188.646C57.6206 154.144 34.6702 146.662 34.6702 146.662" stroke="#263238" stroke-linecap="round" stroke-linejoin="round"/>
<path d="M298.734 198.47C298.734 198.47 297.493 201.747 293.614 206.79C288.584 213.356 279.112 222.912 262.165 232.076C232.213 248.268 213.256 275.174 213.256 275.174L195.829 219.629C195.829 219.629 203.579 219.065 214.485 211.309C221.896 206.048 230.766 197.478 239.643 183.513C261.582 149.011 284.539 141.529 284.539 141.529" fill="white"/>
<mask id="mask5_1025_2184" style="mask-type:luminance" maskUnits="userSpaceOnUse" x="195" y="141" width="104" height="135">
<path d="M298.734 198.47C298.734 198.47 297.493 201.747 293.614 206.79C288.584 213.356 279.112 222.912 262.165 232.076C232.213 248.268 213.256 275.174 213.256 275.174L195.829 219.629C195.829 219.629 203.579 219.065 214.485 211.309C221.896 206.048 230.766 197.478 239.643 183.513C261.582 149.011 284.539 141.529 284.539 141.529" fill="white"/>
</mask>
<g mask="url(#mask5_1025_2184)">
<path opacity="0.4" d="M293.633 206.79C288.603 213.356 279.131 222.912 262.184 232.076C232.232 248.268 213.275 275.174 213.275 275.174L195.848 219.628C195.848 219.628 203.598 219.065 214.504 211.308C223.432 211.065 239.323 215.187 247.291 227.948C247.291 227.955 273.23 215.2 293.633 206.79Z" fill="#1E4646"/>
<path d="M225.025 209.139C225.025 209.139 219.822 217.593 206.375 222.899" stroke="#263238" stroke-linecap="round" stroke-linejoin="round"/>
<path d="M265.403 230.739C262.203 232.076 248.942 236.243 245.902 238.374" stroke="#263238" stroke-linecap="round" stroke-linejoin="round"/>
<path d="M239.829 189.868C239.829 189.868 242.856 178.988 247.291 172.396" stroke="#263238" stroke-linecap="round" stroke-linejoin="round"/>
</g>
<path d="M298.734 198.47C298.734 198.47 297.493 201.747 293.614 206.79C288.584 213.356 279.112 222.912 262.165 232.076C232.213 248.268 213.256 275.174 213.256 275.174L195.829 219.629C195.829 219.629 203.579 219.065 214.485 211.309C221.896 206.048 230.766 197.478 239.643 183.513C261.582 149.011 284.539 141.529 284.539 141.529" stroke="#263238" stroke-linecap="round" stroke-linejoin="round"/>
<path d="M137.595 238.041L118.888 240.288C118.888 240.288 105.825 244.269 102.67 247.104C99.5148 249.939 95.3676 257.542 95.3676 257.542C95.3676 257.542 90.7724 258.413 88.4172 257.542C88.1529 257.469 87.9067 257.343 87.694 257.17C87.4814 256.997 87.307 256.781 87.182 256.537C86.8818 255.823 86.667 255.075 86.542 254.31C86.2082 251.915 86.1738 249.488 86.4396 247.085C86.4396 247.085 83.3676 242.694 83.2396 240.896C83.1116 239.097 83.7644 231.686 85.6204 229.613C85.6955 229.524 85.7791 229.442 85.87 229.369C87.918 227.731 99.6044 222.534 99.6044 222.534C99.6044 222.534 102.235 218.585 108.667 217.414C115.099 216.243 128.98 220.339 128.98 220.339L130.996 224.473L137.595 238.041Z" fill="white"/>
<path opacity="0.4" d="M86.5552 254.329C86.2214 251.934 86.187 249.507 86.4528 247.104C86.4528 247.104 83.3808 242.713 83.2528 240.915C83.1248 239.117 83.7776 231.705 85.6336 229.632C83.4832 233.92 83.912 240.454 86.9136 238.374C90.568 235.814 94.3376 241.024 94.3376 241.024C90.3504 243.091 87.432 250.137 86.5552 254.329Z" fill="#1E4646"/>
<path opacity="0.4" d="M137.595 238.041L118.888 240.288C118.888 240.288 105.825 244.269 102.67 247.104C99.5151 249.939 95.3679 257.542 95.3679 257.542C95.3679 257.542 90.7727 258.413 88.4175 257.542C90.5807 256.902 93.7167 254.47 94.3119 251.213C95.1567 246.579 102.958 242.406 102.664 238.816C102.369 235.225 96.3855 229.369 96.3855 229.369C99.8927 228.608 103.054 230.79 103.054 230.79C101.696 229.151 100.087 227.739 98.2863 226.605C105.153 225.862 106.472 230.72 106.472 230.72C108.392 231.149 112.872 229.369 112.872 229.369C112.895 227.63 113.388 225.929 114.299 224.448L116.526 227.936C118.952 227.936 127.093 225.619 130.965 224.473L137.595 238.041Z" fill="#1E4646"/>
<path d="M87.1824 256.563C88.1872 258.899 95.3616 257.549 95.3616 257.549C95.3616 257.549 99.5152 249.939 102.67 247.104C105.826 244.269 118.888 240.281 118.888 240.281L137.595 238.041L128.974 220.358C128.974 220.358 115.093 216.269 108.661 217.44C102.229 218.611 99.5984 222.56 99.5984 222.56C99.5984 222.56 87.912 227.75 85.864 229.395C83.816 231.04 83.0864 239.117 83.2336 240.915C83.3808 242.713 86.4336 247.104 86.4336 247.104C86.4336 247.104 85.7168 253.165 87.1824 256.563Z" stroke="#263238" stroke-linecap="round" stroke-linejoin="round"/>
<path d="M87.4702 254.989C87.4702 254.989 88.6414 248.416 94.1966 246.029C94.1966 246.029 94.779 242.112 93.3198 240.307C91.8606 238.502 87.6174 242.009 87.4702 246.029C87.323 250.048 87.4702 254.989 87.4702 254.989Z" stroke="#263238" stroke-linecap="round" stroke-linejoin="round"/>
<path d="M99.5981 230.739C99.5981 230.739 109.345 235.117 104.251 246.003" stroke="#263238" stroke-linecap="round" stroke-linejoin="round"/>
<path d="M103.054 228.691C103.054 228.691 111.336 235.833 105.249 244.825" stroke="#263238" stroke-linecap="round" stroke-linejoin="round"/>
<path d="M114.324 227.238C113.858 230.396 113.858 233.604 114.324 236.761" stroke="#263238" stroke-linecap="round" stroke-linejoin="round"/>
<path d="M89.8125 238.374C89.8125 238.374 88.0589 239.212 86.8877 243.596" stroke="#263238" stroke-linecap="round" stroke-linejoin="round"/>
<path d="M88.347 230.739C88.347 230.739 85.8638 231.078 84.5518 235.994" stroke="#263238" stroke-linecap="round" stroke-linejoin="round"/>
<path d="M232.289 238.042C230.241 239.354 229.16 242.112 229.16 242.112C229.16 242.112 229.544 247.104 229.16 248.416C228.776 249.728 225.998 252.218 223.803 250.829C221.608 249.44 220.481 244.326 214.798 242.112L179.246 227.955C180.452 226.25 181.891 224.723 183.521 223.418C186.144 221.254 189.07 219.486 192.206 218.17C201.448 214.221 212.686 211.738 218.184 213.491C221.268 214.483 224.987 217.933 227.854 221.331C230.069 223.949 231.771 226.554 232.289 227.955C233.454 231.174 234.35 236.723 232.289 238.042Z" fill="white"/>
<path opacity="0.4" d="M232.289 238.042C230.241 239.354 229.16 242.112 229.16 242.112C229.16 242.112 229.544 247.104 229.16 248.416C228.776 249.728 225.998 252.218 223.803 250.829C221.608 249.44 220.481 244.326 214.798 242.112L179.246 227.955C180.452 226.25 181.891 224.723 183.521 223.418C188.392 223.418 194.805 223.878 200.059 226.054C200.059 226.054 199.7 222.106 201.748 222.554C201.748 222.554 201.23 218.56 203.438 218.362C205.646 218.163 205.128 219.642 205.128 219.642C205.128 219.642 205.128 223.667 206.913 224.48C208.699 225.293 207.649 219.738 211.08 218.963C211.08 218.963 211.272 225.222 213.281 227.251C213.281 227.251 210.997 233.85 214.113 237.12C217.23 240.39 223.073 244.288 224.353 244.16C225.633 244.032 220.91 238.336 220.91 238.336C220.91 238.336 221 232.531 224.584 231.392C228.168 230.253 231.284 233.171 231.284 233.171C230.742 229.078 229.595 225.087 227.88 221.331C230.094 223.949 231.797 226.554 232.315 227.955C233.454 231.174 234.35 236.723 232.289 238.042Z" fill="#1E4646"/>
<path d="M179.24 227.955C179.24 227.955 182.958 222.112 192.206 218.169C201.454 214.227 212.686 211.737 218.184 213.491C223.681 215.245 231.118 224.742 232.264 227.955C233.409 231.168 234.312 236.723 232.264 238.041C230.216 239.36 229.141 242.105 229.141 242.105C229.141 242.105 229.525 247.104 229.141 248.416C228.757 249.728 225.979 252.217 223.79 250.829C221.601 249.44 220.462 244.326 214.779 242.105" stroke="#263238" stroke-linecap="round" stroke-linejoin="round"/>
<path d="M220.91 238.336C220.91 238.336 221.352 232.634 224.11 232.928C226.869 233.222 228.968 239.213 229.166 246.003C229.16 246.003 226.152 240.09 220.91 238.336Z" stroke="#263238" stroke-linecap="round" stroke-linejoin="round"/>
<path d="M211.829 240.281C211.829 240.281 208.629 230.003 215.477 226.061" stroke="#263238" stroke-linecap="round" stroke-linejoin="round"/>
<path d="M211.073 220.358C211.073 220.358 208.424 229.178 211.073 234.118C211.073 234.118 204.814 229.421 200.065 231.462" stroke="#263238" stroke-linecap="round" stroke-linejoin="round"/>
<path d="M205.55 231.392C205.55 231.392 204.648 227.955 204.795 226.06C204.942 224.166 202.408 221.964 203.381 219.628" stroke="#263238" stroke-linecap="round" stroke-linejoin="round"/>
<path d="M201.742 223.865C201.742 223.865 203.835 228.627 205.128 229.388" stroke="#263238" stroke-linecap="round" stroke-linejoin="round"/>
<path d="M206.376 235.117C206.376 235.117 209.013 233.952 211.08 235.117" stroke="#263238" stroke-linecap="round" stroke-linejoin="round"/>
<path d="M226.734 226.63C226.734 226.63 230.971 226.272 231.995 234.86" stroke="#263238" stroke-linecap="round" stroke-linejoin="round"/>
<path d="M164.449 164.966C164.449 164.966 154.254 159.091 162.606 137.862C170.958 116.633 196.065 110.195 201.742 103.795C201.742 103.795 199.451 168.992 164.449 164.966Z" fill="#1E4646"/>
<mask id="mask6_1025_2184" style="mask-type:luminance" maskUnits="userSpaceOnUse" x="159" y="103" width="43" height="63">
<path d="M164.449 164.966C164.449 164.966 154.254 159.091 162.606 137.862C170.958 116.633 196.065 110.195 201.742 103.795C201.742 103.795 199.451 168.992 164.449 164.966Z" fill="white"/>
</mask>
<g mask="url(#mask6_1025_2184)">
<path opacity="0.3" d="M197.294 109.888C194.427 115.334 185.602 122.208 175.906 138.745C171.164 147.017 167.217 155.719 164.117 164.736C162.574 163.596 156.334 157.836 161.058 142.336C161.243 147.84 163.195 150.931 163.195 150.931C162.581 129.523 197.294 109.888 197.294 109.888Z" fill="black" fill-opacity="0.7"/>
</g>
<path d="M164.449 164.966C164.449 164.966 154.254 159.091 162.606 137.862C170.958 116.633 196.065 110.195 201.742 103.795C201.742 103.795 199.451 168.992 164.449 164.966Z" stroke="#263238" stroke-linecap="round" stroke-linejoin="round"/>
<path d="M165.39 138.746C165.39 138.746 163.803 150.093 167.451 157.485L169.275 152.755C169.275 152.755 181.934 152.416 188.513 144.314" stroke="#263238" stroke-linecap="round" stroke-linejoin="round"/>
<path d="M172.315 129.126C172.315 129.126 169.441 139.757 171.47 147.187L172.315 143.475C172.315 143.475 188.18 139.366 191.553 134.47" stroke="#263238" stroke-linecap="round" stroke-linejoin="round"/>
<path d="M180.533 122.24C180.533 122.24 176.693 130.169 176.782 136.755L178.658 133.555C178.658 133.555 192.059 130.995 194.427 126.803" stroke="#263238" stroke-linecap="round" stroke-linejoin="round"/>
<path d="M188.513 115.392C185.717 119.232 182.395 127.904 182.395 127.904L185.454 124.422C185.454 124.422 193.019 122.451 195.848 118.758" stroke="#263238" stroke-linecap="round" stroke-linejoin="round"/>
<path d="M152.296 220.96C152.296 220.96 156.648 144.313 193.582 115.36C193.582 115.36 159.317 143.667 157.55 220.96H152.296Z" fill="#1E4646"/>
<mask id="mask7_1025_2184" style="mask-type:luminance" maskUnits="userSpaceOnUse" x="152" y="115" width="42" height="106">
<path d="M152.296 220.96C152.296 220.96 156.648 144.313 193.582 115.36C193.582 115.36 159.317 143.667 157.55 220.96H152.296Z" fill="white"/>
</mask>
<g mask="url(#mask7_1025_2184)">
<path opacity="0.3" d="M152.296 220.96C152.296 220.96 156.648 144.313 193.582 115.36C193.582 115.36 159.317 143.667 157.55 220.96H152.296Z" fill="black" fill-opacity="0.7"/>
</g>
<path d="M152.296 220.96C152.296 220.96 156.648 144.313 193.582 115.36C193.582 115.36 159.317 143.667 157.55 220.96H152.296Z" stroke="#263238" stroke-linecap="round" stroke-linejoin="round"/>
<path d="M148.84 141.062C148.84 141.062 157.96 135.808 150.485 116.819C143.009 97.8302 120.558 92.0702 115.483 86.3486C115.483 86.3486 117.531 144.64 148.84 141.062Z" fill="#1E4646"/>
<mask id="mask8_1025_2184" style="mask-type:luminance" maskUnits="userSpaceOnUse" x="115" y="86" width="39" height="56">
<path d="M148.84 141.062C148.84 141.062 157.96 135.808 150.485 116.819C143.009 97.8302 120.558 92.0702 115.483 86.3486C115.483 86.3486 117.531 144.64 148.84 141.062Z" fill="white"/>
</mask>
<g mask="url(#mask8_1025_2184)">
<path opacity="0.3" d="M150.51 116.806C150.112 115.781 149.63 114.79 149.07 113.843C147.924 111.923 150.811 117.613 150.868 122.208C150.91 123.357 150.69 124.501 150.225 125.553C149.761 126.605 149.064 127.538 148.187 128.281C147.611 125.273 147.297 122.118 145.857 119.411C138.523 105.561 121.396 93.011 118.676 90.9438C118.971 91.315 128.347 103.104 133.895 109.888C136.871 113.542 138.849 118.15 140.807 122.393C143.291 127.789 145.518 133.273 147.726 138.803C148.033 139.577 148.366 140.345 148.654 141.113C151.137 139.565 152.494 136.685 153.07 133.811C154.017 128.902 152.891 123.827 151.323 119.091C151.073 118.317 150.811 117.555 150.51 116.806Z" fill="black" fill-opacity="0.7"/>
</g>
<path d="M148.84 141.062C148.84 141.062 157.96 135.808 150.485 116.819C143.009 97.8302 120.558 92.0702 115.483 86.3486C115.483 86.3486 117.531 144.64 148.84 141.062Z" stroke="#263238" stroke-linecap="round" stroke-linejoin="round"/>
<path d="M147.995 117.613C147.995 117.613 149.416 127.757 146.152 134.368L144.52 130.138C144.52 130.138 133.198 129.837 127.31 122.592" stroke="#263238" stroke-linecap="round" stroke-linejoin="round"/>
<path d="M141.806 109.004C141.806 109.004 144.366 118.515 142.561 125.158L141.806 121.836C141.806 121.836 127.611 118.163 124.597 113.785" stroke="#263238" stroke-linecap="round" stroke-linejoin="round"/>
<path d="M134.453 102.816C134.453 102.816 137.883 109.914 137.806 115.802L136.129 112.928C136.129 112.928 124.142 110.662 122.049 106.893" stroke="#263238" stroke-linecap="round" stroke-linejoin="round"/>
<path d="M127.31 96.7168C129.819 100.179 132.789 107.91 132.789 107.91L130.03 104.8C130.03 104.8 123.265 103.034 120.737 99.7312" stroke="#263238" stroke-linecap="round" stroke-linejoin="round"/>
<path d="M158.19 188.038C158.19 188.038 155.822 122.592 122.792 96.6719C122.792 96.6719 154.594 125.158 155.061 198.464C155.061 198.464 156.098 198.669 156.654 196.979" fill="#1E4646"/>
<mask id="mask9_1025_2184" style="mask-type:luminance" maskUnits="userSpaceOnUse" x="122" y="96" width="37" height="103">
<path d="M158.19 188.038C158.19 188.038 155.822 122.592 122.792 96.6719C122.792 96.6719 154.594 125.158 155.061 198.464C155.061 198.464 156.098 198.669 156.654 196.979" fill="white"/>
</mask>
<g mask="url(#mask9_1025_2184)">
<path opacity="0.3" d="M158.19 188.038C158.19 188.038 155.822 122.592 122.792 96.6719C122.792 96.6719 154.594 125.158 155.061 198.464C155.061 198.464 156.098 198.669 156.654 196.979" fill="black" fill-opacity="0.7"/>
</g>
<path d="M158.19 188.038C158.19 188.038 155.822 122.592 122.792 96.6719C122.792 96.6719 154.594 125.158 155.061 198.464C155.061 198.464 156.098 198.669 156.654 196.979" stroke="#263238" stroke-linecap="round" stroke-linejoin="round"/>
<path d="M104.782 247.488C104.782 247.488 102.581 245.747 104.782 240.307C106.472 236.14 111.969 236.345 112.27 231.987C114.523 232.268 116.321 230.777 117.486 228.953C118.651 227.129 119.592 224.94 121.537 223.98C122.177 223.686 122.817 223.526 123.406 223.212C125.717 221.984 126.517 218.662 129.013 217.907C130.485 217.459 132.213 218.067 133.563 217.382C134.913 216.697 135.579 214.822 137.045 214.182C137.674 213.99 138.315 213.843 138.965 213.74C141.557 213.062 143.227 209.9 145.909 209.971C146.683 210.003 147.515 210.316 148.206 209.971C148.75 209.702 149.077 209.081 149.64 208.864C150.124 208.749 150.631 208.769 151.105 208.921C152.603 209.244 154.162 209.114 155.585 208.55C156.865 207.968 157.16 206.272 157.941 205.888C161.045 204.358 164.526 210.316 166.325 211.808C167.374 212.684 168.558 210.444 169.921 210.496C171.163 210.547 171.797 212.467 173.025 212.313C172.456 212.761 172.782 213.753 173.409 214.118C174.08 214.399 174.801 214.536 175.528 214.521C177.294 214.707 178.888 215.635 180.424 216.537C180.699 216.67 180.94 216.865 181.128 217.107C181.313 217.388 181.352 217.747 181.544 218.022C181.947 218.592 182.881 218.662 183.182 219.264C183.277 219.589 183.333 219.924 183.349 220.262C183.547 221.209 184.667 221.638 185.633 221.708C186.6 221.779 187.637 221.664 188.462 222.176C189.033 222.646 189.553 223.176 190.011 223.756C191.931 225.619 194.158 225.516 195.931 227.872C197.787 230.336 199.041 233.03 201.691 234.809C206.171 237.824 207.451 242.073 208.673 246.022C209.896 249.971 192.533 259.801 157.473 262.316C122.414 264.832 104.321 250.15 104.782 247.488Z" fill="#263238"/>
<path opacity="0.4" d="M137.493 220.16C138.273 220.365 139.413 220.314 139.509 219.52C139.492 219.34 139.505 219.158 139.547 218.982C139.752 218.509 140.481 218.874 140.987 218.758C141.365 218.669 141.595 218.298 141.87 218.029C142.223 217.705 142.678 217.515 143.156 217.491C143.634 217.468 144.105 217.613 144.488 217.901C144.929 218.259 145.224 218.81 145.729 219.066C146.677 219.539 148.232 219.008 148.584 220" stroke="white" stroke-linecap="round" stroke-linejoin="round"/>
<path opacity="0.4" d="M150.99 225.158C151.209 225.299 151.457 225.388 151.716 225.419C151.974 225.45 152.236 225.422 152.482 225.338C152.728 225.254 152.952 225.115 153.137 224.932C153.322 224.749 153.463 224.527 153.55 224.282C153.621 224.026 153.646 223.725 153.864 223.565C154.197 223.328 154.645 223.648 155.054 223.686C155.867 223.77 156.334 222.822 156.865 222.214C157.188 221.854 157.6 221.586 158.06 221.437C158.521 221.289 159.012 221.267 159.484 221.372C159.956 221.476 160.392 221.705 160.746 222.035C161.1 222.364 161.36 222.782 161.499 223.245L166.325 224.525" stroke="white" stroke-linecap="round" stroke-linejoin="round"/>
<path opacity="0.4" d="M159.246 214.995C160.073 214.731 160.938 214.607 161.806 214.63C161.692 214.361 161.667 214.063 161.735 213.778C161.803 213.494 161.959 213.239 162.182 213.05C162.406 212.862 162.683 212.749 162.975 212.729C163.266 212.71 163.556 212.784 163.803 212.941C164.008 212.754 164.25 212.613 164.513 212.527C164.777 212.441 165.056 212.413 165.331 212.443C165.607 212.473 165.873 212.562 166.111 212.703C166.35 212.844 166.556 213.034 166.715 213.261L166.907 214.067C168.167 214.485 169.337 215.136 170.357 215.987" stroke="white" stroke-linecap="round" stroke-linejoin="round"/>
<path opacity="0.4" d="M172.642 221.011L173.922 221.389C173.71 221.056 174.107 220.646 174.498 220.57C174.888 220.571 175.276 220.503 175.643 220.371C176.027 220.141 176.142 219.654 176.392 219.283C176.642 218.912 177.269 218.701 177.48 219.091C177.429 218.682 177.883 218.349 178.299 218.362C178.717 218.417 179.11 218.59 179.432 218.861L182.709 221.139" stroke="white" stroke-linecap="round" stroke-linejoin="round"/>
<path d="M94.0942 257.542C94.0942 257.542 97.7998 250.995 102.67 247.104C107.541 243.213 111.048 238.214 115.336 232.915C119.624 227.616 125.857 220.896 128.974 220.358C132.091 219.821 139.105 220.825 139.886 227.238C139.886 227.238 144.654 221.478 151.329 225.51C158.005 229.542 154.689 237.165 154.689 237.165C154.689 237.165 157.121 236.192 158.632 237.165C160.142 238.137 164.443 289.715 164.443 289.715C161.981 290.333 159.568 291.133 157.224 292.109C153.525 293.664 148.846 293.862 145.704 292.109C145.704 292.109 139.861 293.619 135.963 293.35C132.065 293.081 121.544 292.889 117.845 291.91C113.77 290.732 109.802 289.21 105.985 287.36C103.202 285.772 100.908 283.45 99.355 280.646C98.1902 278.278 96.0462 277.504 92.731 273.51C89.4158 269.517 94.0942 257.542 94.0942 257.542Z" fill="white"/>
<path opacity="0.4" d="M158.632 237.165C157.173 236.23 154.856 237.101 154.696 237.165C154.985 236.437 155.199 235.683 155.336 234.912L151.336 243.341C151.336 243.341 145.147 251.392 142.933 255.001C140.718 258.611 142.613 258.989 139.893 264.736C137.173 270.483 133.192 281.478 128.981 282.368C124.769 283.257 115.822 280.198 114.158 275.891C112.494 271.584 116.507 268.544 121.429 262.304C126.35 256.064 128.392 253.728 128.001 250.835C127.611 247.942 137.601 230.509 138.241 229.446C137.979 229.792 136.437 231.859 134.504 234.413C135.368 232.797 136.113 231.12 136.731 229.395L127.521 225.517C127.521 225.517 118.465 235.155 123.336 238.841C126.011 240.87 128.661 240.902 131.125 238.841C129.205 241.357 127.317 243.693 126.261 244.845C123.336 248.045 122.747 251.597 121.435 253.696C120.123 255.795 114.913 264.512 110.421 267.661C105.928 270.809 103.272 271.673 99.6109 269.702C97.1149 268.352 95.5661 260.941 94.8237 256.377C94.3565 257.113 94.1069 257.561 94.1069 257.561C94.1069 257.561 89.4349 269.529 92.7501 273.523C96.0653 277.517 98.2029 278.291 99.3677 280.659C100.922 283.451 103.208 285.768 105.979 287.36C109.808 289.21 113.786 290.734 117.87 291.917C121.569 292.883 132.091 293.081 135.989 293.35C139.886 293.619 145.729 292.109 145.729 292.109C148.846 293.862 153.518 293.67 157.249 292.109C159.39 291.223 161.585 290.477 163.822 289.875C164.027 289.613 164.219 289.337 164.424 289.062C163.893 283.104 160.046 238.08 158.632 237.165Z" fill="#1E4646"/>
<path opacity="0.4" d="M143.15 229.389C143.15 229.389 133.87 240.134 140.27 244.825C146.67 249.517 153.601 240.576 153.902 233.171L143.15 229.389Z" fill="#1E4646"/>
<path d="M164.45 289.715L163.81 289.875C161.573 290.477 159.377 291.223 157.237 292.109C153.531 293.67 148.859 293.862 145.717 292.109C145.717 292.109 139.874 293.625 135.976 293.35C132.078 293.075 121.557 292.883 117.858 291.917C113.777 290.733 109.804 289.209 105.979 287.36C103.201 285.764 100.911 283.441 99.3552 280.64C98.1904 278.272 96.0464 277.504 92.7376 273.504C89.4288 269.504 94.0944 257.542 94.0944 257.542C94.0944 257.542 94.344 257.094 94.8112 256.358C96.0912 254.291 99.0736 249.958 102.67 247.104C107.541 243.2 111.048 238.214 115.336 232.915C119.624 227.616 125.858 220.896 128.974 220.358C132.091 219.821 139.106 220.825 139.886 227.238C139.886 227.238 144.654 221.478 151.33 225.51C155.701 228.166 155.81 232.345 155.33 234.905C155.193 235.676 154.979 236.431 154.69 237.158C154.85 237.101 157.166 236.23 158.626 237.158C160.085 238.086 163.886 283.097 164.386 289.056C164.424 289.485 164.45 289.715 164.45 289.715Z" stroke="#263238" stroke-linecap="round" stroke-linejoin="round"/>
<path d="M139.886 227.238C137.742 228.979 126.049 251.046 123.886 253.677C121.723 256.307 115.701 263.801 113.07 266.56C111.217 268.662 109.644 270.996 108.392 273.504C106.714 275.19 104.908 276.744 102.99 278.15" stroke="#263238" stroke-linecap="round" stroke-linejoin="round"/>
<path d="M154.689 237.165C152.793 240.377 151.084 243.695 149.569 247.104C147.649 251.629 142.164 263.174 139.88 267.584C137.595 271.993 133.934 282.048 131.304 283.661C128.673 285.273 124.872 288.921 122.536 288.627" stroke="#263238" stroke-linecap="round" stroke-linejoin="round"/>
<path d="M124.59 289.92C124.59 289.92 123.95 288.486 124.59 288.153" stroke="#263238" stroke-linecap="round" stroke-linejoin="round"/>
<path d="M147.374 290.624C147.374 290.624 152.641 285.587 153.371 281.907C154.1 278.227 164.443 249.267 164.443 249.267" stroke="#263238" stroke-linecap="round" stroke-linejoin="round"/>
<path d="M127.508 225.51C127.508 225.51 133.505 225.12 136.718 229.389C136.718 229.389 131.892 241.402 126.049 238.349C120.206 235.296 127.508 225.51 127.508 225.51Z" fill="white" stroke="#263238" stroke-linecap="round" stroke-linejoin="round"/>
<path d="M143.15 229.389C143.15 229.389 149.173 229.177 153.902 233.171C153.902 233.171 150.747 246.662 143.15 244.614C135.553 242.566 140.661 233.741 143.15 229.389Z" fill="white" stroke="#263238" stroke-linecap="round" stroke-linejoin="round"/>
<path d="M156.155 240.915C156.155 240.915 152.789 245.984 153.23 249.683C153.672 253.382 158.632 252.697 158.632 252.697" stroke="#263238" stroke-linecap="round" stroke-linejoin="round"/>
<path d="M131.016 253.677C131.016 253.677 135.15 256.736 139.15 257.549" stroke="#263238" stroke-linecap="round" stroke-linejoin="round"/>
<path d="M96.3853 259.232C96.3853 259.232 96.9741 266.272 98.4333 268.73C99.8925 271.187 109.716 271.066 109.716 271.066" stroke="#263238" stroke-linecap="round" stroke-linejoin="round"/>
<path d="M112.168 275.885C113.796 278.76 116.307 281.033 119.33 282.368C124.45 284.653 127.995 283.648 127.995 283.648" stroke="#263238" stroke-linecap="round" stroke-linejoin="round"/>
<path d="M136.718 286.112C136.718 286.112 144.462 289.664 149.141 286.867" stroke="#263238" stroke-linecap="round" stroke-linejoin="round"/>
<path d="M115.093 242.105C115.093 242.105 116.744 245.945 120.085 246.829" stroke="#263238" stroke-linecap="round" stroke-linejoin="round"/>
<path d="M147.374 266.56C149.015 267.915 151.064 268.679 153.192 268.73" stroke="#263238" stroke-linecap="round" stroke-linejoin="round"/>
<path d="M221.326 270.771C221.326 270.771 216.648 279.245 211.682 281.587C206.715 283.93 202.619 283.053 199.701 284.787C196.782 286.522 191.81 287.418 185.09 288.589C178.37 289.76 171.598 291.219 166.798 290.342C165.136 290.024 163.531 289.459 162.037 288.666C158.809 286.88 155.884 284.595 153.371 281.894C150.984 279.443 151.189 275.494 152.795 272.832C153.143 272.184 153.621 271.614 154.197 271.157C154.774 270.701 155.438 270.367 156.149 270.176C156.149 270.176 154.542 268.896 152.731 267.277C150.766 265.523 148.578 263.36 147.976 261.99C146.798 259.36 147.093 254.688 151.176 250.592C152.351 249.399 153.766 248.47 155.327 247.867C156.888 247.263 158.56 246.999 160.232 247.091C160.232 247.091 153.973 241.971 156.43 235.981C157.32 233.818 158.907 230.957 163.739 230.138C170.658 228.966 174.555 232.915 174.555 232.915C174.555 232.915 173.461 226.054 180.437 224.595C187.413 223.136 202.619 234.24 205.55 235.706C207.656 236.755 210.958 239.162 214.062 241.075L214.805 241.536C215.662 242.048 216.501 242.515 217.275 242.886C220.891 245.517 221.986 249.67 223.81 250.829C224.324 251.119 224.91 251.256 225.5 251.224C226.089 251.192 226.657 250.993 227.138 250.65C227.259 250.835 227.374 251.014 227.47 251.187C228.923 253.818 232.43 264.96 221.326 270.771Z" fill="white"/>
<path opacity="0.4" d="M221.326 270.771C221.326 270.771 216.648 279.245 211.682 281.587C206.715 283.93 202.619 283.053 199.701 284.787C196.782 286.522 191.81 287.418 185.09 288.589C178.37 289.76 171.598 291.219 166.798 290.342C165.136 290.024 163.531 289.459 162.037 288.666C165.666 288.39 168.437 286.573 169.717 283.846C171.323 280.467 166.549 280.211 165.403 282.349C164.258 284.486 157.397 283.718 158.606 282.349C159.816 280.979 157.397 273.971 156.123 273.03C155.579 272.614 154.203 272.653 152.77 272.832C153.118 272.184 153.595 271.614 154.172 271.157C154.749 270.701 155.413 270.367 156.123 270.176C156.123 270.176 154.517 268.896 152.706 267.277L157.186 269.933C157.186 269.933 166.786 278.253 172.027 282.349C177.269 286.445 187.208 285.472 189.819 282.349C192.43 279.226 180.584 269.498 176.885 266.541C173.301 263.686 171.72 258.906 171.63 258.611C171.944 258.906 181.64 268.294 186.99 274.56C192.456 280.96 198.152 279.04 204.341 276.154C210.53 273.267 207.067 265.011 205.09 263.046C203.112 261.082 194.402 253.517 193.032 251.219C191.662 248.922 182.152 240.806 181.512 240.294C182.152 240.717 192.68 247.533 194.19 249.254C195.701 250.976 199.65 253.734 205.512 257.92C211.374 262.106 215.822 266.963 220.155 257.92C223.131 251.699 217.691 244.781 214.005 241.062L214.747 241.523C215.605 242.035 216.443 242.502 217.218 242.874C220.834 245.504 221.928 249.658 223.752 250.816C224.266 251.106 224.853 251.243 225.442 251.211C226.032 251.179 226.6 250.98 227.08 250.637C227.202 250.822 227.317 251.002 227.413 251.174C228.923 253.818 232.43 264.96 221.326 270.771Z" fill="#1E4646"/>
<path opacity="0.4" d="M162.03 244.006C162.856 241.976 164.145 240.166 165.794 238.722C167.443 237.277 169.406 236.238 171.528 235.686C171.528 235.686 178.689 240.652 178.689 244.742C178.689 248.832 175.931 252 170.811 250.419C165.691 248.838 162.03 244.006 162.03 244.006Z" fill="#1E4646"/>
<path opacity="0.4" d="M179.24 233.664C179.24 233.664 182.171 229.862 186.696 228.697C186.696 228.697 196.123 235.859 192.577 239.654C189.032 243.449 180.699 238.63 179.24 233.664Z" fill="#1E4646"/>
<path opacity="0.4" d="M152.296 261.85C152.296 261.85 155.906 256.205 161.211 254.688C161.211 254.688 172.174 260.877 166.619 265.747C161.064 270.618 153.614 264.48 152.296 261.85Z" fill="#1E4646"/>
<path d="M221.326 270.771C221.326 270.771 216.648 279.245 211.681 281.587C206.715 283.93 202.619 283.053 199.7 284.787C196.782 286.522 191.809 287.418 185.089 288.589C178.369 289.76 171.598 291.219 166.798 290.342C161.998 289.466 157.473 286.099 153.358 281.894C149.761 278.195 152.046 271.059 156.136 270.176C156.136 270.176 149.128 264.621 147.963 261.99C146.798 259.36 147.08 254.688 151.163 250.592C152.338 249.399 153.753 248.47 155.314 247.867C156.875 247.263 158.547 246.999 160.219 247.091C160.219 247.091 153.96 241.971 156.417 235.981C157.307 233.818 158.894 230.957 163.726 230.138C170.645 228.966 174.542 232.915 174.542 232.915C174.542 232.915 173.448 226.054 180.424 224.595C187.4 223.136 202.619 234.24 205.55 235.706C207.822 236.845 211.502 239.546 214.805 241.536C215.662 242.048 216.501 242.515 217.275 242.886C220.891 245.517 221.985 249.67 223.809 250.829C224.324 251.119 224.91 251.256 225.499 251.224C226.089 251.192 226.657 250.993 227.137 250.65C227.259 250.835 227.374 251.014 227.47 251.187C228.923 253.818 232.43 264.96 221.326 270.771Z" stroke="#263238" stroke-linecap="round" stroke-linejoin="round"/>
<path d="M174.562 232.96C175.541 235.213 184.43 243.2 188.27 245.542C192.11 247.885 202.818 259.571 205.934 261.12C209.051 262.669 211.778 267.552 215.477 268.723" stroke="#263238" stroke-linecap="round" stroke-linejoin="round"/>
<path d="M160.245 247.104C165.601 251.584 171.643 259.181 174.561 261.325C177.48 263.469 184.11 270.874 187.035 274.573C189.96 278.272 191.905 280.806 203.4 282.368" stroke="#263238" stroke-linecap="round" stroke-linejoin="round"/>
<path d="M207.47 271.065C207.47 271.065 206.696 278.105 195.95 279.443" stroke="#263238" stroke-linecap="round" stroke-linejoin="round"/>
<path d="M220.353 250.829C220.353 250.829 223.272 259.181 215.477 262.297" stroke="#263238" stroke-linecap="round" stroke-linejoin="round"/>
<path d="M156.155 270.188C156.155 270.188 163.713 276.518 166.798 278.272C169.883 280.025 173.979 284.704 177.096 285.676C179.135 286.241 181.29 286.241 183.329 285.676" stroke="#263238" stroke-linecap="round" stroke-linejoin="round"/>
<path d="M191.406 278.918C190.602 280.267 189.536 281.44 188.27 282.368" stroke="#263238" stroke-linecap="round" stroke-linejoin="round"/>
<path d="M160.245 242.861C161.068 240.828 162.356 239.017 164.005 237.572C165.654 236.127 167.619 235.089 169.742 234.541C169.742 234.541 176.904 239.507 176.904 243.603C176.904 247.699 174.139 250.854 169.019 249.273C163.899 247.693 160.245 242.861 160.245 242.861Z" fill="white" stroke="#263238" stroke-linecap="round" stroke-linejoin="round"/>
<path d="M178.068 232.96C178.068 232.96 181 229.158 185.524 227.987C185.524 227.987 194.958 235.148 191.406 238.95C187.854 242.752 179.534 237.894 178.068 232.96Z" fill="white" stroke="#263238" stroke-linecap="round" stroke-linejoin="round"/>
<path d="M151.33 260.838C151.33 260.838 154.933 255.187 160.245 253.677C160.245 253.677 171.202 259.866 165.653 264.736C160.104 269.606 152.648 263.469 151.33 260.838Z" fill="white" stroke="#263238" stroke-linecap="round" stroke-linejoin="round"/>
<path d="M153.902 279.168C153.902 279.168 158.984 278.138 160.232 273.504C160.232 273.504 165.429 277.517 162.434 280.64C158.03 285.242 153.902 279.168 153.902 279.168Z" fill="white" stroke="#263238" stroke-linecap="round" stroke-linejoin="round"/>
<path d="M198.382 248.416C199.273 247.922 200.039 247.232 200.622 246.396C201.204 245.561 201.587 244.603 201.742 243.597" stroke="#263238" stroke-linecap="round" stroke-linejoin="round"/>
<path d="M189.179 253.677C189.179 253.677 188.046 260.077 181.819 261.126" stroke="#263238" stroke-linecap="round" stroke-linejoin="round"/>
<path d="M173.55 268.729C173.55 268.729 170.99 272.435 167.227 273.504" stroke="#263238" stroke-linecap="round" stroke-linejoin="round"/>
<path d="M175.854 285.133C174.802 286.659 173.343 287.861 171.643 288.602" stroke="#263238" stroke-linecap="round" stroke-linejoin="round"/>
<path d="M180.45 286.112C180.515 286.549 180.493 286.994 180.383 287.422C180.273 287.849 180.078 288.251 179.81 288.601" stroke="#263238" stroke-linecap="round" stroke-linejoin="round"/>
<path d="M162.292 287.36C163.552 287.255 164.771 286.866 165.859 286.221C166.946 285.577 167.873 284.695 168.571 283.642" stroke="#263238" stroke-linecap="round" stroke-linejoin="round"/>
</svg>
