<svg width="98" height="98" viewBox="0 0 98 98" fill="none" xmlns="http://www.w3.org/2000/svg">
<path d="M7.4641 56.3145C5.67151 53.4666 4.34582 50.607 3.48703 47.7356C2.62831 44.8642 2.19894 42.0186 2.19894 39.1989C2.19894 32.3521 4.61226 26.5154 9.4389 21.6888C14.2656 16.8621 20.0952 14.4487 26.9276 14.4487C31.1222 14.4487 35.116 15.4251 38.909 17.3777C42.7021 19.3304 46.0658 22.0605 49.0001 25.5681C51.9344 22.0605 55.298 19.3304 59.091 17.3777C62.8841 15.4251 66.8779 14.4487 71.0725 14.4487C77.905 14.4487 83.7345 16.8621 88.5611 21.6888C93.3878 26.5154 95.8012 32.3524 95.8012 39.1999C95.8012 41.9194 95.3759 44.7045 94.5252 47.555C93.6745 50.4055 92.3513 53.2874 90.5557 56.2006C89.9979 55.645 89.401 55.1796 88.7651 54.8043C88.1292 54.4291 87.4697 54.1066 86.7865 53.8371C88.2984 51.2855 89.4328 48.8009 90.1898 46.3834C90.9468 43.9658 91.3254 41.5752 91.3254 39.2115C91.3254 33.563 89.3563 28.7697 85.4183 24.8316C81.4802 20.8936 76.6908 18.9246 71.0501 18.9246C67.7834 18.9246 64.2753 19.9546 60.5257 22.0145C56.7761 24.0746 52.9342 27.5991 49.0001 32.588C45.0659 27.5991 41.224 24.0746 37.4745 22.0145C33.7249 19.9546 30.2167 18.9246 26.9501 18.9246C21.3094 18.9246 16.5199 20.8936 12.5818 24.8316C8.6438 28.7697 6.67479 33.5538 6.67479 39.1837C6.67479 41.5791 7.05301 44.0083 7.80944 46.4714C8.56595 48.9344 9.69411 51.3962 11.1939 53.8567C10.5244 54.197 9.86424 54.5667 9.2135 54.9658C8.56289 55.365 7.97975 55.8146 7.4641 56.3145ZM2.15576 87.8699V83.6806C2.15576 81.2298 3.50309 79.2083 6.19775 77.616C8.89248 76.0236 12.3761 75.2274 16.6487 75.2274C17.5107 75.2274 18.3168 75.2566 19.0672 75.3151C19.8176 75.3736 20.5331 75.4529 21.2138 75.5533C20.7558 76.5793 20.4045 77.6417 20.1598 78.7403C19.9152 79.8389 19.7929 80.9802 19.7929 82.1641V87.8699H2.15576ZM26.6558 87.8699V82.2986C26.6558 78.4748 28.7217 75.3849 32.8534 73.0289C36.9852 70.6731 42.3751 69.4951 49.0232 69.4951C55.7217 69.4951 61.1283 70.6731 65.243 73.0289C69.3577 75.3849 71.4151 78.4748 71.4151 82.2986V87.8699H26.6558ZM78.2115 87.8699V82.1641C78.2115 80.9802 78.1023 79.8389 77.8837 78.7403C77.6651 77.6417 77.3268 76.5793 76.8687 75.5533C77.5665 75.4529 78.2925 75.3736 79.0469 75.3151C79.8012 75.2566 80.5829 75.2274 81.3918 75.2274C85.7421 75.2274 89.2503 76.0236 91.9162 77.616C94.5822 79.2083 95.9151 81.2298 95.9151 83.6806V87.8699H78.2115ZM49.0056 73.971C43.6517 73.971 39.3028 74.7549 35.9589 76.3228C32.6151 77.8907 30.9824 79.973 31.061 82.5696V83.3941H67.0099V82.5067C67.0885 79.952 65.4643 77.8907 62.1374 76.3228C58.8106 74.7549 54.4333 73.971 49.0056 73.971ZM16.6572 71.8508C14.9436 71.8508 13.4921 71.2475 12.3027 70.041C11.1134 68.8344 10.5187 67.3742 10.5187 65.6604C10.5187 63.9634 11.1171 62.5227 12.314 61.3383C13.5109 60.1538 14.9594 59.5616 16.6596 59.5616C18.3425 59.5616 19.7945 60.1577 21.0156 61.3499C22.2366 62.5421 22.8471 63.9795 22.8471 65.6622C22.8471 67.3622 22.2397 68.8186 21.0248 70.0315C19.81 71.2444 18.3541 71.8508 16.6572 71.8508ZM81.4014 71.8508C79.7041 71.8508 78.2567 71.2475 77.0592 70.041C75.8617 68.8344 75.2629 67.3742 75.2629 65.6604C75.2629 63.9634 75.8654 62.5227 77.0704 61.3383C78.2755 60.1538 79.7225 59.5616 81.4113 59.5616C83.1154 59.5616 84.5714 60.1577 85.7794 61.3499C86.9874 62.5421 87.5913 63.9795 87.5913 65.6622C87.5913 67.3622 86.9921 68.8186 85.7936 70.0315C84.5951 71.2444 83.1311 71.8508 81.4014 71.8508ZM49.0082 66.2755C46.0921 66.2755 43.6139 65.2525 41.5736 63.2065C39.5332 61.1605 38.513 58.6677 38.513 55.7282C38.513 52.7597 39.5341 50.268 41.5763 48.2531C43.6183 46.2383 46.098 45.2309 49.0153 45.2309C51.9611 45.2309 54.4547 46.2389 56.4958 48.2547C58.5371 50.2706 59.5577 52.7639 59.5577 55.7347C59.5577 58.6473 58.5431 61.1322 56.5138 63.1895C54.4845 65.2469 51.9826 66.2755 49.0082 66.2755ZM49.0001 49.7068C47.317 49.7068 45.8944 50.2832 44.7322 51.4361C43.5701 52.5889 42.989 54.0162 42.989 55.718C42.989 57.4141 43.5701 58.8517 44.7322 60.0309C45.8944 61.2101 47.3288 61.7997 49.0354 61.7997C50.7158 61.7997 52.1437 61.2101 53.319 60.0309C54.4943 58.8517 55.0819 57.399 55.0819 55.6727C55.0819 54.0119 54.4974 52.6024 53.3285 51.4441C52.1597 50.2859 50.7168 49.7068 49.0001 49.7068Z" fill="#4B6B6B"/>
</svg>
