<svg width="98" height="98" viewBox="0 0 98 98" fill="none" xmlns="http://www.w3.org/2000/svg">
<path d="M23.4245 78.4746C20.6821 75.6158 18.5215 72.3197 16.9427 68.5865C15.3641 64.8533 14.5747 61.0276 14.5747 57.1093C14.5747 52.6147 15.3783 48.4152 16.9854 44.5108C18.5925 40.6066 21.0178 37.0497 24.2612 33.8404C26.7292 31.3615 29.8538 29.3526 33.6348 27.8137C37.4158 26.2747 41.6621 25.1035 46.3737 24.3C51.0852 23.4964 56.1599 23.0265 61.5978 22.8904C67.0356 22.7543 72.6809 22.8485 78.5336 23.1731C78.9471 29.031 79.1002 34.6992 78.993 40.1776C78.8856 45.6561 78.4334 50.7583 77.6364 55.4842C76.8394 60.2101 75.6517 64.4703 74.0734 68.2648C72.495 72.0592 70.4469 75.2175 67.9292 77.7397C64.7116 80.9868 61.2059 83.4268 57.4122 85.0597C53.6186 86.6925 49.6306 87.5089 45.4483 87.5089C41.1625 87.5089 37.1526 86.7557 33.4188 85.2493C29.6849 83.7429 26.3535 81.4847 23.4245 78.4746ZM31.7088 79.0407C33.5672 80.3464 35.6979 81.3349 38.1008 82.0063C40.5037 82.6777 42.9579 83.0199 45.4633 83.033C48.9357 83.0461 52.3399 82.334 55.6759 80.8965C59.012 79.459 62.0571 77.3338 64.8112 74.5209C66.4627 72.8424 67.9134 70.6228 69.1635 67.8621C70.4136 65.1015 71.4617 61.7733 72.3078 57.8774C73.1539 53.9816 73.7461 49.5021 74.0843 44.439C74.4225 39.3758 74.466 33.6827 74.2147 27.3596C68.661 27.2227 63.4511 27.2812 58.5849 27.5351C53.7186 27.789 49.3105 28.2929 45.3606 29.0467C41.4108 29.8006 37.9386 30.8136 34.9441 32.0857C31.9497 33.3578 29.5324 34.9413 27.6922 36.8364C24.8156 39.7419 22.6561 42.8542 21.2139 46.1732C19.7717 49.4922 19.0506 52.747 19.0506 55.9377C19.0506 59.2152 19.7494 62.6278 21.1471 66.1758C22.5449 69.7237 24.3929 72.5866 26.6911 74.7644C29.4316 68.7519 32.9764 63.2938 37.3253 58.3899C41.6743 53.486 46.7699 49.3326 52.6122 45.9298C47.139 50.6989 42.6867 55.7682 39.2551 61.1377C35.8235 66.507 33.3081 72.4747 31.7088 79.0407Z" fill="#4B6B6B"/>
</svg>
