<svg width="98" height="98" viewBox="0 0 98 98" fill="none" xmlns="http://www.w3.org/2000/svg">
<path d="M18.169 44.0985C17.7488 43.6597 17.5387 43.1302 17.5387 42.51C17.5387 41.8898 17.7413 41.3542 18.1464 40.9032L29.9732 29.0744L23.8442 22.9218L20.8132 25.9019C20.3368 26.3836 19.7891 26.6244 19.17 26.6244C18.551 26.6244 18.0341 26.3848 17.6193 25.9056C17.1729 25.5288 16.9497 25.0257 16.9497 24.3962C16.9497 23.7667 17.1696 23.2282 17.6094 22.7806L26.8125 13.6167C27.2419 13.1691 27.7662 12.9453 28.3852 12.9453C29.0042 12.9453 29.5446 13.1767 30.0064 13.6396C30.3794 14.0457 30.566 14.5631 30.566 15.1917C30.566 15.8201 30.3817 16.3123 30.0132 16.668L26.9263 19.832L33.1259 25.9923L44.9911 14.0643C45.4336 13.6508 45.9667 13.444 46.5905 13.444C47.2144 13.444 47.7491 13.6521 48.1948 14.0684C48.5612 14.4971 48.7445 15.024 48.7445 15.649C48.7445 16.274 48.5612 16.8137 48.1948 17.2681L45.0735 20.3502L77.4298 52.6437C78.5056 53.806 79.0434 55.1742 79.0434 56.7484C79.0434 58.3225 78.5056 59.6686 77.4298 60.7868L72.6515 65.4747L89.1733 82.0279H82.9503L69.5695 68.6471L64.7912 73.3351C63.6838 74.458 62.347 75.0194 60.7806 75.0194C59.2143 75.0194 57.8499 74.458 56.6874 73.3351L24.4646 40.9787L21.3629 44.1C20.8829 44.5686 20.3376 44.8029 19.7269 44.8029C19.1162 44.8029 18.5969 44.5681 18.169 44.0985ZM27.4445 37.8966L59.8401 70.1823C60.0626 70.431 60.3538 70.5553 60.7138 70.5553C61.0737 70.5553 61.3845 70.431 61.6463 70.1823L74.175 57.6144C74.4367 57.3788 74.5676 57.0843 74.5676 56.7309C74.5676 56.3776 74.4367 56.0831 74.175 55.8475L66.2871 47.8497L59.1963 54.9406C58.7389 55.425 58.2139 55.6698 57.6213 55.6749C57.0289 55.68 56.5205 55.4613 56.0964 55.0186C55.6554 54.5933 55.4349 54.0723 55.4349 53.4554C55.4349 52.8384 55.6564 52.3072 56.0994 51.8619L63.1972 44.7479L53.9351 35.4348L46.8442 42.5257C46.3808 43.0073 45.8306 43.2481 45.1934 43.2481C44.5562 43.2481 44.0385 43.0105 43.6404 42.5351C43.2268 42.175 43.0201 41.6722 43.0201 41.0267C43.0201 40.3811 43.2191 39.8576 43.6172 39.4561L50.6803 32.3331L41.8893 23.4911L27.4445 37.8966ZM26.9263 37.3783L27.1815 37.1231L27.8293 36.4753L40.5072 23.7975L41.1158 23.1889L41.371 22.9337L26.9263 37.3783Z" fill="#4B6B6B"/>
</svg>
