<svg width="25" height="24" viewBox="0 0 25 24" fill="none" xmlns="http://www.w3.org/2000/svg">
<path d="M21.5935 4.61012C21.0828 4.09912 20.4764 3.69376 19.8089 3.4172C19.1414 3.14064 18.426 2.99829 17.7035 2.99829C16.9811 2.99829 16.2656 3.14064 15.5982 3.4172C14.9307 3.69376 14.3243 4.09912 13.8135 4.61012L12.7535 5.67012L11.6935 4.61012C10.6618 3.57842 9.26257 2.99883 7.80354 2.99883C6.3445 2.99883 4.94523 3.57842 3.91354 4.61012C2.88184 5.64181 2.30225 7.04108 2.30225 8.50012C2.30225 9.95915 2.88184 11.3584 3.91354 12.3901L4.97354 13.4501L12.7535 21.2301L20.5335 13.4501L21.5935 12.3901C22.1045 11.8794 22.5099 11.2729 22.7865 10.6055C23.063 9.93801 23.2054 9.2226 23.2054 8.50012C23.2054 7.77763 23.063 7.06222 22.7865 6.39476C22.5099 5.7273 22.1045 5.12087 21.5935 4.61012Z" stroke="#343434" stroke-linecap="round" stroke-linejoin="round"/>
</svg>
